<svg width="550" height="208" viewBox="0 0 550 208" fill="none" xmlns="http://www.w3.org/2000/svg">
<path d="M35.2074 37.3191C35.2074 43.7216 37.4286 62.0928 46.3133 84.3578C55.198 106.623 58.4404 118.199 58.9511 121.205M203.711 167.459C204.604 157.006 204.86 132.024 198.732 115.717C191.073 95.3334 189.924 100.037 181.499 87.1017C173.074 74.166 153.926 52.9986 128.65 51.8227C103.375 50.6467 95.3325 58.8785 83.4606 64.3663C71.5888 69.8542 50.9089 87.8857 50.5259 99.2533C50.1429 110.621 48.2281 126.301 55.1214 136.884C62.0148 147.468 82.3117 171.771 92.6517 171.771C102.992 171.771 123.289 172.163 131.714 163.932C138.454 157.346 147.032 147.337 148.564 143.156M149.33 121.205C151.117 133.879 148.794 162.442 125.203 175.299M186.094 87.1017C187.116 100.168 187.32 128.809 179.967 138.844C170.776 151.388 139.756 178.435 130.182 181.179C120.608 183.923 94.1836 187.451 82.3117 179.611M76.9503 4C90.0986 8.05055 119.229 18.8956 130.565 29.8713C144.735 43.5909 157.755 67.8942 153.543 121.989C149.371 175.557 108.353 187.059 87.2903 196.859C66.2273 206.658 4.1875 203.522 4.1875 203.522" stroke="#FF8000" stroke-width="8" stroke-linecap="round" stroke-linejoin="round"/>
<path d="M86.1414 124.341C86.5243 125.909 86.9367 126.301 87.2902 127.085C89.588 132.18 95.7154 131.004 95.7154 132.18C95.7154 133.356 106.474 133.167 102.992 132.572C96.0984 131.396 105.289 131.004 110.268 129.437C114.251 128.182 117.289 125.517 118.31 124.341M91.1199 108.269L91.5028 108.661L91.1199 109.053L90.7369 108.661L91.1199 108.269ZM120.608 96.5094L121.374 96.9014L120.608 97.2934L119.842 96.9014L120.608 96.5094Z" stroke="#FF8000" stroke-width="8" stroke-linecap="round" stroke-linejoin="round"/>
<path d="M268.188 107.75C268.188 116.417 270.292 123.583 274.5 129.25C278.75 134.875 284.562 137.688 291.938 137.688C296.271 137.688 299.979 136.875 303.062 135.25C306.188 133.625 308.688 131.5 310.562 128.875V161.75C310.562 162.855 311.458 163.75 312.562 163.75H316.5C317.605 163.75 318.5 162.855 318.5 161.75V79.1875C318.5 78.0829 317.605 77.1875 316.5 77.1875H313.094C312.001 77.1875 311.111 78.0637 311.094 79.1558L311 85.0625H310.812C309.146 82.4375 306.812 80.2708 303.812 78.5625C300.854 76.8125 297.042 75.9375 292.375 75.9375C285.042 75.9375 279.167 78.75 274.75 84.375C270.375 90 268.188 97.125 268.188 105.75V107.75ZM276.25 107.75V105.75C276.25 99.125 277.667 93.6667 280.5 89.375C283.375 85.0833 287.875 82.9375 294 82.9375C298.083 82.9375 301.542 83.9583 304.375 86C307.25 88.0417 309.312 90.5 310.562 93.375V119.812C309.354 122.688 307.312 125.229 304.438 127.438C301.604 129.646 298.125 130.75 294 130.75C287.875 130.75 283.375 128.583 280.5 124.25C277.667 119.917 276.25 114.417 276.25 107.75Z" fill="#FF8000"/>
<path d="M334.188 134.437C334.188 135.542 335.083 136.438 336.187 136.438H340.125C341.23 136.438 342.125 135.542 342.125 134.438V94.125C343.792 90.875 345.896 88.2083 348.438 86.125C351.021 84.0417 354.062 83 357.562 83C361.604 83 364.729 84.0625 366.938 86.1875C369.146 88.2708 370.25 91.9792 370.25 97.3125V134.438C370.25 135.542 371.145 136.438 372.25 136.438H376.188C377.292 136.438 378.188 135.542 378.188 134.438V94.125C379.812 90.8333 381.917 88.1667 384.5 86.125C387.083 84.0417 390.125 83 393.625 83C397.667 83 400.771 84.0417 402.938 86.125C405.146 88.2083 406.25 91.9375 406.25 97.3125V134.438C406.25 135.542 407.145 136.438 408.25 136.438H412.188C413.292 136.438 414.188 135.542 414.188 134.437V97.4375C414.188 89.7292 412.521 84.2292 409.188 80.9375C405.896 77.6042 401.479 75.9375 395.938 75.9375C391.771 75.9375 388.042 76.8333 384.75 78.625C381.458 80.375 378.729 83 376.562 86.5H376.438C375.271 82.9583 373.25 80.3125 370.375 78.5625C367.542 76.8125 364.083 75.9375 360 75.9375C356.125 75.9375 352.667 76.8125 349.625 78.5625C346.625 80.3125 344.042 82.7083 341.875 85.75H341.688L341.591 79.1583C341.575 78.0652 340.685 77.1875 339.591 77.1875H336.187C335.083 77.1875 334.188 78.0829 334.188 79.1875V134.437Z" fill="#FF8000"/>
<path d="M425.312 107.75C425.312 116.833 427.625 124.125 432.25 129.625C436.875 135.083 443.438 137.812 451.938 137.812C457.604 137.812 462.292 136.688 466 134.438C469.089 132.563 471.469 130.516 473.142 128.295C473.716 127.533 473.556 126.474 472.852 125.829L470.643 123.806C469.722 122.963 468.267 123.167 467.468 124.125C466.027 125.854 464.246 127.333 462.125 128.562C459.292 130.188 455.854 131 451.812 131C445.729 131 441.104 128.854 437.938 124.562C434.771 120.229 433.188 114.625 433.188 107.75V105.75C433.188 98.9167 434.667 93.375 437.625 89.125C440.625 84.8333 445.062 82.6875 450.938 82.6875C456.521 82.6875 460.521 84.5208 462.938 88.1875C465.396 91.8542 466.625 96.0625 466.625 100.812V101.438H429.812V108.062H472.562C473.667 108.062 474.562 107.167 474.562 106.062V104.875C474.562 95.7083 472.521 88.5833 468.438 83.5C464.396 78.375 458.521 75.8125 450.812 75.8125C443.146 75.8125 436.979 78.5833 432.312 84.125C427.646 89.625 425.312 96.8333 425.312 105.75V107.75Z" fill="#FF8000"/>
<path d="M486.062 134.438C486.062 135.542 486.958 136.438 488.063 136.438H491.938C493.042 136.438 493.938 135.542 493.938 134.437V46.25C493.938 45.1454 493.042 44.25 491.937 44.25H488.062C486.958 44.25 486.062 45.1454 486.062 46.25V134.438Z" fill="#FF8000"/>
<path d="M503.562 134.437C503.562 135.542 504.458 136.438 505.563 136.438H545.813C546.917 136.438 547.812 135.542 547.812 134.438V131.563C547.812 130.458 546.917 129.562 545.812 129.562H513.312L546.187 83.7728C546.431 83.4329 546.562 83.0249 546.562 82.6064V79.1875C546.562 78.0829 545.667 77.1875 544.562 77.1875H506.062C504.958 77.1875 504.062 78.0829 504.062 79.1875V82.0625C504.062 83.1671 504.958 84.0625 506.062 84.0625H536.75L503.937 129.853C503.693 130.192 503.562 130.6 503.562 131.018V134.437Z" fill="#FF8000"/>
</svg>
