<svg width="32" height="32" viewBox="0 0 32 32" fill="none" xmlns="http://www.w3.org/2000/svg">
<path fill-rule="evenodd" clip-rule="evenodd" d="M28.5017 5.46856C29.8794 5.83734 30.9622 6.91999 31.3309 8.29767C31.9973 10.7922 32 16 32 16C32 16 32 21.2078 31.3309 23.7024C30.9622 25.08 29.8794 26.1627 28.5017 26.5314C26.0073 27.2005 15.9999 27.2005 15.9999 27.2005C15.9999 27.2005 5.99275 27.2005 3.49818 26.5314C2.12052 26.1627 1.03787 25.08 0.669081 23.7024C0 21.2078 0 16 0 16C0 16 0 10.7922 0.669081 8.29767C1.03787 6.91999 2.12052 5.83734 3.49818 5.46856C5.99275 4.79948 15.9999 4.79948 15.9999 4.79948C15.9999 4.79948 26.0073 4.79948 28.5017 5.46856ZM21.1104 16.0005L12.7969 20.7999V11.201L21.1104 16.0005Z" fill="#FF9487"/>
</svg>
