<svg width="521" height="137" viewBox="0 0 521 137" fill="none" xmlns="http://www.w3.org/2000/svg">
<g filter="url(#filter0_d)">
<path d="M38.3441 118C27.344 100.295 10.8441 73 32.844 65C49.3708 58.9902 55.844 84 55.844 84C55.844 84 59.4237 60.405 77.344 64.9999C96.844 69.9999 87.3441 94 73.3441 118M140.17 65.7952C118.67 61.2952 104.27 81.7952 111.67 100.295C119.07 118.795 141.67 116.795 151.67 106.795C161.67 96.7952 161.67 70.2952 140.17 65.7952ZM140.17 65.7952C151.895 67.6968 159.344 78 173.344 116.5" stroke="#4169E1" stroke-width="16" stroke-linecap="round" stroke-linejoin="round"/>
<path d="M38.3441 118C27.344 100.295 10.8441 73 32.844 65C49.3708 58.9902 55.844 84 55.844 84C55.844 84 59.4237 60.405 77.344 64.9999C96.844 69.9999 87.3441 94 73.3441 118M140.17 65.7952C118.67 61.2952 104.27 81.7952 111.67 100.295C119.07 118.795 141.67 116.795 151.67 106.795C161.67 96.7952 161.67 70.2952 140.17 65.7952ZM140.17 65.7952C151.895 67.6968 159.344 78 173.344 116.5" stroke="black" stroke-opacity="0.6" stroke-width="16" stroke-linecap="round" stroke-linejoin="round"/>
<path d="M292.844 115.795C281.844 98.0905 268.147 66.0412 288.844 61.7953C307.344 58 309.844 82.5001 309.844 82.5001C309.844 82.5001 312.844 59 330.844 61.7953C350.736 64.8844 336.844 94.7047 326.344 117M391.344 63.7953C369.844 59.2953 355.444 80.5 362.844 99C370.244 117.5 392.344 117.5 403.844 106.5C415.344 95.5 414.344 68.6092 391.344 63.7953ZM391.344 63.7953C403.069 65.6968 410.844 71.5 430.344 117.5M451.5 114C474 120 497.878 118.469 501.5 104.5C505 91 493.025 84.9917 475 91C458.5 96.5 437.5 95 440.5 74.5C443.013 57.3264 473 56.5 491.5 67.5" stroke="#FF341C" stroke-width="16" stroke-linecap="round" stroke-linejoin="round"/>
<path d="M292.844 115.795C281.844 98.0905 268.147 66.0412 288.844 61.7953C307.344 58 309.844 82.5001 309.844 82.5001C309.844 82.5001 312.844 59 330.844 61.7953C350.736 64.8844 336.844 94.7047 326.344 117M391.344 63.7953C369.844 59.2953 355.444 80.5 362.844 99C370.244 117.5 392.344 117.5 403.844 106.5C415.344 95.5 414.344 68.6092 391.344 63.7953ZM391.344 63.7953C403.069 65.6968 410.844 71.5 430.344 117.5M451.5 114C474 120 497.878 118.469 501.5 104.5C505 91 493.025 84.9917 475 91C458.5 96.5 437.5 95 440.5 74.5C443.013 57.3264 473 56.5 491.5 67.5" stroke="black" stroke-opacity="0.6" stroke-width="16" stroke-linecap="round" stroke-linejoin="round"/>
<path d="M233.844 73C224.344 63.7952 208.844 61.9655 199.344 69.5C183.583 82 187.344 102.955 202.344 112.5C213.344 119.5 226.844 116 233.844 107.5M254.844 61C255.844 73.6666 257.544 102 256.344 114M259.344 30C258.844 34.5 258.344 38.5 251.844 38C245.344 37.5 243.844 34.5 243.844 30C243.844 25.5 247.844 22 251.844 22C255.844 22 259.844 25.5 259.344 30Z" stroke="white" stroke-width="16" stroke-linecap="round" stroke-linejoin="round"/>
<path d="M233.844 73C224.344 63.7952 208.844 61.9655 199.344 69.5C183.583 82 187.344 102.955 202.344 112.5C213.344 119.5 226.844 116 233.844 107.5M254.844 61C255.844 73.6666 257.544 102 256.344 114M259.344 30C258.844 34.5 258.344 38.5 251.844 38C245.344 37.5 243.844 34.5 243.844 30C243.844 25.5 247.844 22 251.844 22C255.844 22 259.844 25.5 259.344 30Z" stroke="black" stroke-opacity="0.6" stroke-width="16" stroke-linecap="round" stroke-linejoin="round"/>
<path d="M34.3441 114C23.344 96.2952 6.8441 69 28.844 61C45.3708 54.9902 51.844 80 51.844 80C51.844 80 55.4237 56.405 73.344 60.9999C92.844 65.9999 83.3441 90 69.3441 114M136.17 61.7952C114.67 57.2952 100.27 77.7952 107.67 96.2952C115.07 114.795 137.67 112.795 147.67 102.795C157.67 92.7952 157.67 66.2952 136.17 61.7952ZM136.17 61.7952C147.895 63.6968 155.344 74 169.344 112.5" stroke="#4169E1" stroke-width="16" stroke-linecap="round" stroke-linejoin="round"/>
<path d="M288.844 111.795C277.844 94.0905 264.147 62.0412 284.844 57.7953C303.344 54 305.844 78.5001 305.844 78.5001C305.844 78.5001 308.844 55 326.844 57.7953C346.736 60.8844 332.844 90.7047 322.344 113M387.344 59.7953C365.844 55.2953 351.444 76.5 358.844 95C366.244 113.5 388.344 113.5 399.844 102.5C411.344 91.5 410.344 64.6092 387.344 59.7953ZM387.344 59.7953C399.069 61.6968 406.844 67.5 426.344 113.5M447.5 110C470 116 493.878 114.469 497.5 100.5C501 87 489.025 80.9917 471 87C454.5 92.5 433.5 91 436.5 70.5C439.013 53.3264 469 52.5 487.5 63.5" stroke="#FF341C" stroke-width="16" stroke-linecap="round" stroke-linejoin="round"/>
<path d="M229.844 69C220.344 59.7952 204.844 57.9655 195.344 65.5C179.583 78 183.344 98.9545 198.344 108.5C209.344 115.5 222.844 112 229.844 103.5M250.844 57C251.844 69.6666 253.544 97.9999 252.344 110M255.344 26C254.844 30.5 254.344 34.5 247.844 34C241.344 33.5 239.844 30.5 239.844 26C239.844 21.5 243.844 18 247.844 18C251.844 18 255.844 21.5 255.344 26Z" stroke="white" stroke-width="16" stroke-linecap="round" stroke-linejoin="round"/>
</g>
<defs>
<filter id="filter0_d" x="-0.000137329" y="0" width="520.108" height="136.001" filterUnits="userSpaceOnUse" color-interpolation-filters="sRGB">
<feFlood flood-opacity="0" result="BackgroundImageFix"/>
<feColorMatrix in="SourceAlpha" type="matrix" values="0 0 0 0 0 0 0 0 0 0 0 0 0 0 0 0 0 0 127 0"/>
<feOffset/>
<feGaussianBlur stdDeviation="5"/>
<feColorMatrix type="matrix" values="0 0 0 0 0 0 0 0 0 0 0 0 0 0 0 0 0 0 1 0"/>
<feBlend mode="normal" in2="BackgroundImageFix" result="effect1_dropShadow"/>
<feBlend mode="normal" in="SourceGraphic" in2="effect1_dropShadow" result="shape"/>
</filter>
</defs>
</svg>
