<svg width="32" height="32" viewBox="0 0 32 32" fill="none" xmlns="http://www.w3.org/2000/svg">
<path fill-rule="evenodd" clip-rule="evenodd" d="M11.5666 3.85845C9.34336 4.2329 7.21412 4.88421 5.21557 5.77569C5.11517 5.82047 5.01509 5.86586 4.91536 5.91185C4.53911 6.43903 4.1817 6.98058 3.84409 7.53551C3.5578 8.00609 3.28576 8.4863 3.02857 8.97554C1.86319 11.1923 1.00266 13.5944 0.502699 16.126C0.454338 16.3709 0.409351 16.617 0.367788 16.8643C0.12591 18.3032 0 19.7815 0 21.2892C0 22.2114 0.047102 23.1225 0.139032 24.0204C1.25297 24.8539 2.43468 25.6018 3.67441 26.2544C5.1289 27.02 6.66325 27.6543 8.2617 28.1416C8.90483 27.2926 9.46519 26.3774 9.93076 25.4081C9.00475 25.0657 8.11563 24.6472 7.27099 24.1602C7.52105 23.967 7.76525 23.7667 8.00325 23.5594C8.74441 23.9408 9.51633 24.2709 10.3143 24.5449C12.097 25.157 14.0097 25.4892 16 25.4892C17.9903 25.4892 19.903 25.157 21.6857 24.5449C22.4837 24.2709 23.2556 23.9408 23.9968 23.5594C24.2348 23.7667 24.4789 23.967 24.729 24.1602C23.8844 24.6472 22.9953 25.0657 22.0692 25.4081C22.5348 26.3774 23.0952 27.2926 23.7383 28.1416C25.3368 27.6543 26.8711 27.02 28.3256 26.2544C29.5653 25.6018 30.747 24.8539 31.861 24.0204C31.9529 23.1225 32 22.2114 32 21.2892C32 19.7815 31.8741 18.3032 31.6322 16.8643C31.5906 16.617 31.5457 16.3709 31.4973 16.126C30.9973 13.5944 30.1368 11.1923 28.9714 8.97554C28.7142 8.4863 28.4422 8.00609 28.1559 7.53551C27.8183 6.98058 27.4609 6.43904 27.0846 5.91186C26.9849 5.86586 26.8848 5.82047 26.7844 5.77569C24.7859 4.88421 22.6567 4.2329 20.4334 3.85845C20.2525 4.19132 20.083 4.53133 19.9255 4.87795C22.0067 5.18699 24.009 5.738 25.9028 6.50148C25.6445 6.73006 25.3935 6.96686 25.1504 7.21148C23.3605 6.55291 21.4799 6.082 19.5324 5.82259C18.3768 5.66866 17.1977 5.58921 16 5.58921C14.8023 5.58921 13.6232 5.66866 12.4676 5.82259C10.5201 6.082 8.63946 6.55291 6.84955 7.21148C6.60647 6.96686 6.35554 6.73006 6.09716 6.50148C7.99099 5.738 9.99328 5.18698 12.0745 4.87794C11.917 4.53133 11.7475 4.19132 11.5666 3.85845ZM10.75 14.0892C9.17598 14.0892 7.89999 15.5219 7.89999 17.2892C7.89999 19.0493 9.16557 20.4775 10.7307 20.4891L10.75 20.4892C10.9686 20.4892 11.1815 20.4616 11.386 20.4092C12.6538 20.0848 13.6 18.811 13.6 17.2892C13.6 16.5669 13.3869 15.9005 13.0274 15.365C12.5332 14.6288 11.7624 14.1398 10.8884 14.0929C10.8426 14.0904 10.7964 14.0892 10.75 14.0892ZM24.1 17.2892C24.1 15.5219 22.824 14.0892 21.25 14.0892C21.2036 14.0892 21.1574 14.0905 21.1116 14.0929C20.2376 14.1398 19.4668 14.6288 18.9726 15.365C18.6131 15.9005 18.4 16.5669 18.4 17.2892C18.4 18.8111 19.3462 20.0848 20.614 20.4092C20.8185 20.4616 21.0314 20.4892 21.25 20.4892L21.2693 20.4891C22.8344 20.4775 24.1 19.0493 24.1 17.2892Z" fill="#A1B8FF"/>
</svg>
