<svg width="32" height="32" viewBox="0 0 32 32" fill="none" xmlns="http://www.w3.org/2000/svg">
<path fill-rule="evenodd" clip-rule="evenodd" d="M29.9799 13C29.9932 13.2483 30 13.4984 30 13.75V16H2.5V13.75C2.5 13.4984 2.50676 13.2483 2.52011 13C2.90956 5.75486 8.90772 0 16.25 0C23.5923 0 29.5904 5.75486 29.9799 13ZM5.52576 13C5.9108 7.41285 10.5651 3 16.25 3C21.9349 3 26.5892 7.41285 26.9742 13H5.52576Z" fill="#DEDFE6"/>
<path fill-rule="evenodd" clip-rule="evenodd" d="M30 13H2.5V18.25C2.5 25.8439 8.65609 32 16.25 32C23.8439 32 30 25.8439 30 18.25V13ZM20 20.5C20 22.066 19.1001 23.4218 17.7892 24.0785L20 28.5H12L14.2108 24.0785C12.8999 23.4218 12 22.066 12 20.5C12 18.2909 13.7909 16.5 16 16.5C18.2091 16.5 20 18.2909 20 20.5Z" fill="#DEDFE6"/>
</svg>
