<svg width="78" height="16" viewBox="0 0 78 16" fill="none" xmlns="http://www.w3.org/2000/svg">
<path d="M1.92609 3.27274V12H0.92041V3.27274H1.92609Z" fill="white"/>
<path d="M6.06716 12.1364C5.47625 12.1364 4.95778 11.9958 4.51176 11.7145C4.06858 11.4333 3.72199 11.0398 3.47199 10.5341C3.22483 10.0284 3.10125 9.43751 3.10125 8.76138C3.10125 8.07956 3.22483 7.48439 3.47199 6.97586C3.72199 6.46734 4.06858 6.07245 4.51176 5.7912C4.95778 5.50995 5.47625 5.36933 6.06716 5.36933C6.65807 5.36933 7.17511 5.50995 7.61829 5.7912C8.06432 6.07245 8.41091 6.46734 8.65807 6.97586C8.90807 7.48439 9.03307 8.07956 9.03307 8.76138C9.03307 9.43751 8.90807 10.0284 8.65807 10.5341C8.41091 11.0398 8.06432 11.4333 7.61829 11.7145C7.17511 11.9958 6.65807 12.1364 6.06716 12.1364ZM6.06716 11.233C6.51602 11.233 6.88534 11.1179 7.17511 10.8878C7.46488 10.6577 7.67937 10.3551 7.81858 9.98013C7.95778 9.60513 8.02739 9.19888 8.02739 8.76138C8.02739 8.32388 7.95778 7.9162 7.81858 7.53836C7.67937 7.16052 7.46488 6.85513 7.17511 6.62217C6.88534 6.38922 6.51602 6.27274 6.06716 6.27274C5.61829 6.27274 5.24898 6.38922 4.9592 6.62217C4.66943 6.85513 4.45494 7.16052 4.31574 7.53836C4.17653 7.9162 4.10693 8.32388 4.10693 8.76138C4.10693 9.19888 4.17653 9.60513 4.31574 9.98013C4.45494 10.3551 4.66943 10.6577 4.9592 10.8878C5.24898 11.1179 5.61829 11.233 6.06716 11.233Z" fill="white"/>
<path d="M12.8503 14.5909C12.3645 14.5909 11.9469 14.5284 11.5974 14.4034C11.248 14.2813 10.9568 14.1193 10.7238 13.9176C10.4937 13.7188 10.3105 13.5057 10.1741 13.2784L10.9753 12.7159C11.0662 12.8352 11.1812 12.9716 11.3204 13.125C11.4596 13.2813 11.65 13.4162 11.8915 13.5298C12.1358 13.6463 12.4554 13.7046 12.8503 13.7046C13.3787 13.7046 13.8148 13.5767 14.1585 13.321C14.5023 13.0654 14.6741 12.6648 14.6741 12.1193V10.7898H14.5889C14.515 10.9091 14.4099 11.0568 14.2736 11.233C14.14 11.4063 13.9469 11.5611 13.694 11.6975C13.444 11.831 13.1059 11.8977 12.6798 11.8977C12.1514 11.8977 11.677 11.7727 11.2565 11.5227C10.8389 11.2727 10.5079 10.9091 10.2636 10.4318C10.0221 9.95456 9.9014 9.37501 9.9014 8.69319C9.9014 8.02274 10.0193 7.43893 10.2551 6.94177C10.4909 6.44177 10.819 6.05541 11.2395 5.78268C11.6599 5.50711 12.1457 5.36933 12.6969 5.36933C13.123 5.36933 13.4611 5.44035 13.7111 5.5824C13.9639 5.7216 14.1571 5.88069 14.2906 6.05967C14.427 6.23581 14.5321 6.38069 14.6059 6.49433H14.7082V5.45456H15.6798V12.1875C15.6798 12.75 15.552 13.2074 15.2963 13.5597C15.0434 13.9148 14.7025 14.1747 14.2736 14.3395C13.8474 14.5071 13.373 14.5909 12.8503 14.5909ZM12.8162 10.9943C13.2196 10.9943 13.5605 10.902 13.8389 10.7173C14.1173 10.5327 14.329 10.2671 14.4738 9.92047C14.6187 9.57388 14.6912 9.1591 14.6912 8.67615C14.6912 8.20456 14.6202 7.78836 14.4781 7.42757C14.3361 7.06677 14.1258 6.7841 13.8474 6.57956C13.569 6.37501 13.2253 6.27274 12.8162 6.27274C12.39 6.27274 12.0349 6.38069 11.7508 6.5966C11.4696 6.81251 11.2579 7.10228 11.1159 7.46592C10.9767 7.82956 10.9071 8.23297 10.9071 8.67615C10.9071 9.13069 10.9781 9.53268 11.1202 9.88211C11.265 10.2287 11.4781 10.5014 11.7594 10.7003C12.0434 10.8963 12.3957 10.9943 12.8162 10.9943Z" fill="white"/>
<path d="M19.8198 12.1364C19.2289 12.1364 18.7104 11.9958 18.2644 11.7145C17.8212 11.4333 17.4746 11.0398 17.2246 10.5341C16.9775 10.0284 16.8539 9.43751 16.8539 8.76138C16.8539 8.07956 16.9775 7.48439 17.2246 6.97586C17.4746 6.46734 17.8212 6.07245 18.2644 5.7912C18.7104 5.50995 19.2289 5.36933 19.8198 5.36933C20.4107 5.36933 20.9278 5.50995 21.371 5.7912C21.817 6.07245 22.1636 6.46734 22.4107 6.97586C22.6607 7.48439 22.7857 8.07956 22.7857 8.76138C22.7857 9.43751 22.6607 10.0284 22.4107 10.5341C22.1636 11.0398 21.817 11.4333 21.371 11.7145C20.9278 11.9958 20.4107 12.1364 19.8198 12.1364ZM19.8198 11.233C20.2687 11.233 20.638 11.1179 20.9278 10.8878C21.2175 10.6577 21.432 10.3551 21.5712 9.98013C21.7104 9.60513 21.78 9.19888 21.78 8.76138C21.78 8.32388 21.7104 7.9162 21.5712 7.53836C21.432 7.16052 21.2175 6.85513 20.9278 6.62217C20.638 6.38922 20.2687 6.27274 19.8198 6.27274C19.371 6.27274 19.0016 6.38922 18.7119 6.62217C18.4221 6.85513 18.2076 7.16052 18.0684 7.53836C17.9292 7.9162 17.8596 8.32388 17.8596 8.76138C17.8596 9.19888 17.9292 9.60513 18.0684 9.98013C18.2076 10.3551 18.4221 10.6577 18.7119 10.8878C19.0016 11.1179 19.371 11.233 19.8198 11.233Z" fill="white"/>
<path d="M27.9816 8.06251V12H26.9759V5.45456H27.9475V6.47728H28.0327C28.1861 6.1449 28.4191 5.87785 28.7316 5.67615C29.0441 5.4716 29.4475 5.36933 29.9418 5.36933C30.385 5.36933 30.7728 5.46024 31.1051 5.64206C31.4375 5.82103 31.6961 6.09376 31.8807 6.46024C32.0654 6.82388 32.1577 7.2841 32.1577 7.84092V12H31.152V7.9091C31.152 7.3949 31.0185 6.99433 30.7514 6.7074C30.4844 6.41762 30.1179 6.27274 29.652 6.27274C29.331 6.27274 29.0441 6.34234 28.7912 6.48155C28.5412 6.62075 28.3438 6.82388 28.1989 7.09092C28.054 7.35797 27.9816 7.68183 27.9816 8.06251Z" fill="white"/>
<path d="M36.2945 12.1364C35.7036 12.1364 35.1851 11.9958 34.7391 11.7145C34.2959 11.4333 33.9493 11.0398 33.6993 10.5341C33.4522 10.0284 33.3286 9.43751 33.3286 8.76138C33.3286 8.07956 33.4522 7.48439 33.6993 6.97586C33.9493 6.46734 34.2959 6.07245 34.7391 5.7912C35.1851 5.50995 35.7036 5.36933 36.2945 5.36933C36.8854 5.36933 37.4025 5.50995 37.8456 5.7912C38.2917 6.07245 38.6383 6.46734 38.8854 6.97586C39.1354 7.48439 39.2604 8.07956 39.2604 8.76138C39.2604 9.43751 39.1354 10.0284 38.8854 10.5341C38.6383 11.0398 38.2917 11.4333 37.8456 11.7145C37.4025 11.9958 36.8854 12.1364 36.2945 12.1364ZM36.2945 11.233C36.7434 11.233 37.1127 11.1179 37.4025 10.8878C37.6922 10.6577 37.9067 10.3551 38.0459 9.98013C38.1851 9.60513 38.2547 9.19888 38.2547 8.76138C38.2547 8.32388 38.1851 7.9162 38.0459 7.53836C37.9067 7.16052 37.6922 6.85513 37.4025 6.62217C37.1127 6.38922 36.7434 6.27274 36.2945 6.27274C35.8456 6.27274 35.4763 6.38922 35.1865 6.62217C34.8968 6.85513 34.6823 7.16052 34.5431 7.53836C34.4039 7.9162 34.3343 8.32388 34.3343 8.76138C34.3343 9.19888 34.4039 9.60513 34.5431 9.98013C34.6823 10.3551 34.8968 10.6577 35.1865 10.8878C35.4763 11.1179 35.8456 11.233 36.2945 11.233Z" fill="white"/>
<path d="M43.2822 5.45456V6.30683H39.8901V5.45456H43.2822ZM40.8787 3.88638H41.8844V10.125C41.8844 10.4091 41.9256 10.6222 42.008 10.7642C42.0932 10.9034 42.2012 10.9972 42.3319 11.0455C42.4654 11.0909 42.606 11.1136 42.7537 11.1136C42.8645 11.1136 42.9555 11.108 43.0265 11.0966C43.0975 11.0824 43.1543 11.071 43.1969 11.0625L43.4015 11.9659C43.3333 11.9915 43.2381 12.0171 43.116 12.0426C42.9938 12.071 42.839 12.0852 42.6515 12.0852C42.3674 12.0852 42.089 12.0242 41.8162 11.902C41.5464 11.7798 41.3219 11.5938 41.143 11.3438C40.9668 11.0938 40.8787 10.7784 40.8787 10.3977V3.88638Z" fill="white"/>
<path d="M50.3647 5.45456V6.30683H46.8363V5.45456H50.3647ZM47.8931 12V4.55115C47.8931 4.17615 47.9812 3.86365 48.1573 3.61365C48.3335 3.36365 48.5622 3.17615 48.8434 3.05115C49.1247 2.92615 49.4215 2.86365 49.734 2.86365C49.9812 2.86365 50.1829 2.88353 50.3391 2.92331C50.4954 2.96308 50.6119 3.00001 50.6886 3.0341L50.3988 3.90342C50.3477 3.88637 50.2766 3.86507 50.1857 3.8395C50.0977 3.81393 49.9812 3.80115 49.8363 3.80115C49.5039 3.80115 49.2639 3.88495 49.1161 4.05257C48.9712 4.22018 48.8988 4.46592 48.8988 4.78978V12H47.8931Z" fill="white"/>
<path d="M53.8037 12.1364C53.2128 12.1364 52.6943 11.9958 52.2483 11.7145C51.8051 11.4333 51.4585 11.0398 51.2085 10.5341C50.9614 10.0284 50.8378 9.43751 50.8378 8.76138C50.8378 8.07956 50.9614 7.48439 51.2085 6.97586C51.4585 6.46734 51.8051 6.07245 52.2483 5.7912C52.6943 5.50995 53.2128 5.36933 53.8037 5.36933C54.3946 5.36933 54.9117 5.50995 55.3549 5.7912C55.8009 6.07245 56.1475 6.46734 56.3946 6.97586C56.6446 7.48439 56.7696 8.07956 56.7696 8.76138C56.7696 9.43751 56.6446 10.0284 56.3946 10.5341C56.1475 11.0398 55.8009 11.4333 55.3549 11.7145C54.9117 11.9958 54.3946 12.1364 53.8037 12.1364ZM53.8037 11.233C54.2526 11.233 54.6219 11.1179 54.9117 10.8878C55.2014 10.6577 55.4159 10.3551 55.5551 9.98013C55.6943 9.60513 55.7639 9.19888 55.7639 8.76138C55.7639 8.32388 55.6943 7.9162 55.5551 7.53836C55.4159 7.16052 55.2014 6.85513 54.9117 6.62217C54.6219 6.38922 54.2526 6.27274 53.8037 6.27274C53.3549 6.27274 52.9855 6.38922 52.6958 6.62217C52.406 6.85513 52.1915 7.16052 52.0523 7.53836C51.9131 7.9162 51.8435 8.32388 51.8435 8.76138C51.8435 9.19888 51.9131 9.60513 52.0523 9.98013C52.1915 10.3551 52.406 10.6577 52.6958 10.8878C52.9855 11.1179 53.3549 11.233 53.8037 11.233Z" fill="white"/>
<path d="M62.0698 9.32388V5.45456H63.0755V12H62.0698V10.8921H62.0016C61.8482 11.2244 61.6096 11.5071 61.2857 11.7401C60.9618 11.9702 60.5527 12.0852 60.0584 12.0852C59.6493 12.0852 59.2857 11.9957 58.9675 11.8168C58.6493 11.635 58.3993 11.3622 58.2175 10.9986C58.0357 10.6321 57.9448 10.1705 57.9448 9.61365V5.45456H58.9505V9.54547C58.9505 10.0227 59.084 10.4034 59.351 10.6875C59.6209 10.9716 59.9647 11.1136 60.3823 11.1136C60.6323 11.1136 60.8865 11.0497 61.1451 10.9219C61.4064 10.794 61.6252 10.598 61.8013 10.3338C61.9803 10.0696 62.0698 9.73297 62.0698 9.32388Z" fill="white"/>
<path d="M65.5631 8.06251V12H64.5574V5.45456H65.529V6.47728H65.6143C65.7677 6.1449 66.0006 5.87785 66.3131 5.67615C66.6256 5.4716 67.029 5.36933 67.5233 5.36933C67.9665 5.36933 68.3543 5.46024 68.6867 5.64206C69.0191 5.82103 69.2776 6.09376 69.4623 6.46024C69.6469 6.82388 69.7393 7.2841 69.7393 7.84092V12H68.7336V7.9091C68.7336 7.3949 68.6001 6.99433 68.333 6.7074C68.066 6.41762 67.6995 6.27274 67.2336 6.27274C66.9126 6.27274 66.6256 6.34234 66.3728 6.48155C66.1228 6.62075 65.9253 6.82388 65.7804 7.09092C65.6356 7.35797 65.5631 7.68183 65.5631 8.06251Z" fill="white"/>
<path d="M73.6886 12.1364C73.1431 12.1364 72.6616 11.9986 72.244 11.723C71.8263 11.4446 71.4996 11.0526 71.2638 10.5469C71.0281 10.0384 70.9102 9.43751 70.9102 8.74433C70.9102 8.05683 71.0281 7.46024 71.2638 6.95456C71.4996 6.44887 71.8278 6.05825 72.2482 5.78268C72.6687 5.50711 73.1545 5.36933 73.7056 5.36933C74.1317 5.36933 74.4684 5.44035 74.7156 5.5824C74.9656 5.7216 75.1559 5.88069 75.2866 6.05967C75.4201 6.23581 75.5238 6.38069 75.5977 6.49433H75.6829V3.27274H76.6886V12H75.717V10.9943H75.5977C75.5238 11.1136 75.4187 11.2642 75.2823 11.446C75.1459 11.625 74.9513 11.7855 74.6985 11.9276C74.4457 12.0668 74.109 12.1364 73.6886 12.1364ZM73.8249 11.233C74.2283 11.233 74.5692 11.1279 74.8477 10.9176C75.1261 10.7046 75.3377 10.4105 75.4826 10.0355C75.6275 9.65768 75.6999 9.2216 75.6999 8.72728C75.6999 8.23865 75.6289 7.81109 75.4869 7.44461C75.3448 7.0753 75.1346 6.78836 74.8562 6.58382C74.5778 6.37643 74.234 6.27274 73.8249 6.27274C73.3988 6.27274 73.0437 6.38211 72.7596 6.60086C72.4783 6.81677 72.2667 7.11081 72.1246 7.48297C71.9854 7.85228 71.9158 8.26706 71.9158 8.72728C71.9158 9.19319 71.9869 9.61649 72.1289 9.99717C72.2738 10.375 72.4869 10.6761 72.7681 10.9006C73.0522 11.1222 73.4045 11.233 73.8249 11.233Z" fill="white"/>
</svg>
