<svg width="128" height="128" viewBox="0 0 128 128" fill="none" xmlns="http://www.w3.org/2000/svg">
<path d="M74.5 79.5903C74.5 79.5903 80 88.5 84 107.09M84 107.09L74.5 115.59M84 107.09L73 109.09M84 107.09V114.09" stroke="#0C1215" stroke-width="6" stroke-linecap="round" stroke-linejoin="round"/>
<path d="M62.5 74.5903C62.5 74.5903 67 80.5 68.5 100.59M68.5 100.59L61.5 100.09M68.5 100.59L57 103.09M68.5 100.59L63.5 106.09" stroke="#0C1215" stroke-width="6" stroke-linecap="round" stroke-linejoin="round"/>
<path d="M37.5 13.0903C28.7 13.8903 26 18.5 19.5 20.5C13 22.5 7.5 30.5 15 31.5C22.5 32.5 31.0405 42.0903 30.5 52.0903C29.5 70.5903 43.3906 75.3072 52 80.0903C79 95.0903 123.559 94.86 126 89.0903C129 82 84.5 49.0903 72.5 42.0903C60.5 35.0903 61 32.5903 58.5 26.0903C56 19.5903 48.5 12.0903 37.5 13.0903Z" fill="#23282D"/>
<circle cx="38" cy="24.5903" r="4" fill="#0C1215"/>
<path d="M0.5 30C-2.07164 27.9483 17.5 20 21 20.5C28.2267 21.5324 28.5 31.4244 25.5 32.5C21.4512 33.9516 4.9029 33.5127 0.5 30Z" fill="#3D474F"/>
<path d="M122.5 80C119.7 75.2 80.5891 43.373 68.5891 37.873C56.5891 32.373 49.0891 39.873 50.0891 48.873C50.9947 57.0235 55.0891 60.873 63.0891 66.873C71.0891 72.873 92.5891 80.873 104.089 82.373C115.589 83.873 126 86 122.5 80Z" fill="#3D474F"/>
</svg>
