<svg width="144" height="96" viewBox="0 0 144 96" fill="none" xmlns="http://www.w3.org/2000/svg">
<g clip-path="url(#clip0_408_20)">
<path d="M85 19L94.5263 35.5H75.4737L85 19Z" fill="white" fill-opacity="0.2"/>
<path d="M59.5 61L66.8612 73.75H52.1388L59.5 61Z" fill="white" fill-opacity="0.06"/>
<path d="M85.5 60L90.2631 68.25H80.7369L85.5 60Z" fill="white" fill-opacity="0.1"/>
<path d="M53 28L63.3923 46H42.6077L53 28Z" fill="white" fill-opacity="0.08"/>
<path d="M73.5 51L79.9952 62.25H67.0048L73.5 51Z" fill="white" fill-opacity="0.1"/>
<path d="M63.5 17L69.9952 28.25H57.0048L63.5 17Z" fill="white" fill-opacity="0.16"/>
<path d="M51.5 55L57.9952 66.25H45.0048L51.5 55Z" fill="black" fill-opacity="0.2"/>
<path d="M92 43L102.392 61H81.6077L92 43Z" fill="black" fill-opacity="0.4"/>
<path d="M49.5 38L56.8612 50.75H42.1388L49.5 38Z" fill="black" fill-opacity="0.2"/>
<path d="M68.5 30L73.2631 38.25H63.7369L68.5 30Z" fill="black" fill-opacity="0.3"/>
<path fill-rule="evenodd" clip-rule="evenodd" d="M72 0C120 0 140 40 144 48C140 56 120 96 72 96C24 96 4 56 0 48C4 40 24 0 72 0ZM72 84C91.8822 84 108 67.8822 108 48C108 28.1177 91.8822 12 72 12C52.1177 12 36 28.1177 36 48C36 67.8822 52.1177 84 72 84Z" fill="white"/>
<circle cx="72" cy="48" r="31.5" stroke="white" stroke-width="3"/>
<path d="M51.5369 57L58.3892 43.4318V43.3295H50.3438V39.5455H63.2983V43.3295L56.4119 57H51.5369ZM65.4013 57V53.5909L71.9126 48.2045C72.3445 47.8466 72.7138 47.5114 73.0206 47.1989C73.3331 46.8807 73.5717 46.554 73.7365 46.2188C73.907 45.8835 73.9922 45.5114 73.9922 45.1023C73.9922 44.6534 73.8956 44.2699 73.7024 43.9517C73.5149 43.6335 73.2536 43.3892 72.9183 43.2188C72.5831 43.0426 72.1967 42.9545 71.7592 42.9545C71.3217 42.9545 70.9354 43.0426 70.6001 43.2188C70.2706 43.3949 70.0149 43.6534 69.8331 43.9943C69.6513 44.3352 69.5604 44.75 69.5604 45.2386H65.0604C65.0604 44.0114 65.3359 42.9545 65.8871 42.0682C66.4382 41.1818 67.2166 40.5 68.2223 40.0227C69.228 39.5455 70.407 39.3068 71.7592 39.3068C73.157 39.3068 74.3672 39.5312 75.3899 39.9801C76.4183 40.4233 77.2109 41.0483 77.7678 41.8551C78.3303 42.6619 78.6115 43.608 78.6115 44.6932C78.6115 45.3636 78.4723 46.0312 78.1939 46.696C77.9155 47.3551 77.4155 48.0852 76.6939 48.8864C75.9723 49.6875 74.9467 50.642 73.6172 51.75L71.9808 53.1136V53.2159H78.799V57H65.4013ZM81.701 57L88.5533 43.4318V43.3295H80.5078V39.5455H93.4624V43.3295L86.576 57H81.701Z" fill="white"/>
</g>
<defs>
<clipPath id="clip0_408_20">
<rect width="144" height="96" fill="white"/>
</clipPath>
</defs>
</svg>
