<svg width="856" height="347" viewBox="0 0 856 347" fill="none" xmlns="http://www.w3.org/2000/svg">
<path d="M20 126.5C36.5 104.5 68.9 66.9286 62.5 62.1286C56.1 57.3286 42.5 188.129 36.5 254.129C46.5 190.795 56.5 80.3713 90.5 83C124.5 85.6287 87.5 183.5 90.5 184.129C93.5 184.757 108.5 85.5 138.5 94.5C168.5 103.5 98.5 198.129 150.5 316.129M275.5 142.129C264.833 160.795 251 196.651 218 204C185 211.349 160.5 187 172.5 151C184.5 115 224 117.5 238.5 142.129C253 166.757 267.899 205.053 275.5 226.129" stroke="#4169E1" stroke-width="24" stroke-linecap="round" stroke-linejoin="round"/>
<path d="M20 126.5C36.5 104.5 68.9 66.9286 62.5 62.1286C56.1 57.3286 42.5 188.129 36.5 254.129C46.5 190.795 56.5 80.3713 90.5 83C124.5 85.6287 87.5 183.5 90.5 184.129C93.5 184.757 108.5 85.5 138.5 94.5C168.5 103.5 98.5 198.129 150.5 316.129M275.5 142.129C264.833 160.795 251 196.651 218 204C185 211.349 160.5 187 172.5 151C184.5 115 224 117.5 238.5 142.129C253 166.757 267.899 205.053 275.5 226.129" stroke="url(#paint0_linear_612_133)" stroke-width="24" stroke-linecap="round" stroke-linejoin="round"/>
<path d="M20 126.5C36.5 104.5 68.9 66.9286 62.5 62.1286C56.1 57.3286 42.5 188.129 36.5 254.129C46.5 190.795 56.5 80.3713 90.5 83C124.5 85.6287 87.5 183.5 90.5 184.129C93.5 184.757 108.5 85.5 138.5 94.5C168.5 103.5 98.5 198.129 150.5 316.129M275.5 142.129C264.833 160.795 251 196.651 218 204C185 211.349 160.5 187 172.5 151C184.5 115 224 117.5 238.5 142.129C253 166.757 267.899 205.053 275.5 226.129" stroke="black" stroke-opacity="0.6" stroke-width="24" stroke-linecap="round" stroke-linejoin="round"/>
<path d="M393 136C358.5 108 292 134.5 299 189.5C306 244.5 362.5 267 407 230M403 72C418.5 106.5 449.5 150 436.5 279" stroke="white" stroke-width="24" stroke-linecap="round" stroke-linejoin="round"/>
<path d="M393 136C358.5 108 292 134.5 299 189.5C306 244.5 362.5 267 407 230M403 72C418.5 106.5 449.5 150 436.5 279" stroke="url(#paint1_linear_612_133)" stroke-width="24" stroke-linecap="round" stroke-linejoin="round"/>
<path d="M393 136C358.5 108 292 134.5 299 189.5C306 244.5 362.5 267 407 230M403 72C418.5 106.5 449.5 150 436.5 279" stroke="black" stroke-opacity="0.6" stroke-width="24" stroke-linecap="round" stroke-linejoin="round"/>
<path d="M470.5 137.734C484 113.234 509.4 78.6341 503 72.2341C496.6 65.8341 480.333 192.234 473 256.234C484.333 192.901 504 81.7341 537 86.2341C570 90.7341 525 208.734 529 210.234C533 211.734 550.5 84.2341 579 104.234C607.5 124.234 547 260.234 579 334.234M725.5 147.234C716.833 172.567 703.5 208.234 668.5 217.234C633.5 226.234 609.5 199.363 618 166.234C626.5 133.105 664 133.734 681.5 156.234C699 178.734 711.833 209.734 722.5 233.734M843.5 187.234C826.833 164.567 777 136.434 753 173.234C723 219.234 826 229.5 806.5 269C786.06 310.403 715.5 306.734 691.5 248.734" stroke="#FF341C" stroke-width="24" stroke-linecap="round" stroke-linejoin="round"/>
<path d="M470.5 137.734C484 113.234 509.4 78.6341 503 72.2341C496.6 65.8341 480.333 192.234 473 256.234C484.333 192.901 504 81.7341 537 86.2341C570 90.7341 525 208.734 529 210.234C533 211.734 550.5 84.2341 579 104.234C607.5 124.234 547 260.234 579 334.234M725.5 147.234C716.833 172.567 703.5 208.234 668.5 217.234C633.5 226.234 609.5 199.363 618 166.234C626.5 133.105 664 133.734 681.5 156.234C699 178.734 711.833 209.734 722.5 233.734M843.5 187.234C826.833 164.567 777 136.434 753 173.234C723 219.234 826 229.5 806.5 269C786.06 310.403 715.5 306.734 691.5 248.734" stroke="url(#paint2_linear_612_133)" stroke-width="24" stroke-linecap="round" stroke-linejoin="round"/>
<path d="M470.5 137.734C484 113.234 509.4 78.6341 503 72.2341C496.6 65.8341 480.333 192.234 473 256.234C484.333 192.901 504 81.7341 537 86.2341C570 90.7341 525 208.734 529 210.234C533 211.734 550.5 84.2341 579 104.234C607.5 124.234 547 260.234 579 334.234M725.5 147.234C716.833 172.567 703.5 208.234 668.5 217.234C633.5 226.234 609.5 199.363 618 166.234C626.5 133.105 664 133.734 681.5 156.234C699 178.734 711.833 209.734 722.5 233.734M843.5 187.234C826.833 164.567 777 136.434 753 173.234C723 219.234 826 229.5 806.5 269C786.06 310.403 715.5 306.734 691.5 248.734" stroke="black" stroke-opacity="0.6" stroke-width="24" stroke-linecap="round" stroke-linejoin="round"/>
<circle cx="374.5" cy="32" r="24" fill="white"/>
<circle cx="374.5" cy="32" r="24" fill="black" fill-opacity="0.6"/>
<path d="M12 118.5C28.5 96.5 60.9 58.9286 54.5 54.1286C48.1 49.3286 34.5 180.129 28.5 246.129C38.5 182.795 48.5 72.3713 82.5 75C116.5 77.6287 79.5 175.5 82.5 176.129C85.5 176.757 100.5 77.5 130.5 86.5C160.5 95.5 90.5 190.129 142.5 308.129M267.5 134.129C256.833 152.795 243 188.651 210 196C177 203.349 152.5 179 164.5 143C176.5 107 216 109.5 230.5 134.129C245 158.757 259.899 197.053 267.5 218.129" stroke="#4169E1" stroke-width="24" stroke-linecap="round" stroke-linejoin="round"/>
<path d="M12 118.5C28.5 96.5 60.9 58.9286 54.5 54.1286C48.1 49.3286 34.5 180.129 28.5 246.129C38.5 182.795 48.5 72.3713 82.5 75C116.5 77.6287 79.5 175.5 82.5 176.129C85.5 176.757 100.5 77.5 130.5 86.5C160.5 95.5 90.5 190.129 142.5 308.129M267.5 134.129C256.833 152.795 243 188.651 210 196C177 203.349 152.5 179 164.5 143C176.5 107 216 109.5 230.5 134.129C245 158.757 259.899 197.053 267.5 218.129" stroke="url(#paint3_linear_612_133)" stroke-width="24" stroke-linecap="round" stroke-linejoin="round"/>
<path d="M385 128C350.5 100 284 126.5 291 181.5C298 236.5 354.5 259 399 222M395 64C410.5 98.5 441.5 142 428.5 271" stroke="white" stroke-width="24" stroke-linecap="round" stroke-linejoin="round"/>
<path d="M385 128C350.5 100 284 126.5 291 181.5C298 236.5 354.5 259 399 222M395 64C410.5 98.5 441.5 142 428.5 271" stroke="url(#paint4_linear_612_133)" stroke-width="24" stroke-linecap="round" stroke-linejoin="round"/>
<path d="M462.5 129.734C476 105.234 501.4 70.6341 495 64.2341C488.6 57.8341 472.333 184.234 465 248.234C476.333 184.901 496 73.7341 529 78.2341C562 82.7341 517 200.734 521 202.234C525 203.734 542.5 76.2341 571 96.2341C599.5 116.234 539 252.234 571 326.234M717.5 139.234C708.833 164.567 695.5 200.234 660.5 209.234C625.5 218.234 601.5 191.363 610 158.234C618.5 125.105 656 125.734 673.5 148.234C691 170.734 703.833 201.734 714.5 225.734M835.5 179.234C818.833 156.567 769 128.434 745 165.234C715 211.234 818 221.5 798.5 261C778.06 302.403 707.5 298.734 683.5 240.734" stroke="#FF341C" stroke-width="24" stroke-linecap="round" stroke-linejoin="round"/>
<path d="M462.5 129.734C476 105.234 501.4 70.6341 495 64.2341C488.6 57.8341 472.333 184.234 465 248.234C476.333 184.901 496 73.7341 529 78.2341C562 82.7341 517 200.734 521 202.234C525 203.734 542.5 76.2341 571 96.2341C599.5 116.234 539 252.234 571 326.234M717.5 139.234C708.833 164.567 695.5 200.234 660.5 209.234C625.5 218.234 601.5 191.363 610 158.234C618.5 125.105 656 125.734 673.5 148.234C691 170.734 703.833 201.734 714.5 225.734M835.5 179.234C818.833 156.567 769 128.434 745 165.234C715 211.234 818 221.5 798.5 261C778.06 302.403 707.5 298.734 683.5 240.734" stroke="url(#paint5_linear_612_133)" stroke-width="24" stroke-linecap="round" stroke-linejoin="round"/>
<circle cx="366.5" cy="24" r="24" fill="white"/>
<defs>
<linearGradient id="paint0_linear_612_133" x1="155.5" y1="62" x2="68.5243" y2="323.364" gradientUnits="userSpaceOnUse">
<stop offset="0.303357" stop-opacity="0"/>
<stop offset="1" stop-opacity="0.4"/>
</linearGradient>
<linearGradient id="paint1_linear_612_133" x1="353" y1="63.5" x2="326.566" y2="283.1" gradientUnits="userSpaceOnUse">
<stop offset="0.303357" stop-opacity="0"/>
<stop offset="1" stop-opacity="0.4"/>
</linearGradient>
<linearGradient id="paint2_linear_612_133" x1="655" y1="72" x2="593" y2="349" gradientUnits="userSpaceOnUse">
<stop offset="0.303357" stop-opacity="0"/>
<stop offset="1" stop-opacity="0.4"/>
</linearGradient>
<linearGradient id="paint3_linear_612_133" x1="147.5" y1="54" x2="60.5243" y2="315.364" gradientUnits="userSpaceOnUse">
<stop offset="0.303357" stop-opacity="0"/>
<stop offset="1" stop-opacity="0.4"/>
</linearGradient>
<linearGradient id="paint4_linear_612_133" x1="345" y1="55.5" x2="318.566" y2="275.1" gradientUnits="userSpaceOnUse">
<stop offset="0.303357" stop-opacity="0"/>
<stop offset="1" stop-opacity="0.4"/>
</linearGradient>
<linearGradient id="paint5_linear_612_133" x1="647" y1="64" x2="585" y2="341" gradientUnits="userSpaceOnUse">
<stop offset="0.303357" stop-opacity="0"/>
<stop offset="1" stop-opacity="0.4"/>
</linearGradient>
</defs>
</svg>
