<svg width="312" height="96" viewBox="0 0 312 96" fill="none" xmlns="http://www.w3.org/2000/svg">
<path fill-rule="evenodd" clip-rule="evenodd" d="M240 72C240 60 240 60 252 60H240V72Z" fill="#FF7F48"/>
<path d="M216 60V96H312V72H240V60H252H312V24C312 12 300 0 288 0H192C204 0 216 12 216 24H276C288 24 288 24 288 36C269.255 36 240 36 240 36C228 36 216 48 216 60Z" fill="#FF7F48"/>
<path fill-rule="evenodd" clip-rule="evenodd" d="M84 0H180C192 0 204 12 204 24C204 24 204 60 204 72C204 84 192 96 180 96C168 96 108 96 108 96V24C108 12 96 0 84 0ZM168 24C156 24 132 24 132 24V72C132 72 156 72 168 72C180 72 180 72 180 60C180 48 180 48 180 36C180 24 180 24 168 24Z" fill="white"/>
<path d="M0 0V96H24V24H36V96H60V24C72 24 72 24 72 36V96H96V24C96 12 84 0 72 0H0Z" fill="#65ACFF"/>
</svg>
