<svg width="48" height="48" viewBox="0 0 48 48" fill="none" xmlns="http://www.w3.org/2000/svg">
<rect width="48" height="48" fill="#FF8000"/>
<path d="M10.1524 10.8912C10.1524 12.1071 10.5842 15.5959 12.3113 19.8243C14.0384 24.0527 14.6686 26.2512 14.7679 26.8219M42.9073 35.6062C43.081 33.6211 43.1307 28.8766 41.9396 25.7797C40.4507 21.9087 40.2274 22.802 38.5897 20.3454C36.9519 17.8888 33.2298 13.8689 28.3165 13.6455C23.4033 13.4222 21.84 14.9855 19.5323 16.0277C17.2245 17.0699 13.2046 20.4943 13.1302 22.6531C13.0557 24.812 12.6835 27.7897 14.0235 29.7997C15.3634 31.8096 19.3089 36.4251 21.3189 36.4251C23.3288 36.4251 27.2743 36.4995 28.9121 34.9362C30.2223 33.6856 31.8898 31.7848 32.1876 30.9908M32.3364 26.8219C32.6838 29.2289 32.2322 34.6533 27.6465 37.0951M39.483 20.3454C39.6815 22.8268 39.7212 28.2661 38.2919 30.1719C36.5052 32.5541 30.4754 37.6906 28.6143 38.2117C26.7532 38.7328 21.6167 39.4028 19.3089 37.9139M18.2667 4.5635C20.8226 5.33274 26.4852 7.39233 28.6887 9.47674C31.4431 12.0822 33.9742 16.6977 33.1553 26.9708C32.3444 37.144 24.371 39.3284 20.2767 41.1894C16.1823 43.0505 4.12256 42.455 4.12256 42.455" stroke="black" stroke-width="2" stroke-linecap="round" stroke-linejoin="round"/>
<path d="M20.0533 27.4175C20.1278 27.7153 20.208 27.7897 20.2767 27.9386C20.7233 28.9064 21.9144 28.683 21.9144 28.9064C21.9144 29.1297 24.0058 29.0936 23.3288 28.9808C21.9889 28.7575 23.7755 28.683 24.7433 28.3853C25.5175 28.147 26.108 27.6408 26.3066 27.4175M21.0211 24.3653L21.0955 24.4398L21.0211 24.5142L20.9467 24.4398L21.0211 24.3653ZM26.7532 22.132L26.9021 22.2065L26.7532 22.2809L26.6043 22.2065L26.7532 22.132Z" stroke="black" stroke-width="2" stroke-linecap="round" stroke-linejoin="round"/>
</svg>
