<svg width="93" height="78" viewBox="0 0 93 78" fill="none" xmlns="http://www.w3.org/2000/svg">
<g filter="url(#filter0_d)">
<circle cx="36.3333" cy="46" r="5.33333" fill="#4169E1"/>
<circle cx="36.3333" cy="46" r="5.33333" fill="black" fill-opacity="0.6"/>
<ellipse cx="59" cy="46" rx="5.33333" ry="5.33333" fill="#4169E1"/>
<ellipse cx="59" cy="46" rx="5.33333" ry="5.33333" fill="black" fill-opacity="0.6"/>
<path d="M37.5662 15.3334C26.4112 17.3217 22.4867 21.1223 19.3658 30.9775M57.7038 15.3334C67.5789 16.5121 71.6256 20.0459 75.0884 29.1371M19.3658 30.9775C18.6348 33.2857 17.9479 35.9261 17.2225 38.953C12.8765 57.0881 13.5476 61.6524 31.7532 65.3334L34.564 60.225C38.3446 60.9425 42.7203 61.452 47.3564 61.452C52.4285 61.452 56.7503 60.8421 61.0692 60.0173L63.6716 65.3334C80.6498 63.7996 82.8698 55.5174 78.2022 38.953C77.1217 35.1184 76.1315 31.8756 75.0884 29.1371M19.3658 30.9775C20.7702 27.6033 28.3346 20.8548 47.3564 20.8548C66.3783 20.8548 73.548 26.3763 75.0884 29.1371" stroke="#4169E1" stroke-width="5.33" stroke-linecap="round" stroke-linejoin="round"/>
<path d="M37.5662 15.3334C26.4112 17.3217 22.4867 21.1223 19.3658 30.9775M57.7038 15.3334C67.5789 16.5121 71.6256 20.0459 75.0884 29.1371M19.3658 30.9775C18.6348 33.2857 17.9479 35.9261 17.2225 38.953C12.8765 57.0881 13.5476 61.6524 31.7532 65.3334L34.564 60.225C38.3446 60.9425 42.7203 61.452 47.3564 61.452C52.4285 61.452 56.7503 60.8421 61.0692 60.0173L63.6716 65.3334C80.6498 63.7996 82.8698 55.5174 78.2022 38.953C77.1217 35.1184 76.1315 31.8756 75.0884 29.1371M19.3658 30.9775C20.7702 27.6033 28.3346 20.8548 47.3564 20.8548C66.3783 20.8548 73.548 26.3763 75.0884 29.1371" stroke="black" stroke-opacity="0.6" stroke-width="5.33" stroke-linecap="round" stroke-linejoin="round"/>
<circle cx="34.3333" cy="44" r="5.33333" fill="#4169E1"/>
<ellipse cx="57" cy="44" rx="5.33333" ry="5.33333" fill="#4169E1"/>
<path d="M35.5662 13.3334C24.4112 15.3217 20.4867 19.1223 17.3658 28.9775M55.7038 13.3334C65.5789 14.5121 69.6256 18.0459 73.0884 27.1371M17.3658 28.9775C16.6348 31.2857 15.9479 33.9261 15.2225 36.953C10.8765 55.0881 11.5476 59.6524 29.7532 63.3334L32.564 58.225C36.3446 58.9425 40.7203 59.452 45.3564 59.452C50.4285 59.452 54.7503 58.8421 59.0692 58.0173L61.6716 63.3334C78.6498 61.7996 80.8698 53.5174 76.2022 36.953C75.1217 33.1184 74.1315 29.8756 73.0884 27.1371M17.3658 28.9775C18.7702 25.6033 26.3346 18.8548 45.3564 18.8548C64.3783 18.8548 71.548 24.3763 73.0884 27.1371" stroke="#4169E1" stroke-width="5.33" stroke-linecap="round" stroke-linejoin="round"/>
</g>
<defs>
<filter id="filter0_d" x="0.334961" y="0.667908" width="92.6627" height="77.3306" filterUnits="userSpaceOnUse" color-interpolation-filters="sRGB">
<feFlood flood-opacity="0" result="BackgroundImageFix"/>
<feColorMatrix in="SourceAlpha" type="matrix" values="0 0 0 0 0 0 0 0 0 0 0 0 0 0 0 0 0 0 127 0"/>
<feOffset/>
<feGaussianBlur stdDeviation="5"/>
<feColorMatrix type="matrix" values="0 0 0 0 0 0 0 0 0 0 0 0 0 0 0 0 0 0 1 0"/>
<feBlend mode="normal" in2="BackgroundImageFix" result="effect1_dropShadow"/>
<feBlend mode="normal" in="SourceGraphic" in2="effect1_dropShadow" result="shape"/>
</filter>
</defs>
</svg>
