<svg width="54" height="57" viewBox="0 0 54 57" fill="none" xmlns="http://www.w3.org/2000/svg">
<path d="M9.10521 23.9096C6.65568 24.3874 5.08309 25.0317 4.87584 25.8626C3.72237 30.4872 6.7983 53.6102 27.9454 53.9956C49.0925 54.381 52.5528 29.3311 51.0149 25.8626C50.7307 25.2217 49.0156 24.6598 46.4009 24.1987M9.10521 23.9096C8.0799 18.2661 12.3607 4.66669 27.1763 4.66669C45.2474 4.66669 45.2474 17.4311 46.4009 24.1987M9.10521 23.9096C17.7699 22.2195 37.4073 22.6126 46.4009 24.1987" stroke="white" stroke-width="5.33"/>
<path d="M9.10521 23.9096C6.65568 24.3874 5.08309 25.0317 4.87584 25.8626C3.72237 30.4872 6.7983 53.6102 27.9454 53.9956C49.0925 54.381 52.5528 29.3311 51.0149 25.8626C50.7307 25.2217 49.0156 24.6598 46.4009 24.1987M9.10521 23.9096C8.0799 18.2661 12.3607 4.66669 27.1763 4.66669C45.2474 4.66669 45.2474 17.4311 46.4009 24.1987M9.10521 23.9096C17.7699 22.2195 37.4073 22.6126 46.4009 24.1987" stroke="black" stroke-opacity="0.6" stroke-width="5.33"/>
<path d="M27.9474 29.761C25.3992 29.761 23.3335 31.8267 23.3335 34.3749C23.3335 36.0827 24.2613 37.5738 25.6404 38.3715V42.0647C25.6404 43.3388 26.6733 44.3717 27.9474 44.3717C29.2215 44.3717 30.2544 43.3388 30.2544 42.0647V38.3715C31.6334 37.5738 32.5613 36.0827 32.5613 34.3749C32.5613 31.8267 30.4956 29.761 27.9474 29.761Z" fill="white"/>
<path d="M27.9474 29.761C25.3992 29.761 23.3335 31.8267 23.3335 34.3749C23.3335 36.0827 24.2613 37.5738 25.6404 38.3715V42.0647C25.6404 43.3388 26.6733 44.3717 27.9474 44.3717C29.2215 44.3717 30.2544 43.3388 30.2544 42.0647V38.3715C31.6334 37.5738 32.5613 36.0827 32.5613 34.3749C32.5613 31.8267 30.4956 29.761 27.9474 29.761Z" fill="black" fill-opacity="0.6"/>
<path d="M7.10521 21.9096C4.65568 22.3874 3.08309 23.0317 2.87584 23.8626C1.72237 28.4872 4.7983 51.6102 25.9454 51.9956C47.0925 52.381 50.5528 27.3311 49.0149 23.8626C48.7307 23.2217 47.0156 22.6598 44.4009 22.1987M7.10521 21.9096C6.0799 16.2661 10.3607 2.66669 25.1763 2.66669C43.2474 2.66669 43.2474 15.4311 44.4009 22.1987M7.10521 21.9096C15.7699 20.2195 35.4073 20.6126 44.4009 22.1987" stroke="white" stroke-width="5.33"/>
<path d="M25.9474 27.761C23.3992 27.761 21.3335 29.8267 21.3335 32.3749C21.3335 34.0827 22.2613 35.5738 23.6404 36.3715V40.0647C23.6404 41.3388 24.6733 42.3717 25.9474 42.3717C27.2215 42.3717 28.2544 41.3388 28.2544 40.0647V36.3715C29.6334 35.5738 30.5613 34.0827 30.5613 32.3749C30.5613 29.8267 28.4956 27.761 25.9474 27.761Z" fill="white"/>
</svg>
