<svg width="76" height="62" viewBox="0 0 76 62" fill="none" xmlns="http://www.w3.org/2000/svg">
<path d="M30.032 47.9436C31.5016 48.8619 33.1549 50.3312 37.3799 50.5149C41.605 50.6985 45.2789 47.9436 45.2789 47.9436M37.5636 25.0558L40.8702 5.33337L54.4638 11.027M37.5636 25.0558C30.6072 25.1258 23.6683 26.7116 18.7426 29.9444M37.5636 25.0558C45.5143 24.9759 53.488 26.876 58.5051 30.5606M54.4638 11.027C55.566 8.63934 59.0562 6.61903 62.5465 9.00667C66.0367 11.3943 65.853 18.7409 59.791 18.7409C53.729 18.7409 53.3616 13.4146 54.4638 11.027ZM11.1145 43.3519C9.99169 55.157 21.5972 59.1717 38.2984 59.3308C54.2091 59.4823 64.7449 53.0102 64.5443 42.801M11.1145 43.3519C11.2884 41.5234 11.7677 39.508 12.5807 37.291C13.6899 34.2667 15.8751 31.8265 18.7426 29.9444M11.1145 43.3519C7.62314 41.2092 1.77938 35.5278 6.33507 29.9444C10.8908 24.361 16.505 27.618 18.7426 29.9444M64.5443 42.801C64.5017 40.6337 63.9753 38.2981 62.9138 35.8217C62.0435 33.7912 60.5105 32.0333 58.5051 30.5606M64.5443 42.801C67.6135 42.7397 75.0378 40.597 71.915 32.3321C68.9542 24.4962 61.7504 27.8451 58.5051 30.5606" stroke="#FF341C" stroke-width="5.33" stroke-linecap="round" stroke-linejoin="round"/>
<path d="M30.032 47.9436C31.5016 48.8619 33.1549 50.3312 37.3799 50.5149C41.605 50.6985 45.2789 47.9436 45.2789 47.9436M37.5636 25.0558L40.8702 5.33337L54.4638 11.027M37.5636 25.0558C30.6072 25.1258 23.6683 26.7116 18.7426 29.9444M37.5636 25.0558C45.5143 24.9759 53.488 26.876 58.5051 30.5606M54.4638 11.027C55.566 8.63934 59.0562 6.61903 62.5465 9.00667C66.0367 11.3943 65.853 18.7409 59.791 18.7409C53.729 18.7409 53.3616 13.4146 54.4638 11.027ZM11.1145 43.3519C9.99169 55.157 21.5972 59.1717 38.2984 59.3308C54.2091 59.4823 64.7449 53.0102 64.5443 42.801M11.1145 43.3519C11.2884 41.5234 11.7677 39.508 12.5807 37.291C13.6899 34.2667 15.8751 31.8265 18.7426 29.9444M11.1145 43.3519C7.62314 41.2092 1.77938 35.5278 6.33507 29.9444C10.8908 24.361 16.505 27.618 18.7426 29.9444M64.5443 42.801C64.5017 40.6337 63.9753 38.2981 62.9138 35.8217C62.0435 33.7912 60.5105 32.0333 58.5051 30.5606M64.5443 42.801C67.6135 42.7397 75.0378 40.597 71.915 32.3321C68.9542 24.4962 61.7504 27.8451 58.5051 30.5606" stroke="black" stroke-opacity="0.6" stroke-width="5.33" stroke-linecap="round" stroke-linejoin="round"/>
<ellipse cx="28.5608" cy="39.3337" rx="4.00004" ry="4.00003" fill="#FF341C"/>
<ellipse cx="28.5608" cy="39.3337" rx="4.00004" ry="4.00003" fill="black" fill-opacity="0.6"/>
<ellipse cx="46.2276" cy="39.3337" rx="4.00004" ry="4.00003" fill="#FF341C"/>
<ellipse cx="46.2276" cy="39.3337" rx="4.00004" ry="4.00003" fill="black" fill-opacity="0.6"/>
<path d="M28.032 45.9436C29.5016 46.8619 31.1549 48.3312 35.3799 48.5149C39.605 48.6985 43.2789 45.9436 43.2789 45.9436M35.5636 23.0558L38.8702 3.33337L52.4638 9.02698M35.5636 23.0558C28.6072 23.1258 21.6683 24.7116 16.7426 27.9444M35.5636 23.0558C43.5143 22.9759 51.488 24.876 56.5051 28.5606M52.4638 9.02698C53.566 6.63934 57.0562 4.61903 60.5465 7.00667C64.0367 9.39431 63.853 16.7409 57.791 16.7409C51.729 16.7409 51.3616 11.4146 52.4638 9.02698ZM9.11449 41.3519C7.99169 53.157 19.5972 57.1717 36.2984 57.3308C52.2091 57.4823 62.7449 51.0102 62.5443 40.801M9.11449 41.3519C9.2884 39.5234 9.7677 37.508 10.5807 35.291C11.6899 32.2667 13.8751 29.8265 16.7426 27.9444M9.11449 41.3519C5.62314 39.2092 -0.220621 33.5278 4.33507 27.9444C8.89077 22.361 14.505 25.618 16.7426 27.9444M62.5443 40.801C62.5017 38.6337 61.9753 36.2981 60.9138 33.8217C60.0435 31.7912 58.5105 30.0333 56.5051 28.5606M62.5443 40.801C65.6135 40.7397 73.0378 38.597 69.915 30.3321C66.9542 22.4962 59.7504 25.8451 56.5051 28.5606" stroke="#FF341C" stroke-width="5.33" stroke-linecap="round" stroke-linejoin="round"/>
<ellipse cx="26.5608" cy="37.3337" rx="4.00004" ry="4.00003" fill="#FF341C"/>
<ellipse cx="44.2276" cy="37.3337" rx="4.00004" ry="4.00003" fill="#FF341C"/>
</svg>
