<svg width="68" height="55" viewBox="0 0 68 55" fill="none" xmlns="http://www.w3.org/2000/svg">
<path d="M56.5758 16.8612C57.9841 37.3713 40.7792 62.9121 5.33337 47.0458C5.33337 44.337 23.8269 43.563 23.4416 40.8541C23.0563 38.1452 11.1126 33.8885 11.4979 32.7275C11.8831 31.5665 18.433 32.3405 19.2035 31.1796C19.9741 30.0186 8.03039 22.6659 8.41562 21.505C8.80086 20.344 18.0477 24.2139 17.6624 23.0529C17.2771 21.892 8.0303 7.18659 8.41562 6.02566C8.80095 4.86474 16.8918 16.0872 33.4589 17.2482C33.4589 17.2482 33.4589 8.34759 41.1646 5.6387C46.9089 3.61929 52.225 4.6107 54.8783 9.89549M56.5758 16.8612C56.3797 14.0048 55.7842 11.6999 54.8783 9.89549M56.5758 16.8612L64.6667 15.3133L56.1689 13.7653L61.5845 6.02566L54.8783 9.89549" stroke="#4169E1" stroke-width="5.33" stroke-linejoin="round"/>
<path d="M56.5758 16.8612C57.9841 37.3713 40.7792 62.9121 5.33337 47.0458C5.33337 44.337 23.8269 43.563 23.4416 40.8541C23.0563 38.1452 11.1126 33.8885 11.4979 32.7275C11.8831 31.5665 18.433 32.3405 19.2035 31.1796C19.9741 30.0186 8.03039 22.6659 8.41562 21.505C8.80086 20.344 18.0477 24.2139 17.6624 23.0529C17.2771 21.892 8.0303 7.18659 8.41562 6.02566C8.80095 4.86474 16.8918 16.0872 33.4589 17.2482C33.4589 17.2482 33.4589 8.34759 41.1646 5.6387C46.9089 3.61929 52.225 4.6107 54.8783 9.89549M56.5758 16.8612C56.3797 14.0048 55.7842 11.6999 54.8783 9.89549M56.5758 16.8612L64.6667 15.3133L56.1689 13.7653L61.5845 6.02566L54.8783 9.89549" stroke="black" stroke-opacity="0.6" stroke-width="5.33" stroke-linejoin="round"/>
<path d="M54.5758 14.8612C55.9841 35.3713 38.7792 60.9121 3.33337 45.0458C3.33337 42.337 21.8269 41.563 21.4416 38.8541C21.0563 36.1452 9.11264 31.8885 9.49787 30.7275C9.88311 29.5665 16.433 30.3405 17.2035 29.1795C17.9741 28.0186 6.03039 20.6659 6.41562 19.505C6.80086 18.344 16.0477 22.2139 15.6624 21.0529C15.2771 19.892 6.0303 5.18659 6.41562 4.02566C6.80095 2.86474 14.8918 14.0872 31.4589 15.2482C31.4589 15.2482 31.4589 6.34759 39.1646 3.6387C44.9089 1.61929 50.225 2.6107 52.8783 7.89549M54.5758 14.8612C54.3797 12.0048 53.7842 9.69987 52.8783 7.89549M54.5758 14.8612L62.6667 13.3133L54.1689 11.7653L59.5845 4.02566L52.8783 7.89549" stroke="#4169E1" stroke-width="5.33" stroke-linejoin="round"/>
</svg>
