<svg width="78" height="56" viewBox="0 0 78 56" fill="none" xmlns="http://www.w3.org/2000/svg">
<path fill-rule="evenodd" clip-rule="evenodd" d="M14.6164 7.70282C27.2965 4.7119 51.989 4.37959 65.1694 7.70281C78.3498 11.026 77.5157 49.0818 64.5021 51.4032C51.4884 53.7245 27.4633 54.394 14.9501 50.9047C2.43697 47.4153 1.93641 10.6937 14.6164 7.70282ZM50.4873 29.6361C50.4293 27.4954 34.4461 17.686 33.1358 18.6694C31.8256 19.6529 31.6275 40.3105 32.6353 41.1012C33.6431 41.8919 50.5454 31.7768 50.4873 29.6361Z" stroke="#FF341C" stroke-width="5.33" stroke-linecap="round" stroke-linejoin="round"/>
<path fill-rule="evenodd" clip-rule="evenodd" d="M14.6164 7.70282C27.2965 4.7119 51.989 4.37959 65.1694 7.70281C78.3498 11.026 77.5157 49.0818 64.5021 51.4032C51.4884 53.7245 27.4633 54.394 14.9501 50.9047C2.43697 47.4153 1.93641 10.6937 14.6164 7.70282ZM50.4873 29.6361C50.4293 27.4954 34.4461 17.686 33.1358 18.6694C31.8256 19.6529 31.6275 40.3105 32.6353 41.1012C33.6431 41.8919 50.5454 31.7768 50.4873 29.6361Z" stroke="black" stroke-opacity="0.6" stroke-width="5.33" stroke-linecap="round" stroke-linejoin="round"/>
<path fill-rule="evenodd" clip-rule="evenodd" d="M12.6164 5.70282C25.2965 2.7119 49.989 2.37959 63.1694 5.70281C76.3498 9.02604 75.5157 47.0818 62.5021 49.4032C49.4884 51.7245 25.4633 52.394 12.9501 48.9047C0.436972 45.4153 -0.063588 8.69374 12.6164 5.70282ZM48.4873 27.6361C48.4293 25.4954 32.4461 15.686 31.1358 16.6694C29.8256 17.6529 29.6275 38.3105 30.6353 39.1012C31.6431 39.8919 48.5454 29.7768 48.4873 27.6361Z" stroke="#FF341C" stroke-width="5.33" stroke-linecap="round" stroke-linejoin="round"/>
</svg>
