<svg width="800" height="240" viewBox="0 0 800 240" fill="none" xmlns="http://www.w3.org/2000/svg">
<rect width="800" height="240" fill="black"/>
<path d="M384.242 101.938V119H381.98V101.938H384.242ZM391.391 109.613V111.465H383.75V109.613H391.391ZM392.551 101.938V103.789H383.75V101.938H392.551ZM394.086 112.801V112.531C394.086 111.617 394.219 110.77 394.484 109.988C394.75 109.199 395.133 108.516 395.633 107.938C396.133 107.352 396.738 106.898 397.449 106.578C398.16 106.25 398.957 106.086 399.84 106.086C400.73 106.086 401.531 106.25 402.242 106.578C402.961 106.898 403.57 107.352 404.07 107.938C404.578 108.516 404.965 109.199 405.23 109.988C405.496 110.77 405.629 111.617 405.629 112.531V112.801C405.629 113.715 405.496 114.562 405.23 115.344C404.965 116.125 404.578 116.809 404.07 117.395C403.57 117.973 402.965 118.426 402.254 118.754C401.551 119.074 400.754 119.234 399.863 119.234C398.973 119.234 398.172 119.074 397.461 118.754C396.75 118.426 396.141 117.973 395.633 117.395C395.133 116.809 394.75 116.125 394.484 115.344C394.219 114.562 394.086 113.715 394.086 112.801ZM396.254 112.531V112.801C396.254 113.434 396.328 114.031 396.477 114.594C396.625 115.148 396.848 115.641 397.145 116.07C397.449 116.5 397.828 116.84 398.281 117.09C398.734 117.332 399.262 117.453 399.863 117.453C400.457 117.453 400.977 117.332 401.422 117.09C401.875 116.84 402.25 116.5 402.547 116.07C402.844 115.641 403.066 115.148 403.215 114.594C403.371 114.031 403.449 113.434 403.449 112.801V112.531C403.449 111.906 403.371 111.316 403.215 110.762C403.066 110.199 402.84 109.703 402.535 109.273C402.238 108.836 401.863 108.492 401.41 108.242C400.965 107.992 400.441 107.867 399.84 107.867C399.246 107.867 398.723 107.992 398.27 108.242C397.824 108.492 397.449 108.836 397.145 109.273C396.848 109.703 396.625 110.199 396.477 110.762C396.328 111.316 396.254 111.906 396.254 112.531ZM407.773 112.801V112.531C407.773 111.617 407.906 110.77 408.172 109.988C408.438 109.199 408.82 108.516 409.32 107.938C409.82 107.352 410.426 106.898 411.137 106.578C411.848 106.25 412.645 106.086 413.527 106.086C414.418 106.086 415.219 106.25 415.93 106.578C416.648 106.898 417.258 107.352 417.758 107.938C418.266 108.516 418.652 109.199 418.918 109.988C419.184 110.77 419.316 111.617 419.316 112.531V112.801C419.316 113.715 419.184 114.562 418.918 115.344C418.652 116.125 418.266 116.809 417.758 117.395C417.258 117.973 416.652 118.426 415.941 118.754C415.238 119.074 414.441 119.234 413.551 119.234C412.66 119.234 411.859 119.074 411.148 118.754C410.438 118.426 409.828 117.973 409.32 117.395C408.82 116.809 408.438 116.125 408.172 115.344C407.906 114.562 407.773 113.715 407.773 112.801ZM409.941 112.531V112.801C409.941 113.434 410.016 114.031 410.164 114.594C410.312 115.148 410.535 115.641 410.832 116.07C411.137 116.5 411.516 116.84 411.969 117.09C412.422 117.332 412.949 117.453 413.551 117.453C414.145 117.453 414.664 117.332 415.109 117.09C415.562 116.84 415.938 116.5 416.234 116.07C416.531 115.641 416.754 115.148 416.902 114.594C417.059 114.031 417.137 113.434 417.137 112.801V112.531C417.137 111.906 417.059 111.316 416.902 110.762C416.754 110.199 416.527 109.703 416.223 109.273C415.926 108.836 415.551 108.492 415.098 108.242C414.652 107.992 414.129 107.867 413.527 107.867C412.934 107.867 412.41 107.992 411.957 108.242C411.512 108.492 411.137 108.836 410.832 109.273C410.535 109.703 410.312 110.199 410.164 110.762C410.016 111.316 409.941 111.906 409.941 112.531ZM427.344 106.32V107.984H420.488V106.32H427.344ZM422.809 103.238H424.977V115.859C424.977 116.289 425.043 116.613 425.176 116.832C425.309 117.051 425.48 117.195 425.691 117.266C425.902 117.336 426.129 117.371 426.371 117.371C426.551 117.371 426.738 117.355 426.934 117.324C427.137 117.285 427.289 117.254 427.391 117.23L427.402 119C427.23 119.055 427.004 119.105 426.723 119.152C426.449 119.207 426.117 119.234 425.727 119.234C425.195 119.234 424.707 119.129 424.262 118.918C423.816 118.707 423.461 118.355 423.195 117.863C422.938 117.363 422.809 116.691 422.809 115.848V103.238ZM435.148 119.234C434.266 119.234 433.465 119.086 432.746 118.789C432.035 118.484 431.422 118.059 430.906 117.512C430.398 116.965 430.008 116.316 429.734 115.566C429.461 114.816 429.324 113.996 429.324 113.105V112.613C429.324 111.582 429.477 110.664 429.781 109.859C430.086 109.047 430.5 108.359 431.023 107.797C431.547 107.234 432.141 106.809 432.805 106.52C433.469 106.23 434.156 106.086 434.867 106.086C435.773 106.086 436.555 106.242 437.211 106.555C437.875 106.867 438.418 107.305 438.84 107.867C439.262 108.422 439.574 109.078 439.777 109.836C439.98 110.586 440.082 111.406 440.082 112.297V113.27H430.613V111.5H437.914V111.336C437.883 110.773 437.766 110.227 437.562 109.695C437.367 109.164 437.055 108.727 436.625 108.383C436.195 108.039 435.609 107.867 434.867 107.867C434.375 107.867 433.922 107.973 433.508 108.184C433.094 108.387 432.738 108.691 432.441 109.098C432.145 109.504 431.914 110 431.75 110.586C431.586 111.172 431.504 111.848 431.504 112.613V113.105C431.504 113.707 431.586 114.273 431.75 114.805C431.922 115.328 432.168 115.789 432.488 116.188C432.816 116.586 433.211 116.898 433.672 117.125C434.141 117.352 434.672 117.465 435.266 117.465C436.031 117.465 436.68 117.309 437.211 116.996C437.742 116.684 438.207 116.266 438.605 115.742L439.918 116.785C439.645 117.199 439.297 117.594 438.875 117.969C438.453 118.344 437.934 118.648 437.316 118.883C436.707 119.117 435.984 119.234 435.148 119.234ZM444.781 108.312V119H442.613V106.32H444.723L444.781 108.312ZM448.742 106.25L448.73 108.266C448.551 108.227 448.379 108.203 448.215 108.195C448.059 108.18 447.879 108.172 447.676 108.172C447.176 108.172 446.734 108.25 446.352 108.406C445.969 108.562 445.645 108.781 445.379 109.062C445.113 109.344 444.902 109.68 444.746 110.07C444.598 110.453 444.5 110.875 444.453 111.336L443.844 111.688C443.844 110.922 443.918 110.203 444.066 109.531C444.223 108.859 444.461 108.266 444.781 107.75C445.102 107.227 445.508 106.82 446 106.531C446.5 106.234 447.094 106.086 447.781 106.086C447.938 106.086 448.117 106.105 448.32 106.145C448.523 106.176 448.664 106.211 448.742 106.25ZM464.457 116.07V106.32H466.637V119H464.562L464.457 116.07ZM464.867 113.398L465.77 113.375C465.77 114.219 465.68 115 465.5 115.719C465.328 116.43 465.047 117.047 464.656 117.57C464.266 118.094 463.754 118.504 463.121 118.801C462.488 119.09 461.719 119.234 460.812 119.234C460.195 119.234 459.629 119.145 459.113 118.965C458.605 118.785 458.168 118.508 457.801 118.133C457.434 117.758 457.148 117.27 456.945 116.668C456.75 116.066 456.652 115.344 456.652 114.5V106.32H458.82V114.523C458.82 115.094 458.883 115.566 459.008 115.941C459.141 116.309 459.316 116.602 459.535 116.82C459.762 117.031 460.012 117.18 460.285 117.266C460.566 117.352 460.855 117.395 461.152 117.395C462.074 117.395 462.805 117.219 463.344 116.867C463.883 116.508 464.27 116.027 464.504 115.426C464.746 114.816 464.867 114.141 464.867 113.398ZM472.109 109.027V119H469.941V106.32H471.992L472.109 109.027ZM471.594 112.18L470.691 112.145C470.699 111.277 470.828 110.477 471.078 109.742C471.328 109 471.68 108.355 472.133 107.809C472.586 107.262 473.125 106.84 473.75 106.543C474.383 106.238 475.082 106.086 475.848 106.086C476.473 106.086 477.035 106.172 477.535 106.344C478.035 106.508 478.461 106.773 478.812 107.141C479.172 107.508 479.445 107.984 479.633 108.57C479.82 109.148 479.914 109.855 479.914 110.691V119H477.734V110.668C477.734 110.004 477.637 109.473 477.441 109.074C477.246 108.668 476.961 108.375 476.586 108.195C476.211 108.008 475.75 107.914 475.203 107.914C474.664 107.914 474.172 108.027 473.727 108.254C473.289 108.48 472.91 108.793 472.59 109.191C472.277 109.59 472.031 110.047 471.852 110.562C471.68 111.07 471.594 111.609 471.594 112.18ZM490.684 116.832V110.305C490.684 109.805 490.582 109.371 490.379 109.004C490.184 108.629 489.887 108.34 489.488 108.137C489.09 107.934 488.598 107.832 488.012 107.832C487.465 107.832 486.984 107.926 486.57 108.113C486.164 108.301 485.844 108.547 485.609 108.852C485.383 109.156 485.27 109.484 485.27 109.836H483.102C483.102 109.383 483.219 108.934 483.453 108.488C483.688 108.043 484.023 107.641 484.461 107.281C484.906 106.914 485.438 106.625 486.055 106.414C486.68 106.195 487.375 106.086 488.141 106.086C489.062 106.086 489.875 106.242 490.578 106.555C491.289 106.867 491.844 107.34 492.242 107.973C492.648 108.598 492.852 109.383 492.852 110.328V116.234C492.852 116.656 492.887 117.105 492.957 117.582C493.035 118.059 493.148 118.469 493.297 118.812V119H491.035C490.926 118.75 490.84 118.418 490.777 118.004C490.715 117.582 490.684 117.191 490.684 116.832ZM491.059 111.312L491.082 112.836H488.891C488.273 112.836 487.723 112.887 487.238 112.988C486.754 113.082 486.348 113.227 486.02 113.422C485.691 113.617 485.441 113.863 485.27 114.16C485.098 114.449 485.012 114.789 485.012 115.18C485.012 115.578 485.102 115.941 485.281 116.27C485.461 116.598 485.73 116.859 486.09 117.055C486.457 117.242 486.906 117.336 487.438 117.336C488.102 117.336 488.688 117.195 489.195 116.914C489.703 116.633 490.105 116.289 490.402 115.883C490.707 115.477 490.871 115.082 490.895 114.699L491.82 115.742C491.766 116.07 491.617 116.434 491.375 116.832C491.133 117.23 490.809 117.613 490.402 117.98C490.004 118.34 489.527 118.641 488.973 118.883C488.426 119.117 487.809 119.234 487.121 119.234C486.262 119.234 485.508 119.066 484.859 118.73C484.219 118.395 483.719 117.945 483.359 117.383C483.008 116.812 482.832 116.176 482.832 115.473C482.832 114.793 482.965 114.195 483.23 113.68C483.496 113.156 483.879 112.723 484.379 112.379C484.879 112.027 485.48 111.762 486.184 111.582C486.887 111.402 487.672 111.312 488.539 111.312H491.059ZM499.93 117.043L503.398 106.32H505.613L501.055 119H499.602L499.93 117.043ZM497.035 106.32L500.609 117.102L500.855 119H499.402L494.809 106.32H497.035ZM514.988 116.832V110.305C514.988 109.805 514.887 109.371 514.684 109.004C514.488 108.629 514.191 108.34 513.793 108.137C513.395 107.934 512.902 107.832 512.316 107.832C511.77 107.832 511.289 107.926 510.875 108.113C510.469 108.301 510.148 108.547 509.914 108.852C509.688 109.156 509.574 109.484 509.574 109.836H507.406C507.406 109.383 507.523 108.934 507.758 108.488C507.992 108.043 508.328 107.641 508.766 107.281C509.211 106.914 509.742 106.625 510.359 106.414C510.984 106.195 511.68 106.086 512.445 106.086C513.367 106.086 514.18 106.242 514.883 106.555C515.594 106.867 516.148 107.34 516.547 107.973C516.953 108.598 517.156 109.383 517.156 110.328V116.234C517.156 116.656 517.191 117.105 517.262 117.582C517.34 118.059 517.453 118.469 517.602 118.812V119H515.34C515.23 118.75 515.145 118.418 515.082 118.004C515.02 117.582 514.988 117.191 514.988 116.832ZM515.363 111.312L515.387 112.836H513.195C512.578 112.836 512.027 112.887 511.543 112.988C511.059 113.082 510.652 113.227 510.324 113.422C509.996 113.617 509.746 113.863 509.574 114.16C509.402 114.449 509.316 114.789 509.316 115.18C509.316 115.578 509.406 115.941 509.586 116.27C509.766 116.598 510.035 116.859 510.395 117.055C510.762 117.242 511.211 117.336 511.742 117.336C512.406 117.336 512.992 117.195 513.5 116.914C514.008 116.633 514.41 116.289 514.707 115.883C515.012 115.477 515.176 115.082 515.199 114.699L516.125 115.742C516.07 116.07 515.922 116.434 515.68 116.832C515.438 117.23 515.113 117.613 514.707 117.98C514.309 118.34 513.832 118.641 513.277 118.883C512.73 119.117 512.113 119.234 511.426 119.234C510.566 119.234 509.812 119.066 509.164 118.73C508.523 118.395 508.023 117.945 507.664 117.383C507.312 116.812 507.137 116.176 507.137 115.473C507.137 114.793 507.27 114.195 507.535 113.68C507.801 113.156 508.184 112.723 508.684 112.379C509.184 112.027 509.785 111.762 510.488 111.582C511.191 111.402 511.977 111.312 512.844 111.312H515.363ZM522.922 106.32V119H520.742V106.32H522.922ZM520.578 102.957C520.578 102.605 520.684 102.309 520.895 102.066C521.113 101.824 521.434 101.703 521.855 101.703C522.27 101.703 522.586 101.824 522.805 102.066C523.031 102.309 523.145 102.605 523.145 102.957C523.145 103.293 523.031 103.582 522.805 103.824C522.586 104.059 522.27 104.176 521.855 104.176C521.434 104.176 521.113 104.059 520.895 103.824C520.684 103.582 520.578 103.293 520.578 102.957ZM528.758 101V119H526.578V101H528.758ZM539.715 116.832V110.305C539.715 109.805 539.613 109.371 539.41 109.004C539.215 108.629 538.918 108.34 538.52 108.137C538.121 107.934 537.629 107.832 537.043 107.832C536.496 107.832 536.016 107.926 535.602 108.113C535.195 108.301 534.875 108.547 534.641 108.852C534.414 109.156 534.301 109.484 534.301 109.836H532.133C532.133 109.383 532.25 108.934 532.484 108.488C532.719 108.043 533.055 107.641 533.492 107.281C533.938 106.914 534.469 106.625 535.086 106.414C535.711 106.195 536.406 106.086 537.172 106.086C538.094 106.086 538.906 106.242 539.609 106.555C540.32 106.867 540.875 107.34 541.273 107.973C541.68 108.598 541.883 109.383 541.883 110.328V116.234C541.883 116.656 541.918 117.105 541.988 117.582C542.066 118.059 542.18 118.469 542.328 118.812V119H540.066C539.957 118.75 539.871 118.418 539.809 118.004C539.746 117.582 539.715 117.191 539.715 116.832ZM540.09 111.312L540.113 112.836H537.922C537.305 112.836 536.754 112.887 536.27 112.988C535.785 113.082 535.379 113.227 535.051 113.422C534.723 113.617 534.473 113.863 534.301 114.16C534.129 114.449 534.043 114.789 534.043 115.18C534.043 115.578 534.133 115.941 534.312 116.27C534.492 116.598 534.762 116.859 535.121 117.055C535.488 117.242 535.938 117.336 536.469 117.336C537.133 117.336 537.719 117.195 538.227 116.914C538.734 116.633 539.137 116.289 539.434 115.883C539.738 115.477 539.902 115.082 539.926 114.699L540.852 115.742C540.797 116.07 540.648 116.434 540.406 116.832C540.164 117.23 539.84 117.613 539.434 117.98C539.035 118.34 538.559 118.641 538.004 118.883C537.457 119.117 536.84 119.234 536.152 119.234C535.293 119.234 534.539 119.066 533.891 118.73C533.25 118.395 532.75 117.945 532.391 117.383C532.039 116.812 531.863 116.176 531.863 115.473C531.863 114.793 531.996 114.195 532.262 113.68C532.527 113.156 532.91 112.723 533.41 112.379C533.91 112.027 534.512 111.762 535.215 111.582C535.918 111.402 536.703 111.312 537.57 111.312H540.09ZM545.281 101H547.461V116.539L547.273 119H545.281V101ZM556.027 112.555V112.801C556.027 113.723 555.918 114.578 555.699 115.367C555.48 116.148 555.16 116.828 554.738 117.406C554.316 117.984 553.801 118.434 553.191 118.754C552.582 119.074 551.883 119.234 551.094 119.234C550.289 119.234 549.582 119.098 548.973 118.824C548.371 118.543 547.863 118.141 547.449 117.617C547.035 117.094 546.703 116.461 546.453 115.719C546.211 114.977 546.043 114.141 545.949 113.211V112.133C546.043 111.195 546.211 110.355 546.453 109.613C546.703 108.871 547.035 108.238 547.449 107.715C547.863 107.184 548.371 106.781 548.973 106.508C549.574 106.227 550.273 106.086 551.07 106.086C551.867 106.086 552.574 106.242 553.191 106.555C553.809 106.859 554.324 107.297 554.738 107.867C555.16 108.438 555.48 109.121 555.699 109.918C555.918 110.707 556.027 111.586 556.027 112.555ZM553.848 112.801V112.555C553.848 111.922 553.789 111.328 553.672 110.773C553.555 110.211 553.367 109.719 553.109 109.297C552.852 108.867 552.512 108.531 552.09 108.289C551.668 108.039 551.148 107.914 550.531 107.914C549.984 107.914 549.508 108.008 549.102 108.195C548.703 108.383 548.363 108.637 548.082 108.957C547.801 109.27 547.57 109.629 547.391 110.035C547.219 110.434 547.09 110.848 547.004 111.277V114.102C547.129 114.648 547.332 115.176 547.613 115.684C547.902 116.184 548.285 116.594 548.762 116.914C549.246 117.234 549.844 117.395 550.555 117.395C551.141 117.395 551.641 117.277 552.055 117.043C552.477 116.801 552.816 116.469 553.074 116.047C553.34 115.625 553.535 115.137 553.66 114.582C553.785 114.027 553.848 113.434 553.848 112.801ZM561.125 101V119H558.945V101H561.125ZM569.867 119.234C568.984 119.234 568.184 119.086 567.465 118.789C566.754 118.484 566.141 118.059 565.625 117.512C565.117 116.965 564.727 116.316 564.453 115.566C564.18 114.816 564.043 113.996 564.043 113.105V112.613C564.043 111.582 564.195 110.664 564.5 109.859C564.805 109.047 565.219 108.359 565.742 107.797C566.266 107.234 566.859 106.809 567.523 106.52C568.188 106.23 568.875 106.086 569.586 106.086C570.492 106.086 571.273 106.242 571.93 106.555C572.594 106.867 573.137 107.305 573.559 107.867C573.98 108.422 574.293 109.078 574.496 109.836C574.699 110.586 574.801 111.406 574.801 112.297V113.27H565.332V111.5H572.633V111.336C572.602 110.773 572.484 110.227 572.281 109.695C572.086 109.164 571.773 108.727 571.344 108.383C570.914 108.039 570.328 107.867 569.586 107.867C569.094 107.867 568.641 107.973 568.227 108.184C567.812 108.387 567.457 108.691 567.16 109.098C566.863 109.504 566.633 110 566.469 110.586C566.305 111.172 566.223 111.848 566.223 112.613V113.105C566.223 113.707 566.305 114.273 566.469 114.805C566.641 115.328 566.887 115.789 567.207 116.188C567.535 116.586 567.93 116.898 568.391 117.125C568.859 117.352 569.391 117.465 569.984 117.465C570.75 117.465 571.398 117.309 571.93 116.996C572.461 116.684 572.926 116.266 573.324 115.742L574.637 116.785C574.363 117.199 574.016 117.594 573.594 117.969C573.172 118.344 572.652 118.648 572.035 118.883C571.426 119.117 570.703 119.234 569.867 119.234Z" fill="white"/>
<path d="M384.833 131.047V141H383.534V131.047H384.833ZM388.032 131.047V132.127H380.342V131.047H388.032ZM390.582 130.5V141H389.317V130.5H390.582ZM390.281 137.021L389.755 137.001C389.759 136.495 389.835 136.028 389.98 135.6C390.126 135.167 390.331 134.791 390.596 134.472C390.86 134.153 391.174 133.907 391.539 133.733C391.908 133.556 392.316 133.467 392.763 133.467C393.127 133.467 393.455 133.517 393.747 133.617C394.039 133.713 394.287 133.868 394.492 134.082C394.702 134.296 394.861 134.574 394.971 134.916C395.08 135.253 395.135 135.666 395.135 136.153V141H393.863V136.14C393.863 135.752 393.806 135.442 393.692 135.21C393.578 134.973 393.412 134.802 393.193 134.697C392.975 134.588 392.706 134.533 392.387 134.533C392.072 134.533 391.785 134.599 391.525 134.731C391.27 134.864 391.049 135.046 390.862 135.278C390.68 135.511 390.536 135.777 390.432 136.078C390.331 136.374 390.281 136.689 390.281 137.021ZM398.402 133.604V141H397.131V133.604H398.402ZM397.035 131.642C397.035 131.437 397.097 131.263 397.22 131.122C397.347 130.981 397.534 130.91 397.78 130.91C398.022 130.91 398.206 130.981 398.334 131.122C398.466 131.263 398.532 131.437 398.532 131.642C398.532 131.838 398.466 132.006 398.334 132.147C398.206 132.284 398.022 132.353 397.78 132.353C397.534 132.353 397.347 132.284 397.22 132.147C397.097 132.006 397.035 131.838 397.035 131.642ZM404.739 139.038C404.739 138.856 404.698 138.687 404.616 138.532C404.539 138.373 404.377 138.229 404.131 138.102C403.889 137.969 403.525 137.855 403.037 137.76C402.627 137.673 402.256 137.571 401.923 137.452C401.595 137.334 401.314 137.19 401.082 137.021C400.854 136.853 400.679 136.655 400.556 136.427C400.433 136.199 400.371 135.932 400.371 135.627C400.371 135.335 400.435 135.06 400.562 134.8C400.695 134.54 400.879 134.31 401.116 134.109C401.358 133.909 401.647 133.752 401.984 133.638C402.322 133.524 402.698 133.467 403.112 133.467C403.705 133.467 404.211 133.572 404.63 133.781C405.049 133.991 405.37 134.271 405.594 134.622C405.817 134.968 405.929 135.354 405.929 135.777H404.664C404.664 135.572 404.603 135.374 404.479 135.183C404.361 134.987 404.186 134.825 403.953 134.697C403.725 134.57 403.445 134.506 403.112 134.506C402.761 134.506 402.477 134.561 402.258 134.67C402.044 134.775 401.886 134.909 401.786 135.073C401.69 135.237 401.643 135.41 401.643 135.593C401.643 135.729 401.665 135.853 401.711 135.962C401.761 136.067 401.848 136.165 401.971 136.256C402.094 136.342 402.267 136.424 402.49 136.502C402.714 136.579 402.998 136.657 403.345 136.734C403.951 136.871 404.45 137.035 404.842 137.227C405.234 137.418 405.525 137.653 405.717 137.931C405.908 138.209 406.004 138.546 406.004 138.942C406.004 139.266 405.936 139.562 405.799 139.831C405.667 140.1 405.473 140.332 405.218 140.528C404.967 140.72 404.666 140.87 404.315 140.979C403.969 141.084 403.579 141.137 403.146 141.137C402.495 141.137 401.943 141.021 401.492 140.788C401.041 140.556 400.699 140.255 400.467 139.886C400.234 139.517 400.118 139.127 400.118 138.717H401.39C401.408 139.063 401.508 139.339 401.69 139.544C401.873 139.744 402.096 139.888 402.36 139.975C402.625 140.057 402.887 140.098 403.146 140.098C403.493 140.098 403.782 140.052 404.015 139.961C404.252 139.87 404.432 139.744 404.555 139.585C404.678 139.425 404.739 139.243 404.739 139.038ZM413.024 141H411.76V132.824C411.76 132.291 411.855 131.842 412.047 131.478C412.243 131.108 412.523 130.83 412.888 130.644C413.252 130.452 413.685 130.356 414.187 130.356C414.332 130.356 414.478 130.366 414.624 130.384C414.774 130.402 414.92 130.429 415.062 130.466L414.993 131.498C414.897 131.475 414.788 131.459 414.665 131.45C414.547 131.441 414.428 131.437 414.31 131.437C414.041 131.437 413.808 131.491 413.612 131.601C413.421 131.705 413.275 131.86 413.175 132.065C413.075 132.271 413.024 132.523 413.024 132.824V141ZM414.597 133.604V134.574H410.591V133.604H414.597ZM415.67 137.384V137.227C415.67 136.693 415.747 136.199 415.902 135.743C416.057 135.283 416.281 134.884 416.572 134.547C416.864 134.205 417.217 133.941 417.632 133.754C418.047 133.562 418.511 133.467 419.026 133.467C419.546 133.467 420.013 133.562 420.428 133.754C420.847 133.941 421.202 134.205 421.494 134.547C421.79 134.884 422.016 135.283 422.171 135.743C422.326 136.199 422.403 136.693 422.403 137.227V137.384C422.403 137.917 422.326 138.411 422.171 138.867C422.016 139.323 421.79 139.722 421.494 140.063C421.202 140.401 420.849 140.665 420.435 140.856C420.024 141.043 419.56 141.137 419.04 141.137C418.521 141.137 418.053 141.043 417.639 140.856C417.224 140.665 416.868 140.401 416.572 140.063C416.281 139.722 416.057 139.323 415.902 138.867C415.747 138.411 415.67 137.917 415.67 137.384ZM416.935 137.227V137.384C416.935 137.753 416.978 138.102 417.064 138.43C417.151 138.753 417.281 139.04 417.454 139.291C417.632 139.542 417.853 139.74 418.117 139.886C418.382 140.027 418.689 140.098 419.04 140.098C419.386 140.098 419.689 140.027 419.949 139.886C420.214 139.74 420.432 139.542 420.605 139.291C420.779 139.04 420.909 138.753 420.995 138.43C421.086 138.102 421.132 137.753 421.132 137.384V137.227C421.132 136.862 421.086 136.518 420.995 136.194C420.909 135.866 420.776 135.577 420.599 135.326C420.425 135.071 420.207 134.87 419.942 134.725C419.683 134.579 419.377 134.506 419.026 134.506C418.68 134.506 418.375 134.579 418.11 134.725C417.851 134.87 417.632 135.071 417.454 135.326C417.281 135.577 417.151 135.866 417.064 136.194C416.978 136.518 416.935 136.862 416.935 137.227ZM423.654 137.384V137.227C423.654 136.693 423.732 136.199 423.887 135.743C424.042 135.283 424.265 134.884 424.557 134.547C424.848 134.205 425.201 133.941 425.616 133.754C426.031 133.562 426.496 133.467 427.011 133.467C427.53 133.467 427.997 133.562 428.412 133.754C428.831 133.941 429.187 134.205 429.479 134.547C429.775 134.884 430 135.283 430.155 135.743C430.31 136.199 430.388 136.693 430.388 137.227V137.384C430.388 137.917 430.31 138.411 430.155 138.867C430 139.323 429.775 139.722 429.479 140.063C429.187 140.401 428.834 140.665 428.419 140.856C428.009 141.043 427.544 141.137 427.024 141.137C426.505 141.137 426.038 141.043 425.623 140.856C425.208 140.665 424.853 140.401 424.557 140.063C424.265 139.722 424.042 139.323 423.887 138.867C423.732 138.411 423.654 137.917 423.654 137.384ZM424.919 137.227V137.384C424.919 137.753 424.962 138.102 425.049 138.43C425.135 138.753 425.265 139.04 425.438 139.291C425.616 139.542 425.837 139.74 426.102 139.886C426.366 140.027 426.674 140.098 427.024 140.098C427.371 140.098 427.674 140.027 427.934 139.886C428.198 139.74 428.417 139.542 428.59 139.291C428.763 139.04 428.893 138.753 428.979 138.43C429.071 138.102 429.116 137.753 429.116 137.384V137.227C429.116 136.862 429.071 136.518 428.979 136.194C428.893 135.866 428.761 135.577 428.583 135.326C428.41 135.071 428.191 134.87 427.927 134.725C427.667 134.579 427.362 134.506 427.011 134.506C426.664 134.506 426.359 134.579 426.095 134.725C425.835 134.87 425.616 135.071 425.438 135.326C425.265 135.577 425.135 135.866 425.049 136.194C424.962 136.518 424.919 136.862 424.919 137.227ZM435.07 133.604V134.574H431.071V133.604H435.07ZM432.425 131.806H433.689V139.168C433.689 139.419 433.728 139.608 433.806 139.735C433.883 139.863 433.983 139.947 434.106 139.988C434.229 140.029 434.362 140.05 434.503 140.05C434.608 140.05 434.717 140.041 434.831 140.022C434.95 140 435.038 139.981 435.098 139.968L435.104 141C435.004 141.032 434.872 141.062 434.708 141.089C434.549 141.121 434.355 141.137 434.127 141.137C433.817 141.137 433.532 141.075 433.272 140.952C433.013 140.829 432.805 140.624 432.65 140.337C432.5 140.045 432.425 139.653 432.425 139.161V131.806ZM439.623 141.137C439.108 141.137 438.641 141.05 438.222 140.877C437.807 140.699 437.449 140.451 437.148 140.132C436.852 139.813 436.624 139.435 436.465 138.997C436.305 138.56 436.226 138.081 436.226 137.562V137.274C436.226 136.673 436.314 136.137 436.492 135.668C436.67 135.194 436.911 134.793 437.217 134.465C437.522 134.137 437.868 133.888 438.256 133.72C438.643 133.551 439.044 133.467 439.459 133.467C439.988 133.467 440.443 133.558 440.826 133.74C441.214 133.923 441.53 134.178 441.776 134.506C442.022 134.829 442.205 135.212 442.323 135.654C442.442 136.092 442.501 136.57 442.501 137.09V137.657H436.978V136.625H441.236V136.529C441.218 136.201 441.15 135.882 441.031 135.572C440.917 135.262 440.735 135.007 440.484 134.807C440.234 134.606 439.892 134.506 439.459 134.506C439.172 134.506 438.908 134.567 438.666 134.69C438.424 134.809 438.217 134.987 438.044 135.224C437.871 135.461 437.736 135.75 437.641 136.092C437.545 136.434 437.497 136.828 437.497 137.274V137.562C437.497 137.912 437.545 138.243 437.641 138.553C437.741 138.858 437.884 139.127 438.071 139.359C438.263 139.592 438.493 139.774 438.762 139.906C439.035 140.038 439.345 140.104 439.691 140.104C440.138 140.104 440.516 140.013 440.826 139.831C441.136 139.649 441.407 139.405 441.64 139.1L442.405 139.708C442.246 139.95 442.043 140.18 441.797 140.398C441.551 140.617 441.248 140.795 440.888 140.932C440.532 141.068 440.111 141.137 439.623 141.137ZM445.242 134.766V141H443.978V133.604H445.208L445.242 134.766ZM447.553 133.562L447.546 134.738C447.441 134.715 447.341 134.702 447.245 134.697C447.154 134.688 447.049 134.684 446.931 134.684C446.639 134.684 446.382 134.729 446.158 134.82C445.935 134.911 445.746 135.039 445.591 135.203C445.436 135.367 445.313 135.563 445.222 135.791C445.135 136.014 445.078 136.26 445.051 136.529L444.695 136.734C444.695 136.288 444.739 135.868 444.825 135.477C444.916 135.085 445.055 134.738 445.242 134.438C445.429 134.132 445.666 133.895 445.953 133.727C446.245 133.553 446.591 133.467 446.992 133.467C447.083 133.467 447.188 133.478 447.307 133.501C447.425 133.519 447.507 133.54 447.553 133.562ZM453.568 133.604V141H452.297V133.604H453.568ZM452.201 131.642C452.201 131.437 452.263 131.263 452.386 131.122C452.513 130.981 452.7 130.91 452.946 130.91C453.188 130.91 453.372 130.981 453.5 131.122C453.632 131.263 453.698 131.437 453.698 131.642C453.698 131.838 453.632 132.006 453.5 132.147C453.372 132.284 453.188 132.353 452.946 132.353C452.7 132.353 452.513 132.284 452.386 132.147C452.263 132.006 452.201 131.838 452.201 131.642ZM459.905 139.038C459.905 138.856 459.864 138.687 459.782 138.532C459.705 138.373 459.543 138.229 459.297 138.102C459.055 137.969 458.691 137.855 458.203 137.76C457.793 137.673 457.422 137.571 457.089 137.452C456.761 137.334 456.48 137.19 456.248 137.021C456.02 136.853 455.845 136.655 455.722 136.427C455.599 136.199 455.537 135.932 455.537 135.627C455.537 135.335 455.601 135.06 455.729 134.8C455.861 134.54 456.045 134.31 456.282 134.109C456.524 133.909 456.813 133.752 457.15 133.638C457.488 133.524 457.864 133.467 458.278 133.467C458.871 133.467 459.377 133.572 459.796 133.781C460.215 133.991 460.536 134.271 460.76 134.622C460.983 134.968 461.095 135.354 461.095 135.777H459.83C459.83 135.572 459.769 135.374 459.646 135.183C459.527 134.987 459.352 134.825 459.119 134.697C458.891 134.57 458.611 134.506 458.278 134.506C457.927 134.506 457.643 134.561 457.424 134.67C457.21 134.775 457.052 134.909 456.952 135.073C456.856 135.237 456.809 135.41 456.809 135.593C456.809 135.729 456.831 135.853 456.877 135.962C456.927 136.067 457.014 136.165 457.137 136.256C457.26 136.342 457.433 136.424 457.656 136.502C457.88 136.579 458.164 136.657 458.511 136.734C459.117 136.871 459.616 137.035 460.008 137.227C460.4 137.418 460.691 137.653 460.883 137.931C461.074 138.209 461.17 138.546 461.17 138.942C461.17 139.266 461.102 139.562 460.965 139.831C460.833 140.1 460.639 140.332 460.384 140.528C460.133 140.72 459.832 140.87 459.481 140.979C459.135 141.084 458.745 141.137 458.312 141.137C457.661 141.137 457.109 141.021 456.658 140.788C456.207 140.556 455.865 140.255 455.633 139.886C455.4 139.517 455.284 139.127 455.284 138.717H456.556C456.574 139.063 456.674 139.339 456.856 139.544C457.039 139.744 457.262 139.888 457.526 139.975C457.791 140.057 458.053 140.098 458.312 140.098C458.659 140.098 458.948 140.052 459.181 139.961C459.418 139.87 459.598 139.744 459.721 139.585C459.844 139.425 459.905 139.243 459.905 139.038ZM467.568 135.183V141H466.304V133.604H467.5L467.568 135.183ZM467.268 137.021L466.741 137.001C466.746 136.495 466.821 136.028 466.967 135.6C467.113 135.167 467.318 134.791 467.582 134.472C467.846 134.153 468.161 133.907 468.525 133.733C468.895 133.556 469.302 133.467 469.749 133.467C470.114 133.467 470.442 133.517 470.733 133.617C471.025 133.713 471.273 133.868 471.479 134.082C471.688 134.296 471.848 134.574 471.957 134.916C472.066 135.253 472.121 135.666 472.121 136.153V141H470.85V136.14C470.85 135.752 470.793 135.442 470.679 135.21C470.565 134.973 470.398 134.802 470.18 134.697C469.961 134.588 469.692 134.533 469.373 134.533C469.059 134.533 468.771 134.599 468.512 134.731C468.257 134.864 468.035 135.046 467.849 135.278C467.666 135.511 467.523 135.777 467.418 136.078C467.318 136.374 467.268 136.689 467.268 137.021ZM473.707 137.384V137.227C473.707 136.693 473.785 136.199 473.939 135.743C474.094 135.283 474.318 134.884 474.609 134.547C474.901 134.205 475.254 133.941 475.669 133.754C476.084 133.562 476.549 133.467 477.063 133.467C477.583 133.467 478.05 133.562 478.465 133.754C478.884 133.941 479.24 134.205 479.531 134.547C479.827 134.884 480.053 135.283 480.208 135.743C480.363 136.199 480.44 136.693 480.44 137.227V137.384C480.44 137.917 480.363 138.411 480.208 138.867C480.053 139.323 479.827 139.722 479.531 140.063C479.24 140.401 478.886 140.665 478.472 140.856C478.062 141.043 477.597 141.137 477.077 141.137C476.558 141.137 476.09 141.043 475.676 140.856C475.261 140.665 474.906 140.401 474.609 140.063C474.318 139.722 474.094 139.323 473.939 138.867C473.785 138.411 473.707 137.917 473.707 137.384ZM474.972 137.227V137.384C474.972 137.753 475.015 138.102 475.102 138.43C475.188 138.753 475.318 139.04 475.491 139.291C475.669 139.542 475.89 139.74 476.154 139.886C476.419 140.027 476.726 140.098 477.077 140.098C477.424 140.098 477.727 140.027 477.986 139.886C478.251 139.74 478.469 139.542 478.643 139.291C478.816 139.04 478.946 138.753 479.032 138.43C479.123 138.102 479.169 137.753 479.169 137.384V137.227C479.169 136.862 479.123 136.518 479.032 136.194C478.946 135.866 478.813 135.577 478.636 135.326C478.463 135.071 478.244 134.87 477.979 134.725C477.72 134.579 477.414 134.506 477.063 134.506C476.717 134.506 476.412 134.579 476.147 134.725C475.888 134.87 475.669 135.071 475.491 135.326C475.318 135.577 475.188 135.866 475.102 136.194C475.015 136.518 474.972 136.862 474.972 137.227ZM485.123 133.604V134.574H481.124V133.604H485.123ZM482.478 131.806H483.742V139.168C483.742 139.419 483.781 139.608 483.858 139.735C483.936 139.863 484.036 139.947 484.159 139.988C484.282 140.029 484.414 140.05 484.556 140.05C484.66 140.05 484.77 140.041 484.884 140.022C485.002 140 485.091 139.981 485.15 139.968L485.157 141C485.057 141.032 484.925 141.062 484.761 141.089C484.601 141.121 484.408 141.137 484.18 141.137C483.87 141.137 483.585 141.075 483.325 140.952C483.065 140.829 482.858 140.624 482.703 140.337C482.553 140.045 482.478 139.653 482.478 139.161V131.806ZM494.44 139.735V135.928C494.44 135.636 494.381 135.383 494.263 135.169C494.149 134.95 493.976 134.782 493.743 134.663C493.511 134.545 493.224 134.485 492.882 134.485C492.563 134.485 492.283 134.54 492.041 134.649C491.804 134.759 491.617 134.902 491.48 135.08C491.348 135.258 491.282 135.449 491.282 135.654H490.018C490.018 135.39 490.086 135.128 490.223 134.868C490.359 134.608 490.555 134.374 490.811 134.164C491.07 133.95 491.38 133.781 491.74 133.658C492.105 133.531 492.51 133.467 492.957 133.467C493.495 133.467 493.969 133.558 494.379 133.74C494.794 133.923 495.117 134.198 495.35 134.567C495.587 134.932 495.705 135.39 495.705 135.941V139.387C495.705 139.633 495.726 139.895 495.767 140.173C495.812 140.451 495.878 140.69 495.965 140.891V141H494.646C494.582 140.854 494.532 140.66 494.495 140.419C494.459 140.173 494.44 139.945 494.44 139.735ZM494.659 136.516L494.673 137.404H493.395C493.035 137.404 492.713 137.434 492.431 137.493C492.148 137.548 491.911 137.632 491.72 137.746C491.528 137.86 491.382 138.004 491.282 138.177C491.182 138.345 491.132 138.544 491.132 138.771C491.132 139.004 491.184 139.216 491.289 139.407C491.394 139.599 491.551 139.751 491.761 139.865C491.975 139.975 492.237 140.029 492.547 140.029C492.934 140.029 493.276 139.947 493.572 139.783C493.868 139.619 494.103 139.419 494.276 139.182C494.454 138.945 494.55 138.715 494.563 138.491L495.104 139.1C495.072 139.291 494.985 139.503 494.844 139.735C494.702 139.968 494.513 140.191 494.276 140.405C494.044 140.615 493.766 140.79 493.442 140.932C493.123 141.068 492.763 141.137 492.362 141.137C491.861 141.137 491.421 141.039 491.043 140.843C490.669 140.647 490.378 140.385 490.168 140.057C489.963 139.724 489.86 139.353 489.86 138.942C489.86 138.546 489.938 138.197 490.093 137.896C490.248 137.591 490.471 137.338 490.763 137.138C491.054 136.933 491.405 136.778 491.815 136.673C492.226 136.568 492.684 136.516 493.189 136.516H494.659ZM499.834 139.858L501.857 133.604H503.149L500.49 141H499.643L499.834 139.858ZM498.146 133.604L500.23 139.893L500.374 141H499.526L496.847 133.604H498.146ZM508.618 139.735V135.928C508.618 135.636 508.559 135.383 508.44 135.169C508.326 134.95 508.153 134.782 507.921 134.663C507.688 134.545 507.401 134.485 507.06 134.485C506.741 134.485 506.46 134.54 506.219 134.649C505.982 134.759 505.795 134.902 505.658 135.08C505.526 135.258 505.46 135.449 505.46 135.654H504.195C504.195 135.39 504.264 135.128 504.4 134.868C504.537 134.608 504.733 134.374 504.988 134.164C505.248 133.95 505.558 133.781 505.918 133.658C506.283 133.531 506.688 133.467 507.135 133.467C507.673 133.467 508.146 133.558 508.557 133.74C508.971 133.923 509.295 134.198 509.527 134.567C509.764 134.932 509.883 135.39 509.883 135.941V139.387C509.883 139.633 509.903 139.895 509.944 140.173C509.99 140.451 510.056 140.69 510.143 140.891V141H508.823C508.759 140.854 508.709 140.66 508.673 140.419C508.636 140.173 508.618 139.945 508.618 139.735ZM508.837 136.516L508.851 137.404H507.572C507.212 137.404 506.891 137.434 506.608 137.493C506.326 137.548 506.089 137.632 505.897 137.746C505.706 137.86 505.56 138.004 505.46 138.177C505.36 138.345 505.31 138.544 505.31 138.771C505.31 139.004 505.362 139.216 505.467 139.407C505.572 139.599 505.729 139.751 505.938 139.865C506.153 139.975 506.415 140.029 506.725 140.029C507.112 140.029 507.454 139.947 507.75 139.783C508.046 139.619 508.281 139.419 508.454 139.182C508.632 138.945 508.728 138.715 508.741 138.491L509.281 139.1C509.249 139.291 509.163 139.503 509.021 139.735C508.88 139.968 508.691 140.191 508.454 140.405C508.222 140.615 507.944 140.79 507.62 140.932C507.301 141.068 506.941 141.137 506.54 141.137C506.039 141.137 505.599 141.039 505.221 140.843C504.847 140.647 504.555 140.385 504.346 140.057C504.141 139.724 504.038 139.353 504.038 138.942C504.038 138.546 504.116 138.197 504.271 137.896C504.425 137.591 504.649 137.338 504.94 137.138C505.232 136.933 505.583 136.778 505.993 136.673C506.403 136.568 506.861 136.516 507.367 136.516H508.837ZM513.246 133.604V141H511.975V133.604H513.246ZM511.879 131.642C511.879 131.437 511.94 131.263 512.063 131.122C512.191 130.981 512.378 130.91 512.624 130.91C512.866 130.91 513.05 130.981 513.178 131.122C513.31 131.263 513.376 131.437 513.376 131.642C513.376 131.838 513.31 132.006 513.178 132.147C513.05 132.284 512.866 132.353 512.624 132.353C512.378 132.353 512.191 132.284 512.063 132.147C511.94 132.006 511.879 131.838 511.879 131.642ZM516.65 130.5V141H515.379V130.5H516.65ZM523.042 139.735V135.928C523.042 135.636 522.983 135.383 522.864 135.169C522.75 134.95 522.577 134.782 522.345 134.663C522.112 134.545 521.825 134.485 521.483 134.485C521.164 134.485 520.884 134.54 520.643 134.649C520.406 134.759 520.219 134.902 520.082 135.08C519.95 135.258 519.884 135.449 519.884 135.654H518.619C518.619 135.39 518.688 135.128 518.824 134.868C518.961 134.608 519.157 134.374 519.412 134.164C519.672 133.95 519.982 133.781 520.342 133.658C520.706 133.531 521.112 133.467 521.559 133.467C522.096 133.467 522.57 133.558 522.98 133.74C523.395 133.923 523.719 134.198 523.951 134.567C524.188 134.932 524.307 135.39 524.307 135.941V139.387C524.307 139.633 524.327 139.895 524.368 140.173C524.414 140.451 524.48 140.69 524.566 140.891V141H523.247C523.183 140.854 523.133 140.66 523.097 140.419C523.06 140.173 523.042 139.945 523.042 139.735ZM523.261 136.516L523.274 137.404H521.996C521.636 137.404 521.315 137.434 521.032 137.493C520.75 137.548 520.513 137.632 520.321 137.746C520.13 137.86 519.984 138.004 519.884 138.177C519.784 138.345 519.733 138.544 519.733 138.771C519.733 139.004 519.786 139.216 519.891 139.407C519.995 139.599 520.153 139.751 520.362 139.865C520.576 139.975 520.839 140.029 521.148 140.029C521.536 140.029 521.878 139.947 522.174 139.783C522.47 139.619 522.705 139.419 522.878 139.182C523.056 138.945 523.151 138.715 523.165 138.491L523.705 139.1C523.673 139.291 523.587 139.503 523.445 139.735C523.304 139.968 523.115 140.191 522.878 140.405C522.646 140.615 522.368 140.79 522.044 140.932C521.725 141.068 521.365 141.137 520.964 141.137C520.463 141.137 520.023 141.039 519.645 140.843C519.271 140.647 518.979 140.385 518.77 140.057C518.564 139.724 518.462 139.353 518.462 138.942C518.462 138.546 518.539 138.197 518.694 137.896C518.849 137.591 519.073 137.338 519.364 137.138C519.656 136.933 520.007 136.778 520.417 136.673C520.827 136.568 521.285 136.516 521.791 136.516H523.261ZM526.289 130.5H527.561V139.564L527.451 141H526.289V130.5ZM532.558 137.24V137.384C532.558 137.922 532.494 138.421 532.366 138.881C532.239 139.337 532.052 139.733 531.806 140.07C531.56 140.408 531.259 140.67 530.903 140.856C530.548 141.043 530.14 141.137 529.68 141.137C529.21 141.137 528.798 141.057 528.442 140.897C528.091 140.733 527.795 140.499 527.554 140.193C527.312 139.888 527.118 139.519 526.973 139.086C526.831 138.653 526.733 138.165 526.679 137.623V136.994C526.733 136.447 526.831 135.957 526.973 135.524C527.118 135.091 527.312 134.722 527.554 134.417C527.795 134.107 528.091 133.872 528.442 133.713C528.793 133.549 529.201 133.467 529.666 133.467C530.131 133.467 530.543 133.558 530.903 133.74C531.263 133.918 531.564 134.173 531.806 134.506C532.052 134.839 532.239 135.237 532.366 135.702C532.494 136.162 532.558 136.675 532.558 137.24ZM531.286 137.384V137.24C531.286 136.871 531.252 136.525 531.184 136.201C531.115 135.873 531.006 135.586 530.855 135.34C530.705 135.089 530.507 134.893 530.261 134.752C530.015 134.606 529.712 134.533 529.352 134.533C529.033 134.533 528.755 134.588 528.518 134.697C528.285 134.807 528.087 134.955 527.923 135.142C527.759 135.324 527.624 135.534 527.52 135.771C527.419 136.003 527.344 136.244 527.294 136.495V138.143C527.367 138.462 527.485 138.769 527.649 139.065C527.818 139.357 528.041 139.596 528.319 139.783C528.602 139.97 528.951 140.063 529.365 140.063C529.707 140.063 529.999 139.995 530.24 139.858C530.486 139.717 530.685 139.523 530.835 139.277C530.99 139.031 531.104 138.746 531.177 138.423C531.25 138.099 531.286 137.753 531.286 137.384ZM535.531 130.5V141H534.26V130.5H535.531ZM540.631 141.137C540.116 141.137 539.649 141.05 539.229 140.877C538.815 140.699 538.457 140.451 538.156 140.132C537.86 139.813 537.632 139.435 537.473 138.997C537.313 138.56 537.233 138.081 537.233 137.562V137.274C537.233 136.673 537.322 136.137 537.5 135.668C537.678 135.194 537.919 134.793 538.225 134.465C538.53 134.137 538.876 133.888 539.264 133.72C539.651 133.551 540.052 133.467 540.467 133.467C540.995 133.467 541.451 133.558 541.834 133.74C542.221 133.923 542.538 134.178 542.784 134.506C543.03 134.829 543.213 135.212 543.331 135.654C543.45 136.092 543.509 136.57 543.509 137.09V137.657H537.985V136.625H542.244V136.529C542.226 136.201 542.158 135.882 542.039 135.572C541.925 135.262 541.743 135.007 541.492 134.807C541.242 134.606 540.9 134.506 540.467 134.506C540.18 134.506 539.915 134.567 539.674 134.69C539.432 134.809 539.225 134.987 539.052 135.224C538.879 135.461 538.744 135.75 538.648 136.092C538.553 136.434 538.505 136.828 538.505 137.274V137.562C538.505 137.912 538.553 138.243 538.648 138.553C538.749 138.858 538.892 139.127 539.079 139.359C539.271 139.592 539.501 139.774 539.77 139.906C540.043 140.038 540.353 140.104 540.699 140.104C541.146 140.104 541.524 140.013 541.834 139.831C542.144 139.649 542.415 139.405 542.647 139.1L543.413 139.708C543.254 139.95 543.051 140.18 542.805 140.398C542.559 140.617 542.256 140.795 541.896 140.932C541.54 141.068 541.118 141.137 540.631 141.137Z" fill="white"/>
<circle cx="284" cy="120" r="54" stroke="#999999" stroke-width="12"/>
<rect x="278" y="90" width="12" height="36" fill="#999999"/>
<rect x="278" y="138" width="12" height="12" fill="#999999"/>
</svg>
