<svg width="32" height="32" viewBox="0 0 32 32" fill="none" xmlns="http://www.w3.org/2000/svg">
<path fill-rule="evenodd" clip-rule="evenodd" d="M14.5321 1.42396C18.7753 -1.27947 24.6441 -0.0188945 27.6155 4.23396H27.617C28.3221 5.22096 28.823 6.33887 29.0903 7.52209C29.3575 8.7053 29.3858 9.92998 29.1733 11.1242C28.9674 12.2646 28.5325 13.3514 27.895 14.3191C28.825 16.0938 29.1367 18.1279 28.7807 20.0997C28.5708 21.2704 28.1188 22.3844 27.4538 23.3705C26.7887 24.3566 25.9252 25.193 24.9184 25.8262L17.4661 30.576C13.2235 33.2802 7.3544 32.0194 4.38297 27.766C3.67796 26.7789 3.17712 25.661 2.90983 24.4778C2.64254 23.2946 2.61417 22.07 2.8264 20.8757C3.03242 19.7351 3.46757 18.6482 4.10554 17.6805C3.17464 15.9062 2.86215 13.8721 3.21754 11.9002C3.42775 10.7294 3.87999 9.61534 4.54534 8.62927C5.21069 7.6432 6.0745 6.80684 7.08154 6.17368L14.5321 1.42396ZM10.2571 27.9875C11.3933 28.4087 12.6313 28.4711 13.8041 28.1662C14.3398 28.023 14.8505 27.7986 15.3184 27.5008L22.7712 22.7528C23.3766 22.3719 23.8959 21.8688 24.2959 21.2758C24.6958 20.6828 24.9677 20.0129 25.0941 19.3088C25.2217 18.5907 25.2046 17.8544 25.0438 17.1429C24.8831 16.4315 24.5818 15.7594 24.1578 15.166C23.4672 14.1704 22.4877 13.4107 21.3515 12.9895C20.2154 12.5683 18.9774 12.506 17.8047 12.8108C17.2688 12.9538 16.7581 13.1781 16.2904 13.476L13.4469 15.288C13.3056 15.3774 13.1514 15.4449 12.9898 15.488C12.6363 15.5796 12.2633 15.5606 11.921 15.4336C11.5786 15.3065 11.2835 15.0775 11.0755 14.7774C10.9479 14.5983 10.8573 14.3957 10.8089 14.1812C10.7605 13.9667 10.7554 13.7447 10.7938 13.5282C10.8319 13.3162 10.9138 13.1145 11.0343 12.9359C11.1548 12.7573 11.3112 12.6058 11.4935 12.4911L18.9475 7.74053C19.0888 7.65097 19.243 7.58353 19.4047 7.54053C19.758 7.44864 20.1311 7.46746 20.4735 7.59444C20.8158 7.72141 21.1109 7.95043 21.3189 8.25053C21.5466 8.57289 21.6531 8.96532 21.6195 9.35853L21.5938 9.63511L21.8709 9.7191C22.9183 10.0353 23.9039 10.5281 24.7852 11.1762L25.1669 11.456L25.3072 11.0274C25.3824 10.7998 25.442 10.5674 25.4855 10.3317C25.6131 9.61357 25.5959 8.87723 25.4352 8.16583C25.2744 7.45443 24.9732 6.78229 24.5492 6.18882C23.8585 5.19322 22.879 4.43355 21.7428 4.01238C20.6066 3.59121 19.3685 3.52884 18.1958 3.83368C17.6601 3.97696 17.1494 4.20137 16.6815 4.49911L9.22865 9.24853C8.62292 9.62906 8.10327 10.1318 7.70295 10.7247C7.30262 11.3175 7.03044 11.9873 6.9038 12.6914C6.77618 13.4095 6.79326 14.1459 6.95403 14.8573C7.11481 15.5687 7.41605 16.2408 7.84008 16.8342C8.53075 17.8299 9.51032 18.5896 10.6465 19.0107C11.7827 19.4319 13.0208 19.4943 14.1935 19.1894C14.7292 19.0462 15.2398 18.8221 15.7078 18.5248L18.5515 16.712C18.6928 16.6224 18.847 16.555 19.0087 16.512C19.3621 16.4203 19.7352 16.4392 20.0775 16.5663C20.4198 16.6934 20.7149 16.9224 20.9229 17.2225C21.0506 17.4015 21.1412 17.6041 21.1897 17.8186C21.2382 18.033 21.2434 18.2549 21.2052 18.4714C21.167 18.6835 21.0849 18.8852 20.9643 19.0639C20.8438 19.2425 20.6873 19.394 20.5049 19.5088L13.0529 24.2591C12.9116 24.3487 12.7575 24.4161 12.5958 24.4591C12.2424 24.551 11.8693 24.5322 11.527 24.4053C11.1846 24.2783 10.8895 24.0492 10.6815 23.7491C10.4536 23.4272 10.347 23.035 10.3807 22.642L10.4061 22.3654L10.1292 22.2814C9.08193 21.9651 8.09634 21.4723 7.21494 20.8242L6.83294 20.544L6.69265 20.9725C6.61731 21.2 6.55783 21.4325 6.51465 21.6682C6.38707 22.3863 6.40415 23.1227 6.56487 23.8341C6.7256 24.5455 7.02675 25.2176 7.45065 25.8111C8.14135 26.8067 9.12092 27.5664 10.2571 27.9875Z" fill="white"/>
</svg>
