<svg width="32" height="32" viewBox="0 0 32 32" fill="none" xmlns="http://www.w3.org/2000/svg">
<path d="M9.95901 29C20.1763 29 28.459 20.7173 28.459 10.5C28.459 10.2898 28.448 10.086 28.441 9.8775C28.439 9.8163 28.4442 9.74961 28.4415 9.68856L28.4491 9.68299C29.7894 8.6928 30.9772 7.49278 31.9514 6.14004C30.9865 6.53002 29.975 6.82863 28.9274 7.02516C28.6802 7.07153 28.4311 7.11221 28.1801 7.14707C29.5917 6.34015 30.6716 5.01919 31.1648 3.43923C30.0718 4.09865 28.8738 4.60174 27.6018 4.91753C27.3192 4.98769 27.0329 5.04861 26.7434 5.09995C25.5554 3.80894 23.8517 3 21.959 3C20.8409 3 19.7888 3.2823 18.8699 3.77951C18.7867 3.82455 18.7046 3.87135 18.6236 3.91986C18.1899 4.17963 17.7891 4.48852 17.4287 4.83884C16.2138 6.01987 15.459 7.67179 15.459 9.5C15.459 10.0006 15.5156 10.488 15.6227 10.9561C15.1576 10.9254 14.6969 10.8788 14.2411 10.8169C13.9671 10.7796 13.6948 10.7369 13.4245 10.6887C13.2403 10.6558 13.0571 10.6205 12.8747 10.5826C11.9201 10.3845 10.9903 10.1184 10.0908 9.78951C10.0015 9.75686 9.91252 9.72359 9.82382 9.6897C9.57481 9.59458 9.32818 9.49463 9.08405 9.38995C7.66164 8.78004 6.32421 8.00994 5.09447 7.10233C5.00472 7.03609 4.91555 6.96911 4.82696 6.90142C3.82999 6.13962 2.90677 5.28618 2.06988 4.35369C1.5532 5.28596 1.25902 6.35862 1.25902 7.5C1.25902 7.71979 1.26992 7.93704 1.29123 8.15122C1.3616 8.85857 1.54536 9.53255 1.82408 10.1547C2.34958 11.3277 3.21261 12.3166 4.28962 12.9977C3.1899 12.9672 2.16414 12.6408 1.28912 12.0952C1.26921 12.2941 1.25902 12.4959 1.25902 12.7C1.25902 14.5725 2.11674 16.2446 3.46073 17.3449C4.34073 18.0654 5.4292 18.5407 6.62187 18.6666C6.09385 18.8186 5.53594 18.9 4.95901 18.9C4.51431 18.9 4.0809 18.8516 3.66377 18.7598C4.3504 21.3173 6.68484 23.2 9.45901 23.2C9.56536 23.2 9.67106 23.1972 9.77605 23.1918C7.52201 25.0701 4.62247 26.2 1.45901 26.2C0.982468 26.2 0.511909 26.1744 0.048645 26.1244C2.91346 27.9453 6.31307 29 9.95901 29Z" fill="white"/>
</svg>
