<svg width="32" height="32" viewBox="0 0 32 32" fill="none" xmlns="http://www.w3.org/2000/svg">
<rect x="1.1" y="1.1" width="29.8" height="29.8" fill="#350819"/>
<rect x="1.1" y="1.1" width="29.8" height="29.8" stroke="#FF4697" stroke-width="2.2"/>
<path d="M8.5 22.5801C8.92969 22.4954 9.27148 22.3978 9.52539 22.2871C9.78581 22.1764 9.91602 22.0755 9.91602 21.9844V11.7207C9.91602 11.6361 9.78906 11.5352 9.53516 11.418C9.28776 11.3008 8.94271 11.1999 8.5 11.1152V10.6953H12.8945V11.1152C12.4583 11.2064 12.1133 11.3073 11.8594 11.418C11.6055 11.5286 11.4785 11.6296 11.4785 11.7207V21.9844C11.4785 22.069 11.6022 22.1699 11.8496 22.2871C12.1035 22.3978 12.4518 22.4954 12.8945 22.5801V23H8.5V22.5801ZM21.8691 23.293C21.6478 23.293 21.4688 23.14 21.332 22.834C21.2018 22.528 21.1139 22.0332 21.0684 21.3496C20.5215 22.0072 20.0039 22.4954 19.5156 22.8145C19.0273 23.1335 18.4674 23.293 17.8359 23.293C17.3346 23.293 16.8301 23.1042 16.3223 22.7266C15.8145 22.3424 15.3913 21.7988 15.0527 21.0957C14.7207 20.3926 14.5547 19.582 14.5547 18.6641C14.5547 17.8958 14.7533 17.1211 15.1504 16.3398C15.5475 15.5586 16.0977 14.9108 16.8008 14.3965C17.5039 13.8822 18.2884 13.625 19.1543 13.625C19.4993 13.625 19.8184 13.6673 20.1113 13.752C20.4108 13.8366 20.7233 13.9993 21.0488 14.2402V10.5586C21.0488 10.0312 21.0228 9.66667 20.9707 9.46484C20.9251 9.26302 20.8112 9.12305 20.6289 9.04492C20.4466 8.9668 20.1146 8.91146 19.6328 8.87891V8.49805C20.0951 8.43945 20.5085 8.36133 20.873 8.26367C21.2376 8.16602 21.6836 8.03255 22.2109 7.86328L22.5137 8.15625V20.5195C22.5137 20.9557 22.5299 21.2812 22.5625 21.4961C22.6016 21.7109 22.6602 21.8672 22.7383 21.9648C22.7773 22.0169 22.8457 22.043 22.9434 22.043C23.1061 22.043 23.4284 21.9486 23.9102 21.7598L24.0371 22.1797C23.4382 22.5833 22.9727 22.8698 22.6406 23.0391C22.3086 23.2083 22.0514 23.293 21.8691 23.293ZM21.0488 15.8711C20.834 15.5 20.5312 15.2135 20.1406 15.0117C19.75 14.8034 19.3203 14.6992 18.8516 14.6992C18.2917 14.6992 17.7969 14.8359 17.3672 15.1094C16.944 15.3828 16.612 15.7962 16.3711 16.3496C16.1367 16.8965 16.0195 17.5671 16.0195 18.3613C16.0195 19.0579 16.1497 19.6862 16.4102 20.2461C16.6706 20.806 16.9961 21.2422 17.3867 21.5547C17.7773 21.8672 18.1582 22.0234 18.5293 22.0234C18.8092 22.0234 19.0859 21.9518 19.3594 21.8086C19.6393 21.6654 19.903 21.4896 20.1504 21.2812C20.3978 21.0664 20.6973 20.7897 21.0488 20.4512V15.8711Z" fill="#FF4697"/>
</svg>
