<svg width="32" height="32" viewBox="0 0 32 32" fill="none" xmlns="http://www.w3.org/2000/svg">
<rect x="1.1" y="1.1" width="29.8" height="29.8" fill="#191B63"/>
<rect x="1.1" y="1.1" width="29.8" height="29.8" stroke="#A5B5FA" stroke-width="2.2"/>
<path d="M13.8438 6.99658C14.585 6.99658 15.2214 7.09017 15.7529 7.27734C16.292 7.45703 16.7412 7.67041 17.1006 7.91748C17.46 8.15706 17.737 8.40039 17.9316 8.64746C18.1263 8.89453 18.2498 9.08545 18.3022 9.22021C18.3322 9.2876 18.3472 9.34749 18.3472 9.3999C18.3547 9.44482 18.3584 9.486 18.3584 9.52344C18.3584 9.61328 18.3359 9.67692 18.291 9.71436C18.2536 9.75179 18.2049 9.81917 18.145 9.9165C18.1001 9.99137 18.0477 10.0438 17.9878 10.0737C17.9354 10.1037 17.8755 10.1299 17.8081 10.1523C17.7482 10.1748 17.6883 10.2048 17.6284 10.2422C17.576 10.2721 17.5311 10.3245 17.4937 10.3994C17.3739 10.624 17.2054 10.7363 16.9883 10.7363C16.861 10.7363 16.7375 10.6989 16.6177 10.624C16.4979 10.5417 16.3631 10.4406 16.2134 10.3208C16.0636 10.201 15.8877 10.07 15.6855 9.92773C15.4909 9.78548 15.2476 9.65446 14.9556 9.53467C14.6711 9.41488 14.3304 9.31755 13.9336 9.24268C13.5368 9.16032 13.0651 9.11914 12.5186 9.11914C11.9196 9.11914 11.3918 9.21273 10.9351 9.3999C10.4858 9.57959 10.0666 9.84912 9.67725 10.2085C9.34033 10.5229 9.08577 10.8561 8.91357 11.208C8.74886 11.5599 8.6665 11.9006 8.6665 12.23C8.6665 12.6118 8.79004 12.96 9.03711 13.2744C9.2168 13.499 9.48258 13.7199 9.83447 13.937C10.1938 14.1541 10.5757 14.36 10.98 14.5547C11.3918 14.7493 11.7923 14.929 12.1816 15.0938C12.5785 15.251 12.9004 15.3857 13.1475 15.498C13.3646 15.5954 13.5068 15.6927 13.5742 15.79C13.6491 15.8874 13.6865 15.9884 13.6865 16.0933C13.6865 16.2056 13.6641 16.3254 13.6191 16.4526C13.5817 16.5724 13.563 16.696 13.563 16.8232C13.563 16.8831 13.5705 16.9393 13.5854 16.9917C13.6004 17.0441 13.6079 17.0965 13.6079 17.1489C13.6079 17.2687 13.5705 17.3735 13.4956 17.4634C13.4282 17.5457 13.3346 17.6206 13.2148 17.688C13.1025 17.7554 12.9715 17.8153 12.8218 17.8677C12.672 17.9201 12.5223 17.9688 12.3726 18.0137C12.1554 18.0811 11.8784 18.1784 11.5415 18.3057C11.2046 18.4329 10.8789 18.6051 10.5645 18.8223C10.25 19.0319 9.98047 19.2939 9.75586 19.6084C9.53125 19.9229 9.41895 20.3047 9.41895 20.7539C9.41895 21.0534 9.48258 21.3341 9.60986 21.5962C9.73714 21.8582 9.91683 22.0903 10.1489 22.2925C10.3885 22.4871 10.673 22.6406 11.0024 22.7529C11.3319 22.8652 11.695 22.9214 12.0918 22.9214C12.9977 22.9214 13.8175 22.723 14.5513 22.3262C15.285 21.9294 15.8877 21.3866 16.3594 20.6978C16.4642 20.548 16.5877 20.3346 16.73 20.0576C16.8797 19.7731 17.0369 19.4287 17.2017 19.0244C17.2391 18.9346 17.2878 18.8672 17.3477 18.8223C17.4076 18.7699 17.4674 18.7437 17.5273 18.7437C17.5723 18.7437 17.6097 18.7624 17.6396 18.7998C17.6771 18.8298 17.6958 18.8747 17.6958 18.9346C17.6958 18.9945 17.6621 19.1217 17.5947 19.3164C17.5273 19.5036 17.4338 19.7282 17.314 19.9902C17.1942 20.2448 17.0482 20.5218 16.876 20.8213C16.7113 21.1208 16.5316 21.409 16.3369 21.686C16.0674 22.0679 15.7529 22.4272 15.3936 22.7642C15.0417 23.0936 14.6561 23.3818 14.2368 23.6289C13.825 23.876 13.3833 24.0669 12.9116 24.2017C12.4399 24.3439 11.9458 24.415 11.4292 24.415C10.965 24.415 10.4971 24.3477 10.0254 24.2129C9.55371 24.0856 9.12321 23.891 8.73389 23.6289C8.35205 23.3669 8.0376 23.0337 7.79053 22.6294C7.55094 22.2251 7.43115 21.7497 7.43115 21.2031C7.43115 20.6566 7.53597 20.1886 7.74561 19.7993C7.95524 19.4025 8.21354 19.0693 8.52051 18.7998C8.83496 18.5303 9.17188 18.3094 9.53125 18.1372C9.89811 17.965 10.235 17.8265 10.542 17.7217C10.8564 17.6094 11.1185 17.5195 11.3281 17.4521C11.5378 17.3848 11.6426 17.3174 11.6426 17.25C11.6426 17.1976 11.5864 17.1452 11.4741 17.0928C11.3693 17.0329 11.2271 16.9692 11.0474 16.9019C10.8752 16.827 10.6768 16.7446 10.4521 16.6548C10.2275 16.5649 9.99919 16.4564 9.76709 16.3291C9.39274 16.127 9.05583 15.9136 8.75635 15.689C8.45687 15.4644 8.19857 15.221 7.98145 14.959C7.77181 14.6895 7.61084 14.3975 7.49854 14.083C7.38623 13.7611 7.33008 13.4054 7.33008 13.0161C7.33008 12.4995 7.40869 11.9904 7.56592 11.4888C7.73063 10.9871 7.95898 10.5155 8.25098 10.0737C8.54297 9.62451 8.88737 9.21273 9.28418 8.83838C9.68848 8.46403 10.1302 8.14209 10.6094 7.87256C11.096 7.59554 11.6126 7.38216 12.1592 7.23242C12.7057 7.0752 13.2673 6.99658 13.8438 6.99658ZM25.5459 18.7437C25.5908 18.7437 25.6283 18.7624 25.6582 18.7998C25.6956 18.8298 25.7144 18.8747 25.7144 18.9346C25.7144 18.9945 25.7031 19.0506 25.6807 19.103C25.4486 19.7694 25.2352 20.3571 25.0405 20.8662C24.8459 21.3678 24.6475 21.7871 24.4453 22.124C24.2507 22.4609 24.0485 22.7155 23.8389 22.8877C23.6292 23.0599 23.3971 23.146 23.1426 23.146C22.8281 23.146 22.5736 23.0749 22.3789 22.9326C22.1842 22.7829 22.0308 22.592 21.9185 22.3599C21.8062 22.1278 21.7313 21.8695 21.6938 21.585C21.6564 21.293 21.6377 21.0047 21.6377 20.7202C21.6377 20.5181 21.6414 20.3197 21.6489 20.125C21.6564 19.9229 21.6639 19.7319 21.6714 19.5522C21.6864 19.3726 21.6976 19.2116 21.7051 19.0693C21.7126 18.9271 21.7163 18.811 21.7163 18.7212C21.7163 18.5789 21.6901 18.4779 21.6377 18.418C21.5928 18.3506 21.5404 18.3169 21.4805 18.3169C21.4131 18.3169 21.3569 18.3506 21.312 18.418C21.2671 18.4779 21.2297 18.549 21.1997 18.6313C21.1623 18.7212 21.1061 18.8822 21.0312 19.1143C20.9564 19.3464 20.8703 19.6084 20.7729 19.9004C20.6756 20.1924 20.5708 20.4993 20.4585 20.8213C20.3537 21.1357 20.2563 21.4202 20.1665 21.6748C20.0467 22.0042 19.9307 22.2738 19.8184 22.4834C19.7135 22.6855 19.6125 22.8428 19.5151 22.9551C19.4178 23.0674 19.3205 23.1423 19.2231 23.1797C19.1333 23.2246 19.0472 23.2471 18.9648 23.2471C18.89 23.2471 18.8114 23.2321 18.729 23.2021C18.6541 23.1722 18.583 23.1235 18.5156 23.0562C18.4557 22.9888 18.4033 22.8989 18.3584 22.7866C18.3135 22.6668 18.291 22.5171 18.291 22.3374C18.276 21.9556 18.2648 21.5438 18.2573 21.1021C18.2573 20.6528 18.2573 20.2148 18.2573 19.7881C18.2573 19.5859 18.2573 19.3913 18.2573 19.2041C18.2648 19.0169 18.2686 18.8447 18.2686 18.6875C18.2686 18.4704 18.2573 18.3169 18.2349 18.2271C18.2124 18.1297 18.1825 18.0811 18.145 18.0811C18.0627 18.0811 17.9915 18.1634 17.9316 18.3281C17.8792 18.4854 17.7856 18.7324 17.6509 19.0693C17.606 19.1816 17.5573 19.2603 17.5049 19.3052C17.46 19.3501 17.4113 19.3726 17.3589 19.3726C17.314 19.3726 17.2765 19.3576 17.2466 19.3276C17.2091 19.2902 17.1904 19.2303 17.1904 19.1479C17.1904 19.103 17.2091 19.0244 17.2466 18.9121C17.284 18.7923 17.3289 18.665 17.3813 18.5303C17.4412 18.388 17.4974 18.2458 17.5498 18.1035C17.6097 17.9538 17.6621 17.8265 17.707 17.7217C17.7744 17.5495 17.853 17.3735 17.9429 17.1938C18.0402 17.0067 18.145 16.8382 18.2573 16.6885C18.3771 16.5312 18.5044 16.404 18.6392 16.3066C18.7814 16.2018 18.9349 16.1494 19.0996 16.1494C19.3167 16.1494 19.5076 16.2692 19.6724 16.5088C19.8446 16.7484 19.9382 17.1115 19.9531 17.5981C19.9606 17.9875 19.9644 18.3581 19.9644 18.71C19.9718 19.0544 19.9793 19.3576 19.9868 19.6196C19.9943 19.8742 19.998 20.0801 19.998 20.2373C20.0055 20.387 20.013 20.4619 20.0205 20.4619C20.0355 20.4619 20.0692 20.3945 20.1216 20.2598C20.174 20.125 20.2414 19.9491 20.3237 19.7319C20.4061 19.5073 20.4997 19.2565 20.6045 18.9795C20.7093 18.695 20.8179 18.4105 20.9302 18.126C21.05 17.834 21.1735 17.557 21.3008 17.2949C21.4281 17.0254 21.5553 16.7896 21.6826 16.5874C21.8174 16.3703 21.9596 16.2056 22.1094 16.0933C22.2666 15.981 22.4425 15.9248 22.6372 15.9248C22.9067 15.9248 23.1014 16.0858 23.2212 16.4077C23.341 16.7222 23.4009 17.1489 23.4009 17.688C23.4009 17.8228 23.3971 17.9875 23.3896 18.1821C23.3822 18.3768 23.3709 18.5827 23.356 18.7998C23.3485 19.0169 23.341 19.234 23.3335 19.4512C23.326 19.6683 23.3223 19.8667 23.3223 20.0464C23.3223 20.3534 23.3335 20.6042 23.356 20.7988C23.3859 20.986 23.4233 21.132 23.4683 21.2368C23.5132 21.3416 23.5618 21.4128 23.6143 21.4502C23.6667 21.4876 23.7191 21.5063 23.7715 21.5063C23.9212 21.5063 24.056 21.439 24.1758 21.3042C24.3031 21.1694 24.4229 20.986 24.5352 20.7539C24.6475 20.5218 24.7598 20.2598 24.8721 19.9678C24.9844 19.6683 25.1079 19.3538 25.2427 19.0244C25.3101 18.8372 25.4111 18.7437 25.5459 18.7437Z" fill="#A5B5FA"/>
</svg>
