<svg width="32" height="32" viewBox="0 0 32 32" fill="none" xmlns="http://www.w3.org/2000/svg">
<rect x="1.1" y="1.1" width="29.8" height="29.8" fill="#282201"/>
<rect x="1.1" y="1.1" width="29.8" height="29.8" stroke="#DACF01" stroke-width="2.2"/>
<path d="M6.84011 8.446C7.11611 8.446 7.38611 8.428 7.65011 8.392C7.92611 8.344 8.20211 8.32 8.47811 8.32C8.77811 8.32 9.07211 8.338 9.36011 8.374C9.66011 8.398 9.96011 8.422 10.2601 8.446C9.91211 8.386 9.56411 8.35 9.21611 8.338C8.86811 8.314 8.52011 8.302 8.17211 8.302C7.95611 8.302 7.74011 8.308 7.52411 8.32C7.32011 8.32 7.11011 8.326 6.89411 8.338C6.99011 8.182 7.12811 8.074 7.30811 8.014C7.48811 7.954 7.66211 7.924 7.83011 7.924H7.92011L8.37011 7.942L8.44211 8.122C8.53811 8.098 8.62811 8.086 8.71211 8.086H9.00011C9.28811 8.086 9.57611 8.11 9.86411 8.158C10.1521 8.194 10.4521 8.212 10.7641 8.212H10.9801C11.0521 8.212 11.1301 8.2 11.2141 8.176L11.2501 8.086C11.7181 8.11 12.1921 8.122 12.6721 8.122C12.8521 8.122 13.0081 8.158 13.1401 8.23C13.2841 8.302 13.4401 8.338 13.6081 8.338V8.752C13.6081 8.824 13.5961 8.89 13.5721 8.95C13.5481 8.998 13.5061 9.022 13.4461 9.022L13.3381 9.004V9.166C13.4581 9.25 13.5601 9.358 13.6441 9.49C13.7281 9.622 13.7701 9.76 13.7701 9.904C13.7701 10.012 13.7401 10.096 13.6801 10.156C13.6321 10.216 13.5661 10.264 13.4821 10.3C13.3981 10.336 13.3081 10.36 13.2121 10.372C13.1161 10.372 13.0261 10.372 12.9421 10.372C12.1861 10.372 11.4061 10.336 10.6021 10.264C9.79811 10.18 9.00011 10.072 8.20811 9.94L7.86611 10.03C7.87811 10.078 7.89011 10.192 7.90211 10.372C7.92611 10.54 7.95011 10.75 7.97411 11.002C7.99811 11.242 8.02211 11.5 8.04611 11.776C8.08211 12.052 8.11211 12.31 8.13611 12.55C8.16011 12.778 8.17811 12.976 8.19011 13.144C8.20211 13.3 8.20811 13.384 8.20811 13.396H8.92811V13.576C9.14411 13.516 9.33011 13.486 9.48611 13.486C9.67811 13.486 9.86411 13.504 10.0441 13.54C10.2241 13.576 10.4221 13.594 10.6381 13.594C10.7341 13.594 10.8241 13.588 10.9081 13.576C11.0041 13.564 11.1001 13.546 11.1961 13.522V13.396C11.0161 13.408 10.8361 13.42 10.6561 13.432C10.4761 13.432 10.2961 13.432 10.1161 13.432C9.99611 13.432 9.87611 13.432 9.75611 13.432C9.64811 13.42 9.54011 13.408 9.43211 13.396C9.93611 13.396 10.4281 13.378 10.9081 13.342C11.4001 13.306 11.8981 13.288 12.4021 13.288C12.6061 13.288 12.7921 13.342 12.9601 13.45C13.1281 13.558 13.2121 13.726 13.2121 13.954C13.2121 14.014 13.2001 14.068 13.1761 14.116C13.1521 14.164 13.1101 14.188 13.0501 14.188L12.9421 14.17V14.332C13.0621 14.428 13.1581 14.548 13.2301 14.692C13.3021 14.824 13.3381 14.962 13.3381 15.106C13.3381 15.226 13.2781 15.322 13.1581 15.394C13.0501 15.466 12.9121 15.526 12.7441 15.574C12.5761 15.61 12.3841 15.634 12.1681 15.646C11.9641 15.658 11.7721 15.664 11.5921 15.664C11.0641 15.664 10.5721 15.622 10.1161 15.538C9.67211 15.442 9.22211 15.394 8.76611 15.394C8.69411 15.394 8.59811 15.406 8.47811 15.43C8.51411 15.826 8.53211 16.228 8.53211 16.636C8.53211 17.188 8.51411 17.746 8.47811 18.31C8.44211 18.862 8.42411 19.414 8.42411 19.966C8.42411 20.05 8.43011 20.158 8.44211 20.29C8.45411 20.422 8.46011 20.554 8.46011 20.686C8.46011 20.854 8.43611 21.004 8.38811 21.136C8.35211 21.268 8.25611 21.334 8.10011 21.334V16.546C8.06411 16.906 8.04011 17.266 8.02811 17.626C8.02811 17.974 8.02811 18.322 8.02811 18.67V20.542C8.02811 20.794 8.01611 21.058 7.99211 21.334L7.72211 21.28V21.604C7.67411 21.688 7.60811 21.766 7.52411 21.838C7.45211 21.898 7.36811 21.928 7.27211 21.928C7.15211 21.928 7.05611 21.904 6.98411 21.856C6.91211 21.796 6.85211 21.724 6.80411 21.64C6.76811 21.556 6.74411 21.466 6.73211 21.37C6.72011 21.262 6.71411 21.166 6.71411 21.082C6.71411 20.566 6.73811 20.044 6.78611 19.516C6.83411 18.988 6.85811 18.46 6.85811 17.932C6.85811 17.608 6.84011 17.284 6.80411 16.96C6.76811 16.636 6.72611 16.312 6.67811 15.988C6.69011 16.492 6.70211 16.99 6.71411 17.482C6.73811 17.962 6.75011 18.448 6.75011 18.94C6.75011 19.36 6.73811 19.774 6.71411 20.182C6.69011 20.578 6.64211 20.98 6.57011 21.388C6.41411 21.196 6.33611 20.992 6.33611 20.776C6.33611 20.5 6.34211 20.218 6.35411 19.93C6.37811 19.642 6.39011 19.36 6.39011 19.084H6.62411C6.55211 18.688 6.51011 18.292 6.49811 17.896L6.46211 16.69C6.45011 16.282 6.43211 15.88 6.40811 15.484C6.38411 15.076 6.32411 14.674 6.22811 14.278L6.12011 14.332C6.28811 15.748 6.37811 17.176 6.39011 18.616C6.35411 17.464 6.27011 16.324 6.13811 15.196C6.00611 13.996 5.89211 12.79 5.79611 11.578C5.77211 11.518 5.75411 11.452 5.74211 11.38C5.74211 11.296 5.74211 11.218 5.74211 11.146C5.74211 10.918 5.74811 10.702 5.76011 10.498C5.78411 10.282 5.79611 10.054 5.79611 9.814L6.24611 9.778C6.37811 9.778 6.45011 9.85 6.46211 9.994C6.48611 10.126 6.49811 10.234 6.49811 10.318H6.73211C6.75611 10.162 6.81011 9.994 6.89411 9.814C6.99011 9.622 7.12211 9.496 7.29011 9.436L7.27211 9.382L7.11011 9.436C6.99011 9.376 6.90011 9.292 6.84011 9.184C6.79211 9.064 6.76811 8.938 6.76811 8.806C6.76811 8.746 6.78011 8.686 6.80411 8.626C6.82811 8.566 6.84011 8.506 6.84011 8.446ZM8.28011 13.81C8.48411 13.81 8.68211 13.822 8.87411 13.846C9.07811 13.858 9.28211 13.864 9.48611 13.864H9.64811L10.3681 13.846C10.0201 13.798 9.67211 13.78 9.32411 13.792C8.97611 13.804 8.62811 13.786 8.28011 13.738V13.81ZM10.0081 7.996C9.61211 7.948 9.21611 7.912 8.82011 7.888C9.44411 7.912 10.0741 7.96 10.7101 8.032C10.8661 8.044 11.0161 8.056 11.1601 8.068C10.7641 8.068 10.3801 8.044 10.0081 7.996ZM7.75811 9.688C7.83011 9.664 7.95611 9.646 8.13611 9.634C8.32811 9.622 8.46611 9.61 8.55011 9.598H8.11811C7.92611 9.598 7.78811 9.604 7.70411 9.616L7.75811 9.688ZM8.98211 15.052C9.11411 15.076 9.24611 15.094 9.37811 15.106C9.47411 15.118 9.57011 15.136 9.66611 15.16C9.57011 15.136 9.48011 15.112 9.39611 15.088C9.28811 15.064 9.16811 15.052 9.03611 15.052H8.98211ZM11.2501 8.068H11.1601C11.1841 8.068 11.2141 8.074 11.2501 8.086V8.068ZM9.75611 15.16C9.73211 15.16 9.70211 15.16 9.66611 15.16C9.70211 15.16 9.73211 15.16 9.75611 15.16ZM27.1014 12.658C26.8374 13.162 26.5254 13.84 26.1654 14.692C25.8054 15.532 25.4094 16.42 24.9774 17.356C25.3254 16.66 25.6614 15.97 25.9854 15.286C26.3214 14.602 26.6754 13.888 27.0474 13.144C26.9274 13.66 26.7834 14.146 26.6154 14.602C26.4594 15.046 26.2794 15.478 26.0754 15.898C25.8834 16.318 25.6794 16.744 25.4634 17.176C25.2474 17.608 25.0314 18.064 24.8154 18.544L24.5094 18.724C24.3054 19.216 24.0894 19.714 23.8614 20.218C23.6454 20.71 23.3814 21.178 23.0694 21.622C22.7694 22.066 22.4154 22.468 22.0074 22.828C21.5994 23.188 21.1194 23.476 20.5674 23.692C20.3874 23.584 20.2014 23.464 20.0094 23.332C19.8174 23.2 19.6254 23.092 19.4334 23.008C19.4334 22.996 19.4274 22.984 19.4154 22.972C19.4154 22.96 19.4154 22.942 19.4154 22.918C19.4154 22.822 19.4214 22.666 19.4334 22.45C19.4574 22.246 19.4814 22.036 19.5054 21.82C19.5294 21.604 19.5474 21.412 19.5594 21.244C19.5834 21.064 19.5954 20.956 19.5954 20.92L19.4874 21.028C19.4874 21.112 19.4754 21.238 19.4514 21.406C19.4394 21.562 19.4154 21.73 19.3794 21.91C19.3554 22.09 19.3314 22.264 19.3074 22.432C19.2954 22.612 19.2894 22.756 19.2894 22.864V22.954L20.6754 23.8C21.0234 23.764 21.3894 23.56 21.7734 23.188C22.1694 22.816 22.5474 22.378 22.9074 21.874C23.2674 21.37 23.5914 20.86 23.8794 20.344C24.1314 19.9 24.3294 19.534 24.4734 19.246C24.3054 19.606 24.1014 20.02 23.8614 20.488C23.5974 21.004 23.2974 21.502 22.9614 21.982C22.6374 22.462 22.2834 22.876 21.8994 23.224C21.5154 23.584 21.1134 23.8 20.6934 23.872L19.2714 23.044C19.2474 22.996 19.2354 22.942 19.2354 22.882C19.2354 22.69 19.2654 22.426 19.3254 22.09C19.3854 21.754 19.4154 21.472 19.4154 21.244V21.1C19.3554 21.16 19.2654 21.274 19.1454 21.442C19.0254 21.61 18.8874 21.784 18.7314 21.964C18.5874 22.132 18.4374 22.282 18.2814 22.414C18.1374 22.546 18.0174 22.612 17.9214 22.612C17.7174 22.48 17.5254 22.336 17.3454 22.18C17.1654 22.036 16.9794 21.892 16.7874 21.748C16.7034 21.376 16.5774 21.004 16.4094 20.632C16.2534 20.26 16.0854 19.894 15.9054 19.534C15.7254 19.162 15.5574 18.79 15.4014 18.418C15.2454 18.046 15.1374 17.662 15.0774 17.266C14.9814 16.69 14.8314 16.114 14.6274 15.538C14.4354 14.962 14.2674 14.386 14.1234 13.81L14.1954 13.846C14.2554 13.822 14.3094 13.786 14.3574 13.738C14.4174 13.69 14.4714 13.666 14.5194 13.666C14.5914 13.666 14.6574 13.732 14.7174 13.864C14.7774 13.984 14.8254 14.128 14.8614 14.296C14.9094 14.452 14.9454 14.608 14.9694 14.764C15.0054 14.908 15.0294 15.004 15.0414 15.052L15.2574 14.998C15.2334 14.734 15.2094 14.476 15.1854 14.224C15.1614 13.96 15.1494 13.696 15.1494 13.432V13.252C15.1494 13.168 15.1554 13.078 15.1674 12.982C15.1914 12.886 15.2154 12.802 15.2394 12.73C15.2754 12.658 15.3234 12.622 15.3834 12.622C15.5274 12.622 15.6894 12.82 15.8694 13.216C16.0494 13.612 16.2354 14.098 16.4274 14.674C16.6194 15.238 16.8054 15.832 16.9854 16.456C17.1774 17.08 17.3514 17.626 17.5074 18.094C17.5434 18.214 17.5914 18.358 17.6514 18.526C17.7234 18.682 17.7894 18.838 17.8494 18.994C17.9094 19.15 17.9634 19.294 18.0114 19.426C18.0714 19.546 18.1074 19.63 18.1194 19.678C18.1554 19.498 18.2154 19.252 18.2994 18.94C18.3834 18.616 18.4674 18.28 18.5514 17.932C18.6474 17.572 18.7374 17.236 18.8214 16.924C18.9174 16.6 18.9954 16.354 19.0554 16.186C19.1514 16.174 19.2414 16.168 19.3254 16.168C19.4094 16.156 19.4874 16.15 19.5594 16.15C19.7994 16.15 20.0154 16.18 20.2074 16.24C20.3994 16.288 20.6454 16.372 20.9454 16.492C21.0294 16.672 21.0954 16.9 21.1434 17.176C21.1914 17.452 21.2274 17.746 21.2514 18.058C21.2874 18.37 21.3054 18.688 21.3054 19.012C21.3174 19.336 21.3234 19.636 21.3234 19.912V20.632C21.8154 19.912 22.2414 19.18 22.6014 18.436C22.9734 17.68 23.3394 16.912 23.6994 16.132C23.7354 16.048 23.7954 15.904 23.8794 15.7C23.9634 15.496 24.0594 15.268 24.1674 15.016C24.2874 14.764 24.4074 14.5 24.5274 14.224C24.6594 13.936 24.7854 13.678 24.9054 13.45C25.0254 13.222 25.1334 13.036 25.2294 12.892C25.3374 12.736 25.4214 12.658 25.4814 12.658L25.5894 12.712C25.3974 13.156 25.2054 13.582 25.0134 13.99C24.8334 14.398 24.6474 14.8 24.4554 15.196C24.2754 15.592 24.0954 16 23.9154 16.42C23.7354 16.828 23.5554 17.254 23.3754 17.698L25.6434 12.82L25.8234 12.982L25.9134 12.928C25.9374 12.844 25.9794 12.724 26.0394 12.568C26.1114 12.412 26.1894 12.256 26.2734 12.1C26.3694 11.944 26.4654 11.806 26.5614 11.686C26.6694 11.566 26.7774 11.506 26.8854 11.506C26.9334 11.506 26.9754 11.53 27.0114 11.578C27.0474 11.626 27.0714 11.686 27.0834 11.758C27.1074 11.83 27.1254 11.902 27.1374 11.974C27.1494 12.034 27.1554 12.082 27.1554 12.118L27.1014 12.658ZM18.4434 19.984C18.5034 19.792 18.5694 19.576 18.6414 19.336C18.7254 19.084 18.8094 18.82 18.8934 18.544C18.9894 18.268 19.0734 18.01 19.1454 17.77C19.2294 17.518 19.2954 17.314 19.3434 17.158C19.3914 16.99 19.4154 16.894 19.4154 16.87V16.852L19.2174 16.996H19.1454C19.0854 17.248 19.0134 17.518 18.9294 17.806C18.8454 18.082 18.7614 18.364 18.6774 18.652C18.5934 18.94 18.5154 19.228 18.4434 19.516C18.3834 19.792 18.3474 20.05 18.3354 20.29C18.3474 20.254 18.3834 20.152 18.4434 19.984ZM20.5314 23.458C20.8674 23.41 21.2094 23.224 21.5574 22.9C21.9174 22.576 22.2534 22.21 22.5654 21.802C22.8774 21.382 23.1534 20.962 23.3934 20.542C23.6454 20.11 23.8374 19.756 23.9694 19.48L24.2754 18.814C24.0234 19.318 23.7654 19.804 23.5014 20.272C23.2134 20.776 22.9194 21.232 22.6194 21.64C22.3194 22.048 22.0134 22.396 21.7014 22.684C21.3894 22.972 21.0834 23.164 20.7834 23.26L20.4594 23.404L19.7214 22.9C19.7214 22.828 19.7274 22.714 19.7394 22.558C19.7634 22.414 19.7814 22.258 19.7934 22.09C19.8174 21.922 19.8354 21.76 19.8474 21.604C19.8714 21.448 19.8834 21.316 19.8834 21.208C19.8714 21.304 19.8534 21.436 19.8294 21.604C19.8054 21.76 19.7754 21.916 19.7394 22.072C19.7154 22.24 19.6914 22.396 19.6674 22.54C19.6554 22.684 19.6494 22.792 19.6494 22.864C19.6494 22.924 19.6794 22.984 19.7394 23.044C19.8114 23.104 19.8894 23.158 19.9734 23.206C20.0694 23.266 20.1654 23.32 20.2614 23.368C20.3694 23.416 20.4534 23.458 20.5134 23.494L20.5314 23.458ZM23.3394 17.788C23.0394 18.4 22.7334 19.006 22.4214 19.606C22.1094 20.206 21.7254 20.758 21.2694 21.262V21.316C21.7254 20.812 22.1154 20.254 22.4394 19.642C22.7634 19.018 23.0634 18.4 23.3394 17.788ZM20.3154 22.09L20.4414 21.118L20.1354 22.054L20.3154 22.09ZM17.7774 20.92C17.7414 20.92 17.6934 20.956 17.6334 21.028C17.5854 21.088 17.5314 21.16 17.4714 21.244C17.4114 21.316 17.3574 21.394 17.3094 21.478C17.2614 21.55 17.2314 21.598 17.2194 21.622L17.2374 21.64C17.2614 21.628 17.3034 21.592 17.3634 21.532C17.4234 21.46 17.4834 21.388 17.5434 21.316C17.6034 21.232 17.6574 21.154 17.7054 21.082C17.7534 21.01 17.7894 20.962 17.8134 20.938L17.7774 20.92ZM21.3594 22.288C21.1794 22.18 20.9754 22.126 20.7474 22.126L20.4954 22.144C20.6274 22.168 20.7594 22.198 20.8914 22.234C21.0234 22.27 21.1554 22.288 21.2874 22.288H21.3594ZM19.8294 20.56V20.722C19.8294 20.698 19.8294 20.68 19.8294 20.668C19.8414 20.632 19.8474 20.596 19.8474 20.56H19.8294ZM19.8474 20.884C19.8474 20.86 19.8414 20.842 19.8294 20.83C19.8294 20.842 19.8354 20.86 19.8474 20.884ZM24.5454 19.102C24.5214 19.15 24.4974 19.198 24.4734 19.246C24.4974 19.198 24.5214 19.15 24.5454 19.102Z" fill="#DACF01"/>
</svg>
