<svg width="374" height="125" viewBox="0 0 374 125" fill="none" xmlns="http://www.w3.org/2000/svg">
<path d="M0.599882 108.006L35.8657 58.4302H51.6097L51.6079 108.006H39.3839L39.4022 96.4727H20.5222L12.7599 108.006H0.599882ZM26.7526 86.9319H40.2566L40.3845 66.703L26.7526 86.9319Z" fill="#128AFA"/>
<path fill-rule="evenodd" clip-rule="evenodd" d="M57.2 106.551L64.5774 85.543C66.4007 80.1688 67.2523 79.3838 71.796 79.2026H77.3L80.4808 70.1449H68.2568C63.316 70.1864 59.87 71.9106 57.2 75.9449V106.551Z" fill="#128AFA"/>
<path d="M121.522 70.1449L118.341 79.2026H100.933C95.0876 79.263 93.9583 79.9272 92.3251 84.3957L89.4199 92.6684C88.3172 95.8084 87.9995 96.8953 88.0427 97.1369C88.473 98.8277 88.7078 98.888 93.4226 98.9484H111.407L108.226 108.006H83.9697C75.8413 107.825 74.022 104.987 76.6287 96.835L82.2058 80.9538C84.8774 73.1641 88.8608 70.3864 97.5856 70.1449H121.522Z" fill="#128AFA"/>
<path d="M114.035 108.006L131.466 58.3699H142.538L138.424 70.0845H155.576C164.238 70.3864 165.759 73.5264 162.196 83.3088L153.523 108.006H142.451L150.318 85.6034C152.226 79.9876 151.926 79.2026 147.403 79.1422H135.243L125.107 108.006H114.035Z" fill="#128AFA"/>
<path fill-rule="evenodd" clip-rule="evenodd" d="M171.007 108.006H203.502L206.852 98.4654H176.977L171.007 108.006ZM184.967 58.4303H177.456L160.073 107.929L184.967 58.4303Z" fill="white"/>
<path d="M242.013 70.1449H267.101C277 70.3864 278.927 73.6472 275.024 83.8522L266.541 108.006H255.533L263.146 86.328C265.287 79.8668 264.859 79.263 258.096 79.2026H250.096L239.981 108.006H228.717L242.013 70.1449Z" fill="white"/>
<path d="M286.87 70.1449H297.43L289.181 93.6346C287.655 98.1634 287.976 98.888 291.987 98.9484H301.267C304.36 98.888 305.51 97.8011 307.059 93.5742L315.286 70.1449H326.422L316.965 97.0765C314.463 104.564 309.692 107.946 301.35 108.006H285.414C277.095 108.187 274.549 104.866 277.307 97.3784L286.87 70.1449Z" fill="white"/>
<g clip-path="url(#clip0_202_9)">
<path fill-rule="evenodd" clip-rule="evenodd" d="M228.836 70.728C231.945 70.728 234.911 69.4607 235.46 67.8974C236.009 66.3342 233.933 65.0669 230.824 65.0669C227.715 65.0669 224.749 66.3342 224.2 67.8974C223.651 69.4607 225.727 70.728 228.836 70.728ZM221.756 74.8624L210.117 108.006H221.381L233.02 74.8624H221.756Z" fill="white"/>
</g>
<path d="M317.007 108.006L338.515 89.4076L331.199 70.1449H345.151L348.586 80.2291L358.655 70.1449H372.543L351.976 89.1661L360.015 108.006H346.127L342.138 97.6803L330.895 108.006H317.007Z" fill="white"/>
<path fill-rule="evenodd" clip-rule="evenodd" d="M172.137 54C154.884 43.7104 144.792 31.8115 147.881 23.545C152.196 12 180.586 11.9118 211.293 23.3482C242 34.7846 263.396 53.4147 259.081 64.9598C259.013 65.1427 258.939 65.3228 258.858 65.5H252.715C253.329 64.7765 253.803 63.9814 254.127 63.1147C258.035 52.6567 238.528 35.734 210.558 25.3167C182.587 14.8994 156.744 14.9323 152.836 25.3903C149.941 33.1369 159.893 44.4306 176.617 54H172.137Z" fill="white"/>
<path d="M155.649 125C155.649 125 170.34 93.6033 192.082 56.0446C195.404 50.3076 198.519 45.0155 201.414 40.1664C150.935 18.459 129.5 7.04225 129.5 7.04225C129.5 7.04225 164.546 19.3782 203.677 36.3911C218.341 12.0277 226.753 0 226.753 0C226.753 0 220.41 13.2268 207.131 37.8992C245.646 54.774 272 68.0751 272 68.0751C272 68.0751 255.868 63.472 205.062 41.7314C202.204 47.0111 199.054 52.7653 195.608 58.9789C174.454 97.1244 155.649 125 155.649 125Z" fill="#128AFA"/>
<defs>
<clipPath id="clip0_202_9">
<rect width="22" height="53" fill="white" transform="matrix(1 0 -0.331338 0.943512 222.366 58)"/>
</clipPath>
</defs>
</svg>
