<svg width="35" height="48" viewBox="0 0 35 48" fill="none" xmlns="http://www.w3.org/2000/svg">
<path d="M0 28C0 40 8.75 48 17.5 48C26.25 48 35 40 35 28C35 16 28.4375 0 17.5 0C6.5625 0 0 16 0 28Z" fill="#FFCB8D"/>
<path fill-rule="evenodd" clip-rule="evenodd" d="M2.69128 38.6968C6.00103 42.3841 10.5008 44.4998 15.0005 44.4998C23.7505 44.4998 32.5005 36.4998 32.5005 24.4998C32.5005 18.1532 30.6649 10.6877 27.3172 5.06213C32.2402 10.754 35 20.2181 35 28C35 40 26.25 48 17.5 48C11.7254 48 5.95082 44.5157 2.69128 38.6968Z" fill="#AB7739"/>
<circle cx="14.9996" cy="8.49997" r="4" fill="white"/>
<circle cx="8.50043" cy="15.9998" r="2" fill="white"/>
</svg>
