<svg width="128" height="128" viewBox="0 0 128 128" fill="none" xmlns="http://www.w3.org/2000/svg">
<g clip-path="url(#clip0_6_4)">
<circle cx="64" cy="64" r="64" fill="#FFCD4C"/>
<path d="M29.5 33C39.5 32 43 26 43 26" stroke="#654514" stroke-width="8" stroke-linecap="round"/>
<path d="M99 33C89 32 85.5 26 85.5 26" stroke="#654514" stroke-width="8" stroke-linecap="round"/>
<circle cx="37" cy="61" r="19" fill="#654514"/>
<path d="M50 73.32C47.1091 77.968 42.3606 81 36.9928 81C30.1002 81 23.2287 76.0007 21 69" stroke="#5BAEEF" stroke-width="8" stroke-linecap="round"/>
<circle cx="91" cy="61" r="19" fill="#654514"/>
<ellipse cx="32.5682" cy="53.9754" rx="8.5" ry="7.5" transform="rotate(-20.2176 32.5682 53.9754)" fill="white"/>
<circle cx="46" cy="61" r="3" fill="white"/>
<ellipse cx="86.5682" cy="53.9754" rx="8.5" ry="7.5" transform="rotate(-20.2176 86.5682 53.9754)" fill="white"/>
<circle cx="100" cy="61" r="3" fill="white"/>
<path d="M78 73.32C80.8909 77.968 85.6394 81 91.0072 81C97.8998 81 104.771 76.0007 107 69" stroke="#5BAEEF" stroke-width="8" stroke-linecap="round"/>
<path d="M42.24 92.7707C41.2279 91.7245 38.1916 91.2014 39.2037 94.863C40.2158 98.5247 46.2884 110 64 110C81.7116 110 87.7842 98.5246 88.7963 94.863C89.8084 91.2014 86.7721 91.7245 85.76 92.7706C84.7479 93.8168 79.6875 99.5382 64 99.5382C48.3125 99.5382 43.2521 93.8168 42.24 92.7707Z" fill="#654514"/>
</g>
<defs>
<clipPath id="clip0_6_4">
<rect width="128" height="128" fill="white"/>
</clipPath>
</defs>
</svg>
