<svg width="221" height="115" viewBox="0 0 221 115" fill="none" xmlns="http://www.w3.org/2000/svg">
<g filter="url(#filter0_d_414_81)">
<path d="M64.0004 99.0002C69.0001 93.0005 76.0002 85.5 78.5002 68.5C81.0003 51.5 62.5002 46.4999 54.5002 55.5C46.5002 64.5 47.5005 72.0002 47.0002 73.5C46.4999 72.0002 47.5002 64.5 39.5002 55.5C31.5002 46.4999 13.0001 51.5 15.5001 68.5C18.0001 85.5 25.0001 93.0004 29.9999 99.0002" stroke="#4169E1" stroke-width="16" stroke-linecap="round" stroke-linejoin="round"/>
</g>
<g filter="url(#filter1_d_414_81)">
<path d="M127.931 53.5C107.832 48.5 94.8102 66.5 100.969 84C107.128 101.5 134.025 106.997 146.068 85.5C155.873 68 142.361 32.8333 135.498 15" stroke="white" stroke-width="16" stroke-linecap="round" stroke-linejoin="round"/>
</g>
<g filter="url(#filter2_d_414_81)">
<path d="M196 99C188.5 96 178.278 90.114 180.5 64C182.5 40.5 185.5 30 191.5 15M164 37C164 37 184 30 206 40.5" stroke="#FF341C" stroke-width="16" stroke-linecap="round" stroke-linejoin="round"/>
</g>
<defs>
<filter id="filter0_d_414_81" x="7.271" y="43.0989" width="83.4584" height="67.9016" filterUnits="userSpaceOnUse" color-interpolation-filters="sRGB">
<feFlood flood-opacity="0" result="BackgroundImageFix"/>
<feColorMatrix in="SourceAlpha" type="matrix" values="0 0 0 0 0 0 0 0 0 0 0 0 0 0 0 0 0 0 127 0" result="hardAlpha"/>
<feOffset dx="4" dy="4"/>
<feComposite in2="hardAlpha" operator="out"/>
<feColorMatrix type="matrix" values="0 0 0 0 0.00784314 0 0 0 0 0.0901961 0 0 0 0 0.341176 0 0 0 1 0"/>
<feBlend mode="normal" in2="BackgroundImageFix" result="effect1_dropShadow_414_81"/>
<feBlend mode="normal" in="SourceGraphic" in2="effect1_dropShadow_414_81" result="shape"/>
</filter>
<filter id="filter1_d_414_81" x="91.433" y="6.99786" width="70.085" height="104.502" filterUnits="userSpaceOnUse" color-interpolation-filters="sRGB">
<feFlood flood-opacity="0" result="BackgroundImageFix"/>
<feColorMatrix in="SourceAlpha" type="matrix" values="0 0 0 0 0 0 0 0 0 0 0 0 0 0 0 0 0 0 127 0" result="hardAlpha"/>
<feOffset dx="4" dy="4"/>
<feComposite in2="hardAlpha" operator="out"/>
<feColorMatrix type="matrix" values="0 0 0 0 0.203922 0 0 0 0 0.223529 0 0 0 0 0.290196 0 0 0 1 0"/>
<feBlend mode="normal" in2="BackgroundImageFix" result="effect1_dropShadow_414_81"/>
<feBlend mode="normal" in="SourceGraphic" in2="effect1_dropShadow_414_81" result="shape"/>
</filter>
<filter id="filter2_d_414_81" x="155.998" y="6.99786" width="62.004" height="104.004" filterUnits="userSpaceOnUse" color-interpolation-filters="sRGB">
<feFlood flood-opacity="0" result="BackgroundImageFix"/>
<feColorMatrix in="SourceAlpha" type="matrix" values="0 0 0 0 0 0 0 0 0 0 0 0 0 0 0 0 0 0 127 0" result="hardAlpha"/>
<feOffset dx="4" dy="4"/>
<feComposite in2="hardAlpha" operator="out"/>
<feColorMatrix type="matrix" values="0 0 0 0 0.313726 0 0 0 0 0 0 0 0 0 0.133333 0 0 0 1 0"/>
<feBlend mode="normal" in2="BackgroundImageFix" result="effect1_dropShadow_414_81"/>
<feBlend mode="normal" in="SourceGraphic" in2="effect1_dropShadow_414_81" result="shape"/>
</filter>
</defs>
</svg>
