<svg width="536" height="128" viewBox="0 0 536 128" fill="none" xmlns="http://www.w3.org/2000/svg">
<mask id="path-1-outside-1_922_29" maskUnits="userSpaceOnUse" x="72" y="16" width="392" height="96" fill="black">
<rect fill="white" x="72" y="16" width="392" height="96"/>
<path fill-rule="evenodd" clip-rule="evenodd" d="M96 24H80V40V88V104H96V88V72H104V80H120V72H128V88V104H144V88V40V24H128V32H120V40H104V32H96V24ZM200 24H152V40V88V104H168V88H184V104H200V88V40V24ZM248 24H208V40V88V104H248V88V72H224V56H248V40V24ZM272 24H256V40V88V104H272V88V40V24ZM296 24H280V40V88V104H296V88V72H304V80H320V72H328V88V104H344V88V40V24H328V32H320V40H304V32H296V24ZM400 24H352V40V88V104H368V88H384V104H400V88V40V24ZM456 24H408V40V64V72V80V88V104H456V88V64V56V48V40V24Z"/>
</mask>
<path d="M80 24V16H72V24H80ZM96 24H104V16H96V24ZM80 104H72V112H80V104ZM96 104V112H104V104H96ZM96 72V64H88V72H96ZM104 72H112V64H104V72ZM104 80H96V88H104V80ZM120 80V88H128V80H120ZM120 72V64H112V72H120ZM128 72H136V64H128V72ZM128 104H120V112H128V104ZM144 104V112H152V104H144ZM144 24H152V16H144V24ZM128 24V16H120V24H128ZM128 32V40H136V32H128ZM120 32V24H112V32H120ZM120 40V48H128V40H120ZM104 40H96V48H104V40ZM104 32H112V24H104V32ZM96 32H88V40H96V32ZM152 24V16H144V24H152ZM200 24H208V16H200V24ZM152 104H144V112H152V104ZM168 104V112H176V104H168ZM168 88V80H160V88H168ZM184 88H192V80H184V88ZM184 104H176V112H184V104ZM200 104V112H208V104H200ZM208 24V16H200V24H208ZM248 24H256V16H248V24ZM208 104H200V112H208V104ZM248 104V112H256V104H248ZM248 72H256V64H248V72ZM224 72H216V80H224V72ZM224 56V48H216V56H224ZM248 56V64H256V56H248ZM256 24V16H248V24H256ZM272 24H280V16H272V24ZM256 104H248V112H256V104ZM272 104V112H280V104H272ZM280 24V16H272V24H280ZM296 24H304V16H296V24ZM280 104H272V112H280V104ZM296 104V112H304V104H296ZM296 72V64H288V72H296ZM304 72H312V64H304V72ZM304 80H296V88H304V80ZM320 80V88H328V80H320ZM320 72V64H312V72H320ZM328 72H336V64H328V72ZM328 104H320V112H328V104ZM344 104V112H352V104H344ZM344 24H352V16H344V24ZM328 24V16H320V24H328ZM328 32V40H336V32H328ZM320 32V24H312V32H320ZM320 40V48H328V40H320ZM304 40H296V48H304V40ZM304 32H312V24H304V32ZM296 32H288V40H296V32ZM352 24V16H344V24H352ZM400 24H408V16H400V24ZM352 104H344V112H352V104ZM368 104V112H376V104H368ZM368 88V80H360V88H368ZM384 88H392V80H384V88ZM384 104H376V112H384V104ZM400 104V112H408V104H400ZM408 24V16H400V24H408ZM456 24H464V16H456V24ZM408 104H400V112H408V104ZM456 104V112H464V104H456ZM80 32H96V16H80V32ZM88 40V24H72V40H88ZM88 88V40H72V88H88ZM88 104V88H72V104H88ZM96 96H80V112H96V96ZM88 88V104H104V88H88ZM88 72V88H104V72H88ZM104 64H96V80H104V64ZM112 80V72H96V80H112ZM120 72H104V88H120V72ZM112 72V80H128V72H112ZM128 64H120V80H128V64ZM136 88V72H120V88H136ZM136 104V88H120V104H136ZM144 96H128V112H144V96ZM136 88V104H152V88H136ZM136 40V88H152V40H136ZM136 24V40H152V24H136ZM128 32H144V16H128V32ZM136 32V24H120V32H136ZM120 40H128V24H120V40ZM128 40V32H112V40H128ZM104 48H120V32H104V48ZM96 32V40H112V32H96ZM96 40H104V24H96V40ZM88 24V32H104V24H88ZM152 32H200V16H152V32ZM160 40V24H144V40H160ZM160 88V40H144V88H160ZM160 104V88H144V104H160ZM168 96H152V112H168V96ZM160 88V104H176V88H160ZM184 80H168V96H184V80ZM192 104V88H176V104H192ZM200 96H184V112H200V96ZM192 88V104H208V88H192ZM192 40V88H208V40H192ZM192 24V40H208V24H192ZM208 32H248V16H208V32ZM216 40V24H200V40H216ZM216 88V40H200V88H216ZM216 104V88H200V104H216ZM248 96H208V112H248V96ZM240 88V104H256V88H240ZM240 72V88H256V72H240ZM224 80H248V64H224V80ZM216 56V72H232V56H216ZM248 48H224V64H248V48ZM240 40V56H256V40H240ZM240 24V40H256V24H240ZM256 32H272V16H256V32ZM264 40V24H248V40H264ZM264 88V40H248V88H264ZM264 104V88H248V104H264ZM272 96H256V112H272V96ZM264 88V104H280V88H264ZM264 40V88H280V40H264ZM264 24V40H280V24H264ZM280 32H296V16H280V32ZM288 40V24H272V40H288ZM288 88V40H272V88H288ZM288 104V88H272V104H288ZM296 96H280V112H296V96ZM288 88V104H304V88H288ZM288 72V88H304V72H288ZM304 64H296V80H304V64ZM312 80V72H296V80H312ZM320 72H304V88H320V72ZM312 72V80H328V72H312ZM328 64H320V80H328V64ZM336 88V72H320V88H336ZM336 104V88H320V104H336ZM344 96H328V112H344V96ZM336 88V104H352V88H336ZM336 40V88H352V40H336ZM336 24V40H352V24H336ZM328 32H344V16H328V32ZM336 32V24H320V32H336ZM320 40H328V24H320V40ZM328 40V32H312V40H328ZM304 48H320V32H304V48ZM296 32V40H312V32H296ZM296 40H304V24H296V40ZM288 24V32H304V24H288ZM352 32H400V16H352V32ZM360 40V24H344V40H360ZM360 88V40H344V88H360ZM360 104V88H344V104H360ZM368 96H352V112H368V96ZM360 88V104H376V88H360ZM384 80H368V96H384V80ZM392 104V88H376V104H392ZM400 96H384V112H400V96ZM392 88V104H408V88H392ZM392 40V88H408V40H392ZM392 24V40H408V24H392ZM408 32H456V16H408V32ZM416 40V24H400V40H416ZM416 64V40H400V64H416ZM416 72V64H400V72H416ZM416 80V72H400V80H416ZM416 88V80H400V88H416ZM416 104V88H400V104H416ZM456 96H408V112H456V96ZM448 88V104H464V88H448ZM448 64V88H464V64H448ZM448 56V64H464V56H448ZM448 48V56H464V48H448ZM448 40V48H464V40H448ZM448 24V40H464V24H448Z" fill="#2C2C2C" mask="url(#path-1-outside-1_922_29)"/>
<path d="M80 40H96V48H104V56H120V48H128V40H144V104H128V72H120V80H104V72H96V104H80V40ZM152 40H200V104H184V88H168V104H152V40ZM168 56V72H184V56H168ZM208 40H248V56H224V88H248V104H208V40ZM256 40H272V104H256V40ZM280 40H296V48H304V56H320V48H328V40H344V104H328V72H320V80H304V72H296V104H280V40ZM352 40H400V104H384V88H368V104H352V40ZM368 56V72H384V56H368ZM408 40H456V56H424V64H456V104H408V88H440V80H408V40Z" fill="#9A9A9A"/>
<path d="M80 24H96V32H104V40H120V32H128V24H144V88H128V56H120V64H104V56H96V88H80V24ZM152 24H200V88H184V72H168V88H152V24ZM168 40V56H184V40H168ZM208 24H248V40H224V72H248V88H208V24ZM256 24H272V88H256V24ZM280 24H296V32H304V40H320V32H328V24H344V88H328V56H320V64H304V56H296V88H280V24ZM352 24H400V88H384V72H368V88H352V24ZM368 40V56H384V40H368ZM408 24H456V40H424V48H456V88H408V72H440V64H408V24Z" fill="white"/>
<mask id="path-5-outside-2_922_29" maskUnits="userSpaceOnUse" x="0" y="16" width="64" height="96" fill="black">
<rect fill="white" y="16" width="64" height="96"/>
<path fill-rule="evenodd" clip-rule="evenodd" d="M56 24H32V32H24V40H16V48H8V64V80H16V88H24V96H32V104H56V88V72H48V64V56H56V40V24Z"/>
</mask>
<path d="M32 24V16H24V24H32ZM56 24H64V16H56V24ZM32 32V40H40V32H32ZM24 32V24H16V32H24ZM24 40V48H32V40H24ZM16 40V32H8V40H16ZM16 48V56H24V48H16ZM8 48V40H0V48H8ZM8 80H0V88H8V80ZM16 80H24V72H16V80ZM16 88H8V96H16V88ZM24 88H32V80H24V88ZM24 96H16V104H24V96ZM32 96H40V88H32V96ZM32 104H24V112H32V104ZM56 104V112H64V104H56ZM56 72H64V64H56V72ZM48 72H40V80H48V72ZM48 56V48H40V56H48ZM56 56V64H64V56H56ZM32 32H56V16H32V32ZM40 32V24H24V32H40ZM24 40H32V24H24V40ZM32 40V32H16V40H32ZM16 48H24V32H16V48ZM24 48V40H8V48H24ZM8 56H16V40H8V56ZM16 64V48H0V64H16ZM16 80V64H0V80H16ZM16 72H8V88H16V72ZM24 88V80H8V88H24ZM24 80H16V96H24V80ZM32 96V88H16V96H32ZM32 88H24V104H32V88ZM40 104V96H24V104H40ZM56 96H32V112H56V96ZM48 88V104H64V88H48ZM48 72V88H64V72H48ZM48 80H56V64H48V80ZM40 64V72H56V64H40ZM40 56V64H56V56H40ZM56 48H48V64H56V48ZM48 40V56H64V40H48ZM48 24V40H64V24H48Z" fill="#2C2C2C" mask="url(#path-5-outside-2_922_29)"/>
<path d="M32 40H56V56H48V64H40V80H48V88H56V104H32V96H24V88H16V80H8V64H16V56H24V48H32V40Z" fill="#B77B4B"/>
<path d="M32 24H56V40H48V48H40V64H48V72H56V88H32V80H24V72H16V64H8V48H16V40H24V32H32V24Z" fill="#F4BA6E"/>
<mask id="path-9-outside-3_922_29" maskUnits="userSpaceOnUse" x="472" y="16" width="64" height="96" fill="black">
<rect fill="white" x="472" y="16" width="64" height="96"/>
<path fill-rule="evenodd" clip-rule="evenodd" d="M504 24H480V40V56H488V64V72H480V88V104H504V96H512V88H520V80H528V64V48H520V40H512V32H504V24Z"/>
</mask>
<path d="M480 24V16H472V24H480ZM504 24H512V16H504V24ZM480 56H472V64H480V56ZM488 56H496V48H488V56ZM488 72V80H496V72H488ZM480 72V64H472V72H480ZM480 104H472V112H480V104ZM504 104V112H512V104H504ZM504 96V88H496V96H504ZM512 96V104H520V96H512ZM512 88V80H504V88H512ZM520 88V96H528V88H520ZM520 80V72H512V80H520ZM528 80V88H536V80H528ZM528 48H536V40H528V48ZM520 48H512V56H520V48ZM520 40H528V32H520V40ZM512 40H504V48H512V40ZM512 32H520V24H512V32ZM504 32H496V40H504V32ZM480 32H504V16H480V32ZM488 40V24H472V40H488ZM488 56V40H472V56H488ZM488 48H480V64H488V48ZM496 64V56H480V64H496ZM496 72V64H480V72H496ZM480 80H488V64H480V80ZM488 88V72H472V88H488ZM488 104V88H472V104H488ZM504 96H480V112H504V96ZM496 96V104H512V96H496ZM512 88H504V104H512V88ZM504 88V96H520V88H504ZM520 80H512V96H520V80ZM512 80V88H528V80H512ZM528 72H520V88H528V72ZM520 64V80H536V64H520ZM520 48V64H536V48H520ZM520 56H528V40H520V56ZM512 40V48H528V40H512ZM512 48H520V32H512V48ZM504 32V40H520V32H504ZM504 40H512V24H504V40ZM496 24V32H512V24H496Z" fill="#2C2C2C" mask="url(#path-9-outside-3_922_29)"/>
<path d="M480 40H504V48H512V56H520V64H528V80H520V88H512V96H504V104H480V88H488V80H496V64H488V56H480V40Z" fill="#B77B4B"/>
<path d="M480 24H504V32H512V40H520V48H528V64H520V72H512V80H504V88H480V72H488V64H496V48H488V40H480V24Z" fill="#F4BA6E"/>
</svg>
