<svg width="160" height="160" viewBox="0 0 160 160" fill="none" xmlns="http://www.w3.org/2000/svg">
<g clip-path="url(#clip0_6_5)">
<rect width="160" height="160" fill="#90ADDC"/>
<path d="M12 148.5C8.91646 152.2 6.66667 158.333 6 161H153.5C153.667 160.333 153.6 158 152 154C150 149 143 142.5 141 141C139 139.5 97 119 95 118C93.4 117.2 93 112 93 109.5C93.5 109 95.3 107 98.5 103C101.7 99 103 90.3333 103.5 86.5C104 88.5 106 88.5 107 87C107.62 86.0697 110 74.5 109.5 71C109.1 68.2 107 68.8333 106 69.5C108.5 64.5 109.46 57.7221 109 54.5C108.669 52.1808 109.764 51.7644 109 51C108.236 50.2356 107.5 51 107.5 50.5C107.5 50 108.671 48.8564 108 45.5C107.562 43.3123 106 43.5 105.5 41.5C104.875 39 107 38 106 37C105.263 36.2631 104.5 37 104 36C103.684 35.3675 103.5 34.5 101.5 34C99.5 33.5 98.5 34 98.5 32.5C98.5 31 98.5 30.5 97 30C95.5 29.5 95 29 94 28C93 27 87 28 86 27C85 26 80.5 26.5 79.5 26C78.5 25.5 79 25 77.5 25C74.5 25 71.6208 26.6264 70.5 27C69.3792 27.3736 66.5 26.5 65.5 27C64.7688 27.3656 63.5 28.5 63.5 29C63 27.5 59.5 29 57 31C55 32.6 54.1667 34.6667 54 35.5C53.5 34.5 52.5 35 52 36C51.6838 36.6325 52 37.5 51.5 38C51 38.5 49.5 40 49.5 42.5C49.5 44.5 48.5 43 47.5 45C46.6938 46.6125 46.8222 49.433 47.5 53.5C48 56.5 48.5 58.5 48.5 60C48.5 61.5 47.5 61 47.5 62.5C47.5 64 49.2224 67.8336 50 69C47.5 67.5 46.5 70.5 47 72.5C47.5 74.5 49.4172 82.793 50.5 85.5C51.5 88 54 89 54.5 86.5C54.5 91 58.5 100 59.5 102C60.3 103.6 64.1667 107.833 66 109.5C66 114 64.5 118 64 118.5C51.5 124 26 137 22 139.5C18 142 14.9167 145 12 148.5Z" fill="#CDDAEF" stroke="#7F91BE" stroke-width="0.7" stroke-linejoin="round"/>
</g>
<defs>
<clipPath id="clip0_6_5">
<rect width="160" height="160" fill="white"/>
</clipPath>
</defs>
</svg>
