<svg width="64" height="64" viewBox="0 0 64 64" fill="none" xmlns="http://www.w3.org/2000/svg">
<g clip-path="url(#clip0_282_120)">
<rect width="64" height="64" fill="#00A2DD"/>
<path d="M32 6.96191C42.6012 6.96191 52.1921 9.7744 59.1279 14.3145C66.065 18.8554 70.3301 25.1115 70.3301 32C70.3301 38.8885 66.065 45.1446 59.1279 49.6855C52.1921 54.2256 42.6012 57.0381 32 57.0381C21.3988 57.0381 11.8079 54.2256 4.87207 49.6855C-2.06501 45.1446 -6.33008 38.8885 -6.33008 32C-6.33008 25.1115 -2.06501 18.8554 4.87207 14.3145C11.8079 9.7744 21.3988 6.96191 32 6.96191Z" fill="white" stroke="black" stroke-width="0.3"/>
<path d="M31.9988 15.5415C23.3733 15.5415 16.3572 22.9219 16.3572 31.9997C16.3572 41.0776 23.3733 48.4579 31.9988 48.4579C40.6243 48.4579 47.6404 41.0776 47.6404 31.9997C47.6404 22.9219 40.6219 15.5415 31.9988 15.5415ZM31.9988 47.6009C23.8471 47.6009 17.2047 40.6038 17.2047 31.9997C17.2047 23.3956 23.8447 16.401 31.9988 16.401C40.1529 16.401 46.7833 23.398 46.7833 31.9997C46.7833 40.6014 40.1481 47.6009 31.9988 47.6009Z" fill="black"/>
<path d="M53.6018 27.7859C52.6354 26.6319 51.6019 25.5356 50.5069 24.5028C49.3059 23.3752 48.0249 22.3361 46.6738 21.3936C48.9778 24.3996 50.2265 28.0814 50.2265 31.8689C50.2265 35.6564 48.9778 39.3382 46.6738 42.3443C48.0255 41.4025 49.3065 40.3633 50.5069 39.235C51.6019 38.2039 52.6354 37.1092 53.6018 35.9567C54.6842 34.6681 55.6716 33.3027 56.5564 31.8713C55.6736 30.4385 54.686 29.073 53.6018 27.7859Z" fill="black"/>
<path d="M17.388 21.3057C17.1238 21.489 16.8548 21.6771 16.5881 21.877C15.5063 22.6779 14.4729 23.542 13.4931 24.4649C12.3973 25.5012 11.3639 26.6015 10.3981 27.7599C9.31375 29.0544 8.32623 30.4271 7.4436 31.8667C8.32603 33.3044 9.31272 34.6755 10.3957 35.9688C11.3615 37.1287 12.3949 38.2306 13.4907 39.2685C14.4701 40.1919 15.5036 41.0561 16.5857 41.8564C16.8476 42.0564 17.1143 42.2445 17.3809 42.4254C15.0394 39.4033 13.7687 35.6886 13.7687 31.8655C13.7687 28.0425 15.0394 24.3278 17.3809 21.3057H17.388Z" fill="black"/>
<path d="M33.4581 20.7794C33.332 20.1454 33.1731 19.5184 32.982 18.9009C32.8277 18.3736 32.6416 17.856 32.4249 17.3511C32.3916 17.2701 32.3535 17.1868 32.3178 17.113L32.3035 17.0773L32.2797 17.0297L32.1868 16.894L31.9987 16.6226L31.7892 16.9154L31.713 17.0297L31.6916 17.0773L31.6749 17.1154C31.6392 17.1939 31.6011 17.2773 31.5678 17.3535C31.3524 17.8546 31.1672 18.3682 31.0131 18.8914C30.8208 19.5118 30.6618 20.142 30.5369 20.7794C30.0012 23.2133 29.9085 25.7239 30.2632 28.1907V28.2788C30.3678 29.5482 30.5942 30.8047 30.9393 32.0309C31.2843 33.2351 31.4133 34.4909 31.3202 35.7401C31.2314 36.4681 31.0719 37.1857 30.8441 37.8828C30.6823 38.4069 30.5488 38.9394 30.4441 39.4779C30.3351 40.1009 30.3031 40.735 30.3489 41.3658C30.3758 41.9942 30.4386 42.6206 30.5369 43.2419C30.7032 44.4284 31.04 45.5847 31.5369 46.6749C31.575 46.7583 31.6154 46.8392 31.6559 46.913L31.6726 46.9463L31.6964 46.9987L31.7297 47.0558L31.7964 47.1582L31.9702 47.3963L32.1654 47.1392L32.2178 47.0511L32.2487 46.9939C32.2576 46.9778 32.2656 46.9611 32.2725 46.9439L32.2916 46.9082C32.332 46.8273 32.3701 46.7463 32.4106 46.6702C32.9064 45.5795 33.2432 44.4234 33.4105 43.2371C33.5076 42.6149 33.5704 41.9878 33.5986 41.3587C33.6444 40.7286 33.6124 40.0953 33.5034 39.4731C33.3984 38.9357 33.2657 38.4041 33.1058 37.8804C32.8768 37.1836 32.7173 36.4659 32.6296 35.7377C32.5371 34.4879 32.6652 33.2315 33.0082 32.0261C33.3529 30.7998 33.58 29.5434 33.6867 28.274V28.1812C33.8437 26.9696 33.9106 25.7481 33.8867 24.5267C33.8402 23.2684 33.6969 22.0156 33.4581 20.7794Z" fill="black"/>
</g>
<defs>
<clipPath id="clip0_282_120">
<rect width="64" height="64" fill="white"/>
</clipPath>
</defs>
</svg>
