<svg width="32" height="32" viewBox="0 0 32 32" fill="none" xmlns="http://www.w3.org/2000/svg">
<g clip-path="url(#clip0_416_21)">
<path fill-rule="evenodd" clip-rule="evenodd" d="M15.9985 0.156334C7.16437 0.156334 0 7.31971 0 16.1568C0 23.2259 4.58406 29.2224 10.942 31.3381C11.7425 31.4855 12.0343 30.9914 12.0343 30.5671C12.0343 30.187 12.0205 29.1812 12.0126 27.8463C7.56218 28.8128 6.62317 25.7011 6.62317 25.7011C5.89534 23.8526 4.84632 23.3605 4.84632 23.3605C3.39361 22.3684 4.95633 22.3881 4.95633 22.3881C6.56227 22.501 7.40698 24.0372 7.40698 24.0372C8.83416 26.482 11.1522 25.7758 12.0637 25.3662C12.2091 24.3329 12.6226 23.6276 13.0793 23.2279C9.52663 22.8242 5.79122 21.451 5.79122 15.32C5.79122 13.5736 6.41494 12.1444 7.43842 11.0266C7.27341 10.622 6.72434 8.99441 7.59557 6.79226C7.59557 6.79226 8.93827 6.36205 11.995 8.43258C13.2709 8.07702 14.6401 7.90021 16.0005 7.89333C17.3599 7.90021 18.7281 8.07702 20.006 8.43258C23.0607 6.36205 24.4015 6.79226 24.4015 6.79226C25.2747 8.99441 24.7256 10.622 24.5616 11.0266C25.587 12.1444 26.2058 13.5736 26.2058 15.32C26.2058 21.4667 22.4645 22.8193 18.901 23.2151C19.4746 23.7092 19.9864 24.6855 19.9864 26.1775C19.9864 28.3168 19.9667 30.0426 19.9667 30.5671C19.9667 30.9953 20.2555 31.4933 21.0668 31.3371C27.4199 29.2165 32 23.2239 32 16.1568C32 7.31971 24.8356 0.156334 15.9985 0.156334Z" fill="#DEDFE6"/>
</g>
<defs>
<clipPath id="clip0_416_21">
<rect width="32" height="32" fill="white"/>
</clipPath>
</defs>
</svg>
