<svg width="144" height="98" viewBox="0 0 144 98" fill="none" xmlns="http://www.w3.org/2000/svg">
<path d="M52.0369 59L58.8892 45.4318V45.3295H50.8438V41.5455H63.7983V45.3295L56.9119 59H52.0369ZM65.9013 59V55.5909L72.4126 50.2045C72.8445 49.8466 73.2138 49.5114 73.5206 49.1989C73.8331 48.8807 74.0717 48.554 74.2365 48.2188C74.407 47.8835 74.4922 47.5114 74.4922 47.1023C74.4922 46.6534 74.3956 46.2699 74.2024 45.9517C74.0149 45.6335 73.7536 45.3892 73.4183 45.2188C73.0831 45.0426 72.6967 44.9545 72.2592 44.9545C71.8217 44.9545 71.4354 45.0426 71.1001 45.2188C70.7706 45.3949 70.5149 45.6534 70.3331 45.9943C70.1513 46.3352 70.0604 46.75 70.0604 47.2386H65.5604C65.5604 46.0114 65.8359 44.9545 66.3871 44.0682C66.9382 43.1818 67.7166 42.5 68.7223 42.0227C69.728 41.5455 70.907 41.3068 72.2592 41.3068C73.657 41.3068 74.8672 41.5312 75.8899 41.9801C76.9183 42.4233 77.7109 43.0483 78.2678 43.8551C78.8303 44.6619 79.1115 45.608 79.1115 46.6932C79.1115 47.3636 78.9723 48.0312 78.6939 48.696C78.4155 49.3551 77.9155 50.0852 77.1939 50.8864C76.4723 51.6875 75.4467 52.642 74.1172 53.75L72.4808 55.1136V55.2159H79.299V59H65.9013ZM82.201 59L89.0533 45.4318V45.3295H81.0078V41.5455H93.9624V45.3295L87.076 59H82.201Z" fill="white"/>
<path fill-rule="evenodd" clip-rule="evenodd" d="M72 2C24 2 0 50 0 50C0 50 24 98 72 98C120 98 144 50 144 50C144 50 120 2 72 2ZM103.2 50C103.2 67.2313 89.2313 81.2 72 81.2C54.7687 81.2 40.8 67.2313 40.8 50C40.8 32.7687 54.7687 18.8 72 18.8C89.2313 18.8 103.2 32.7687 103.2 50ZM107 50C107 69.33 91.33 85 72 85C52.67 85 37 69.33 37 50C37 30.67 52.67 15 72 15C91.33 15 107 30.67 107 50ZM111 50C111 71.5391 93.5391 89 72 89C50.4609 89 33 71.5391 33 50C33 28.4609 50.4609 11 72 11C93.5391 11 111 28.4609 111 50Z" fill="white"/>
</svg>
