<svg width="79" height="12" viewBox="0 0 79 12" fill="none" xmlns="http://www.w3.org/2000/svg">
<path d="M1.92614 0.272727V9H0.920455V0.272727H1.92614ZM6.4272 9.13636C5.83629 9.13636 5.31783 8.99574 4.8718 8.71449C4.42862 8.43324 4.08203 8.03977 3.83203 7.53409C3.58487 7.02841 3.46129 6.4375 3.46129 5.76136C3.46129 5.07955 3.58487 4.48437 3.83203 3.97585C4.08203 3.46733 4.42862 3.07244 4.8718 2.79119C5.31783 2.50994 5.83629 2.36932 6.4272 2.36932C7.01811 2.36932 7.53516 2.50994 7.97834 2.79119C8.42436 3.07244 8.77095 3.46733 9.01811 3.97585C9.26811 4.48437 9.39311 5.07955 9.39311 5.76136C9.39311 6.4375 9.26811 7.02841 9.01811 7.53409C8.77095 8.03977 8.42436 8.43324 7.97834 8.71449C7.53516 8.99574 7.01811 9.13636 6.4272 9.13636ZM6.4272 8.23295C6.87607 8.23295 7.24538 8.1179 7.53516 7.88778C7.82493 7.65767 8.03942 7.35511 8.17862 6.98011C8.31783 6.60511 8.38743 6.19886 8.38743 5.76136C8.38743 5.32386 8.31783 4.91619 8.17862 4.53835C8.03942 4.16051 7.82493 3.85511 7.53516 3.62216C7.24538 3.3892 6.87607 3.27273 6.4272 3.27273C5.97834 3.27273 5.60902 3.3892 5.31925 3.62216C5.02947 3.85511 4.81499 4.16051 4.67578 4.53835C4.53658 4.91619 4.46697 5.32386 4.46697 5.76136C4.46697 6.19886 4.53658 6.60511 4.67578 6.98011C4.81499 7.35511 5.02947 7.65767 5.31925 7.88778C5.60902 8.1179 5.97834 8.23295 6.4272 8.23295ZM12.8544 9.15341C12.4396 9.15341 12.0632 9.07528 11.7251 8.91903C11.3871 8.75994 11.1186 8.53125 10.9197 8.23295C10.7209 7.93182 10.6214 7.56818 10.6214 7.14205C10.6214 6.76705 10.6953 6.46307 10.843 6.23011C10.9908 5.99432 11.1882 5.80966 11.4354 5.67614C11.6825 5.54261 11.9553 5.44318 12.2536 5.37784C12.5547 5.30966 12.8572 5.25568 13.1612 5.21591C13.5589 5.16477 13.8814 5.12642 14.1286 5.10085C14.3786 5.07244 14.5604 5.02557 14.674 4.96023C14.7905 4.89489 14.8487 4.78125 14.8487 4.61932V4.58523C14.8487 4.16477 14.7337 3.83807 14.5036 3.60511C14.2763 3.37216 13.9311 3.25568 13.468 3.25568C12.9879 3.25568 12.6115 3.3608 12.3388 3.57102C12.0661 3.78125 11.8743 4.00568 11.7635 4.24432L10.8089 3.90341C10.9794 3.50568 11.2067 3.19602 11.4908 2.97443C11.7777 2.75 12.0902 2.59375 12.4283 2.50568C12.7692 2.41477 13.1044 2.36932 13.4339 2.36932C13.6442 2.36932 13.8857 2.39489 14.1584 2.44602C14.4339 2.49432 14.6996 2.59517 14.9553 2.74858C15.2138 2.90199 15.4283 3.13352 15.5987 3.44318C15.7692 3.75284 15.8544 4.16761 15.8544 4.6875V9H14.8487V8.11364H14.7976C14.7294 8.25568 14.6158 8.40767 14.4567 8.5696C14.2976 8.73153 14.0859 8.86932 13.8217 8.98295C13.5575 9.09659 13.2351 9.15341 12.8544 9.15341ZM13.0078 8.25C13.4055 8.25 13.7408 8.17188 14.0135 8.01562C14.2891 7.85938 14.4964 7.65767 14.6357 7.41051C14.7777 7.16335 14.8487 6.90341 14.8487 6.63068V5.71023C14.8061 5.76136 14.7124 5.80824 14.5675 5.85085C14.4254 5.89062 14.2607 5.92614 14.0732 5.95739C13.8885 5.9858 13.7081 6.01136 13.532 6.03409C13.3587 6.05398 13.218 6.07102 13.1101 6.08523C12.8487 6.11932 12.6044 6.17472 12.3771 6.25142C12.1527 6.32528 11.9709 6.4375 11.8317 6.58807C11.6953 6.7358 11.6271 6.9375 11.6271 7.19318C11.6271 7.54261 11.7564 7.80682 12.0149 7.9858C12.2763 8.16193 12.6072 8.25 13.0078 8.25ZM20.1616 9.13636C19.6161 9.13636 19.1346 8.99858 18.717 8.72301C18.2994 8.4446 17.9727 8.05256 17.7369 7.54688C17.5011 7.03835 17.3832 6.4375 17.3832 5.74432C17.3832 5.05682 17.5011 4.46023 17.7369 3.95455C17.9727 3.44886 18.3008 3.05824 18.7212 2.78267C19.1417 2.5071 19.6275 2.36932 20.1786 2.36932C20.6048 2.36932 20.9414 2.44034 21.1886 2.58239C21.4386 2.72159 21.6289 2.88068 21.7596 3.05966C21.8931 3.2358 21.9968 3.38068 22.0707 3.49432H22.1559V0.272727H23.1616V9H22.19V7.99432H22.0707C21.9968 8.11364 21.8917 8.2642 21.7553 8.44602C21.619 8.625 21.4244 8.78551 21.1715 8.92756C20.9187 9.06676 20.582 9.13636 20.1616 9.13636ZM20.2979 8.23295C20.7013 8.23295 21.0423 8.12784 21.3207 7.91761C21.5991 7.70455 21.8107 7.41051 21.9556 7.03551C22.1005 6.65767 22.1729 6.22159 22.1729 5.72727C22.1729 5.23864 22.1019 4.81108 21.9599 4.4446C21.8178 4.07528 21.6076 3.78835 21.3292 3.58381C21.0508 3.37642 20.707 3.27273 20.2979 3.27273C19.8718 3.27273 19.5167 3.3821 19.2326 3.60085C18.9513 3.81676 18.7397 4.1108 18.5977 4.48295C18.4585 4.85227 18.3888 5.26705 18.3888 5.72727C18.3888 6.19318 18.4599 6.61648 18.6019 6.99716C18.7468 7.375 18.9599 7.67614 19.2411 7.90057C19.5252 8.12216 19.8775 8.23295 20.2979 8.23295ZM25.1431 9V2.45455H26.1488V9H25.1431ZM25.6545 1.36364C25.4585 1.36364 25.2894 1.29688 25.1474 1.16335C25.0082 1.02983 24.9386 0.869318 24.9386 0.681818C24.9386 0.494318 25.0082 0.333807 25.1474 0.200284C25.2894 0.0667613 25.4585 0 25.6545 0C25.8505 0 26.0181 0.0667613 26.1573 0.200284C26.2994 0.333807 26.3704 0.494318 26.3704 0.681818C26.3704 0.869318 26.2994 1.02983 26.1573 1.16335C26.0181 1.29688 25.8505 1.36364 25.6545 1.36364ZM28.9964 5.0625V9H27.9908V2.45455H28.9624V3.47727H29.0476C29.201 3.14489 29.4339 2.87784 29.7464 2.67614C30.0589 2.47159 30.4624 2.36932 30.9567 2.36932C31.3999 2.36932 31.7876 2.46023 32.12 2.64205C32.4524 2.82102 32.7109 3.09375 32.8956 3.46023C33.0803 3.82386 33.1726 4.28409 33.1726 4.84091V9H32.1669V4.90909C32.1669 4.39489 32.0334 3.99432 31.7663 3.70739C31.4993 3.41761 31.1328 3.27273 30.6669 3.27273C30.3459 3.27273 30.0589 3.34233 29.8061 3.48153C29.5561 3.62074 29.3587 3.82386 29.2138 4.09091C29.0689 4.35795 28.9964 4.68182 28.9964 5.0625ZM37.6523 11.5909C37.1665 11.5909 36.7489 11.5284 36.3995 11.4034C36.0501 11.2812 35.7589 11.1193 35.5259 10.9176C35.2958 10.7188 35.1126 10.5057 34.9762 10.2784L35.7773 9.71591C35.8683 9.83523 35.9833 9.97159 36.1225 10.125C36.2617 10.2812 36.4521 10.4162 36.6935 10.5298C36.9379 10.6463 37.2575 10.7045 37.6523 10.7045C38.1808 10.7045 38.6168 10.5767 38.9606 10.321C39.3043 10.0653 39.4762 9.66477 39.4762 9.11932V7.78977H39.391C39.3171 7.90909 39.212 8.05682 39.0756 8.23295C38.9421 8.40625 38.7489 8.56108 38.4961 8.69744C38.2461 8.83097 37.908 8.89773 37.4819 8.89773C36.9535 8.89773 36.479 8.77273 36.0586 8.52273C35.641 8.27273 35.31 7.90909 35.0657 7.43182C34.8242 6.95455 34.7035 6.375 34.7035 5.69318C34.7035 5.02273 34.8214 4.43892 35.0572 3.94176C35.293 3.44176 35.6211 3.0554 36.0415 2.78267C36.462 2.5071 36.9478 2.36932 37.4989 2.36932C37.9251 2.36932 38.2631 2.44034 38.5131 2.58239C38.766 2.72159 38.9592 2.88068 39.0927 3.05966C39.229 3.2358 39.3342 3.38068 39.408 3.49432H39.5103V2.45455H40.4819V9.1875C40.4819 9.75 40.354 10.2074 40.0984 10.5597C39.8455 10.9148 39.5046 11.1747 39.0756 11.3395C38.6495 11.5071 38.1751 11.5909 37.6523 11.5909ZM37.6183 7.99432C38.0217 7.99432 38.3626 7.90199 38.641 7.71733C38.9194 7.53267 39.131 7.26705 39.2759 6.92045C39.4208 6.57386 39.4933 6.15909 39.4933 5.67614C39.4933 5.20455 39.4222 4.78835 39.2802 4.42756C39.1381 4.06676 38.9279 3.78409 38.6495 3.57955C38.3711 3.375 38.0273 3.27273 37.6183 3.27273C37.1921 3.27273 36.837 3.38068 36.5529 3.59659C36.2717 3.8125 36.06 4.10227 35.918 4.46591C35.7788 4.82955 35.7092 5.23295 35.7092 5.67614C35.7092 6.13068 35.7802 6.53267 35.9222 6.8821C36.0671 7.22869 36.2802 7.50142 36.5614 7.70028C36.8455 7.89631 37.1978 7.99432 37.6183 7.99432ZM46.7035 0.272727V9H45.6978V0.272727H46.7035ZM51.2045 9.13636C50.6136 9.13636 50.0952 8.99574 49.6491 8.71449C49.206 8.43324 48.8594 8.03977 48.6094 7.53409C48.3622 7.02841 48.2386 6.4375 48.2386 5.76136C48.2386 5.07955 48.3622 4.48437 48.6094 3.97585C48.8594 3.46733 49.206 3.07244 49.6491 2.79119C50.0952 2.50994 50.6136 2.36932 51.2045 2.36932C51.7955 2.36932 52.3125 2.50994 52.7557 2.79119C53.2017 3.07244 53.5483 3.46733 53.7955 3.97585C54.0455 4.48437 54.1705 5.07955 54.1705 5.76136C54.1705 6.4375 54.0455 7.02841 53.7955 7.53409C53.5483 8.03977 53.2017 8.43324 52.7557 8.71449C52.3125 8.99574 51.7955 9.13636 51.2045 9.13636ZM51.2045 8.23295C51.6534 8.23295 52.0227 8.1179 52.3125 7.88778C52.6023 7.65767 52.8168 7.35511 52.956 6.98011C53.0952 6.60511 53.1648 6.19886 53.1648 5.76136C53.1648 5.32386 53.0952 4.91619 52.956 4.53835C52.8168 4.16051 52.6023 3.85511 52.3125 3.62216C52.0227 3.3892 51.6534 3.27273 51.2045 3.27273C50.7557 3.27273 50.3864 3.3892 50.0966 3.62216C49.8068 3.85511 49.5923 4.16051 49.4531 4.53835C49.3139 4.91619 49.2443 5.32386 49.2443 5.76136C49.2443 6.19886 49.3139 6.60511 49.4531 6.98011C49.5923 7.35511 49.8068 7.65767 50.0966 7.88778C50.3864 8.1179 50.7557 8.23295 51.2045 8.23295ZM58.3477 11.5909C57.8619 11.5909 57.4442 11.5284 57.0948 11.4034C56.7454 11.2812 56.4542 11.1193 56.2212 10.9176C55.9911 10.7188 55.8079 10.5057 55.6715 10.2784L56.4727 9.71591C56.5636 9.83523 56.6786 9.97159 56.8178 10.125C56.957 10.2812 57.1474 10.4162 57.3888 10.5298C57.6332 10.6463 57.9528 10.7045 58.3477 10.7045C58.8761 10.7045 59.3121 10.5767 59.6559 10.321C59.9996 10.0653 60.1715 9.66477 60.1715 9.11932V7.78977H60.0863C60.0124 7.90909 59.9073 8.05682 59.771 8.23295C59.6374 8.40625 59.4442 8.56108 59.1914 8.69744C58.9414 8.83097 58.6033 8.89773 58.1772 8.89773C57.6488 8.89773 57.1744 8.77273 56.7539 8.52273C56.3363 8.27273 56.0053 7.90909 55.761 7.43182C55.5195 6.95455 55.3988 6.375 55.3988 5.69318C55.3988 5.02273 55.5167 4.43892 55.7525 3.94176C55.9883 3.44176 56.3164 3.0554 56.7369 2.78267C57.1573 2.5071 57.6431 2.36932 58.1942 2.36932C58.6204 2.36932 58.9585 2.44034 59.2085 2.58239C59.4613 2.72159 59.6545 2.88068 59.788 3.05966C59.9244 3.2358 60.0295 3.38068 60.1033 3.49432H60.2056V2.45455H61.1772V9.1875C61.1772 9.75 61.0494 10.2074 60.7937 10.5597C60.5408 10.9148 60.1999 11.1747 59.771 11.3395C59.3448 11.5071 58.8704 11.5909 58.3477 11.5909ZM58.3136 7.99432C58.717 7.99432 59.0579 7.90199 59.3363 7.71733C59.6147 7.53267 59.8263 7.26705 59.9712 6.92045C60.1161 6.57386 60.1886 6.15909 60.1886 5.67614C60.1886 5.20455 60.1175 4.78835 59.9755 4.42756C59.8335 4.06676 59.6232 3.78409 59.3448 3.57955C59.0664 3.375 58.7227 3.27273 58.3136 3.27273C57.8874 3.27273 57.5323 3.38068 57.2482 3.59659C56.967 3.8125 56.7553 4.10227 56.6133 4.46591C56.4741 4.82955 56.4045 5.23295 56.4045 5.67614C56.4045 6.13068 56.4755 6.53267 56.6175 6.8821C56.7624 7.22869 56.9755 7.50142 57.2567 7.70028C57.5408 7.89631 57.8931 7.99432 58.3136 7.99432ZM65.6772 9.13636C65.0863 9.13636 64.5678 8.99574 64.1218 8.71449C63.6786 8.43324 63.332 8.03977 63.082 7.53409C62.8349 7.02841 62.7113 6.4375 62.7113 5.76136C62.7113 5.07955 62.8349 4.48437 63.082 3.97585C63.332 3.46733 63.6786 3.07244 64.1218 2.79119C64.5678 2.50994 65.0863 2.36932 65.6772 2.36932C66.2681 2.36932 66.7852 2.50994 67.2283 2.79119C67.6744 3.07244 68.021 3.46733 68.2681 3.97585C68.5181 4.48437 68.6431 5.07955 68.6431 5.76136C68.6431 6.4375 68.5181 7.02841 68.2681 7.53409C68.021 8.03977 67.6744 8.43324 67.2283 8.71449C66.7852 8.99574 66.2681 9.13636 65.6772 9.13636ZM65.6772 8.23295C66.1261 8.23295 66.4954 8.1179 66.7852 7.88778C67.0749 7.65767 67.2894 7.35511 67.4286 6.98011C67.5678 6.60511 67.6374 6.19886 67.6374 5.76136C67.6374 5.32386 67.5678 4.91619 67.4286 4.53835C67.2894 4.16051 67.0749 3.85511 66.7852 3.62216C66.4954 3.3892 66.1261 3.27273 65.6772 3.27273C65.2283 3.27273 64.859 3.3892 64.5692 3.62216C64.2795 3.85511 64.065 4.16051 63.9258 4.53835C63.7866 4.91619 63.717 5.32386 63.717 5.76136C63.717 6.19886 63.7866 6.60511 63.9258 6.98011C64.065 7.35511 64.2795 7.65767 64.5692 7.88778C64.859 8.1179 65.2283 8.23295 65.6772 8.23295ZM70.9112 9.06818C70.701 9.06818 70.5206 8.9929 70.37 8.84233C70.2195 8.69176 70.1442 8.51136 70.1442 8.30114C70.1442 8.09091 70.2195 7.91051 70.37 7.75994C70.5206 7.60937 70.701 7.53409 70.9112 7.53409C71.1214 7.53409 71.3018 7.60937 71.4524 7.75994C71.603 7.91051 71.6783 8.09091 71.6783 8.30114C71.6783 8.44034 71.6428 8.56818 71.5717 8.68466C71.5036 8.80114 71.4112 8.89489 71.2947 8.96591C71.1811 9.03409 71.0533 9.06818 70.9112 9.06818ZM74.2159 9.06818C74.0057 9.06818 73.8253 8.9929 73.6747 8.84233C73.5241 8.69176 73.4489 8.51136 73.4489 8.30114C73.4489 8.09091 73.5241 7.91051 73.6747 7.75994C73.8253 7.60937 74.0057 7.53409 74.2159 7.53409C74.4261 7.53409 74.6065 7.60937 74.7571 7.75994C74.9077 7.91051 74.983 8.09091 74.983 8.30114C74.983 8.44034 74.9474 8.56818 74.8764 8.68466C74.8082 8.80114 74.7159 8.89489 74.5994 8.96591C74.4858 9.03409 74.358 9.06818 74.2159 9.06818ZM77.5206 9.06818C77.3104 9.06818 77.13 8.9929 76.9794 8.84233C76.8288 8.69176 76.7536 8.51136 76.7536 8.30114C76.7536 8.09091 76.8288 7.91051 76.9794 7.75994C77.13 7.60937 77.3104 7.53409 77.5206 7.53409C77.7308 7.53409 77.9112 7.60937 78.0618 7.75994C78.2124 7.91051 78.2876 8.09091 78.2876 8.30114C78.2876 8.44034 78.2521 8.56818 78.1811 8.68466C78.1129 8.80114 78.0206 8.89489 77.9041 8.96591C77.7905 9.03409 77.6626 9.06818 77.5206 9.06818Z" fill="white"/>
</svg>
