<svg width="134" height="10" viewBox="0 0 134 10" fill="none" xmlns="http://www.w3.org/2000/svg">
<path d="M1.344 9V1.512H0.12V0.18H3.864V1.512H2.64V9H1.344ZM4.10437 9V0.18H5.40037V3.828H6.40837V0.18H7.70437V9H6.40837V5.16H5.40037V9H4.10437ZM8.30297 9V0.18H11.267V1.512H9.59897V3.888H10.799V5.184H9.59897V7.668H11.267V9H8.30297ZM13.3603 9V0.18H16.3243V1.512H14.6563V3.888H15.8563V5.184H14.6563V7.668H16.3243V9H13.3603ZM16.9261 9V0.18H18.1381L19.3381 4.776L19.4461 5.184H19.5181V0.18H20.7061V9H19.6141L18.2941 4.404L18.1861 3.996H18.1141V9H16.9261ZM21.3005 9V0.18H22.6205C23.0365 0.18 23.3885 0.248 23.6765 0.383999C23.9645 0.52 24.1965 0.752 24.3725 1.08C24.5485 1.408 24.6745 1.858 24.7505 2.43C24.8305 3.002 24.8705 3.724 24.8705 4.596C24.8705 5.472 24.8305 6.196 24.7505 6.768C24.6745 7.336 24.5485 7.784 24.3725 8.112C24.1965 8.436 23.9645 8.666 23.6765 8.802C23.3885 8.934 23.0365 9 22.6205 9H21.3005ZM22.5965 7.704C22.9165 7.704 23.1425 7.578 23.2745 7.326C23.4065 7.074 23.4865 6.714 23.5145 6.246C23.5425 5.778 23.5565 5.222 23.5565 4.578C23.5565 3.926 23.5425 3.37 23.5145 2.91C23.4865 2.446 23.4045 2.092 23.2685 1.848C23.1365 1.6 22.9125 1.476 22.5965 1.476V7.704ZM26.8969 9V0.18H28.1929V9H26.8969ZM30.3586 9.096C30.0026 9.096 29.7066 9.038 29.4706 8.922C29.2346 8.802 29.0486 8.63 28.9126 8.406C28.7766 8.182 28.6786 7.912 28.6186 7.596C28.5626 7.28 28.5346 6.924 28.5346 6.528L29.8066 6.408C29.8066 6.6 29.8126 6.786 29.8246 6.966C29.8406 7.142 29.8666 7.302 29.9026 7.446C29.9426 7.586 29.9986 7.698 30.0706 7.782C30.1466 7.866 30.2426 7.908 30.3586 7.908C30.5506 7.908 30.6866 7.82 30.7666 7.644C30.8466 7.464 30.8866 7.248 30.8866 6.996C30.8866 6.744 30.8206 6.482 30.6886 6.21C30.5566 5.938 30.3986 5.68 30.2146 5.436C29.9026 5.02 29.6286 4.634 29.3926 4.278C29.1606 3.922 28.9786 3.572 28.8466 3.228C28.7186 2.884 28.6546 2.524 28.6546 2.148C28.6546 1.852 28.6926 1.58 28.7686 1.332C28.8446 1.08 28.9546 0.862 29.0986 0.677999C29.2466 0.49 29.4246 0.344 29.6326 0.24C29.8406 0.136 30.0786 0.0839996 30.3466 0.0839996C30.6786 0.0839996 30.9586 0.14 31.1866 0.252C31.4186 0.364 31.6046 0.524 31.7446 0.732C31.8886 0.94 31.9926 1.188 32.0566 1.476C32.1246 1.76 32.1586 2.076 32.1586 2.424L30.8866 2.544C30.8866 2.396 30.8786 2.248 30.8626 2.1C30.8506 1.948 30.8266 1.81 30.7906 1.686C30.7546 1.562 30.7026 1.462 30.6346 1.386C30.5666 1.31 30.4786 1.272 30.3706 1.272C30.2026 1.272 30.0866 1.344 30.0226 1.488C29.9586 1.628 29.9266 1.828 29.9266 2.088C29.9266 2.424 30.0166 2.748 30.1966 3.06C30.3766 3.372 30.6186 3.736 30.9226 4.152C31.2866 4.644 31.5826 5.096 31.8106 5.508C32.0426 5.92 32.1586 6.376 32.1586 6.876C32.1586 7.192 32.1246 7.486 32.0566 7.758C31.9886 8.026 31.8806 8.26 31.7326 8.46C31.5886 8.66 31.4026 8.816 31.1746 8.928C30.9506 9.04 30.6786 9.096 30.3586 9.096ZM33.9848 9V0.18H35.1968L36.3968 4.776L36.5048 5.184H36.5768V0.18H37.7648V9H36.6728L35.3528 4.404L35.2448 3.996H35.1728V9H33.9848ZM38.3592 9V0.18H41.3232V1.512H39.6552V3.888H40.8552V5.184H39.6552V7.668H41.3232V9H38.3592ZM42.969 9L41.625 0.18H42.885L43.533 5.388L43.581 6.24H43.653L43.701 5.388L44.349 0.18H45.609L44.265 9H42.969ZM45.9127 9V0.18H48.8767V1.512H47.2087V3.888H48.4087V5.184H47.2087V7.668H48.8767V9H45.9127ZM49.4784 9V0.18H50.7744C51.5504 0.18 52.1224 0.396 52.4904 0.827999C52.8584 1.256 53.0424 1.888 53.0424 2.724C53.0424 3.22 52.9544 3.65 52.7784 4.014C52.6064 4.374 52.3964 4.638 52.1484 4.806L53.0304 9H51.7344L51.0024 5.28H50.7744V9H49.4784ZM50.7744 4.08C51.0144 4.08 51.2044 4.028 51.3444 3.924C51.4844 3.816 51.5844 3.664 51.6444 3.468C51.7044 3.272 51.7344 3.04 51.7344 2.772C51.7344 2.352 51.6644 2.03 51.5244 1.806C51.3884 1.578 51.1384 1.464 50.7744 1.464V4.08ZM55.7631 9V1.512H54.5391V0.18H58.2831V1.512H57.0591V9H55.7631ZM58.5234 9V0.18H59.8194V3.828H60.8274V0.18H62.1234V9H60.8274V5.16H59.8194V9H58.5234ZM62.722 9V0.18H65.686V1.512H64.018V3.888H65.218V5.184H64.018V7.668H65.686V9H62.722ZM67.7794 9V0.18H70.7434V1.512H69.0754V3.888H70.2754V5.184H69.0754V7.668H70.7434V9H67.7794ZM71.3452 9V0.18H72.5572L73.7572 4.776L73.8652 5.184H73.9372V0.18H75.1252V9H74.0332L72.7132 4.404L72.6052 3.996H72.5332V9H71.3452ZM75.7195 9V0.18H77.0395C77.4555 0.18 77.8075 0.248 78.0955 0.383999C78.3835 0.52 78.6155 0.752 78.7915 1.08C78.9675 1.408 79.0935 1.858 79.1695 2.43C79.2495 3.002 79.2895 3.724 79.2895 4.596C79.2895 5.472 79.2495 6.196 79.1695 6.768C79.0935 7.336 78.9675 7.784 78.7915 8.112C78.6155 8.436 78.3835 8.666 78.0955 8.802C77.8075 8.934 77.4555 9 77.0395 9H75.7195ZM77.0155 7.704C77.3355 7.704 77.5615 7.578 77.6935 7.326C77.8255 7.074 77.9055 6.714 77.9335 6.246C77.9615 5.778 77.9755 5.222 77.9755 4.578C77.9755 3.926 77.9615 3.37 77.9335 2.91C77.9055 2.446 77.8235 2.092 77.6875 1.848C77.5555 1.6 77.3315 1.476 77.0155 1.476V7.704ZM81.3159 9V0.18H82.6119V9H81.3159ZM84.7777 9.096C84.4217 9.096 84.1257 9.038 83.8897 8.922C83.6537 8.802 83.4677 8.63 83.3317 8.406C83.1957 8.182 83.0977 7.912 83.0377 7.596C82.9817 7.28 82.9537 6.924 82.9537 6.528L84.2257 6.408C84.2257 6.6 84.2317 6.786 84.2437 6.966C84.2597 7.142 84.2857 7.302 84.3217 7.446C84.3617 7.586 84.4177 7.698 84.4897 7.782C84.5657 7.866 84.6617 7.908 84.7777 7.908C84.9697 7.908 85.1057 7.82 85.1857 7.644C85.2657 7.464 85.3057 7.248 85.3057 6.996C85.3057 6.744 85.2397 6.482 85.1077 6.21C84.9757 5.938 84.8177 5.68 84.6337 5.436C84.3217 5.02 84.0477 4.634 83.8117 4.278C83.5797 3.922 83.3977 3.572 83.2657 3.228C83.1377 2.884 83.0737 2.524 83.0737 2.148C83.0737 1.852 83.1117 1.58 83.1877 1.332C83.2637 1.08 83.3737 0.862 83.5177 0.677999C83.6657 0.49 83.8437 0.344 84.0517 0.24C84.2597 0.136 84.4977 0.0839996 84.7657 0.0839996C85.0977 0.0839996 85.3777 0.14 85.6057 0.252C85.8377 0.364 86.0237 0.524 86.1637 0.732C86.3077 0.94 86.4117 1.188 86.4757 1.476C86.5437 1.76 86.5777 2.076 86.5777 2.424L85.3057 2.544C85.3057 2.396 85.2977 2.248 85.2817 2.1C85.2697 1.948 85.2457 1.81 85.2097 1.686C85.1737 1.562 85.1217 1.462 85.0537 1.386C84.9857 1.31 84.8977 1.272 84.7897 1.272C84.6217 1.272 84.5057 1.344 84.4417 1.488C84.3777 1.628 84.3457 1.828 84.3457 2.088C84.3457 2.424 84.4357 2.748 84.6157 3.06C84.7957 3.372 85.0377 3.736 85.3417 4.152C85.7057 4.644 86.0017 5.096 86.2297 5.508C86.4617 5.92 86.5777 6.376 86.5777 6.876C86.5777 7.192 86.5437 7.486 86.4757 7.758C86.4077 8.026 86.2997 8.26 86.1517 8.46C86.0077 8.66 85.8217 8.816 85.5937 8.928C85.3697 9.04 85.0977 9.096 84.7777 9.096ZM88.4039 9V0.18H89.6159L90.8159 4.776L90.9239 5.184H90.9959V0.18H92.1839V9H91.0919L89.7719 4.404L89.6639 3.996H89.5919V9H88.4039ZM92.7783 9V0.18H95.7423V1.512H94.0743V3.888H95.2743V5.184H94.0743V7.668H95.7423V9H92.7783ZM97.3881 9L96.0441 0.18H97.3041L97.9521 5.388L98.0001 6.24H98.0721L98.1201 5.388L98.7681 0.18H100.028L98.6841 9H97.3881ZM100.332 9V0.18H103.296V1.512H101.628V3.888H102.828V5.184H101.628V7.668H103.296V9H100.332ZM103.897 9V0.18H105.193C105.969 0.18 106.541 0.396 106.909 0.827999C107.277 1.256 107.461 1.888 107.461 2.724C107.461 3.22 107.373 3.65 107.197 4.014C107.025 4.374 106.815 4.638 106.567 4.806L107.449 9H106.153L105.421 5.28H105.193V9H103.897ZM105.193 4.08C105.433 4.08 105.623 4.028 105.763 3.924C105.903 3.816 106.003 3.664 106.063 3.468C106.123 3.272 106.153 3.04 106.153 2.772C106.153 2.352 106.083 2.03 105.943 1.806C105.807 1.578 105.557 1.464 105.193 1.464V4.08ZM110.182 9V1.512H108.958V0.18H112.702V1.512H111.478V9H110.182ZM112.943 9V0.18H114.239V3.828H115.247V0.18H116.543V9H115.247V5.16H114.239V9H112.943ZM117.141 9V0.18H120.105V1.512H118.437V3.888H119.637V5.184H118.437V7.668H120.105V9H117.141ZM122.198 9V0.18H125.162V1.512H123.494V3.888H124.694V5.184H123.494V7.668H125.162V9H122.198ZM125.764 9V0.18H126.976L128.176 4.776L128.284 5.184H128.356V0.18H129.544V9H128.452L127.132 4.404L127.024 3.996H126.952V9H125.764ZM130.139 9V0.18H131.459C131.875 0.18 132.227 0.248 132.515 0.383999C132.803 0.52 133.035 0.752 133.211 1.08C133.387 1.408 133.513 1.858 133.589 2.43C133.669 3.002 133.709 3.724 133.709 4.596C133.709 5.472 133.669 6.196 133.589 6.768C133.513 7.336 133.387 7.784 133.211 8.112C133.035 8.436 132.803 8.666 132.515 8.802C132.227 8.934 131.875 9 131.459 9H130.139ZM131.435 7.704C131.755 7.704 131.981 7.578 132.113 7.326C132.245 7.074 132.325 6.714 132.353 6.246C132.381 5.778 132.395 5.222 132.395 4.578C132.395 3.926 132.381 3.37 132.353 2.91C132.325 2.446 132.243 2.092 132.107 1.848C131.975 1.6 131.751 1.476 131.435 1.476V7.704Z" fill="url(#paint0_linear_419_105)"/>
<defs>
<linearGradient id="paint0_linear_419_105" x1="135" y1="12" x2="-1.25" y2="12" gradientUnits="userSpaceOnUse">
<stop stop-color="white" stop-opacity="0"/>
<stop offset="0.513889" stop-color="white" stop-opacity="0.2"/>
<stop offset="1" stop-color="white" stop-opacity="0"/>
</linearGradient>
</defs>
</svg>
