<svg width="32" height="32" viewBox="0 0 32 32" fill="none" xmlns="http://www.w3.org/2000/svg">
<path d="M7 16.175C7 18.108 5.433 19.675 3.5 19.675C1.567 19.675 0 18.108 0 16.175C0 14.242 1.567 12.675 3.5 12.675C5.433 12.675 7 14.242 7 16.175Z" fill="white"/>
<path d="M32 16.175C32 18.108 30.433 19.675 28.5 19.675C26.567 19.675 25 18.108 25 16.175C25 14.242 26.567 12.675 28.5 12.675C30.433 12.675 32 14.242 32 16.175Z" fill="white"/>
<path fill-rule="evenodd" clip-rule="evenodd" d="M17.4201 1.67384C17.554 1.58568 17.7177 1.55479 17.8745 1.58806L26.1245 3.33806L25.8755 4.51194L18.2193 2.8879L16.5883 11.0427L15.4117 10.8073L17.1617 2.05733C17.1931 1.9001 17.2862 1.76201 17.4201 1.67384Z" fill="white"/>
<path d="M28.5 3.925C28.5 5.30571 27.3807 6.425 26 6.425C24.6193 6.425 23.5 5.30571 23.5 3.925C23.5 2.54429 24.6193 1.425 26 1.425C27.3807 1.425 28.5 2.54429 28.5 3.925Z" fill="white"/>
<path fill-rule="evenodd" clip-rule="evenodd" d="M16 30.575C23.732 30.575 30 26.0979 30 20.575C30 15.0522 23.732 10.575 16 10.575C8.26801 10.575 2 15.0522 2 20.575C2 26.0979 8.26801 30.575 16 30.575ZM10.0757 24.5007C10.31 24.2664 10.6899 24.2664 10.9243 24.5007C12.0074 25.5839 13.8109 26.075 16 26.075C18.1891 26.075 19.9926 25.5839 21.0757 24.5007C21.31 24.2664 21.6899 24.2664 21.9243 24.5007C22.1586 24.7351 22.1586 25.115 21.9243 25.3493C20.5074 26.7661 18.3109 27.275 16 27.275C13.6891 27.275 11.4926 26.7661 10.0757 25.3493C9.84142 25.115 9.84142 24.7351 10.0757 24.5007ZM24 18.725C24 20.1057 22.8807 21.225 21.5 21.225C20.1193 21.225 19 20.1057 19 18.725C19 17.3443 20.1193 16.225 21.5 16.225C22.8807 16.225 24 17.3443 24 18.725ZM10.5 21.225C11.8807 21.225 13 20.1057 13 18.725C13 17.3443 11.8807 16.225 10.5 16.225C9.11929 16.225 8 17.3443 8 18.725C8 20.1057 9.11929 21.225 10.5 21.225Z" fill="white"/>
</svg>
