<svg width="32" height="32" viewBox="0 0 32 32" fill="none" xmlns="http://www.w3.org/2000/svg">
<rect x="1.1" y="1.1" width="29.8" height="29.8" fill="#1C0A00"/>
<rect x="1.1" y="1.1" width="29.8" height="29.8" stroke="#FF7F18" stroke-width="2.2"/>
<path d="M10.5276 10.652C10.7656 10.512 11.1226 10.379 11.5986 10.253C12.0886 10.127 12.5786 10.064 13.0686 10.064C13.7686 10.064 14.3846 10.169 14.9166 10.379C15.4626 10.575 15.8126 10.89 15.9666 11.324C16.2186 12.052 16.4916 12.899 16.7856 13.865C17.0796 14.831 17.3736 15.832 17.6676 16.868C17.9616 17.89 18.2486 18.905 18.5286 19.913C18.8086 20.907 19.0536 21.789 19.2636 22.559C19.0956 22.755 18.8436 22.909 18.5076 23.021C18.1716 23.147 17.7726 23.21 17.3106 23.21C16.9746 23.21 16.6876 23.182 16.4496 23.126C16.2256 23.07 16.0366 22.986 15.8826 22.874C15.7426 22.762 15.6236 22.615 15.5256 22.433C15.4416 22.251 15.3646 22.041 15.2946 21.803L14.9166 20.354H11.1156C11.0036 20.774 10.8916 21.208 10.7796 21.656C10.6676 22.104 10.5556 22.538 10.4436 22.958C10.2476 23.028 10.0376 23.084 9.81361 23.126C9.60361 23.182 9.34461 23.21 9.03661 23.21C8.32261 23.21 7.79061 23.091 7.44061 22.853C7.10461 22.601 6.93661 22.258 6.93661 21.824C6.93661 21.628 6.96461 21.432 7.02061 21.236C7.07661 21.04 7.13961 20.809 7.20961 20.543C7.30761 20.165 7.44061 19.696 7.60861 19.136C7.79061 18.576 7.98661 17.974 8.19661 17.33C8.40661 16.672 8.63061 16 8.86861 15.314C9.10661 14.628 9.33061 13.984 9.54061 13.382C9.75061 12.766 9.93961 12.22 10.1076 11.744C10.2896 11.268 10.4296 10.904 10.5276 10.652ZM13.0476 13.361C12.8516 13.949 12.6276 14.607 12.3756 15.335C12.1376 16.049 11.9206 16.777 11.7246 17.519H14.3286C14.1326 16.763 13.9296 16.028 13.7196 15.314C13.5236 14.586 13.3416 13.935 13.1736 13.361H13.0476ZM20.6276 9.959C20.6276 9.427 20.8026 8.979 21.1526 8.615C21.5166 8.251 21.9926 8.069 22.5806 8.069C23.1686 8.069 23.6376 8.251 23.9876 8.615C24.3516 8.979 24.5336 9.427 24.5336 9.959C24.5336 10.491 24.3516 10.939 23.9876 11.303C23.6376 11.667 23.1686 11.849 22.5806 11.849C21.9926 11.849 21.5166 11.667 21.1526 11.303C20.8026 10.939 20.6276 10.491 20.6276 9.959ZM24.3656 22.979C24.2116 23.007 23.9806 23.042 23.6726 23.084C23.3786 23.14 23.0776 23.168 22.7696 23.168C22.4616 23.168 22.1816 23.147 21.9296 23.105C21.6916 23.063 21.4886 22.979 21.3206 22.853C21.1526 22.727 21.0196 22.559 20.9216 22.349C20.8376 22.125 20.7956 21.838 20.7956 21.488V12.941C20.9496 12.913 21.1736 12.878 21.4676 12.836C21.7756 12.78 22.0836 12.752 22.3916 12.752C22.6996 12.752 22.9726 12.773 23.2106 12.815C23.4626 12.857 23.6726 12.941 23.8406 13.067C24.0086 13.193 24.1346 13.368 24.2186 13.592C24.3166 13.802 24.3656 14.082 24.3656 14.432V22.979Z" fill="#FF7F18"/>
</svg>
