<svg width="32" height="32" viewBox="0 0 32 32" fill="none" xmlns="http://www.w3.org/2000/svg">
<rect x="1.1" y="1.1" width="29.8" height="29.8" fill="#231311"/>
<rect x="1.1" y="1.1" width="29.8" height="29.8" stroke="#F03B22" stroke-width="2.2"/>
<path d="M8.56377 11.097H7.20677C7.05344 11.097 6.92311 11.051 6.81577 10.959C6.72377 10.8517 6.67777 10.7213 6.67777 10.568C6.67777 10.4147 6.72377 10.2843 6.81577 10.177C6.92311 10.0697 7.05344 10.016 7.20677 10.016H17.3728C17.7714 10.016 17.9708 10.2 17.9708 10.568V12.454C17.9708 12.6073 17.9094 12.7377 17.7868 12.845C17.6641 12.937 17.5184 12.983 17.3498 12.983C17.1811 12.983 17.0354 12.937 16.9128 12.845C16.7901 12.7377 16.7288 12.6073 16.7288 12.454V11.097H9.80577V16.433H15.6248V15.582C15.6248 15.4287 15.6784 15.306 15.7858 15.214C15.9084 15.1067 16.0541 15.053 16.2228 15.053C16.3914 15.053 16.5294 15.1067 16.6368 15.214C16.7594 15.306 16.8208 15.4287 16.8208 15.582V18.388C16.8208 18.5413 16.7594 18.6717 16.6368 18.779C16.5294 18.871 16.3914 18.917 16.2228 18.917C16.0541 18.917 15.9084 18.871 15.7858 18.779C15.6784 18.6717 15.6248 18.5413 15.6248 18.388V17.514H9.80577V23.701C9.80577 23.8543 9.74444 23.977 9.62177 24.069C9.49911 24.1763 9.35344 24.23 9.18477 24.23C9.01611 24.23 8.87044 24.1763 8.74777 24.069C8.62511 23.977 8.56377 23.8543 8.56377 23.701V11.097ZM22.1128 22.919H23.0098C23.1631 22.919 23.2858 22.9727 23.3778 23.08C23.4851 23.1873 23.5388 23.3177 23.5388 23.471C23.5388 23.6243 23.4851 23.7547 23.3778 23.862C23.2858 23.954 23.1631 24 23.0098 24H22.1128C20.8708 24 20.2498 23.5017 20.2498 22.505V7.831H18.7318C18.5784 7.831 18.4557 7.785 18.3637 7.693C18.2564 7.58567 18.2027 7.45533 18.2027 7.302C18.2027 7.14867 18.2564 7.01833 18.3637 6.911C18.4557 6.80367 18.5784 6.75 18.7318 6.75H20.8708C21.0394 6.75 21.1851 6.80367 21.3078 6.911C21.4304 7.01833 21.4918 7.14867 21.4918 7.302V22.482C21.4918 22.7733 21.6988 22.919 22.1128 22.919Z" fill="#F03B22"/>
<path d="M9.56377 11.097H8.20677C8.05344 11.097 7.92311 11.051 7.81577 10.959C7.72377 10.8517 7.67777 10.7213 7.67777 10.568C7.67777 10.4147 7.72377 10.2843 7.81577 10.177C7.92311 10.0697 8.05344 10.016 8.20677 10.016H18.3728C18.7714 10.016 18.9708 10.2 18.9708 10.568V12.454C18.9708 12.6073 18.9094 12.7377 18.7868 12.845C18.6641 12.937 18.5184 12.983 18.3498 12.983C18.1811 12.983 18.0354 12.937 17.9128 12.845C17.7901 12.7377 17.7288 12.6073 17.7288 12.454V11.097H10.8058V16.433H16.6248V15.582C16.6248 15.4287 16.6784 15.306 16.7858 15.214C16.9084 15.1067 17.0541 15.053 17.2228 15.053C17.3914 15.053 17.5294 15.1067 17.6368 15.214C17.7594 15.306 17.8208 15.4287 17.8208 15.582V18.388C17.8208 18.5413 17.7594 18.6717 17.6368 18.779C17.5294 18.871 17.3914 18.917 17.2228 18.917C17.0541 18.917 16.9084 18.871 16.7858 18.779C16.6784 18.6717 16.6248 18.5413 16.6248 18.388V17.514H10.8058V23.701C10.8058 23.8543 10.7444 23.977 10.6218 24.069C10.4991 24.1763 10.3534 24.23 10.1848 24.23C10.0161 24.23 9.87044 24.1763 9.74777 24.069C9.62511 23.977 9.56377 23.8543 9.56377 23.701V11.097ZM23.1128 22.919H24.0098C24.1631 22.919 24.2858 22.9727 24.3778 23.08C24.4851 23.1873 24.5388 23.3177 24.5388 23.471C24.5388 23.6243 24.4851 23.7547 24.3778 23.862C24.2858 23.954 24.1631 24 24.0098 24H23.1128C21.8708 24 21.2498 23.5017 21.2498 22.505V7.831H19.7318C19.5784 7.831 19.4557 7.785 19.3637 7.693C19.2564 7.58567 19.2027 7.45533 19.2027 7.302C19.2027 7.14867 19.2564 7.01833 19.3637 6.911C19.4557 6.80367 19.5784 6.75 19.7318 6.75H21.8708C22.0394 6.75 22.1851 6.80367 22.3078 6.911C22.4304 7.01833 22.4918 7.14867 22.4918 7.302V22.482C22.4918 22.7733 22.6988 22.919 23.1128 22.919Z" fill="#F03B22"/>
</svg>
