<svg width="32" height="32" viewBox="0 0 32 32" fill="none" xmlns="http://www.w3.org/2000/svg">
<rect x="1.1" y="1.1" width="29.8" height="29.8" fill="#261C00"/>
<rect x="1.1" y="1.1" width="29.8" height="29.8" stroke="#FBB500" stroke-width="2.2"/>
<path d="M6.89214 22V21.37L8.60214 20.848V10.552L6.89214 10.21L7.07214 9.4H12.1841C13.4921 9.4 14.5121 9.676 15.2441 10.228C15.9881 10.768 16.3601 11.554 16.3601 12.586C16.3601 13.186 16.2221 13.678 15.9461 14.062C15.6701 14.446 15.3221 14.74 14.9021 14.944C14.4821 15.136 14.0561 15.268 13.6241 15.34V15.43C14.1641 15.442 14.6861 15.568 15.1901 15.808C15.7061 16.036 16.1261 16.372 16.4501 16.816C16.7861 17.248 16.9541 17.788 16.9541 18.436C16.9541 19.36 16.7561 20.08 16.3601 20.596C15.9761 21.112 15.4301 21.478 14.7221 21.694C14.0141 21.898 13.1681 22 12.1841 22H6.89214ZM12.4721 15.07C12.7841 15.07 13.0901 14.986 13.3901 14.818C13.7021 14.638 13.9601 14.374 14.1641 14.026C14.3681 13.666 14.4701 13.21 14.4701 12.658C14.4701 11.95 14.2721 11.398 13.8761 11.002C13.4801 10.594 12.9161 10.39 12.1841 10.39H10.4021V15.07H12.4721ZM12.1841 21.01C12.8921 21.01 13.4561 20.89 13.8761 20.65C14.2961 20.398 14.5961 20.08 14.7761 19.696C14.9681 19.3 15.0641 18.886 15.0641 18.454C15.0641 18.046 14.9621 17.656 14.7581 17.284C14.5661 16.9 14.2721 16.588 13.8761 16.348C13.4921 16.096 13.0121 15.97 12.4361 15.97H10.4021V21.01H12.1841ZM25.3735 15.178L24.4375 15.34L23.9515 13.972C23.9035 13.96 23.8435 13.954 23.7715 13.954C23.6995 13.954 23.6395 13.954 23.5915 13.954C23.2075 13.954 22.8055 14.038 22.3855 14.206C21.9655 14.374 21.6355 14.596 21.3955 14.872V20.884L23.0515 21.136L22.8715 22H18.2275V21.46L19.7935 20.92V14.026L18.2995 13.738L18.2095 12.946L21.3955 12.514V13.99C21.8035 13.558 22.2355 13.204 22.6915 12.928C23.1595 12.652 23.6575 12.514 24.1855 12.514C24.5815 12.514 24.9775 12.598 25.3735 12.766V15.178Z" fill="#FBB500"/>
</svg>
