<svg width="32" height="32" viewBox="0 0 32 32" fill="none" xmlns="http://www.w3.org/2000/svg">
<rect x="1.1" y="1.1" width="29.8" height="29.8" fill="#070221"/>
<rect x="1.1" y="1.1" width="29.8" height="29.8" stroke="#00D1ED" stroke-width="2.2"/>
<path d="M14.0852 16.338C14.1212 16.338 14.1752 16.344 14.2472 16.356C14.3312 16.368 14.3972 16.374 14.4452 16.374C14.7092 15.654 14.9672 14.904 15.2192 14.124C15.4832 13.332 15.7232 12.582 15.9392 11.874C16.1552 11.166 16.2872 10.734 16.3352 10.578C16.4312 10.326 16.6112 10.2 16.8752 10.2C17.0912 10.2 17.1992 10.296 17.1992 10.488C17.1992 10.512 17.1932 10.536 17.1812 10.56C17.1812 10.572 17.1812 10.59 17.1812 10.614C16.6652 12.522 16.0232 14.442 15.2552 16.374C16.0472 16.326 16.7732 16.248 17.4332 16.14C18.1052 16.02 18.6872 15.882 19.1792 15.726C19.6712 15.558 20.0972 15.378 20.4572 15.186C20.8292 14.982 21.1292 14.766 21.3572 14.538C21.5852 14.31 21.7532 14.082 21.8612 13.854C21.9692 13.614 22.0232 13.368 22.0232 13.116C22.0232 12.228 21.4352 11.43 20.2592 10.722C19.0952 10.014 17.6732 9.66 15.9932 9.66C14.9252 9.66 13.9112 9.786 12.9512 10.038C12.0032 10.278 11.2292 10.626 10.6292 11.082C10.0412 11.526 9.74718 12.018 9.74718 12.558C9.74718 13.206 10.1912 13.866 11.0792 14.538C11.2952 14.706 11.4032 14.814 11.4032 14.862C11.4032 14.898 11.3732 14.916 11.3132 14.916C11.2292 14.916 11.1032 14.886 10.9352 14.826C10.7792 14.766 10.6652 14.706 10.5932 14.646C9.46518 13.818 8.90118 13.02 8.90118 12.252C8.90118 11.796 9.09918 11.376 9.49518 10.992C9.90318 10.596 10.4432 10.272 11.1152 10.02C11.7872 9.756 12.5552 9.552 13.4192 9.408C14.2832 9.264 15.1832 9.192 16.1192 9.192C17.2232 9.192 18.2132 9.294 19.0892 9.498C19.9772 9.69 20.6912 9.954 21.2312 10.29C21.7832 10.626 22.1972 11.004 22.4732 11.424C22.7612 11.832 22.9052 12.27 22.9052 12.738C22.9052 13.242 22.7372 13.734 22.4012 14.214C22.0652 14.694 21.5792 15.132 20.9432 15.528C20.3192 15.912 19.5032 16.224 18.4952 16.464C17.4872 16.692 16.3712 16.806 15.1472 16.806C15.1232 16.806 15.0992 16.806 15.0752 16.806C14.6792 17.754 14.2772 18.624 13.8692 19.416C13.4612 20.196 13.0112 20.934 12.5192 21.63C12.0272 22.338 11.5052 22.884 10.9532 23.268C10.4132 23.664 9.87318 23.862 9.33318 23.862C8.40918 23.862 7.51518 23.262 6.65118 22.062C6.18318 21.402 5.94918 20.556 5.94918 19.524C5.94918 19.296 5.96718 19.098 6.00318 18.93C6.05118 18.75 6.11118 18.66 6.18318 18.66C6.27918 18.66 6.33918 18.828 6.36318 19.164C6.36318 19.332 6.39918 19.566 6.47118 19.866C6.54318 20.166 6.66318 20.514 6.83118 20.91C6.99918 21.294 7.20318 21.654 7.44318 21.99C7.68318 22.338 7.99518 22.626 8.37918 22.854C8.77518 23.094 9.19518 23.214 9.63918 23.214C9.72318 23.214 9.80118 23.208 9.87318 23.196C11.2652 23.064 12.7412 20.928 14.3012 16.788C14.2052 16.752 14.1212 16.704 14.0492 16.644C13.9772 16.572 13.9412 16.506 13.9412 16.446C13.9412 16.374 13.9892 16.338 14.0852 16.338ZM27.9725 14.826C27.9485 15.066 27.7925 15.408 27.5045 15.852C27.2165 16.296 26.9945 16.518 26.8385 16.518C26.7905 16.518 26.7665 16.482 26.7665 16.41C26.7665 16.302 26.8325 16.086 26.9645 15.762C27.0965 15.426 27.1625 15.21 27.1625 15.114C27.1625 14.934 27.0545 14.844 26.8385 14.844C26.8025 14.844 26.6045 14.874 26.2445 14.934C25.9445 15.006 25.5485 15.198 25.0565 15.51C24.5765 15.822 24.3365 16.164 24.3365 16.536C24.3365 16.668 24.3665 16.788 24.4265 16.896C24.5825 17.208 24.8525 17.472 25.2365 17.688C25.6325 17.904 25.9685 18.108 26.2445 18.3C26.5325 18.492 26.6765 18.744 26.6765 19.056C26.6765 19.584 26.2685 20.094 25.4525 20.586C24.6485 21.066 23.9585 21.306 23.3825 21.306C23.2865 21.306 23.2085 21.264 23.1485 21.18C23.0885 21.108 23.0585 21.03 23.0585 20.946C23.0585 20.802 23.1245 20.73 23.2565 20.73C23.6525 20.73 24.2045 20.61 24.9125 20.37C25.6325 20.118 25.9925 19.848 25.9925 19.56C25.9925 19.392 25.8545 19.194 25.5785 18.966C25.3145 18.738 25.0205 18.528 24.6965 18.336C24.3845 18.144 24.0905 17.916 23.8145 17.652C23.5505 17.376 23.4185 17.112 23.4185 16.86C23.4185 16.656 23.4905 16.464 23.6345 16.284C23.7425 16.152 23.8565 16.026 23.9765 15.906C24.0965 15.774 24.2105 15.66 24.3185 15.564C24.4265 15.468 24.5465 15.372 24.6785 15.276C24.8225 15.18 24.9485 15.096 25.0565 15.024C25.1645 14.952 25.2905 14.88 25.4345 14.808C25.5785 14.736 25.6925 14.682 25.7765 14.646C25.8605 14.598 25.9685 14.544 26.1005 14.484C26.2445 14.424 26.3405 14.388 26.3885 14.376C26.4485 14.352 26.5385 14.316 26.6585 14.268C26.7785 14.22 26.8445 14.196 26.8565 14.196C27.0605 14.136 27.2165 14.106 27.3245 14.106C27.7565 14.106 27.9725 14.346 27.9725 14.826Z" fill="#00D1ED"/>
<path d="M13.0852 16.338C13.1212 16.338 13.1752 16.344 13.2472 16.356C13.3312 16.368 13.3972 16.374 13.4452 16.374C13.7092 15.654 13.9672 14.904 14.2192 14.124C14.4832 13.332 14.7232 12.582 14.9392 11.874C15.1552 11.166 15.2872 10.734 15.3352 10.578C15.4312 10.326 15.6112 10.2 15.8752 10.2C16.0912 10.2 16.1992 10.296 16.1992 10.488C16.1992 10.512 16.1932 10.536 16.1812 10.56C16.1812 10.572 16.1812 10.59 16.1812 10.614C15.6652 12.522 15.0232 14.442 14.2552 16.374C15.0472 16.326 15.7732 16.248 16.4332 16.14C17.1052 16.02 17.6872 15.882 18.1792 15.726C18.6712 15.558 19.0972 15.378 19.4572 15.186C19.8292 14.982 20.1292 14.766 20.3572 14.538C20.5852 14.31 20.7532 14.082 20.8612 13.854C20.9692 13.614 21.0232 13.368 21.0232 13.116C21.0232 12.228 20.4352 11.43 19.2592 10.722C18.0952 10.014 16.6732 9.66 14.9932 9.66C13.9252 9.66 12.9112 9.786 11.9512 10.038C11.0032 10.278 10.2292 10.626 9.62918 11.082C9.04118 11.526 8.74718 12.018 8.74718 12.558C8.74718 13.206 9.19118 13.866 10.0792 14.538C10.2952 14.706 10.4032 14.814 10.4032 14.862C10.4032 14.898 10.3732 14.916 10.3132 14.916C10.2292 14.916 10.1032 14.886 9.93518 14.826C9.77918 14.766 9.66518 14.706 9.59318 14.646C8.46518 13.818 7.90118 13.02 7.90118 12.252C7.90118 11.796 8.09918 11.376 8.49518 10.992C8.90318 10.596 9.44318 10.272 10.1152 10.02C10.7872 9.756 11.5552 9.552 12.4192 9.408C13.2832 9.264 14.1832 9.192 15.1192 9.192C16.2232 9.192 17.2132 9.294 18.0892 9.498C18.9772 9.69 19.6912 9.954 20.2312 10.29C20.7832 10.626 21.1972 11.004 21.4732 11.424C21.7612 11.832 21.9052 12.27 21.9052 12.738C21.9052 13.242 21.7372 13.734 21.4012 14.214C21.0652 14.694 20.5792 15.132 19.9432 15.528C19.3192 15.912 18.5032 16.224 17.4952 16.464C16.4872 16.692 15.3712 16.806 14.1472 16.806C14.1232 16.806 14.0992 16.806 14.0752 16.806C13.6792 17.754 13.2772 18.624 12.8692 19.416C12.4612 20.196 12.0112 20.934 11.5192 21.63C11.0272 22.338 10.5052 22.884 9.95318 23.268C9.41318 23.664 8.87318 23.862 8.33318 23.862C7.40918 23.862 6.51518 23.262 5.65118 22.062C5.18318 21.402 4.94918 20.556 4.94918 19.524C4.94918 19.296 4.96718 19.098 5.00318 18.93C5.05118 18.75 5.11118 18.66 5.18318 18.66C5.27918 18.66 5.33918 18.828 5.36318 19.164C5.36318 19.332 5.39918 19.566 5.47118 19.866C5.54318 20.166 5.66318 20.514 5.83118 20.91C5.99918 21.294 6.20318 21.654 6.44318 21.99C6.68318 22.338 6.99518 22.626 7.37918 22.854C7.77518 23.094 8.19518 23.214 8.63918 23.214C8.72318 23.214 8.80118 23.208 8.87318 23.196C10.2652 23.064 11.7412 20.928 13.3012 16.788C13.2052 16.752 13.1212 16.704 13.0492 16.644C12.9772 16.572 12.9412 16.506 12.9412 16.446C12.9412 16.374 12.9892 16.338 13.0852 16.338ZM26.9725 14.826C26.9485 15.066 26.7925 15.408 26.5045 15.852C26.2165 16.296 25.9945 16.518 25.8385 16.518C25.7905 16.518 25.7665 16.482 25.7665 16.41C25.7665 16.302 25.8325 16.086 25.9645 15.762C26.0965 15.426 26.1625 15.21 26.1625 15.114C26.1625 14.934 26.0545 14.844 25.8385 14.844C25.8025 14.844 25.6045 14.874 25.2445 14.934C24.9445 15.006 24.5485 15.198 24.0565 15.51C23.5765 15.822 23.3365 16.164 23.3365 16.536C23.3365 16.668 23.3665 16.788 23.4265 16.896C23.5825 17.208 23.8525 17.472 24.2365 17.688C24.6325 17.904 24.9685 18.108 25.2445 18.3C25.5325 18.492 25.6765 18.744 25.6765 19.056C25.6765 19.584 25.2685 20.094 24.4525 20.586C23.6485 21.066 22.9585 21.306 22.3825 21.306C22.2865 21.306 22.2085 21.264 22.1485 21.18C22.0885 21.108 22.0585 21.03 22.0585 20.946C22.0585 20.802 22.1245 20.73 22.2565 20.73C22.6525 20.73 23.2045 20.61 23.9125 20.37C24.6325 20.118 24.9925 19.848 24.9925 19.56C24.9925 19.392 24.8545 19.194 24.5785 18.966C24.3145 18.738 24.0205 18.528 23.6965 18.336C23.3845 18.144 23.0905 17.916 22.8145 17.652C22.5505 17.376 22.4185 17.112 22.4185 16.86C22.4185 16.656 22.4905 16.464 22.6345 16.284C22.7425 16.152 22.8565 16.026 22.9765 15.906C23.0965 15.774 23.2105 15.66 23.3185 15.564C23.4265 15.468 23.5465 15.372 23.6785 15.276C23.8225 15.18 23.9485 15.096 24.0565 15.024C24.1645 14.952 24.2905 14.88 24.4345 14.808C24.5785 14.736 24.6925 14.682 24.7765 14.646C24.8605 14.598 24.9685 14.544 25.1005 14.484C25.2445 14.424 25.3405 14.388 25.3885 14.376C25.4485 14.352 25.5385 14.316 25.6585 14.268C25.7785 14.22 25.8445 14.196 25.8565 14.196C26.0605 14.136 26.2165 14.106 26.3245 14.106C26.7565 14.106 26.9725 14.346 26.9725 14.826Z" fill="#00D1ED"/>
<path d="M12.4852 16.338C12.5212 16.338 12.5752 16.344 12.6472 16.356C12.7312 16.368 12.7972 16.374 12.8452 16.374C13.1092 15.654 13.3672 14.904 13.6192 14.124C13.8832 13.332 14.1232 12.582 14.3392 11.874C14.5552 11.166 14.6872 10.734 14.7352 10.578C14.8312 10.326 15.0112 10.2 15.2752 10.2C15.4912 10.2 15.5992 10.296 15.5992 10.488C15.5992 10.512 15.5932 10.536 15.5812 10.56C15.5812 10.572 15.5812 10.59 15.5812 10.614C15.0652 12.522 14.4232 14.442 13.6552 16.374C14.4472 16.326 15.1732 16.248 15.8332 16.14C16.5052 16.02 17.0872 15.882 17.5792 15.726C18.0712 15.558 18.4972 15.378 18.8572 15.186C19.2292 14.982 19.5292 14.766 19.7572 14.538C19.9852 14.31 20.1532 14.082 20.2612 13.854C20.3692 13.614 20.4232 13.368 20.4232 13.116C20.4232 12.228 19.8352 11.43 18.6592 10.722C17.4952 10.014 16.0732 9.66 14.3932 9.66C13.3252 9.66 12.3112 9.786 11.3512 10.038C10.4032 10.278 9.6292 10.626 9.0292 11.082C8.4412 11.526 8.1472 12.018 8.1472 12.558C8.1472 13.206 8.5912 13.866 9.4792 14.538C9.6952 14.706 9.8032 14.814 9.8032 14.862C9.8032 14.898 9.7732 14.916 9.7132 14.916C9.6292 14.916 9.5032 14.886 9.3352 14.826C9.1792 14.766 9.0652 14.706 8.9932 14.646C7.8652 13.818 7.3012 13.02 7.3012 12.252C7.3012 11.796 7.4992 11.376 7.8952 10.992C8.3032 10.596 8.8432 10.272 9.5152 10.02C10.1872 9.756 10.9552 9.552 11.8192 9.408C12.6832 9.264 13.5832 9.192 14.5192 9.192C15.6232 9.192 16.6132 9.294 17.4892 9.498C18.3772 9.69 19.0912 9.954 19.6312 10.29C20.1832 10.626 20.5972 11.004 20.8732 11.424C21.1612 11.832 21.3052 12.27 21.3052 12.738C21.3052 13.242 21.1372 13.734 20.8012 14.214C20.4652 14.694 19.9792 15.132 19.3432 15.528C18.7192 15.912 17.9032 16.224 16.8952 16.464C15.8872 16.692 14.7712 16.806 13.5472 16.806C13.5232 16.806 13.4992 16.806 13.4752 16.806C13.0792 17.754 12.6772 18.624 12.2692 19.416C11.8612 20.196 11.4112 20.934 10.9192 21.63C10.4272 22.338 9.9052 22.884 9.3532 23.268C8.8132 23.664 8.2732 23.862 7.7332 23.862C6.8092 23.862 5.9152 23.262 5.0512 22.062C4.5832 21.402 4.3492 20.556 4.3492 19.524C4.3492 19.296 4.3672 19.098 4.4032 18.93C4.4512 18.75 4.5112 18.66 4.5832 18.66C4.6792 18.66 4.7392 18.828 4.7632 19.164C4.7632 19.332 4.7992 19.566 4.8712 19.866C4.9432 20.166 5.0632 20.514 5.2312 20.91C5.3992 21.294 5.6032 21.654 5.8432 21.99C6.0832 22.338 6.3952 22.626 6.7792 22.854C7.1752 23.094 7.5952 23.214 8.0392 23.214C8.1232 23.214 8.2012 23.208 8.2732 23.196C9.6652 23.064 11.1412 20.928 12.7012 16.788C12.6052 16.752 12.5212 16.704 12.4492 16.644C12.3772 16.572 12.3412 16.506 12.3412 16.446C12.3412 16.374 12.3892 16.338 12.4852 16.338ZM26.3725 14.826C26.3485 15.066 26.1925 15.408 25.9045 15.852C25.6165 16.296 25.3945 16.518 25.2385 16.518C25.1905 16.518 25.1665 16.482 25.1665 16.41C25.1665 16.302 25.2325 16.086 25.3645 15.762C25.4965 15.426 25.5625 15.21 25.5625 15.114C25.5625 14.934 25.4545 14.844 25.2385 14.844C25.2025 14.844 25.0045 14.874 24.6445 14.934C24.3445 15.006 23.9485 15.198 23.4565 15.51C22.9765 15.822 22.7365 16.164 22.7365 16.536C22.7365 16.668 22.7665 16.788 22.8265 16.896C22.9825 17.208 23.2525 17.472 23.6365 17.688C24.0325 17.904 24.3685 18.108 24.6445 18.3C24.9325 18.492 25.0765 18.744 25.0765 19.056C25.0765 19.584 24.6685 20.094 23.8525 20.586C23.0485 21.066 22.3585 21.306 21.7825 21.306C21.6865 21.306 21.6085 21.264 21.5485 21.18C21.4885 21.108 21.4585 21.03 21.4585 20.946C21.4585 20.802 21.5245 20.73 21.6565 20.73C22.0525 20.73 22.6045 20.61 23.3125 20.37C24.0325 20.118 24.3925 19.848 24.3925 19.56C24.3925 19.392 24.2545 19.194 23.9785 18.966C23.7145 18.738 23.4205 18.528 23.0965 18.336C22.7845 18.144 22.4905 17.916 22.2145 17.652C21.9505 17.376 21.8185 17.112 21.8185 16.86C21.8185 16.656 21.8905 16.464 22.0345 16.284C22.1425 16.152 22.2565 16.026 22.3765 15.906C22.4965 15.774 22.6105 15.66 22.7185 15.564C22.8265 15.468 22.9465 15.372 23.0785 15.276C23.2225 15.18 23.3485 15.096 23.4565 15.024C23.5645 14.952 23.6905 14.88 23.8345 14.808C23.9785 14.736 24.0925 14.682 24.1765 14.646C24.2605 14.598 24.3685 14.544 24.5005 14.484C24.6445 14.424 24.7405 14.388 24.7885 14.376C24.8485 14.352 24.9385 14.316 25.0585 14.268C25.1785 14.22 25.2445 14.196 25.2565 14.196C25.4605 14.136 25.6165 14.106 25.7245 14.106C26.1565 14.106 26.3725 14.346 26.3725 14.826Z" fill="#00D1ED"/>
</svg>
