<svg width="32" height="32" viewBox="0 0 32 32" fill="none" xmlns="http://www.w3.org/2000/svg">
<rect x="1.1" y="1.1" width="29.8" height="29.8" fill="#022326"/>
<rect x="1.1" y="1.1" width="29.8" height="29.8" stroke="#CBFAFC" stroke-width="2.2"/>
<path d="M6.53711 9.54785C6.89583 9.6097 7.21126 9.65299 7.4834 9.67773C7.7679 9.70247 8.00293 9.72103 8.18848 9.7334C8.41113 9.74577 8.60286 9.75195 8.76367 9.75195C8.92448 9.75195 9.15332 9.73958 9.4502 9.71484C9.69759 9.6901 10.0192 9.65918 10.415 9.62207C10.8232 9.58496 11.3242 9.52311 11.918 9.43652C11.7448 9.486 11.584 9.62826 11.4355 9.86328C11.2995 10.0859 11.1758 10.3271 11.0645 10.5869C10.9284 10.8962 10.8109 11.2363 10.7119 11.6074C10.6253 11.9414 10.514 12.3991 10.3779 12.9805C10.2542 13.5618 10.1305 14.1927 10.0068 14.873C9.89551 15.5534 9.80892 16.2461 9.74707 16.9512C9.68522 17.6439 9.67285 18.2809 9.70996 18.8623C9.75944 19.4437 9.87695 19.9261 10.0625 20.3096C10.248 20.6807 10.5326 20.8786 10.916 20.9033C11.4974 20.9528 11.9798 20.959 12.3633 20.9219C12.7591 20.8724 13.0807 20.8044 13.3281 20.7178C13.5755 20.6312 13.7673 20.5322 13.9033 20.4209C14.0394 20.2972 14.1445 20.1797 14.2188 20.0684C14.4167 19.7839 14.6208 19.4189 14.8311 18.9736C15.0413 18.5283 15.2269 18.1016 15.3877 17.6934C15.5609 17.2852 15.7031 16.9388 15.8145 16.6543C15.9258 16.3698 15.9814 16.2337 15.9814 16.2461C15.9814 16.2708 15.9753 16.4131 15.9629 16.6729C15.9629 16.9202 15.9567 17.2233 15.9443 17.582C15.9443 17.9284 15.9382 18.2933 15.9258 18.6768C15.9258 19.0602 15.9196 19.388 15.9072 19.6602C15.8949 19.8828 15.8825 20.1302 15.8701 20.4023C15.8577 20.6374 15.8454 20.9157 15.833 21.2373C15.833 21.5589 15.8206 21.9115 15.7959 22.2949C15.2764 22.2578 14.7816 22.2331 14.3115 22.2207C13.8415 22.2083 13.4271 22.2021 13.0684 22.2021C12.6478 22.2021 12.2581 22.2083 11.8994 22.2207C11.516 22.2331 11.0706 22.2516 10.5635 22.2764C10.1305 22.3011 9.59245 22.332 8.94922 22.3691C8.30599 22.3939 7.5638 22.431 6.72266 22.4805C6.82161 22.3073 6.90202 22.1465 6.96387 21.998C7.03809 21.8496 7.09375 21.7259 7.13086 21.627C7.18034 21.5033 7.21126 21.3981 7.22363 21.3115C7.29785 20.9157 7.3597 20.4147 7.40918 19.8086C7.45866 19.1901 7.49577 18.5345 7.52051 17.8418C7.55762 17.1491 7.57617 16.444 7.57617 15.7266C7.58854 14.9967 7.58854 14.3226 7.57617 13.7041C7.5638 13.0856 7.53906 12.5475 7.50195 12.0898C7.47721 11.6322 7.4401 11.3167 7.39062 11.1436C7.32878 10.9456 7.25456 10.7477 7.16797 10.5498C7.09375 10.3766 7.00098 10.2035 6.88965 10.0303C6.79069 9.84473 6.67318 9.68392 6.53711 9.54785ZM16.835 14.1123C17.07 14.1247 17.2803 14.1309 17.4658 14.1309C17.6637 14.1185 17.8307 14.1061 17.9668 14.0938C18.1276 14.0814 18.2699 14.069 18.3936 14.0566C18.5791 14.0319 18.7708 14.001 18.9688 13.9639C19.1419 13.9391 19.3213 13.9082 19.5068 13.8711C19.7048 13.8216 19.8965 13.766 20.082 13.7041C20.0078 13.8896 19.946 14.0505 19.8965 14.1865C19.847 14.3226 19.8099 14.4401 19.7852 14.5391C19.748 14.6504 19.7295 14.7432 19.7295 14.8174C19.7171 14.904 19.7109 15.0091 19.7109 15.1328C19.6986 15.3431 19.6986 15.6833 19.7109 16.1533C20.3542 15.5967 20.8923 15.1637 21.3252 14.8545C21.7705 14.5452 22.123 14.304 22.3828 14.1309C22.6921 13.9329 22.9333 13.8031 23.1064 13.7412C23.5641 13.667 23.9661 13.7721 24.3125 14.0566C24.4609 14.1803 24.6032 14.3473 24.7393 14.5576C24.8753 14.7555 24.9928 15.0215 25.0918 15.3555C25.1908 15.6895 25.265 16.0915 25.3145 16.5615C25.3639 17.0192 25.3701 17.5697 25.333 18.2129C25.0732 18.2376 24.8382 18.2624 24.6279 18.2871C24.43 18.3118 24.263 18.3304 24.127 18.3428C23.9661 18.3675 23.8177 18.3799 23.6816 18.3799L23.1807 18.4355C23.0075 18.4603 22.791 18.485 22.5312 18.5098C22.2839 18.5221 21.9808 18.5469 21.6221 18.584C22.1416 18.1634 22.4756 17.7985 22.624 17.4893C22.7848 17.1676 22.8529 16.9017 22.8281 16.6914C22.8034 16.4564 22.6921 16.2523 22.4941 16.0791C22.2591 15.943 22.0055 15.8936 21.7334 15.9307C21.4984 15.9554 21.2262 16.0605 20.917 16.2461C20.6077 16.4316 20.2799 16.778 19.9336 17.2852C19.9583 18.0768 19.9831 18.7324 20.0078 19.252C20.0449 19.7715 20.0758 20.1921 20.1006 20.5137C20.1377 20.8848 20.1686 21.1755 20.1934 21.3857C20.2305 21.5713 20.3047 21.7692 20.416 21.9795C20.5026 22.1527 20.6263 22.3444 20.7871 22.5547C20.9479 22.765 21.1582 22.9753 21.418 23.1855C20.8737 23.1608 20.4284 23.1608 20.082 23.1855C19.8717 23.1979 19.6862 23.2103 19.5254 23.2227C19.3522 23.2474 19.1667 23.2721 18.9688 23.2969C18.7956 23.3216 18.5915 23.3464 18.3564 23.3711C18.1338 23.4082 17.8864 23.4453 17.6143 23.4824C17.7132 23.3464 17.7936 23.1855 17.8555 23C17.9173 22.8268 17.9668 22.6598 18.0039 22.499C18.0534 22.3135 18.0905 22.1217 18.1152 21.9238C18.1276 21.7507 18.1338 21.4909 18.1338 21.1445C18.1462 20.7982 18.14 20.4085 18.1152 19.9756C18.1029 19.5303 18.0843 19.0726 18.0596 18.6025C18.0348 18.1201 18.0039 17.6686 17.9668 17.248C17.9297 16.8275 17.8864 16.4626 17.8369 16.1533C17.7998 15.8317 17.7565 15.609 17.707 15.4854C17.6452 15.3369 17.571 15.1885 17.4844 15.04C17.4102 14.904 17.3174 14.7617 17.2061 14.6133C17.0947 14.4525 16.971 14.2855 16.835 14.1123Z" fill="#CBFAFC"/>
</svg>
