<svg width="337" height="125" viewBox="0 0 337 125" fill="none" xmlns="http://www.w3.org/2000/svg">
<path d="M4.83681 108.006L22.2466 58.4302H68.2626L64.9333 67.9106H31.2053L27.8549 77.4514H57.6149L54.2644 86.9922H24.5044L17.1248 108.006H4.83681Z" fill="#128AFA"/>
<path d="M70.5416 70.1449H81.1017L72.8527 93.6346C71.3262 98.1634 71.6478 98.888 75.6586 98.9484H84.9386C88.0318 98.888 89.1815 97.8011 90.7299 93.5742L98.9577 70.1449H110.094L100.636 97.0765C98.1344 104.564 93.3629 107.946 85.0217 108.006H69.0857C60.7661 108.187 58.2204 104.866 60.9779 97.3784L70.5416 70.1449Z" fill="#128AFA"/>
<path d="M151.559 70.1449L148.378 79.2026H130.97C125.125 79.263 123.995 79.9272 122.362 84.3957L119.457 92.6684C118.354 95.8084 118.036 96.8953 118.08 97.1369C118.51 98.8277 118.745 98.888 123.459 98.9484H141.443L138.263 108.006H114.007C105.878 107.825 104.059 104.987 106.666 96.835L112.243 80.9538C114.914 73.1641 118.898 70.3864 127.623 70.1449H151.559Z" fill="#128AFA"/>
<path d="M162.503 58.3699H173.639L156.208 108.006H145.072L162.503 58.3699ZM183.285 70.2657H196.597L175.749 87.7169L184.218 107.885H170.202L163.397 87.7169L183.285 70.2657Z" fill="#128AFA"/>
<path fill-rule="evenodd" clip-rule="evenodd" d="M203.523 101.644L201.288 108.006H212.808L218.852 90.7965L248.33 58.4303H235.594L217.227 79.7424L203.523 101.644ZM213.502 58.4303H201.29L204.661 76.0093L213.502 58.4303Z" fill="white"/>
<path d="M254.393 70.1449H270.713C274.916 70.2053 278.012 71.2318 279.573 73.1641C281.242 75.338 281.139 77.0891 278.976 83.4295L274.056 97.4388C271.789 104.443 266.079 108.127 257.545 108.006H240.265C232.201 107.825 229.805 104.443 232.327 96.7142L237.013 83.3692C240.47 73.7076 245.092 70.2053 254.393 70.1449ZM264.023 94.2988L267.48 84.4561C268.944 80.6518 267.981 79.3838 263.436 79.2026H255.692C250.807 79.263 249.401 80.1688 247.832 84.4561L244.417 94.178C243.338 98.1634 243.873 98.8277 248.054 98.9484H256.886C261.196 99.0692 262.453 98.2238 264.023 94.2988Z" fill="white"/>
<path d="M289.346 70.1449H299.906L291.657 93.6346C290.131 98.1634 290.452 98.888 294.463 98.9484H303.743C306.836 98.888 307.986 97.8011 309.534 93.5742L317.762 70.1449H328.898L319.441 97.0765C316.939 104.564 312.167 107.946 303.826 108.006H287.89C279.571 108.187 277.025 104.866 279.782 97.3784L289.346 70.1449Z" fill="white"/>
<path d="M184.186 125C184.186 125 198.877 93.6033 220.619 56.0446C223.94 50.3076 227.056 45.0155 229.951 40.1664C179.471 18.459 158.037 7.04225 158.037 7.04225C158.037 7.04225 193.083 19.3782 232.214 36.3911C246.878 12.0277 255.289 0 255.289 0C255.289 0 248.947 13.2268 235.668 37.8992C274.183 54.774 300.537 68.0751 300.537 68.0751C300.537 68.0751 284.405 63.472 233.599 41.7314C230.741 47.0111 227.591 52.7653 224.145 58.9789C202.99 97.1244 184.186 125 184.186 125Z" fill="#128AFA"/>
<path fill-rule="evenodd" clip-rule="evenodd" d="M200.174 54.0001C182.921 43.7104 172.829 31.8115 175.918 23.545C180.232 12 208.623 11.9118 239.33 23.3482C270.037 34.7846 291.432 53.4147 287.118 64.9598C287.05 65.1428 286.975 65.3228 286.895 65.5001H280.751C281.365 64.7766 281.84 63.9814 282.164 63.1147C286.072 52.6567 266.565 35.734 238.594 25.3167C210.624 14.8994 184.781 14.9323 180.872 25.3903C177.978 33.1369 187.93 44.4307 204.654 54.0001H200.174Z" fill="white"/>
</svg>
