<svg width="104" height="32" viewBox="0 0 104 32" fill="none" xmlns="http://www.w3.org/2000/svg">
<g clip-path="url(#clip0_758_1958)">
<path fill-rule="evenodd" clip-rule="evenodd" d="M57.5 15.95C57.5 11.165 57.8302 8.19989 58.122 6.16803C58.4138 4.13617 59.7292 2.52858 61.1068 1.7093C62.4845 0.890025 64.8336 0.536685 67.8689 0.273371C70.9043 0.0100576 76.7414 0 80.75 0C84.7586 0 90.5957 0.0100576 93.6311 0.273371C96.6664 0.536685 99.0155 0.890025 100.393 1.7093C101.771 2.52858 103.086 4.13617 103.378 6.16803C103.67 8.19989 104 11.165 104 15.95C104 20.735 103.67 23.7001 103.378 25.732C103.086 27.7638 101.771 29.3714 100.393 30.1907C99.0155 31.01 96.6664 31.3633 93.6311 31.6266C90.5957 31.8899 84.7586 31.9 80.75 31.9C76.7414 31.9 70.9043 31.8899 67.8689 31.6266C64.8336 31.3633 62.4845 31.01 61.1068 30.1907C59.7292 29.3714 58.4138 27.7638 58.122 25.732C57.8302 23.7001 57.5 20.735 57.5 15.95Z" fill="url(#paint0_linear_758_1958)"/>
<path opacity="0.64" fill-rule="evenodd" clip-rule="evenodd" d="M58.7 15.95C58.7 11.2272 59.0254 8.31924 59.3098 6.33861C59.5432 4.71376 60.61 3.40089 61.7202 2.74071C62.2353 2.43442 63.0103 2.17388 64.0975 1.96036C65.172 1.74935 66.4668 1.59951 67.9727 1.46888C70.9432 1.21118 76.7163 1.2 80.75 1.2C84.7837 1.2 90.5568 1.21118 93.5274 1.46888C95.0332 1.59951 96.328 1.74935 97.4025 1.96036C98.4898 2.17388 99.2648 2.43442 99.7798 2.74071C100.89 3.40089 101.957 4.71376 102.19 6.33861C102.475 8.31924 102.8 11.2272 102.8 15.95C102.8 20.6728 102.475 23.5808 102.19 25.5614C101.957 27.1862 100.89 28.4991 99.7798 29.1593C99.2648 29.4656 98.4898 29.7261 97.4025 29.9396C96.328 30.1506 95.0332 30.3005 93.5274 30.4311C90.5568 30.6888 84.7837 30.7 80.75 30.7C76.7163 30.7 70.9432 30.6888 67.9727 30.4311C66.4668 30.3005 65.172 30.1506 64.0975 29.9396C63.0103 29.7261 62.2353 29.4656 61.7202 29.1593C60.61 28.4991 59.5432 27.1862 59.3098 25.5614C59.0254 23.5808 58.7 20.6728 58.7 15.95Z" fill="url(#paint1_linear_758_1958)"/>
<path d="M67.5996 9.42949V27.2H64.4966V9.42949H61.2119V6.53838H70.96V9.42949H67.5996ZM79.4365 11.806V27.2H76.6514V25.535C76.0459 26.201 75.5312 26.6652 75.1074 26.9275C74.5827 27.2505 74.0277 27.4119 73.4424 27.4119C72.7562 27.4119 72.2415 27.1748 71.8984 26.7005C71.6562 26.3574 71.5099 25.9739 71.4595 25.5501C71.4191 25.1162 71.3989 24.5309 71.3989 23.7942V11.806H74.1841V23.1434C74.1841 23.8195 74.2144 24.2433 74.2749 24.4148C74.3657 24.7176 74.5675 24.8689 74.8804 24.8689C75.4354 24.8689 76.0257 24.4401 76.6514 23.5823V11.806H79.4365ZM84.3184 6.53838V13.2894C85.267 12.1591 86.2357 11.594 87.2247 11.594C88.1531 11.594 88.8191 12.0027 89.2227 12.8201C89.4649 13.3045 89.6062 13.8191 89.6465 14.3641C89.697 14.9393 89.7222 15.6305 89.7222 16.4378V22.5682C89.7222 23.9002 89.6667 24.8033 89.5557 25.2776C89.2126 26.7005 88.4356 27.4119 87.2247 27.4119C86.2357 27.4119 85.267 26.8468 84.3184 25.7166V27.2H81.5333V6.53838H84.3184ZM84.3184 24.2029C84.7826 24.6469 85.2518 24.8689 85.7261 24.8689C86.2105 24.8689 86.5435 24.6823 86.7252 24.3089C86.8664 24.0263 86.9371 23.4562 86.9371 22.5984V16.4075C86.9371 15.5397 86.8664 14.9695 86.7252 14.6971C86.5435 14.3237 86.2105 14.137 85.7261 14.137C85.2619 14.137 84.7927 14.359 84.3184 14.803V24.2029ZM99.9474 20.0101H94.3771V22.7347C94.3771 24.1676 94.8514 24.8841 95.7999 24.8841C96.3852 24.8841 96.7788 24.6419 96.9806 24.1575C97.0815 23.9052 97.132 23.3755 97.132 22.5682C97.132 22.4269 97.1269 22.1948 97.1168 21.8719H99.9474C99.9575 22.3663 99.9625 22.6842 99.9625 22.8255C99.9625 23.6832 99.8868 24.3341 99.7355 24.7781C99.4529 25.6661 98.8979 26.3473 98.0704 26.8216C97.3943 27.2151 96.6577 27.4119 95.8605 27.4119C94.9422 27.4119 94.1097 27.1596 93.3629 26.6551C92.5657 26.1202 92.046 25.3685 91.8038 24.3997C91.6626 23.8447 91.5919 23.108 91.5919 22.1897V16.8162C91.5919 15.1714 91.8795 13.9604 92.4547 13.1834C92.8483 12.6587 93.368 12.255 94.0138 11.9725C94.5789 11.7202 95.1743 11.594 95.7999 11.594C97.2127 11.594 98.3076 12.1238 99.0846 13.1834C99.4781 13.7182 99.7254 14.3237 99.8263 14.9998C99.907 15.5447 99.9474 16.1502 99.9474 16.8162V20.0101ZM97.1622 17.679V16.2561C97.1622 14.8333 96.698 14.1219 95.7696 14.1219C94.8413 14.1219 94.3771 14.8333 94.3771 16.2561V17.679H97.1622Z" fill="#921515"/>
<path d="M67.5996 8.22949V26H64.4966V8.22949H61.2119V5.33838H70.96V8.22949H67.5996ZM79.4365 10.606V26H76.6514V24.335C76.0459 25.001 75.5312 25.4652 75.1074 25.7275C74.5827 26.0505 74.0277 26.2119 73.4424 26.2119C72.7562 26.2119 72.2415 25.9748 71.8984 25.5005C71.6562 25.1574 71.5099 24.7739 71.4595 24.3501C71.4191 23.9162 71.3989 23.3309 71.3989 22.5942V10.606H74.1841V21.9434C74.1841 22.6195 74.2144 23.0433 74.2749 23.2148C74.3657 23.5176 74.5675 23.6689 74.8804 23.6689C75.4354 23.6689 76.0257 23.2401 76.6514 22.3823V10.606H79.4365ZM84.3184 5.33838V12.0894C85.267 10.9591 86.2357 10.394 87.2247 10.394C88.1531 10.394 88.8191 10.8027 89.2227 11.6201C89.4649 12.1045 89.6062 12.6191 89.6465 13.1641C89.697 13.7393 89.7222 14.4305 89.7222 15.2378V21.3682C89.7222 22.7002 89.6667 23.6034 89.5557 24.0776C89.2126 25.5005 88.4356 26.2119 87.2247 26.2119C86.2357 26.2119 85.267 25.6468 84.3184 24.5166V26H81.5333V5.33838H84.3184ZM84.3184 23.0029C84.7826 23.4469 85.2518 23.6689 85.7261 23.6689C86.2105 23.6689 86.5435 23.4823 86.7252 23.1089C86.8664 22.8263 86.9371 22.2562 86.9371 21.3984V15.2075C86.9371 14.3397 86.8664 13.7695 86.7252 13.4971C86.5435 13.1237 86.2105 12.937 85.7261 12.937C85.2619 12.937 84.7927 13.159 84.3184 13.603V23.0029ZM99.9474 18.8101H94.3771V21.5347C94.3771 22.9676 94.8514 23.6841 95.7999 23.6841C96.3852 23.6841 96.7788 23.4419 96.9806 22.9575C97.0815 22.7052 97.132 22.1755 97.132 21.3682C97.132 21.2269 97.1269 20.9948 97.1168 20.6719H99.9474C99.9575 21.1663 99.9625 21.4842 99.9625 21.6255C99.9625 22.4832 99.8868 23.1341 99.7355 23.5781C99.4529 24.4661 98.8979 25.1473 98.0704 25.6216C97.3943 26.0151 96.6577 26.2119 95.8605 26.2119C94.9422 26.2119 94.1097 25.9596 93.3629 25.4551C92.5657 24.9202 92.046 24.1685 91.8038 23.1997C91.6626 22.6447 91.5919 21.908 91.5919 20.9897V15.6162C91.5919 13.9714 91.8795 12.7604 92.4547 11.9834C92.8483 11.4587 93.368 11.055 94.0138 10.7725C94.5789 10.5202 95.1743 10.394 95.7999 10.394C97.2127 10.394 98.3076 10.9238 99.0846 11.9834C99.4781 12.5182 99.7254 13.1237 99.8263 13.7998C99.907 14.3447 99.9474 14.9502 99.9474 15.6162V18.8101ZM97.1622 16.479V15.0562C97.1622 13.6333 96.698 12.9219 95.7696 12.9219C94.8413 12.9219 94.3771 13.6333 94.3771 15.0562V16.479H97.1622Z" fill="url(#paint2_linear_758_1958)"/>
<path d="M3.53523 10.606V12.271C4.1407 11.6151 4.65535 11.1509 5.07917 10.8784C5.59382 10.5555 6.14884 10.394 6.74421 10.394C7.8946 10.394 8.55557 11.0197 8.72712 12.271C9.35277 11.605 9.87751 11.1408 10.3013 10.8784C10.8362 10.5555 11.3962 10.394 11.9815 10.394C12.6879 10.394 13.2076 10.6312 13.5406 11.1055C13.7828 11.4486 13.9291 11.832 13.9796 12.2559C14.0199 12.6898 14.0401 13.2751 14.0401 14.0117V26H11.255V14.6626C11.255 13.9865 11.2297 13.5627 11.1793 13.3911C11.0784 13.0884 10.8715 12.937 10.5587 12.937C10.0037 12.937 9.41332 13.3659 8.78767 14.2236V26H6.00251V14.6626C6.00251 13.9966 5.97224 13.5728 5.91169 13.3911C5.82087 13.0884 5.61905 12.937 5.30622 12.937C4.75121 12.937 4.16088 13.3659 3.53523 14.2236V26H0.750072V10.606H3.53523ZM18.9371 10.606V26H16.152V10.606H18.9371ZM18.9371 5.33838V8.12354H16.152V5.33838H18.9371ZM23.8342 10.606V12.271C24.4396 11.6151 24.9543 11.1509 25.3781 10.8784C25.8928 10.5555 26.4478 10.394 27.0432 10.394C28.1935 10.394 28.8545 11.0197 29.0261 12.271C29.6517 11.605 30.1765 11.1408 30.6003 10.8784C31.1351 10.5555 31.6952 10.394 32.2805 10.394C32.9868 10.394 33.5065 10.6312 33.8395 11.1055C34.0817 11.4486 34.2281 11.832 34.2785 12.2559C34.3189 12.6898 34.3391 13.2751 34.3391 14.0117V26H31.5539V14.6626C31.5539 13.9865 31.5287 13.5627 31.4782 13.3911C31.3773 13.0884 31.1704 12.937 30.8576 12.937C30.3026 12.937 29.7123 13.3659 29.0866 14.2236V26H26.3015V14.6626C26.3015 13.9966 26.2712 13.5728 26.2106 13.3911C26.1198 13.0884 25.918 12.937 25.6052 12.937C25.0502 12.937 24.4598 13.3659 23.8342 14.2236V26H21.049V10.606H23.8342ZM44.6326 26H41.8323C41.7516 25.445 41.686 24.8597 41.6356 24.2441C40.5054 25.556 39.4256 26.2119 38.3963 26.2119C37.6294 26.2119 37.0239 25.889 36.5799 25.2432C36.1157 24.5671 35.8836 23.6689 35.8836 22.5488C35.8836 21.4792 36.1359 20.5508 36.6404 19.7637C37.1955 18.9059 38.2248 18.0129 39.7283 17.0845C40.1824 16.8019 40.7929 16.4437 41.5599 16.0098V15.0259C41.5599 14.2388 41.4943 13.714 41.3631 13.4517C41.1915 13.0985 40.8737 12.9219 40.4095 12.9219C39.915 12.9219 39.5618 13.1641 39.3499 13.6484C39.2288 13.931 39.1531 14.3901 39.1229 15.0259H36.2772C36.3579 13.7746 36.6606 12.7806 37.1854 12.0439C37.9725 10.944 39.133 10.394 40.6668 10.394C41.9686 10.394 42.9424 10.833 43.5882 11.7109C43.9616 12.2256 44.1836 12.7806 44.2542 13.376C44.3148 13.8906 44.345 14.5465 44.345 15.3438V20.4297C44.345 22.3167 44.3602 23.4924 44.3904 23.9565C44.4308 24.6024 44.5115 25.2835 44.6326 26ZM41.5599 18.144C40.6517 18.7192 39.9957 19.2642 39.5921 19.7788C39.0472 20.4549 38.7747 21.2168 38.7747 22.0645C38.7747 23.1442 39.0926 23.6841 39.7283 23.6841C40.3843 23.6841 40.9948 23.2048 41.5599 22.2461V18.144ZM54.4037 14.2236L51.7699 14.8442C51.6387 14.2186 51.5025 13.7897 51.3612 13.5576C51.0988 13.1338 50.7154 12.9219 50.2108 12.9219C49.787 12.9219 49.454 13.0632 49.2118 13.3457C49.01 13.598 48.9091 13.9159 48.9091 14.2993C48.9091 14.7231 49.0655 15.1318 49.3783 15.5254C49.6407 15.8584 50.1654 16.3226 50.9525 16.918C52.0827 17.7757 52.9001 18.4771 53.4047 19.022C54.1716 19.8595 54.5551 20.909 54.5551 22.1704C54.5551 23.341 54.2271 24.2694 53.5712 24.9556C52.774 25.7931 51.6993 26.2119 50.347 26.2119C47.8041 26.2119 46.3005 24.7386 45.8363 21.792L48.4701 21.1714C48.6215 21.9181 48.7728 22.4328 48.9242 22.7153C49.2774 23.3612 49.7668 23.6841 50.3925 23.6841C50.7557 23.6841 51.0635 23.5781 51.3158 23.3662C51.6084 23.1139 51.7548 22.7406 51.7548 22.2461C51.7548 21.7617 51.6034 21.3328 51.3007 20.9595C51.0484 20.6366 50.564 20.2026 49.8475 19.6577C48.4348 18.578 47.461 17.6849 46.9261 16.9785C46.3913 16.252 46.1239 15.3942 46.1239 14.4053C46.1239 13.0833 46.5679 12.0591 47.4559 11.3325C48.233 10.7069 49.1815 10.394 50.3016 10.394C52.6529 10.394 54.0202 11.6706 54.4037 14.2236Z" fill="url(#paint3_linear_758_1958)"/>
</g>
<defs>
<linearGradient id="paint0_linear_758_1958" x1="80.75" y1="0" x2="80.75" y2="31.9" gradientUnits="userSpaceOnUse">
<stop stop-color="#F94438"/>
<stop offset="0.9999" stop-color="#BC2727"/>
</linearGradient>
<linearGradient id="paint1_linear_758_1958" x1="98.8279" y1="3.22795" x2="96.2752" y2="9.43195" gradientUnits="userSpaceOnUse">
<stop stop-color="#FFE8CC"/>
<stop offset="1" stop-color="#FFC888" stop-opacity="0"/>
</linearGradient>
<linearGradient id="paint2_linear_758_1958" x1="82.4658" y1="-26.0982" x2="82.4658" y2="39.4873" gradientUnits="userSpaceOnUse">
<stop stop-color="white"/>
<stop offset="1" stop-color="#F5F5F5"/>
</linearGradient>
<linearGradient id="paint3_linear_758_1958" x1="27.1" y1="-6.5998" x2="27.1" y2="30.6244" gradientUnits="userSpaceOnUse">
<stop stop-color="#FEFEFE"/>
<stop offset="1" stop-color="#AAAAAA"/>
</linearGradient>
<clipPath id="clip0_758_1958">
<rect width="104" height="32" fill="white"/>
</clipPath>
</defs>
</svg>
