<svg width="80" height="20" viewBox="0 0 80 20" fill="none" xmlns="http://www.w3.org/2000/svg">
<path fill-rule="evenodd" clip-rule="evenodd" d="M4.4 6V2H9.2L10.4778 4.98145C10.3556 5.26851 10.2977 5.8483 10.4126 6.00574C10.4428 6.04661 10.4156 6.1196 10.3402 6.19258C10.1198 6.40569 10.1198 6.57793 10.3371 6.84359C10.4699 7.00708 10.5394 7.15888 10.5514 7.32237C10.5605 7.45082 10.5997 7.57927 10.6389 7.60262C10.7567 7.67269 10.6571 8.06972 10.5333 8.02593C10.3764 7.96754 10.2496 8.17774 10.3703 8.30619C10.4458 8.38793 10.4488 8.4288 10.3884 8.54265C10.3492 8.61856 10.2979 8.71781 10.2738 8.76744C10.2496 8.81415 10.1681 8.8667 10.0866 8.88714C10.0082 8.90465 9.94177 8.9572 9.94177 9.00683C9.93875 9.05354 9.86632 9.17031 9.77577 9.26373C9.66712 9.37759 9.62487 9.47392 9.64599 9.55567C9.70937 9.79797 9.57356 9.99357 9.34418 9.99357C9.25544 9.99357 9.19536 9.99297 9.15371 10.0204C9.10986 10.0492 9.08644 10.1091 9.07148 10.2334L8.28571 8.4H7.6V11.6H9.0093C9.00705 11.6311 9.00497 11.6511 9.00314 11.6576C8.9971 11.6897 9.00012 11.7423 9.00918 11.7744C9.0635 11.97 9.0967 12.9333 9.05143 13.0093C9.01219 13.0735 9.0303 13.2749 9.07859 13.3537C9.09972 13.3858 9.08765 13.5231 9.04841 13.6573C9.01461 13.7821 8.98911 13.8521 9.01352 13.8896C9.04794 13.9425 9.18164 13.9308 9.53131 13.9172C9.97798 13.8997 10.0263 13.8851 10.0444 13.7741C10.0565 13.6865 10.1108 13.6486 10.2436 13.6398C10.3432 13.634 10.4911 13.6077 10.5695 13.5814C10.6691 13.5523 10.7023 13.5581 10.6752 13.599C10.651 13.634 10.5333 13.6953 10.4096 13.7333C10.0263 13.8529 10.0746 13.8792 10.6842 13.8792C11.5051 13.8821 11.7104 13.9522 12.1842 14.4018C12.5705 14.7696 12.5796 14.7755 12.7245 14.685C12.8059 14.6324 12.8904 14.6061 12.9086 14.6266C12.9297 14.647 12.8965 14.6791 12.8331 14.7025C12.5856 14.7871 12.5675 14.8368 12.6973 15.0791C12.7667 15.2046 12.8422 15.3068 12.8693 15.3068C12.8965 15.3068 12.9599 15.3214 13.0082 15.3389C13.0595 15.3593 13.153 15.3155 13.2255 15.2426C13.2949 15.1696 13.3703 15.1316 13.3975 15.1579C13.4216 15.1842 13.4096 15.2192 13.3673 15.2309C13.3251 15.2455 13.3069 15.2834 13.3251 15.3126C13.3432 15.3418 13.2768 15.3827 13.1741 15.4031C12.9176 15.4527 12.9206 15.5228 13.2375 16.2205C13.3492 16.4658 13.811 16.9037 13.9045 16.8482C13.9317 16.8307 13.9558 16.8453 13.9558 16.8803C13.9558 16.9124 13.983 16.9416 14.0132 16.9416C14.0464 16.9416 14.0554 16.8978 14.0343 16.8453C14.0071 16.7781 14.0192 16.7606 14.0675 16.7898C14.1037 16.8132 14.1369 16.8686 14.1369 16.9153C14.1369 16.962 14.1641 17 14.1973 17C14.2576 17 14.2818 16.9212 14.2637 16.7869C14.2576 16.7489 14.2818 16.6993 14.315 16.6789C14.3753 16.6438 14.4025 16.7168 14.3844 16.857C14.3753 16.9475 15.4317 16.9241 15.5434 16.8336C15.6158 16.7781 15.6399 16.7781 15.658 16.8336C15.6761 16.8861 15.7848 16.8803 16.1138 16.8044C16.3522 16.746 16.7446 16.6876 16.986 16.6672C17.0671 16.6609 17.1381 16.654 17.2 16.6462V18H12.4L10.6857 14H7.6V18H4.4V14H2V11.6H4.4V8.4H2V6H4.4ZM19.1914 14C19.0865 14.0883 18.9557 14.2051 18.7969 14.3522C18.6188 14.5186 18.4377 14.6704 18.3924 14.685C18.323 14.7112 18.3109 14.8601 18.3653 15.044C18.3743 15.0762 18.3653 15.1404 18.3472 15.19C18.3291 15.2367 18.2989 15.371 18.2808 15.4878C18.2596 15.6483 17.9458 16.2264 17.7767 16.4132C17.7647 16.4278 17.6983 16.4074 17.6289 16.3665C17.5202 16.2994 17.5111 16.3052 17.5443 16.4045C17.5897 16.5433 17.5111 16.6069 17.2 16.6462V14H19.1914ZM19.6 13.6591V14H19.1914C19.3614 13.8568 19.4632 13.7887 19.5061 13.7887C19.5292 13.7887 19.5663 13.7343 19.6 13.6591ZM17.2 3.84284C17.2546 3.87029 17.309 3.90423 17.3633 3.94468C17.4749 4.02642 17.6107 4.09649 17.659 4.09649C17.7103 4.09649 17.825 4.15779 17.9186 4.2337C18.3653 4.58986 19.3341 4.61321 19.651 4.27457C19.7687 4.14904 19.9286 4.00599 20.0041 3.95636C20.481 3.65567 22.2375 3.64399 22.826 3.93592C23.2938 4.17239 23.7495 4.20742 23.8431 4.01475C23.8823 3.93009 23.9397 3.86294 23.9729 3.86294C24.0061 3.86294 24.1298 3.77828 24.2506 3.67902C24.3924 3.55933 24.5312 3.49218 24.6489 3.49218C24.7727 3.49218 24.8602 3.44839 24.9236 3.35789C25.2495 2.87328 26.0705 3.69362 26.2606 4.69204L26.3602 5.20584H26.5534C26.7978 5.20584 27.0513 5.43063 26.991 5.59119C26.9699 5.6525 26.9608 5.73132 26.9759 5.76636C26.988 5.79847 26.9699 5.89773 26.9367 5.98531C26.8914 6.10208 26.8944 6.17506 26.9487 6.26264C27.0212 6.3765 26.8401 6.60129 26.6711 6.60713C26.6439 6.60713 26.5503 6.65967 26.4628 6.72682C26.3572 6.80856 26.2576 6.83484 26.1459 6.81148C25.995 6.77937 25.6691 7.06254 25.666 7.23187C25.663 7.25814 25.5846 7.39243 25.488 7.52964C25.3733 7.69312 25.2978 7.89456 25.2707 8.10767C25.2314 8.39377 25.2073 8.44048 25.0594 8.49594C24.8994 8.55433 24.8874 8.57769 24.8934 8.88714C24.8994 9.25789 24.8632 9.35131 24.7093 9.35131C24.5463 9.35131 24.3683 9.50312 24.3562 9.65201C24.2868 10.3439 24.0604 10.7468 23.7858 10.6621C23.7043 10.6358 23.659 10.6679 23.6168 10.7789C23.5836 10.8606 23.5172 10.9278 23.4719 10.9278C23.4145 10.9278 23.3753 11.0387 23.3451 11.2898C23.321 11.5058 23.2576 11.7072 23.1882 11.7919C23.1218 11.8707 23.0705 11.9904 23.0705 12.0575C23.0705 12.1247 22.9709 12.2765 22.8471 12.3991C22.6298 12.6122 22.6298 12.621 22.7385 12.7378C22.7989 12.802 22.8381 12.8633 22.823 12.872C22.4337 13.1319 22.3431 13.2253 22.3763 13.3245C22.4035 13.4004 22.3642 13.4822 22.2586 13.5756C22.1741 13.6515 22.1047 13.7449 22.1047 13.78C22.1047 13.8179 22.0021 13.8471 21.8632 13.8471C21.6278 13.8471 21.6218 13.8413 21.6218 13.6428C21.6218 13.4822 21.5886 13.4209 21.4769 13.3713C21.3985 13.3362 21.3049 13.2486 21.2717 13.1757C21.1781 12.9801 20.9035 12.9479 20.8341 13.1231C20.7677 13.2895 20.318 13.3304 20.2546 13.1757C20.2274 13.1056 20.1852 13.1173 20.0252 13.234C19.9166 13.3158 19.8019 13.38 19.7657 13.38C19.7294 13.38 19.6691 13.4705 19.6299 13.5844C19.6206 13.6106 19.6104 13.6359 19.6 13.6591V11.6H17.2V8.4H19.6V6H17.2V3.84284ZM17.2 3.84284C16.9234 3.70389 16.6391 3.73118 16.319 3.92133C16.1319 4.03226 15.9659 4.09357 15.9055 4.07021C15.8482 4.04978 15.7546 4.08481 15.6731 4.15779C15.489 4.3242 15.3291 4.26873 15.1087 3.95928C14.8462 3.59144 14.4508 3.26156 14.309 3.29951C14.2693 3.30864 14.1493 3.28692 14 3.2465V2H17.2V3.84284ZM9.0093 11.6H9.65714L9.07148 10.2334C9.05619 10.3605 9.04974 10.5547 9.03936 10.8519C9.02973 11.1803 9.01817 11.4771 9.0093 11.6ZM14 3.2465V6H10.9143L10.4778 4.98145C10.5096 4.90656 10.5459 4.85159 10.5846 4.82924C10.8804 4.65992 11.1188 4.24246 11.1188 3.89213C11.1188 3.62647 11.1339 3.59144 11.2848 3.52722C11.3754 3.48926 11.5263 3.40168 11.6168 3.3287C11.7587 3.21777 11.8643 3.19441 12.311 3.18565C12.6581 3.1769 12.8995 3.14186 13.0202 3.08056C13.0985 3.04013 13.1363 3.01295 13.1782 3.0036C13.2543 2.98661 13.3435 3.02843 13.7114 3.15646C13.8108 3.19143 13.9107 3.22231 14 3.2465ZM14 8.4V11.6H13.3143L11.9429 8.4H14Z" fill="#76B804"/>
<path d="M38.0114 14.004V6H40.1954V14.004H38.0114Z" fill="white"/>
<path d="M50.3513 14.004V6H55.9313V7.656H52.5353V9.168H55.4633V10.824H52.5233V12.348H55.9313V14.004H50.3513Z" fill="white"/>
<path d="M57.488 14.004V6H61.52C62.448 6 63.18 6.212 63.716 6.636C64.252 7.06 64.52 7.708 64.52 8.58C64.52 8.908 64.452 9.24 64.316 9.576C64.188 9.912 63.988 10.208 63.716 10.464C63.452 10.712 63.116 10.88 62.708 10.968L62.468 10.236L64.952 14.004H62.168L60.236 10.56L61.184 11.352H59.66V14.004H57.488ZM59.66 9.792H61.208C61.48 9.792 61.708 9.708 61.892 9.54C62.076 9.372 62.168 9.088 62.168 8.688C62.168 8.336 62.08 8.076 61.904 7.908C61.736 7.74 61.52 7.656 61.256 7.656H59.66V9.792Z" fill="white"/>
<path d="M66.195 14.004V6H68.379V14.004H66.195Z" fill="white"/>
<path d="M69.3433 14.004L72.3313 6H74.7193L77.4794 14.004H75.2473L72.7394 6.372L73.8554 6.276L71.3593 14.004H69.3433ZM71.1073 12.432L71.5154 10.884H75.0914L75.2954 12.432H71.1073Z" fill="white"/>
<path d="M29 14.008V6.00401H30.99L32.3161 6.00002C36.3841 6.00002 36.3881 9 36.3881 10.0212V14.004H34.3921V10.0212C34.3921 7.93202 33.5 7.93202 32.3161 7.93202L31 7.93401L30.98 14.008H29Z" fill="white"/>
<path d="M45.5375 14.004C44.7358 14.004 44.0322 13.8739 43.4267 13.6138C42.8213 13.3536 42.3468 12.9328 42.0032 12.3512C41.6678 11.762 41.5 10.9854 41.5 10.0212C41.5 9.08005 41.6678 8.31487 42.0032 7.72568C42.3468 7.12883 42.8213 6.69268 43.4267 6.41721C44.0322 6.14175 44.7317 6.00401 45.5252 6.00401C46.057 6.00401 46.5725 6.05375 47.0715 6.15322C47.5788 6.2527 48.0655 6.39043 48.5319 6.56642V8.4373C48.0165 8.17714 47.546 7.97436 47.1206 7.82898C46.7034 7.67594 46.2697 7.59942 45.8198 7.59942C45.3943 7.59942 45.0262 7.67211 44.7153 7.8175C44.4126 7.95523 44.1794 8.20009 44.0158 8.55208C43.8522 8.89641 43.7704 9.3823 43.7704 10.0098C43.7704 10.6219 43.8563 11.1078 44.0281 11.4674C44.1999 11.8194 44.429 12.0681 44.7153 12.2135C45.0098 12.3589 45.3371 12.4316 45.6971 12.4316C45.9016 12.4316 46.0857 12.4201 46.2493 12.3971C46.4211 12.3665 46.5643 12.3244 46.6788 12.2709V11.0887H45.4516V9.50473H48.9V13.1317C48.3764 13.4148 47.8283 13.6329 47.2556 13.7859C46.6911 13.9313 46.1184 14.004 45.5375 14.004Z" fill="white"/>
</svg>
