<svg width="86" height="28" viewBox="0 0 86 28" fill="none" xmlns="http://www.w3.org/2000/svg">
<path d="M25.6895 26.7588C25.9744 26.7588 26.2053 26.5278 26.2053 26.2429V8.96981C26.2053 8.68492 25.9744 8.45396 25.6895 8.45396H21.9099C21.625 8.45396 21.394 8.68492 21.394 8.96981V26.2429C21.394 26.5278 21.625 26.7588 21.9099 26.7588H25.6895ZM57.6686 26.9396C57.9535 26.9396 58.1845 26.7087 58.1845 26.4238V22.9697C58.1845 22.6848 57.9534 22.455 57.6686 22.4469C57.1862 22.4332 56.7719 22.3993 56.4481 22.3453C55.9416 22.273 55.5617 22.0921 55.3085 21.8389C55.0553 21.5857 54.8925 21.2239 54.8021 20.7536C54.7297 20.3014 54.6935 19.7045 54.6935 18.981V13.0938C54.6935 12.8089 54.9245 12.578 55.2094 12.578H57.6686C57.9535 12.578 58.1845 12.347 58.1845 12.0621V8.96981C58.1845 8.68492 57.9535 8.45396 57.6686 8.45396H55.2163C54.9287 8.45396 54.6967 8.2188 54.7005 7.93124L54.7951 0.822414C54.7989 0.534855 54.5669 0.299692 54.2793 0.299692H50.4855C50.2018 0.299692 49.9713 0.52883 49.9697 0.812558L49.8641 19.0172C49.8641 20.5185 49.9907 21.7846 50.244 22.7975C50.4972 23.7924 50.9313 24.6063 51.5282 25.2213C52.1251 25.8363 52.9209 26.2704 53.8796 26.5417C54.8563 26.813 56.0863 26.9396 57.5514 26.9396H57.6686ZM85.0488 26.7588C85.3337 26.7588 85.5646 26.5278 85.5646 26.2429V0.815548C85.5646 0.530648 85.3337 0.299692 85.0488 0.299692H81.251C80.9661 0.299692 80.7352 0.530649 80.7352 0.815549V26.2429C80.7352 26.5278 80.9661 26.7588 81.251 26.7588H85.0488ZM45.2156 10.2446C43.8771 8.79762 41.9959 8.07412 39.6084 8.07412C38.4507 8.07412 37.4017 8.30926 36.443 8.77954C35.5024 9.24982 34.6885 9.90098 34.0554 10.733L33.9746 10.8353C33.9119 10.9148 33.7841 10.8704 33.7841 10.7692V10.7692V8.96981C33.7841 8.68492 33.5532 8.45396 33.2683 8.45396H29.5429C29.258 8.45396 29.027 8.68492 29.027 8.96981V26.2429C29.027 26.5278 29.258 26.7588 29.5429 26.7588H33.3044C33.5893 26.7588 33.8203 26.5278 33.8203 26.2429V17.0095V17.6787C33.8203 17.5702 33.8203 17.4617 33.8203 17.3531C33.8745 15.6348 34.2906 14.3686 35.0864 13.5547C35.9365 12.6865 36.9676 12.2524 38.1433 12.2524C39.536 12.2524 40.6032 12.6865 41.3086 13.5185C41.9959 14.3506 42.3577 15.5263 42.3577 17.0275V17.0637V26.2248C42.3577 26.5097 42.5887 26.7407 42.8736 26.7407H46.7074C46.9923 26.7407 47.2233 26.5097 47.2233 26.2248V16.3583C47.2414 13.7537 46.5541 11.6917 45.2156 10.2446ZM78.497 17.5702C78.497 16.2498 78.2619 15.0198 77.8097 13.8622C77.3394 12.7227 76.6882 11.7098 75.8743 10.8415C75.0422 9.97333 74.0474 9.30408 72.8898 8.81571C71.7322 8.32734 70.448 8.0922 69.0552 8.0922C67.7348 8.0922 66.4867 8.34543 65.3291 8.8338C64.1715 9.34026 63.1586 10.0095 62.3085 10.8596C61.4584 11.7098 60.771 12.7227 60.2827 13.8803C59.7762 15.0379 59.5411 16.2859 59.5411 17.6064C59.5411 18.9268 59.7762 20.1748 60.2465 21.3324C60.7168 22.49 61.386 23.503 62.218 24.3531C63.0501 25.2032 64.0811 25.8905 65.2749 26.3789C66.4687 26.8854 67.7891 27.1386 69.1999 27.1386C72.9697 27.1386 75.4166 25.5542 76.9661 23.9458C77.1734 23.7306 77.1374 23.3856 76.8995 23.2047L74.2592 21.1969C74.0396 21.0299 73.7284 21.0666 73.5274 21.2557C72.6759 22.0571 71.1194 22.9422 69.2361 22.9422C67.8795 22.9422 66.7581 22.6347 65.9079 22.0017C65.0578 21.3867 64.479 20.5185 64.1715 19.4513V19.4513C64.1448 19.3712 64.2044 19.2885 64.2888 19.2885H77.9812C78.2661 19.2885 78.497 19.0576 78.497 18.7727V17.5702ZM64.6702 15.8871C64.385 15.8876 64.1517 15.6543 64.2183 15.3769C64.5419 14.03 66.0823 12.2141 69.0009 12.1981C71.921 12.1981 73.4756 14.014 73.8014 15.3608C73.8683 15.6373 73.6362 15.8704 73.3517 15.8709L64.6702 15.8871Z" fill="white"/>
<path d="M4.96537 0.794147C4.96537 0.509247 4.73441 0.27829 4.44951 0.27829H0.645068C0.360168 0.27829 0.129211 0.509246 0.129211 0.794146V26.2429C0.129211 26.5278 0.360168 26.7588 0.645068 26.7588H4.44951C4.73441 26.7588 4.96537 26.5278 4.96537 26.2429V12.9534C4.96537 12.7296 5.11977 12.528 5.33278 12.4594C11.8976 10.3435 5.19912 12.7963 13.3346 26.5012C13.427 26.6569 13.5992 26.7588 13.7803 26.7588H18.0552C18.3401 26.7588 18.5711 26.5278 18.5711 26.2429V22.0816C18.5711 21.8436 18.4081 21.64 18.1926 21.539C15.8444 20.438 11.8149 14.3584 13.2191 10.3589C14.4088 6.9704 17.1337 5.80214 18.1653 5.47252C18.3995 5.39768 18.5711 5.18394 18.5711 4.93804V0.815549C18.5711 0.530649 18.3401 0.299692 18.0552 0.299692H14.0085C13.7219 0.299692 13.4851 0.530235 13.4502 0.814626C13.2619 2.34782 12.1489 6.86704 5.5762 8.3299C5.26155 8.39993 4.96537 8.15671 4.96537 7.83436V0.794147Z" fill="white"/>
<path d="M26.332 0.794147C26.332 0.509247 26.101 0.27829 25.8161 0.27829H21.7652C21.4803 0.27829 21.2493 0.509247 21.2493 0.794147V4.84509C21.2493 5.12999 21.4803 5.36095 21.7652 5.36095H25.8161C26.101 5.36095 26.332 5.12999 26.332 4.84509V0.794147Z" fill="#0068B5"/>
</svg>
