<svg width="260" height="294" viewBox="0 0 260 294" fill="none" xmlns="http://www.w3.org/2000/svg">
<path d="M7.54869 75.1421L5 76.5758V79.5V214.5V217.424L7.54869 218.858L127.549 286.358L130 287.737L132.451 286.358L252.451 218.858L255 217.424V214.5V79.5V76.5758L252.451 75.1421L132.451 7.64212L130 6.26326L127.549 7.64212L7.54869 75.1421Z" stroke="url(#paint0_linear_186_2)" stroke-width="10"/>
<path d="M10 214.5V79.5L130 147V282L10 214.5Z" fill="#AAAABA"/>
<path d="M130 147V282L250 214.5V79.5L130 147Z" fill="#848494"/>
<path d="M10 79.5L130 12L250 79.5L130 147L10 79.5Z" fill="#F4F4FF"/>
<defs>
<linearGradient id="paint0_linear_186_2" x1="130" y1="12" x2="130" y2="282" gradientUnits="userSpaceOnUse">
<stop stop-color="#101010"/>
<stop offset="1"/>
</linearGradient>
</defs>
</svg>
