<svg width="821" height="128" viewBox="0 0 821 128" fill="none" xmlns="http://www.w3.org/2000/svg">
<path d="M659 18L648.5 91H615.5H580V60H619.959L622.548 42H612.412L610.5 51H576L586.5 11H619L617.513 18H626H659Z" fill="white"/>
<path d="M167 18L156.5 91H123.5H88V60H127.959L130.548 42H120.412L118.5 51H84L94.5 11H127L125.513 18H134H167Z" fill="white"/>
<path d="M252.647 126L253.963 106.4H260.907L264.575 119.784L268.411 106.4H275.187L276.811 126H272.163L270.959 111.328L266.871 126H261.999L257.939 111.076L256.959 126H252.647ZM280.61 126L286.798 106.4H293.294L299.538 126H294.582L293.406 121.996H286.63L285.482 126H280.61ZM287.666 118.44H292.342L289.99 110.432L287.666 118.44ZM312.772 126.56C306.08 126.56 302.356 121.968 302.356 116.312C302.356 110.236 306.388 105.84 312.828 105.84C315.544 105.84 317.588 106.596 319.016 107.436V111.888C317.672 110.908 315.88 110.152 313.78 110.152C309.804 110.152 307.284 112.616 307.284 116.172C307.284 119.728 309.804 122.22 313.836 122.22C315.824 122.22 317.728 121.492 319.1 120.54V124.824C317.476 125.916 315.208 126.56 312.772 126.56ZM324.357 126V106.4H332.141C338.553 106.4 341.857 110.32 341.857 116.032C341.857 121.8 338.413 126 331.777 126H324.357ZM331.721 121.8C335.193 121.8 336.901 119.504 336.901 116.116C336.901 112.728 335.305 110.6 331.889 110.6H329.061V121.8H331.721ZM356.226 126.56C350.262 126.56 346.034 122.304 346.034 116.228C346.034 110.18 350.262 105.84 356.226 105.84C362.246 105.84 366.474 110.18 366.474 116.228C366.474 122.304 362.246 126.56 356.226 126.56ZM356.226 122.108C359.53 122.108 361.518 119.616 361.518 116.256C361.518 112.896 359.558 110.292 356.226 110.292C352.95 110.292 350.962 112.896 350.962 116.256C350.962 119.616 352.978 122.108 356.226 122.108ZM374.815 126L369.691 106.4H374.563L377.615 120.008L380.891 106.4H386.407L389.655 119.98L392.875 106.4H397.747L392.371 126H387.247L383.523 111.58L379.939 126H374.815ZM402.233 126V106.4H408.281L415.561 119.952V106.4H419.985V126H414.329L406.657 111.972V126H402.233ZM430.039 126V110.768H424.523V106.4H440.287V110.768H434.715V126H430.039ZM448.289 126L443.165 106.4H448.037L451.089 120.008L454.365 106.4H459.881L463.129 119.98L466.349 106.4H471.221L465.845 126H460.721L456.997 111.58L453.413 126H448.289ZM484.534 126.56C478.57 126.56 474.342 122.304 474.342 116.228C474.342 110.18 478.57 105.84 484.534 105.84C490.554 105.84 494.782 110.18 494.782 116.228C494.782 122.304 490.554 126.56 484.534 126.56ZM484.534 122.108C487.838 122.108 489.826 119.616 489.826 116.256C489.826 112.896 487.866 110.292 484.534 110.292C481.258 110.292 479.27 112.896 479.27 116.256C479.27 119.616 481.286 122.108 484.534 122.108ZM518.4 126.56C511.708 126.56 507.984 121.968 507.984 116.312C507.984 110.236 512.016 105.84 518.456 105.84C521.172 105.84 523.216 106.596 524.644 107.436V111.888C523.3 110.908 521.508 110.152 519.408 110.152C515.432 110.152 512.912 112.616 512.912 116.172C512.912 119.728 515.432 122.22 519.464 122.22C521.452 122.22 523.356 121.492 524.728 120.54V124.824C523.104 125.916 520.836 126.56 518.4 126.56ZM529.985 126V106.4H538.609C542.865 106.4 545.581 108.696 545.581 112.448C545.581 115.472 543.761 117.684 540.289 118.104L546.113 126H540.485L534.689 117.74V126H529.985ZM534.689 115.584H537.377C539.477 115.584 540.541 114.576 540.541 112.896C540.541 111.272 539.561 110.348 537.713 110.348H534.689V115.584ZM555.058 126V119L548.254 106.4H553.322L557.382 114.296L561.526 106.4H566.594L559.734 119.112V126H555.058Z" fill="white"/>
<path fill-rule="evenodd" clip-rule="evenodd" d="M739 11H666V32H739V11ZM742 36H663V58H712.957L707 65H666V91H722L742 67.5V58V36Z" fill="white"/>
<rect x="513" y="35" width="48" height="33" fill="white"/>
<path fill-rule="evenodd" clip-rule="evenodd" d="M749 28.5L821 11V46L804 49.6597V91H771V56.7639L749 61.5V28.5Z" fill="white"/>
<path fill-rule="evenodd" clip-rule="evenodd" d="M354 35.5L364.5 11.5L403 24L391.5 50L354 35.5ZM352 91.0001H378.5L427 80.5001V44L374 58.0001H352V91.0001Z" fill="white"/>
<path fill-rule="evenodd" clip-rule="evenodd" d="M40.0526 60H40L4 46V79L35 91L79 91.0001V60H72.9589L79 11H46.5H0V34H43.4737L40.0526 60Z" fill="white"/>
<path fill-rule="evenodd" clip-rule="evenodd" d="M432 11H450V50H432V11ZM479.5 91.0001H432V58.0001H475L507 38V74.5001L479.5 91.0001ZM473 11H455V50H473V11Z" fill="white"/>
<rect x="233" y="1" width="12" height="17" fill="white"/>
<rect x="249" y="1" width="12" height="17" fill="white"/>
<path fill-rule="evenodd" clip-rule="evenodd" d="M314 11H283V18H272.5H267V52H298V42H313.548L310.959 60H271V91H306.5H339.5L350 18H317H314V11Z" fill="white"/>
<path fill-rule="evenodd" clip-rule="evenodd" d="M230 18H221H211.638L214 11H181.5L171 51H191V60H175V91H195.5H228.5L230.697 84.7118L254 91V60L240.593 56.3821L252.952 21H230V18ZM212.616 42L210.435 48.2444L202.182 46.0173L203.537 42H212.616Z" fill="white"/>
</svg>
