<svg width="864" height="355" viewBox="0 0 864 355" fill="none" xmlns="http://www.w3.org/2000/svg">
<path d="M28 134.5C44.5 112.5 76.9 74.9286 70.5 70.1286C64.1 65.3286 50.5 196.129 44.5 262.129C54.5 198.795 64.5 88.3713 98.5 91C132.5 93.6287 95.5 191.5 98.5 192.129C101.5 192.757 116.5 93.5 146.5 102.5C176.5 111.5 106.5 206.129 158.5 324.129M283.5 150.129C272.833 168.795 259 204.651 226 212C193 219.349 168.5 195 180.5 159C192.5 123 232 125.5 246.5 150.129C261 174.757 275.899 213.053 283.5 234.129" stroke="#4169E1" stroke-width="24" stroke-linecap="round" stroke-linejoin="round"/>
<path d="M28 134.5C44.5 112.5 76.9 74.9286 70.5 70.1286C64.1 65.3286 50.5 196.129 44.5 262.129C54.5 198.795 64.5 88.3713 98.5 91C132.5 93.6287 95.5 191.5 98.5 192.129C101.5 192.757 116.5 93.5 146.5 102.5C176.5 111.5 106.5 206.129 158.5 324.129M283.5 150.129C272.833 168.795 259 204.651 226 212C193 219.349 168.5 195 180.5 159C192.5 123 232 125.5 246.5 150.129C261 174.757 275.899 213.053 283.5 234.129" stroke="url(#paint0_linear_906_39)" stroke-width="24" stroke-linecap="round" stroke-linejoin="round"/>
<path d="M28 134.5C44.5 112.5 76.9 74.9286 70.5 70.1286C64.1 65.3286 50.5 196.129 44.5 262.129C54.5 198.795 64.5 88.3713 98.5 91C132.5 93.6287 95.5 191.5 98.5 192.129C101.5 192.757 116.5 93.5 146.5 102.5C176.5 111.5 106.5 206.129 158.5 324.129M283.5 150.129C272.833 168.795 259 204.651 226 212C193 219.349 168.5 195 180.5 159C192.5 123 232 125.5 246.5 150.129C261 174.757 275.899 213.053 283.5 234.129" stroke="black" stroke-opacity="0.6" stroke-width="24" stroke-linecap="round" stroke-linejoin="round"/>
<path d="M401 144C366.5 116 300 142.5 307 197.5C314 252.5 370.5 275 415 238M411 80C426.5 114.5 457.5 158 444.5 287" stroke="white" stroke-width="24" stroke-linecap="round" stroke-linejoin="round"/>
<path d="M401 144C366.5 116 300 142.5 307 197.5C314 252.5 370.5 275 415 238M411 80C426.5 114.5 457.5 158 444.5 287" stroke="url(#paint1_linear_906_39)" stroke-width="24" stroke-linecap="round" stroke-linejoin="round"/>
<path d="M401 144C366.5 116 300 142.5 307 197.5C314 252.5 370.5 275 415 238M411 80C426.5 114.5 457.5 158 444.5 287" stroke="black" stroke-opacity="0.6" stroke-width="24" stroke-linecap="round" stroke-linejoin="round"/>
<path d="M478.5 145.734C492 121.234 517.4 86.6341 511 80.2341C504.6 73.8341 488.333 200.234 481 264.234C492.333 200.901 512 89.7341 545 94.2341C578 98.7341 533 216.734 537 218.234C541 219.734 558.5 92.2341 587 112.234C615.5 132.234 555 268.234 587 342.234M733.5 155.234C724.833 180.567 711.5 216.234 676.5 225.234C641.5 234.234 617.5 207.363 626 174.234C634.5 141.105 672 141.734 689.5 164.234C707 186.734 719.833 217.734 730.5 241.734M851.5 195.234C834.833 172.567 785 144.434 761 181.234C731 227.234 834 237.5 814.5 277C794.06 318.403 723.5 314.734 699.5 256.734" stroke="#FF341C" stroke-width="24" stroke-linecap="round" stroke-linejoin="round"/>
<path d="M478.5 145.734C492 121.234 517.4 86.6341 511 80.2341C504.6 73.8341 488.333 200.234 481 264.234C492.333 200.901 512 89.7341 545 94.2341C578 98.7341 533 216.734 537 218.234C541 219.734 558.5 92.2341 587 112.234C615.5 132.234 555 268.234 587 342.234M733.5 155.234C724.833 180.567 711.5 216.234 676.5 225.234C641.5 234.234 617.5 207.363 626 174.234C634.5 141.105 672 141.734 689.5 164.234C707 186.734 719.833 217.734 730.5 241.734M851.5 195.234C834.833 172.567 785 144.434 761 181.234C731 227.234 834 237.5 814.5 277C794.06 318.403 723.5 314.734 699.5 256.734" stroke="url(#paint2_linear_906_39)" stroke-width="24" stroke-linecap="round" stroke-linejoin="round"/>
<path d="M478.5 145.734C492 121.234 517.4 86.6341 511 80.2341C504.6 73.8341 488.333 200.234 481 264.234C492.333 200.901 512 89.7341 545 94.2341C578 98.7341 533 216.734 537 218.234C541 219.734 558.5 92.2341 587 112.234C615.5 132.234 555 268.234 587 342.234M733.5 155.234C724.833 180.567 711.5 216.234 676.5 225.234C641.5 234.234 617.5 207.363 626 174.234C634.5 141.105 672 141.734 689.5 164.234C707 186.734 719.833 217.734 730.5 241.734M851.5 195.234C834.833 172.567 785 144.434 761 181.234C731 227.234 834 237.5 814.5 277C794.06 318.403 723.5 314.734 699.5 256.734" stroke="black" stroke-opacity="0.6" stroke-width="24" stroke-linecap="round" stroke-linejoin="round"/>
<circle cx="382.5" cy="40" r="24" fill="white"/>
<circle cx="382.5" cy="40" r="24" fill="black" fill-opacity="0.6"/>
<path d="M19 125.5C35.5 103.5 67.9 65.9286 61.5 61.1286C55.1 56.3286 41.5 187.129 35.5 253.129C45.5 189.795 55.5 79.3713 89.5 82C123.5 84.6287 86.5 182.5 89.5 183.129C92.5 183.757 107.5 84.5 137.5 93.5C167.5 102.5 97.5 197.129 149.5 315.129M274.5 141.129C263.833 159.795 250 195.651 217 203C184 210.349 159.5 186 171.5 150C183.5 114 223 116.5 237.5 141.129C252 165.757 266.899 204.053 274.5 225.129" stroke="#4169E1" stroke-width="24" stroke-linecap="round" stroke-linejoin="round"/>
<path d="M19 125.5C35.5 103.5 67.9 65.9286 61.5 61.1286C55.1 56.3286 41.5 187.129 35.5 253.129C45.5 189.795 55.5 79.3713 89.5 82C123.5 84.6287 86.5 182.5 89.5 183.129C92.5 183.757 107.5 84.5 137.5 93.5C167.5 102.5 97.5 197.129 149.5 315.129M274.5 141.129C263.833 159.795 250 195.651 217 203C184 210.349 159.5 186 171.5 150C183.5 114 223 116.5 237.5 141.129C252 165.757 266.899 204.053 274.5 225.129" stroke="url(#paint3_linear_906_39)" stroke-width="24" stroke-linecap="round" stroke-linejoin="round"/>
<path d="M392 135C357.5 107 291 133.5 298 188.5C305 243.5 361.5 266 406 229M402 71C417.5 105.5 448.5 149 435.5 278" stroke="white" stroke-width="24" stroke-linecap="round" stroke-linejoin="round"/>
<path d="M392 135C357.5 107 291 133.5 298 188.5C305 243.5 361.5 266 406 229M402 71C417.5 105.5 448.5 149 435.5 278" stroke="url(#paint4_linear_906_39)" stroke-width="24" stroke-linecap="round" stroke-linejoin="round"/>
<path d="M469.5 136.734C483 112.234 508.4 77.6341 502 71.2341C495.6 64.8341 479.333 191.234 472 255.234C483.333 191.901 503 80.7341 536 85.2341C569 89.7341 524 207.734 528 209.234C532 210.734 549.5 83.2341 578 103.234C606.5 123.234 546 259.234 578 333.234M724.5 146.234C715.833 171.567 702.5 207.234 667.5 216.234C632.5 225.234 608.5 198.363 617 165.234C625.5 132.105 663 132.734 680.5 155.234C698 177.734 710.833 208.734 721.5 232.734M842.5 186.234C825.833 163.567 776 135.434 752 172.234C722 218.234 825 228.5 805.5 268C785.06 309.403 714.5 305.734 690.5 247.734" stroke="#FF341C" stroke-width="24" stroke-linecap="round" stroke-linejoin="round"/>
<path d="M469.5 136.734C483 112.234 508.4 77.6341 502 71.2341C495.6 64.8341 479.333 191.234 472 255.234C483.333 191.901 503 80.7341 536 85.2341C569 89.7341 524 207.734 528 209.234C532 210.734 549.5 83.2341 578 103.234C606.5 123.234 546 259.234 578 333.234M724.5 146.234C715.833 171.567 702.5 207.234 667.5 216.234C632.5 225.234 608.5 198.363 617 165.234C625.5 132.105 663 132.734 680.5 155.234C698 177.734 710.833 208.734 721.5 232.734M842.5 186.234C825.833 163.567 776 135.434 752 172.234C722 218.234 825 228.5 805.5 268C785.06 309.403 714.5 305.734 690.5 247.734" stroke="url(#paint5_linear_906_39)" stroke-width="24" stroke-linecap="round" stroke-linejoin="round"/>
<circle cx="373.5" cy="31" r="24" fill="white"/>
<defs>
<linearGradient id="paint0_linear_906_39" x1="163.5" y1="70" x2="76.5243" y2="331.364" gradientUnits="userSpaceOnUse">
<stop offset="0.303357" stop-opacity="0"/>
<stop offset="1" stop-opacity="0.4"/>
</linearGradient>
<linearGradient id="paint1_linear_906_39" x1="361" y1="71.5" x2="334.566" y2="291.1" gradientUnits="userSpaceOnUse">
<stop offset="0.303357" stop-opacity="0"/>
<stop offset="1" stop-opacity="0.4"/>
</linearGradient>
<linearGradient id="paint2_linear_906_39" x1="663" y1="80" x2="601" y2="357" gradientUnits="userSpaceOnUse">
<stop offset="0.303357" stop-opacity="0"/>
<stop offset="1" stop-opacity="0.4"/>
</linearGradient>
<linearGradient id="paint3_linear_906_39" x1="154.5" y1="61" x2="67.5243" y2="322.364" gradientUnits="userSpaceOnUse">
<stop offset="0.303357" stop-opacity="0"/>
<stop offset="1" stop-opacity="0.4"/>
</linearGradient>
<linearGradient id="paint4_linear_906_39" x1="352" y1="62.5" x2="325.566" y2="282.1" gradientUnits="userSpaceOnUse">
<stop offset="0.303357" stop-opacity="0"/>
<stop offset="1" stop-opacity="0.4"/>
</linearGradient>
<linearGradient id="paint5_linear_906_39" x1="654" y1="71" x2="592" y2="348" gradientUnits="userSpaceOnUse">
<stop offset="0.303357" stop-opacity="0"/>
<stop offset="1" stop-opacity="0.4"/>
</linearGradient>
</defs>
</svg>
