<svg width="492" height="121" viewBox="0 0 492 121" fill="none" xmlns="http://www.w3.org/2000/svg">
<g clip-path="url(#clip0_638_29)">
<path d="M285.32 109.34C278.405 99.5 257.903 70.4719 276.403 59.9719C294.903 49.4719 299.5 73 300.477 79.1621C301 73 305.905 50.79 324.405 60.145C342.905 69.5 322.905 98 315.633 109.34M436.903 108.472C457.403 112.972 482.205 113.853 483.403 99.4719C484.403 87.4719 466.274 83.5 447.774 87.5C430.774 91.1756 424.036 78.5 428.405 69.3298C433.905 57.7855 461.774 57.5 475.774 67.3298M395.405 67.3298C404.292 76.3049 406.261 91.4586 398.905 100.785C388.405 114.099 363.905 114.285 355.405 97.2854C346.905 80.2854 359.905 58.0046 380.405 60.145C386.543 60.786 391.606 63.4934 395.405 67.3298ZM395.405 67.3298C401.071 71.9817 406.774 84 415.405 110.785" stroke="#FF341C" stroke-width="16" stroke-linecap="round" stroke-linejoin="round"/>
<path d="M285.32 109.34C278.405 99.5 257.903 70.4719 276.403 59.9719C294.903 49.4719 299.5 73 300.477 79.1621C301 73 305.905 50.79 324.405 60.145C342.905 69.5 322.905 98 315.633 109.34M436.903 108.472C457.403 112.972 482.205 113.853 483.403 99.4719C484.403 87.4719 466.274 83.5 447.774 87.5C430.774 91.1756 424.036 78.5 428.405 69.3298C433.905 57.7855 461.774 57.5 475.774 67.3298M395.405 67.3298C404.292 76.3049 406.261 91.4586 398.905 100.785C388.405 114.099 363.905 114.285 355.405 97.2854C346.905 80.2854 359.905 58.0046 380.405 60.145C386.543 60.786 391.606 63.4934 395.405 67.3298ZM395.405 67.3298C401.071 71.9817 406.774 84 415.405 110.785" stroke="#000011" stroke-opacity="0.6" stroke-width="16" stroke-linecap="round" stroke-linejoin="round"/>
<path d="M226.156 96.0393C218.72 112.628 190.404 116.061 180.965 97.1834C171.527 78.306 182.682 58.8568 203.275 58.8568C211.03 58.8568 217.244 61.7773 221.58 66.3045M248.086 113.2C248.658 102.332 248.886 75.4459 245.225 54.8526M243.405 16.7855C234.905 12.839 225.905 24.74 235.405 30.7855C244.905 36.8309 251.905 20.7319 243.405 16.7855Z" stroke="white" stroke-width="16" stroke-linecap="round" stroke-linejoin="round"/>
<path d="M226.156 96.0393C218.72 112.628 190.404 116.061 180.965 97.1834C171.527 78.306 182.682 58.8568 203.275 58.8568C211.03 58.8568 217.244 61.7773 221.58 66.3045M248.086 113.2C248.658 102.332 248.886 75.4459 245.225 54.8526M243.405 16.7855C234.905 12.839 225.905 24.74 235.405 30.7855C244.905 36.8309 251.905 20.7319 243.405 16.7855Z" stroke="#000011" stroke-opacity="0.6" stroke-width="16" stroke-linecap="round" stroke-linejoin="round"/>
<path d="M142.171 66.2934C148.658 73.7277 149.793 85.1388 145.163 95.4673C137.727 112.056 109.983 114.917 100.544 96.0392C91.1052 77.1619 103.976 57.0735 124.57 58.2849C132.342 58.742 138.239 61.7871 142.171 66.2934ZM142.171 66.2934C145.266 70.107 151.405 78.7855 160.405 109.286M29.1359 108.624C23.2737 99 6.77403 69.3579 22.8393 59.429C38.9046 49.5 45.4046 70 46.2929 78.446C47.4046 70 52.4046 49.5 69.1746 59.429C85.9446 69.3579 69.2737 100 63.4497 108.624" stroke="#4169E1" stroke-width="16" stroke-linecap="round" stroke-linejoin="round"/>
<path d="M142.171 66.2934C148.658 73.7277 149.793 85.1388 145.163 95.4673C137.727 112.056 109.983 114.917 100.544 96.0392C91.1052 77.1619 103.976 57.0735 124.57 58.2849C132.342 58.742 138.239 61.7871 142.171 66.2934ZM142.171 66.2934C145.266 70.107 151.405 78.7855 160.405 109.286M29.1359 108.624C23.2737 99 6.77403 69.3579 22.8393 59.429C38.9046 49.5 45.4046 70 46.2929 78.446C47.4046 70 52.4046 49.5 69.1746 59.429C85.9446 69.3579 69.2737 100 63.4497 108.624" stroke="#000011" stroke-opacity="0.6" stroke-width="16" stroke-linecap="round" stroke-linejoin="round"/>
<path d="M222.156 92.0393C214.72 108.628 186.404 112.061 176.965 93.1834C167.527 74.306 178.682 54.8568 199.275 54.8568C207.03 54.8568 213.244 57.7773 217.58 62.3045M244.086 109.2C244.658 98.3317 244.886 71.4459 241.225 50.8526M239.405 12.7855C230.905 8.83903 221.905 20.74 231.405 26.7855C240.905 32.8309 247.905 16.7319 239.405 12.7855Z" stroke="white" stroke-width="16" stroke-linecap="round" stroke-linejoin="round"/>
<path d="M282.32 106.34C275.405 96.5 254.903 67.4719 273.403 56.9719C291.903 46.4719 296.5 70 297.477 76.1621C298 70 302.905 47.79 321.405 57.145C339.905 66.5 319.905 95 312.633 106.34M433.903 105.472C454.403 109.972 479.205 110.853 480.403 96.4719C481.403 84.4719 463.274 80.5 444.774 84.5C427.774 88.1756 421.036 75.5 425.405 66.3298C430.905 54.7855 458.774 54.5 472.774 64.3298M392.405 64.3298C401.292 73.3049 403.261 88.4586 395.905 97.7854C385.405 111.099 360.905 111.285 352.405 94.2854C343.905 77.2854 356.905 55.0046 377.405 57.145C383.543 57.786 388.606 60.4934 392.405 64.3298ZM392.405 64.3298C398.071 68.9817 403.774 81 412.405 107.785" stroke="#FF341C" stroke-width="16" stroke-linecap="round" stroke-linejoin="round"/>
<path d="M138.171 62.2934C144.658 69.7277 145.793 81.1388 141.163 91.4673C133.727 108.056 105.983 110.917 96.544 92.0392C87.1052 73.1619 99.9764 53.0735 120.57 54.2849C128.342 54.742 134.239 57.7871 138.171 62.2934ZM138.171 62.2934C141.266 66.107 147.405 74.7855 156.405 105.286M25.1359 104.624C19.2737 95 2.77403 65.3579 18.8393 55.429C34.9046 45.5 41.4046 66 42.2929 74.446C43.4046 66 48.4046 45.5 65.1746 55.429C81.9446 65.3579 65.2737 96 59.4497 104.624" stroke="#4169E1" stroke-width="16" stroke-linecap="round" stroke-linejoin="round"/>
</g>
<defs>
<clipPath id="clip0_638_29">
<rect width="492" height="121" fill="white"/>
</clipPath>
</defs>
</svg>
