<svg width="574" height="128" viewBox="0 0 574 128" fill="none" xmlns="http://www.w3.org/2000/svg">
<path fill-rule="evenodd" clip-rule="evenodd" d="M47 30H65L83 53L101 30H119V112H101V58L83 81L65 58V112H47V30Z" fill="#9A9A9A"/>
<path fill-rule="evenodd" clip-rule="evenodd" d="M136.5 30H145H181H189.5L199 39.5V112H181V80H145V112H127V39.5L136.5 30ZM145 62H181V48H145V62Z" fill="#9A9A9A"/>
<path fill-rule="evenodd" clip-rule="evenodd" d="M295 30H313L331 53L349 30H367V112H349V58L331 81L313 58V112H295V30Z" fill="#9A9A9A"/>
<path fill-rule="evenodd" clip-rule="evenodd" d="M384.5 30H393H429H437.5L447 39.5V112H429V80H393V112H375V39.5L384.5 30ZM393 62H429V48H393V62Z" fill="#9A9A9A"/>
<path fill-rule="evenodd" clip-rule="evenodd" d="M216.5 30H225H261V48H225V94H261V112H225H216.5L207 102.5V39.5L216.5 30Z" fill="#9A9A9A"/>
<rect x="269" y="30" width="18" height="82" fill="#9A9A9A"/>
<path fill-rule="evenodd" clip-rule="evenodd" d="M464.5 30H473H527V48H473V62H527V80V102.5L517.5 112H509H455V94H509V80H455V62V39.5L464.5 30Z" fill="#9A9A9A"/>
<path fill-rule="evenodd" clip-rule="evenodd" d="M47 16H65L83 39L101 16H119V98H101V44L83 67L65 44V98H47V16Z" fill="white"/>
<path fill-rule="evenodd" clip-rule="evenodd" d="M136.5 16H145H181H189.5L199 25.5V98H181V66H145V98H127V25.5L136.5 16ZM145 48H181V34H145V48Z" fill="white"/>
<path fill-rule="evenodd" clip-rule="evenodd" d="M295 16H313L331 39L349 16H367V98H349V44L331 67L313 44V98H295V16Z" fill="white"/>
<path fill-rule="evenodd" clip-rule="evenodd" d="M384.5 16H393H429H437.5L447 25.5V98H429V66H393V98H375V25.5L384.5 16ZM393 48H429V34H393V48Z" fill="white"/>
<path fill-rule="evenodd" clip-rule="evenodd" d="M216.5 16H225H261V34H225V80H261V98H225H216.5L207 88.5V25.5L216.5 16Z" fill="white"/>
<rect x="269" y="16" width="18" height="82" fill="white"/>
<path fill-rule="evenodd" clip-rule="evenodd" d="M464.5 16H473H527V34H473V48H527V66V88.5L517.5 98H509H455V80H509V66H455V48V25.5L464.5 16Z" fill="white"/>
<mask id="path-15-outside-1_924_248" maskUnits="userSpaceOnUse" x="42" y="11" width="490" height="106" fill="black">
<rect fill="white" x="42" y="11" width="490" height="106"/>
<path fill-rule="evenodd" clip-rule="evenodd" d="M65 16H47V30V98V112H65V98V58L83 81L101 58V98V112H119V98V30V16H101L83 39L65 16ZM199 25.5V39.5V98V112H181V98V80H145V98V112H127V98V39.5V25.5L136.5 16H145H181H189.5L199 25.5ZM367 30V16H349L331 39L313 16H295V30V98V112H313V98V58L331 81L349 58V98V112H367V98V30ZM447 25.5V39.5V98V112H429V98V80H393V98V112H375V98V39.5V25.5L384.5 16H393H429H437.5L447 25.5ZM261 30V34V48H225V80H261V94V98V112H225H216.5L207 102.5V88.5V39.5V25.5L216.5 16H225H261V30ZM269 98V112H287V98V30V16H269V30V98ZM527 30V16H473H464.5L455 25.5V39.5V48V62V66V80V94V98V112H509H517.5L527 102.5V88.5V80V66V62V48V34V30Z"/>
</mask>
<path d="M47 16V11H42V16H47ZM65 16L68.9375 12.9185L67.4361 11H65V16ZM47 112H42V117H47V112ZM65 112V117H70V112H65ZM65 58L68.9375 54.9185L60 43.4983V58H65ZM83 81L79.0625 84.0815L83 89.1128L86.9375 84.0815L83 81ZM101 58H106V43.4983L97.0625 54.9185L101 58ZM101 112H96V117H101V112ZM119 112V117H124V112H119ZM119 16H124V11H119V16ZM101 16V11H98.5639L97.0625 12.9185L101 16ZM83 39L79.0625 42.0815L83 47.1128L86.9375 42.0815L83 39ZM199 25.5H204V23.4289L202.536 21.9645L199 25.5ZM199 112V117H204V112H199ZM181 112H176V117H181V112ZM181 80H186V75H181V80ZM145 80V75H140V80H145ZM145 112V117H150V112H145ZM127 112H122V117H127V112ZM127 25.5L123.464 21.9645L122 23.4289V25.5H127ZM136.5 16V11H134.429L132.964 12.4645L136.5 16ZM189.5 16L193.036 12.4645L191.571 11H189.5V16ZM367 16H372V11H367V16ZM349 16V11H346.564L345.062 12.9185L349 16ZM331 39L327.062 42.0815L331 47.1128L334.938 42.0815L331 39ZM313 16L316.938 12.9185L315.436 11H313V16ZM295 16V11H290V16H295ZM295 112H290V117H295V112ZM313 112V117H318V112H313ZM313 58L316.938 54.9185L308 43.4983V58H313ZM331 81L327.062 84.0815L331 89.1128L334.938 84.0815L331 81ZM349 58H354V43.4983L345.062 54.9185L349 58ZM349 112H344V117H349V112ZM367 112V117H372V112H367ZM447 25.5H452V23.4289L450.536 21.9645L447 25.5ZM447 112V117H452V112H447ZM429 112H424V117H429V112ZM429 80H434V75H429V80ZM393 80V75H388V80H393ZM393 112V117H398V112H393ZM375 112H370V117H375V112ZM375 25.5L371.464 21.9645L370 23.4289V25.5H375ZM384.5 16V11H382.429L380.964 12.4645L384.5 16ZM437.5 16L441.036 12.4645L439.571 11H437.5V16ZM261 48V53H266V48H261ZM225 48V43H220V48H225ZM225 80H220V85H225V80ZM261 80H266V75H261V80ZM261 112V117H266V112H261ZM216.5 112L212.964 115.536L214.429 117H216.5V112ZM207 102.5H202V104.571L203.464 106.036L207 102.5ZM207 25.5L203.464 21.9645L202 23.4289V25.5H207ZM216.5 16V11H214.429L212.964 12.4645L216.5 16ZM261 16H266V11H261V16ZM269 112H264V117H269V112ZM287 112V117H292V112H287ZM287 16H292V11H287V16ZM269 16V11H264V16H269ZM527 16H532V11H527V16ZM464.5 16V11H462.429L460.964 12.4645L464.5 16ZM455 25.5L451.464 21.9645L450 23.4289V25.5H455ZM455 112H450V117H455V112ZM517.5 112V117H519.571L521.036 115.536L517.5 112ZM527 102.5L530.536 106.036L532 104.571V102.5H527ZM47 21H65V11H47V21ZM52 30V16H42V30H52ZM52 98V30H42V98H52ZM52 112V98H42V112H52ZM65 107H47V117H65V107ZM60 98V112H70V98H60ZM60 58V98H70V58H60ZM86.9375 77.9185L68.9375 54.9185L61.0625 61.0815L79.0625 84.0815L86.9375 77.9185ZM97.0625 54.9185L79.0625 77.9185L86.9375 84.0815L104.938 61.0815L97.0625 54.9185ZM106 98V58H96V98H106ZM106 112V98H96V112H106ZM119 107H101V117H119V107ZM114 98V112H124V98H114ZM114 30V98H124V30H114ZM114 16V30H124V16H114ZM101 21H119V11H101V21ZM86.9375 42.0815L104.938 19.0815L97.0625 12.9185L79.0625 35.9185L86.9375 42.0815ZM61.0625 19.0815L79.0625 42.0815L86.9375 35.9185L68.9375 12.9185L61.0625 19.0815ZM204 39.5V25.5H194V39.5H204ZM204 98V39.5H194V98H204ZM204 112V98H194V112H204ZM181 117H199V107H181V117ZM176 98V112H186V98H176ZM176 80V98H186V80H176ZM145 85H181V75H145V85ZM150 98V80H140V98H150ZM150 112V98H140V112H150ZM127 117H145V107H127V117ZM122 98V112H132V98H122ZM122 39.5V98H132V39.5H122ZM122 25.5V39.5H132V25.5H122ZM132.964 12.4645L123.464 21.9645L130.536 29.0355L140.036 19.5355L132.964 12.4645ZM145 11H136.5V21H145V11ZM181 11H145V21H181V11ZM189.5 11H181V21H189.5V11ZM202.536 21.9645L193.036 12.4645L185.964 19.5355L195.464 29.0355L202.536 21.9645ZM362 16V30H372V16H362ZM349 21H367V11H349V21ZM334.938 42.0815L352.938 19.0815L345.062 12.9185L327.062 35.9185L334.938 42.0815ZM309.062 19.0815L327.062 42.0815L334.938 35.9185L316.938 12.9185L309.062 19.0815ZM295 21H313V11H295V21ZM300 30V16H290V30H300ZM300 98V30H290V98H300ZM300 112V98H290V112H300ZM313 107H295V117H313V107ZM308 98V112H318V98H308ZM308 58V98H318V58H308ZM334.938 77.9185L316.938 54.9185L309.062 61.0815L327.062 84.0815L334.938 77.9185ZM345.062 54.9185L327.062 77.9185L334.938 84.0815L352.938 61.0815L345.062 54.9185ZM354 98V58H344V98H354ZM354 112V98H344V112H354ZM367 107H349V117H367V107ZM362 98V112H372V98H362ZM362 30V98H372V30H362ZM452 39.5V25.5H442V39.5H452ZM452 98V39.5H442V98H452ZM452 112V98H442V112H452ZM429 117H447V107H429V117ZM424 98V112H434V98H424ZM424 80V98H434V80H424ZM393 85H429V75H393V85ZM398 98V80H388V98H398ZM398 112V98H388V112H398ZM375 117H393V107H375V117ZM370 98V112H380V98H370ZM370 39.5V98H380V39.5H370ZM370 25.5V39.5H380V25.5H370ZM380.964 12.4645L371.464 21.9645L378.536 29.0355L388.036 19.5355L380.964 12.4645ZM393 11H384.5V21H393V11ZM429 11H393V21H429V11ZM437.5 11H429V21H437.5V11ZM450.536 21.9645L441.036 12.4645L433.964 19.5355L443.464 29.0355L450.536 21.9645ZM266 34V30H256V34H266ZM266 48V34H256V48H266ZM225 53H261V43H225V53ZM230 80V48H220V80H230ZM261 75H225V85H261V75ZM266 94V80H256V94H266ZM266 98V94H256V98H266ZM266 112V98H256V112H266ZM225 117H261V107H225V117ZM216.5 117H225V107H216.5V117ZM203.464 106.036L212.964 115.536L220.036 108.464L210.536 98.9645L203.464 106.036ZM202 88.5V102.5H212V88.5H202ZM202 39.5V88.5H212V39.5H202ZM202 25.5V39.5H212V25.5H202ZM212.964 12.4645L203.464 21.9645L210.536 29.0355L220.036 19.5355L212.964 12.4645ZM225 11H216.5V21H225V11ZM261 11H225V21H261V11ZM266 30V16H256V30H266ZM274 112V98H264V112H274ZM287 107H269V117H287V107ZM282 98V112H292V98H282ZM282 30V98H292V30H282ZM282 16V30H292V16H282ZM269 21H287V11H269V21ZM274 30V16H264V30H274ZM274 98V30H264V98H274ZM522 16V30H532V16H522ZM473 21H527V11H473V21ZM464.5 21H473V11H464.5V21ZM458.536 29.0355L468.036 19.5355L460.964 12.4645L451.464 21.9645L458.536 29.0355ZM460 39.5V25.5H450V39.5H460ZM460 48V39.5H450V48H460ZM460 62V48H450V62H460ZM460 66V62H450V66H460ZM450 66V80H460V66H450ZM460 94V80H450V94H460ZM460 98V94H450V98H460ZM450 98V112H460V98H450ZM455 117H509V107H455V117ZM509 117H517.5V107H509V117ZM521.036 115.536L530.536 106.036L523.464 98.9645L513.964 108.464L521.036 115.536ZM532 102.5V88.5H522V102.5H532ZM522 80V88.5H532V80H522ZM522 66V80H532V66H522ZM522 62V66H532V62H522ZM522 48V62H532V48H522ZM532 48V34H522V48H532ZM522 30V34H532V30H522Z" fill="#444444" mask="url(#path-15-outside-1_924_248)"/>
<path d="M37 42L5 58V80L37 96V78L19 69L37 60V42Z" fill="#D4816B"/>
<path d="M37 28L5 44V66L37 82V64L19 55L37 46V28Z" fill="#FFD37F"/>
<mask id="path-19-outside-2_924_248" maskUnits="userSpaceOnUse" x="0" y="19" width="42" height="86" fill="black">
<rect fill="white" y="19" width="42" height="86"/>
<path fill-rule="evenodd" clip-rule="evenodd" d="M5 44L37 28V42V46V60L33 62L37 64V78V82V96L5 80V66V58V44Z"/>
</mask>
<path d="M37 28H42V19.9098L34.7639 23.5279L37 28ZM5 44L2.76393 39.5279L0 40.9098V44H5ZM37 60L39.2361 64.4721L42 63.0902V60H37ZM33 62L30.7639 57.5279L21.8197 62L30.7639 66.4721L33 62ZM37 64H42V60.9098L39.2361 59.5279L37 64ZM37 96L34.7639 100.472L42 104.09V96H37ZM5 80H0V83.0902L2.76393 84.4721L5 80ZM34.7639 23.5279L2.76393 39.5279L7.23607 48.4721L39.2361 32.4721L34.7639 23.5279ZM42 42V28H32V42H42ZM42 46V42H32V46H42ZM42 60V46H32V60H42ZM35.2361 66.4721L39.2361 64.4721L34.7639 55.5279L30.7639 57.5279L35.2361 66.4721ZM39.2361 59.5279L35.2361 57.5279L30.7639 66.4721L34.7639 68.4721L39.2361 59.5279ZM42 78V64H32V78H42ZM42 82V78H32V82H42ZM42 96V82H32V96H42ZM2.76393 84.4721L34.7639 100.472L39.2361 91.5279L7.23607 75.5279L2.76393 84.4721ZM0 66V80H10V66H0ZM0 58V66H10V58H0ZM0 44V58H10V44H0Z" fill="#444444" mask="url(#path-19-outside-2_924_248)"/>
<mask id="path-21-outside-3_924_248" maskUnits="userSpaceOnUse" x="532" y="19" width="42" height="86" fill="black">
<rect fill="white" x="532" y="19" width="42" height="86"/>
<path fill-rule="evenodd" clip-rule="evenodd" d="M569 44L537 28V42V46V60L541 62L537 64V78V82V96L569 80V66V58V44Z"/>
</mask>
<path d="M537 28L539.236 23.5279L532 19.9098V28H537ZM569 44H574V40.9098L571.236 39.5279L569 44ZM537 60H532V63.0902L534.764 64.4721L537 60ZM541 62L543.236 66.4721L552.18 62L543.236 57.5279L541 62ZM537 64L534.764 59.5279L532 60.9098V64H537ZM537 96H532V104.09L539.236 100.472L537 96ZM569 80L571.236 84.4721L574 83.0902V80H569ZM534.764 32.4721L566.764 48.4721L571.236 39.5279L539.236 23.5279L534.764 32.4721ZM542 42V28H532V42H542ZM542 46V42H532V46H542ZM542 60V46H532V60H542ZM543.236 57.5279L539.236 55.5279L534.764 64.4721L538.764 66.4721L543.236 57.5279ZM539.236 68.4721L543.236 66.4721L538.764 57.5279L534.764 59.5279L539.236 68.4721ZM542 78V64H532V78H542ZM542 82V78H532V82H542ZM542 96V82H532V96H542ZM566.764 75.5279L534.764 91.5279L539.236 100.472L571.236 84.4721L566.764 75.5279ZM564 66V80H574V66H564ZM564 58V66H574V58H564ZM564 44V58H574V44H564Z" fill="#444444" mask="url(#path-21-outside-3_924_248)"/>
<path d="M537 42L569 58V80L537 96V78L555 69L537 60V42Z" fill="#D4816B"/>
<path d="M537 28L569 44V66L537 82V64L555 55L537 46V28Z" fill="#FFD37F"/>
</svg>
