<svg width="479" height="115" viewBox="0 0 479 115" fill="none" xmlns="http://www.w3.org/2000/svg">
<g filter="url(#filter0_d_335_20)">
<path d="M132 53.5C112 45.3181 96.4485 62 98.0002 77C99.5519 92 111.5 103 130 97.5C148.5 92 152 61.6818 132 53.5ZM132 53.5C139.5 56.5 150.5 61 158 99.0002M64.0004 99.0002C69.0001 93.0005 76.0003 85.4999 78.5003 68.4999C81.0003 51.5 62.5002 46.4999 54.5002 55.4999C46.5002 64.5 47.5005 72.0002 47.0002 73.4999C46.4999 72.0002 47.5002 64.5 39.5002 55.4999C31.5002 46.4999 13.0001 51.5 15.5001 68.4999C18.0001 85.4999 25.0001 93.0004 29.9999 99.0002" stroke="#FF341C" stroke-width="16" stroke-linecap="round" stroke-linejoin="round"/>
</g>
<g filter="url(#filter1_d_335_20)">
<path d="M373.5 53.4996C353.5 45.3177 337.948 61.9996 339.5 76.9996C341.052 91.9996 353 103 371.5 97.4996C390 91.9996 393.5 61.6814 373.5 53.4996ZM373.5 53.4996C381 56.4996 392 60.9996 399.5 98.9997M459.5 58.4996C438.5 44.9996 410.5 52.4996 412 66.4996C413.5 80.4996 430 76.1054 438.5 74.4996C447 72.8938 463.5 74.9997 463.5 84.9996C464 105 430.5 98.9997 419 93.9996M305 99C310 93.0003 317 85.4997 319.5 68.4997C322 51.4997 303.5 46.4997 295.5 55.4997C287.5 64.4998 288.5 72 288 73.4997C287.5 72 288.5 64.4997 280.5 55.4997C272.5 46.4997 254 51.4997 256.5 68.4997C259 85.4997 266 93.0002 271 99" stroke="#32CD32" stroke-width="16" stroke-linecap="round" stroke-linejoin="round"/>
</g>
<g filter="url(#filter2_d_335_20)">
<path d="M214.5 58.5C197.5 42.5001 170.769 57 174 78C177.231 99 202 106.5 217 89.5M234 51C235 56.5 237.5 78 237.5 99" stroke="#4169E1" stroke-width="16" stroke-linecap="round" stroke-linejoin="round"/>
</g>
<g filter="url(#filter3_d_335_20)">
<circle cx="226" cy="24" r="16" fill="#4169E1"/>
</g>
<defs>
<filter id="filter0_d_335_20" x="7.271" y="43.0989" width="162.731" height="67.9028" filterUnits="userSpaceOnUse" color-interpolation-filters="sRGB">
<feFlood flood-opacity="0" result="BackgroundImageFix"/>
<feColorMatrix in="SourceAlpha" type="matrix" values="0 0 0 0 0 0 0 0 0 0 0 0 0 0 0 0 0 0 127 0" result="hardAlpha"/>
<feOffset dx="4" dy="4"/>
<feColorMatrix type="matrix" values="0 0 0 0 0.313726 0 0 0 0 0 0 0 0 0 0.133333 0 0 0 1 0"/>
<feBlend mode="normal" in2="BackgroundImageFix" result="effect1_dropShadow_335_20"/>
<feBlend mode="normal" in="SourceGraphic" in2="effect1_dropShadow_335_20" result="shape"/>
</filter>
<filter id="filter1_d_335_20" x="248.271" y="43.0987" width="227.235" height="67.9026" filterUnits="userSpaceOnUse" color-interpolation-filters="sRGB">
<feFlood flood-opacity="0" result="BackgroundImageFix"/>
<feColorMatrix in="SourceAlpha" type="matrix" values="0 0 0 0 0 0 0 0 0 0 0 0 0 0 0 0 0 0 127 0" result="hardAlpha"/>
<feOffset dx="4" dy="4"/>
<feColorMatrix type="matrix" values="0 0 0 0 0.0666667 0 0 0 0 0.121569 0 0 0 0 0 0 0 0 1 0"/>
<feBlend mode="normal" in2="BackgroundImageFix" result="effect1_dropShadow_335_20"/>
<feBlend mode="normal" in="SourceGraphic" in2="effect1_dropShadow_335_20" result="shape"/>
</filter>
<filter id="filter2_d_335_20" x="165.715" y="42.9986" width="83.7845" height="68.0014" filterUnits="userSpaceOnUse" color-interpolation-filters="sRGB">
<feFlood flood-opacity="0" result="BackgroundImageFix"/>
<feColorMatrix in="SourceAlpha" type="matrix" values="0 0 0 0 0 0 0 0 0 0 0 0 0 0 0 0 0 0 127 0" result="hardAlpha"/>
<feOffset dx="4" dy="4"/>
<feColorMatrix type="matrix" values="0 0 0 0 0.00784314 0 0 0 0 0.0901961 0 0 0 0 0.341176 0 0 0 1 0"/>
<feBlend mode="normal" in2="BackgroundImageFix" result="effect1_dropShadow_335_20"/>
<feBlend mode="normal" in="SourceGraphic" in2="effect1_dropShadow_335_20" result="shape"/>
</filter>
<filter id="filter3_d_335_20" x="210" y="8" width="36" height="36" filterUnits="userSpaceOnUse" color-interpolation-filters="sRGB">
<feFlood flood-opacity="0" result="BackgroundImageFix"/>
<feColorMatrix in="SourceAlpha" type="matrix" values="0 0 0 0 0 0 0 0 0 0 0 0 0 0 0 0 0 0 127 0" result="hardAlpha"/>
<feOffset dx="4" dy="4"/>
<feColorMatrix type="matrix" values="0 0 0 0 0.00784314 0 0 0 0 0.0901961 0 0 0 0 0.341176 0 0 0 1 0"/>
<feBlend mode="normal" in2="BackgroundImageFix" result="effect1_dropShadow_335_20"/>
<feBlend mode="normal" in="SourceGraphic" in2="effect1_dropShadow_335_20" result="shape"/>
</filter>
</defs>
</svg>
