<svg width="233" height="137" viewBox="0 0 233 137" fill="none" xmlns="http://www.w3.org/2000/svg">
<g filter="url(#filter0_d_604_20)">
<path d="M15 78.4325C33.8333 74.9325 63.2 76.4325 70 78.4325C78.5 80.9325 10 116.307 17.5 119.307C23.5 121.707 56.1667 121.807 73 119.307" stroke="#4169E1" stroke-width="16" stroke-linecap="round"/>
</g>
<g filter="url(#filter1_d_604_20)">
<path d="M160 18.333C179 14.333 209.847 13.4662 215 18.333C224 26.833 155.679 72.98 162.5 77.3068C172 83.333 194 78.833 218 77.3068" stroke="#FF341C" stroke-width="16" stroke-linecap="round"/>
</g>
<g filter="url(#filter2_d_604_20)">
<path d="M87.3267 51.4953C102.827 45.8958 138.827 45.9954 145.827 51.4954C152.793 56.9693 81.6148 93.7835 87.3267 99.4954C93.3267 105.495 138.327 108.021 150.827 100.495" stroke="white" stroke-width="16" stroke-linecap="round"/>
</g>
<defs>
<filter id="filter0_d_604_20" x="6.99854" y="68.3329" width="78.0024" height="64.8116" filterUnits="userSpaceOnUse" color-interpolation-filters="sRGB">
<feFlood flood-opacity="0" result="BackgroundImageFix"/>
<feColorMatrix in="SourceAlpha" type="matrix" values="0 0 0 0 0 0 0 0 0 0 0 0 0 0 0 0 0 0 127 0" result="hardAlpha"/>
<feOffset dx="4" dy="4"/>
<feColorMatrix type="matrix" values="0 0 0 0 0.00784314 0 0 0 0 0.0901961 0 0 0 0 0.341176 0 0 0 1 0"/>
<feBlend mode="normal" in2="BackgroundImageFix" result="effect1_dropShadow_604_20"/>
<feBlend mode="normal" in="SourceGraphic" in2="effect1_dropShadow_604_20" result="shape"/>
</filter>
<filter id="filter1_d_604_20" x="151.998" y="6.99998" width="78.002" height="85.3576" filterUnits="userSpaceOnUse" color-interpolation-filters="sRGB">
<feFlood flood-opacity="0" result="BackgroundImageFix"/>
<feColorMatrix in="SourceAlpha" type="matrix" values="0 0 0 0 0 0 0 0 0 0 0 0 0 0 0 0 0 0 127 0" result="hardAlpha"/>
<feOffset dx="4" dy="4"/>
<feComposite in2="hardAlpha" operator="out"/>
<feColorMatrix type="matrix" values="0 0 0 0 0.313726 0 0 0 0 0 0 0 0 0 0.133333 0 0 0 1 0"/>
<feBlend mode="normal" in2="BackgroundImageFix" result="effect1_dropShadow_604_20"/>
<feBlend mode="normal" in="SourceGraphic" in2="effect1_dropShadow_604_20" result="shape"/>
</filter>
<filter id="filter2_d_604_20" x="79.009" y="39.3329" width="83.8188" height="77.8192" filterUnits="userSpaceOnUse" color-interpolation-filters="sRGB">
<feFlood flood-opacity="0" result="BackgroundImageFix"/>
<feColorMatrix in="SourceAlpha" type="matrix" values="0 0 0 0 0 0 0 0 0 0 0 0 0 0 0 0 0 0 127 0" result="hardAlpha"/>
<feOffset dx="4" dy="4"/>
<feColorMatrix type="matrix" values="0 0 0 0 0.203922 0 0 0 0 0.223529 0 0 0 0 0.290196 0 0 0 1 0"/>
<feBlend mode="normal" in2="BackgroundImageFix" result="effect1_dropShadow_604_20"/>
<feBlend mode="normal" in="SourceGraphic" in2="effect1_dropShadow_604_20" result="shape"/>
</filter>
</defs>
</svg>
