<svg width="479" height="115" viewBox="0 0 479 115" fill="none" xmlns="http://www.w3.org/2000/svg">
<path d="M377.5 57.4995C357.5 49.3177 341.948 65.9995 343.5 80.9995C345.051 95.9995 357 106.999 375.5 101.499C394 95.9995 397.5 65.6813 377.5 57.4995ZM377.5 57.4995C385 60.4995 396 64.9995 403.5 103M463.5 61.4995C442.5 47.9995 414.5 56.4996 416 70.4996C417.5 84.4996 434 80.1053 442.5 78.4996C451 76.8938 467.5 78.9997 467.5 88.9996C468 109 434.5 104 423 98.9995M309 103C314 97.0002 321 89.4996 323.5 72.4997C326 55.4997 307.5 50.4996 299.5 59.4997C291.5 68.4997 292.5 75.9999 292 77.4997C291.5 75.9999 292.5 68.4997 284.5 59.4997C276.5 50.4996 258 55.4997 260.5 72.4997C263 89.4996 270 97.0001 275 103" stroke="#500022" stroke-width="16" stroke-linecap="round" stroke-linejoin="round"/>
<path d="M373.5 53.4995C353.5 45.3177 337.948 61.9995 339.5 76.9995C341.051 91.9995 353 102.999 371.5 97.4995C390 91.9995 393.5 61.6813 373.5 53.4995ZM373.5 53.4995C381 56.4995 392 60.9995 399.5 98.9997M459.5 57.4995C438.5 43.9995 410.5 52.4996 412 66.4996C413.5 80.4996 430 76.1053 438.5 74.4996C447 72.8938 463.5 74.9997 463.5 84.9996C464 105 430.5 100 419 95M305 98.9999C310 93.0002 317 85.4996 319.5 68.4997C322 51.4997 303.5 46.4996 295.5 55.4997C287.5 64.4997 288.5 71.9999 288 73.4997C287.5 71.9999 288.5 64.4997 280.5 55.4997C272.5 46.4996 254 51.4997 256.5 68.4997C259 85.4996 266 93.0001 271 98.9999" stroke="#FF341C" stroke-width="16" stroke-linecap="round" stroke-linejoin="round"/>
<path d="M218.5 62.5C201.5 46.5001 174.769 61 178 82C181.231 103 206 110.5 221 93.5M238 55C239 60.5 241.5 82 241.5 103" stroke="#34394A" stroke-width="16" stroke-linecap="round" stroke-linejoin="round"/>
<path d="M214.5 58.5C197.5 42.5001 170.769 57 174 78C177.231 99 202 106.5 217 89.5M234 51C235 56.5 237.5 78 237.5 99" stroke="white" stroke-width="16" stroke-linecap="round" stroke-linejoin="round"/>
<path d="M136 57.4999C116 49.3181 100.449 65.9999 102 80.9999C103.552 95.9999 115.5 107 134 101.5C152.5 96 156 65.6817 136 57.4999ZM136 57.4999C143.5 60.4999 154.5 65 162 103M68.0004 103C73.0001 97.0005 80.0003 89.4999 82.5003 72.4999C85.0003 55.4999 66.5002 50.4999 58.5002 59.4999C50.5002 68.4999 51.5005 76.0001 51.0002 77.4999C50.4999 76.0001 51.5002 68.4999 43.5002 59.4999C35.5002 50.4999 17.0001 55.4999 19.5001 72.4999C22.0001 89.4999 29.0001 97.0003 33.9999 103" stroke="#021757" stroke-width="16" stroke-linecap="round" stroke-linejoin="round"/>
<path d="M132 53.4999C112 45.3181 96.4485 61.9999 98.0002 76.9999C99.5519 91.9999 111.5 103 130 97.5C148.5 92 152 61.6817 132 53.4999ZM132 53.4999C139.5 56.4999 150.5 61 158 99.0001M64.0004 99.0002C69.0001 93.0005 76.0003 85.4999 78.5003 68.4999C81.0003 51.4999 62.5002 46.4999 54.5002 55.4999C46.5002 64.4999 47.5005 72.0001 47.0002 73.4999C46.4999 72.0001 47.5002 64.4999 39.5002 55.4999C31.5002 46.4999 13.0001 51.4999 15.5001 68.4999C18.0001 85.4999 25.0001 93.0003 29.9999 99.0001" stroke="#4169E1" stroke-width="16" stroke-linecap="round" stroke-linejoin="round"/>
<path d="M221.446 19.5466C221.215 22.0166 221.052 26.3878 222.511 28.2485C222.511 28.2485 221.824 23.4466 227.979 17.4219C230.457 14.9966 231.03 11.6978 230.164 9.22377C229.673 7.82221 228.775 6.6644 227.995 5.85596C227.54 5.38065 227.889 4.59658 228.552 4.62502C232.557 4.80377 239.049 5.91689 241.808 12.8394C243.018 15.8781 243.108 19.0185 242.531 22.2116C242.165 24.251 240.865 28.7847 243.831 29.3413C245.947 29.7394 246.971 28.0575 247.43 26.8469C247.621 26.3431 248.283 26.2172 248.641 26.6194C252.216 30.686 252.52 35.4756 251.781 39.5991C250.351 47.5697 242.279 53.371 234.259 53.371C224.241 53.371 216.267 47.6388 214.199 37.2631C213.366 33.0747 213.789 24.7872 220.248 18.9372C220.727 18.4985 221.511 18.8885 221.446 19.5466Z" fill="url(#paint0_radial_1010_227)"/>
<path d="M237.92 34.452C234.227 29.6988 235.88 24.2754 236.786 22.1141C236.908 21.8298 236.583 21.5616 236.327 21.7363C234.739 22.817 231.485 25.3601 229.969 28.9391C227.918 33.7776 228.064 36.146 229.279 39.0385C230.01 40.7813 229.161 41.151 228.734 41.216C228.32 41.281 227.938 41.0048 227.633 40.7163C226.76 39.8835 226.13 38.7988 225.83 37.6288C225.765 37.377 225.436 37.3079 225.285 37.5151C224.148 39.0873 223.559 41.6101 223.53 43.3935C223.441 48.9063 227.995 53.3751 233.504 53.3751C240.447 53.3751 245.504 45.697 241.515 39.2782C240.357 37.4095 239.268 36.1866 237.92 34.452Z" fill="url(#paint1_radial_1010_227)"/>
<defs>
<radialGradient id="paint0_radial_1010_227" cx="0" cy="0" r="1" gradientUnits="userSpaceOnUse" gradientTransform="translate(232.275 53.4973) rotate(-179.751) scale(28.6762 47.052)">
<stop offset="0.3144" stop-color="#FF9800"/>
<stop offset="0.6616" stop-color="#FF6D00"/>
<stop offset="0.9715" stop-color="#F44336"/>
</radialGradient>
<radialGradient id="paint1_radial_1010_227" cx="0" cy="0" r="1" gradientUnits="userSpaceOnUse" gradientTransform="translate(233.886 24.9615) rotate(90.5787) scale(30.0041 22.5804)">
<stop offset="0.2141" stop-color="#FFF176"/>
<stop offset="0.3275" stop-color="#FFF27D"/>
<stop offset="0.4868" stop-color="#FFF48F"/>
<stop offset="0.6722" stop-color="#FFF7AD"/>
<stop offset="0.7931" stop-color="#FFF9C4"/>
<stop offset="0.8221" stop-color="#FFF8BD" stop-opacity="0.804"/>
<stop offset="0.8627" stop-color="#FFF6AB" stop-opacity="0.529"/>
<stop offset="0.9101" stop-color="#FFF38D" stop-opacity="0.2088"/>
<stop offset="0.9409" stop-color="#FFF176" stop-opacity="0"/>
</radialGradient>
</defs>
</svg>
