<svg width="479" height="115" viewBox="0 0 479 115" fill="none" xmlns="http://www.w3.org/2000/svg">
<path d="M377.5 57.4995C357.5 49.3177 341.948 65.9995 343.5 80.9995C345.051 95.9995 357 106.999 375.5 101.499C394 95.9995 397.5 65.6813 377.5 57.4995ZM377.5 57.4995C385 60.4995 396 64.9995 403.5 103M463.5 61.4995C442.5 47.9995 414.5 56.4996 416 70.4996C417.5 84.4996 434 80.1053 442.5 78.4996C451 76.8938 467.5 78.9997 467.5 88.9996C468 109 434.5 104 423 98.9995M309 103C314 97.0002 321 89.4996 323.5 72.4997C326 55.4997 307.5 50.4996 299.5 59.4997C291.5 68.4997 292.5 75.9999 292 77.4997C291.5 75.9999 292.5 68.4997 284.5 59.4997C276.5 50.4996 258 55.4997 260.5 72.4997C263 89.4996 270 97.0001 275 103" stroke="#500022" stroke-width="16" stroke-linecap="round" stroke-linejoin="round"/>
<path d="M373.5 53.4995C353.5 45.3177 337.948 61.9995 339.5 76.9995C341.051 91.9995 353 102.999 371.5 97.4995C390 91.9995 393.5 61.6813 373.5 53.4995ZM373.5 53.4995C381 56.4995 392 60.9995 399.5 98.9997M459.5 57.4995C438.5 43.9995 410.5 52.4996 412 66.4996C413.5 80.4996 430 76.1053 438.5 74.4996C447 72.8938 463.5 74.9997 463.5 84.9996C464 105 430.5 100 419 95M305 98.9999C310 93.0002 317 85.4996 319.5 68.4997C322 51.4997 303.5 46.4996 295.5 55.4997C287.5 64.4997 288.5 71.9999 288 73.4997C287.5 71.9999 288.5 64.4997 280.5 55.4997C272.5 46.4996 254 51.4997 256.5 68.4997C259 85.4996 266 93.0001 271 98.9999" stroke="#FF341C" stroke-width="16" stroke-linecap="round" stroke-linejoin="round"/>
<circle cx="230" cy="28" r="16" fill="#34394A"/>
<path d="M218.5 62.5C201.5 46.5001 174.769 61 178 82C181.231 103 206 110.5 221 93.5M238 55C239 60.5 241.5 82 241.5 103" stroke="#34394A" stroke-width="16" stroke-linecap="round" stroke-linejoin="round"/>
<circle cx="226" cy="24" r="16" fill="white"/>
<path d="M214.5 58.5C197.5 42.5001 170.769 57 174 78C177.231 99 202 106.5 217 89.5M234 51C235 56.5 237.5 78 237.5 99" stroke="white" stroke-width="16" stroke-linecap="round" stroke-linejoin="round"/>
<path d="M136 57.4999C116 49.3181 100.449 65.9999 102 80.9999C103.552 95.9999 115.5 107 134 101.5C152.5 96 156 65.6817 136 57.4999ZM136 57.4999C143.5 60.4999 154.5 65 162 103M68.0004 103C73.0001 97.0005 80.0003 89.4999 82.5003 72.4999C85.0003 55.4999 66.5002 50.4999 58.5002 59.4999C50.5002 68.4999 51.5005 76.0001 51.0002 77.4999C50.4999 76.0001 51.5002 68.4999 43.5002 59.4999C35.5002 50.4999 17.0001 55.4999 19.5001 72.4999C22.0001 89.4999 29.0001 97.0003 33.9999 103" stroke="#021757" stroke-width="16" stroke-linecap="round" stroke-linejoin="round"/>
<path d="M132 53.4999C112 45.3181 96.4485 61.9999 98.0002 76.9999C99.5519 91.9999 111.5 103 130 97.5C148.5 92 152 61.6817 132 53.4999ZM132 53.4999C139.5 56.4999 150.5 61 158 99.0001M64.0004 99.0002C69.0001 93.0005 76.0003 85.4999 78.5003 68.4999C81.0003 51.4999 62.5002 46.4999 54.5002 55.4999C46.5002 64.4999 47.5005 72.0001 47.0002 73.4999C46.4999 72.0001 47.5002 64.4999 39.5002 55.4999C31.5002 46.4999 13.0001 51.4999 15.5001 68.4999C18.0001 85.4999 25.0001 93.0003 29.9999 99.0001" stroke="#4169E1" stroke-width="16" stroke-linecap="round" stroke-linejoin="round"/>
<g clip-path="url(#clip0_1030_299)">
<path d="M183.559 56.2538C183.376 55.5555 182.746 55.0701 182.024 55.0721L181.664 55.0421L181.572 55.0242C180.239 54.764 179.722 54.2971 179.51 53.2268C179.187 51.6002 180.126 49.4877 180.984 47.8316C182.747 44.4262 185.157 39.7667 186.068 34.9098C186.24 34.0097 186.362 33.1034 186.426 32.1897C186.531 30.7345 186.469 29.2688 186.245 27.8264C185.054 34.6242 182.091 43.0204 175.091 47.8792C169.5 51.7608 161.019 53.0025 157.923 51.8528C160.855 56.5294 165.773 59.6017 171.262 60.1819C176.128 60.7284 182.098 59.8756 183.322 57.8443C183.613 57.3665 183.695 56.7931 183.559 56.2538Z" fill="#E0E0E0"/>
<path d="M158.557 27.3933C156.555 26.7537 154.621 25.3694 154.234 23.2801C153.924 21.6563 153.848 19.3089 152.035 19.2336C149.783 19.1421 149.435 23.6474 149.615 25.4473C150.344 32.766 156.9 35.1765 157.042 35.0321C157.183 34.8876 159.067 27.4854 158.557 27.3933Z" fill="#E0E0E0"/>
<path d="M158.557 27.3933C157.466 27.0594 156.463 26.4904 155.621 25.722C155.68 26.6781 155.393 27.6218 154.809 28.3829C153.685 29.9944 151.346 30.5193 151.346 30.5193C153.531 33.9223 156.94 35.1403 157.055 35.0383C157.233 34.8753 159.067 27.4853 158.557 27.3933Z" fill="#CCCCCC"/>
<path d="M184.215 32.3989C186.311 32.5589 188.623 32.0031 189.767 30.2125C190.664 28.824 191.618 26.6776 193.325 27.2891C195.437 28.0452 194.065 32.3545 193.222 33.9549C189.796 40.463 182.814 40.2358 182.738 40.0452C182.661 39.8545 183.708 32.2927 184.215 32.3989Z" fill="#E0E0E0"/>
<path d="M190.888 35.2388C189.268 36.4496 185.94 37.2575 183.099 36.9157C182.909 37.9477 182.785 38.9928 182.723 40.0425C182.804 40.2303 189.782 40.4603 193.208 33.9522C193.819 32.735 194.221 31.4257 194.393 30.0751C193.786 32.117 192.559 33.9207 190.888 35.2388Z" fill="#CCCCCC"/>
<path d="M186.088 34.9028C186.26 34.0026 186.382 33.0964 186.446 32.1827C186.866 26.278 184.584 20.6334 180.49 17.4438C178.642 15.9774 176.412 15.0773 174.064 14.8537C169.179 14.4278 164.377 16.3104 161.087 19.9451C152.788 29.1896 154.325 42.6307 154.963 44.9888C158.229 57.0388 166.787 59.6823 171.265 60.1862C176.131 60.7328 182.101 59.88 183.325 57.8486C183.612 57.3701 183.698 56.7974 183.562 56.2546C183.38 55.5563 182.75 55.0709 182.028 55.0729L181.668 55.0429L181.576 55.025C180.243 54.7648 179.726 54.2979 179.514 53.2276C179.19 51.601 180.13 49.4885 180.988 47.8324C182.749 44.434 185.163 39.7752 186.088 34.9028Z" fill="#E0E0E0"/>
<path d="M183.559 56.2538C183.377 55.5555 182.746 55.0701 182.025 55.0721L181.664 55.0421L181.573 55.0242C180.239 54.764 179.723 54.2971 179.51 53.2268C179.187 51.6002 180.126 49.4877 180.984 47.8316C182.747 44.4262 185.157 39.7667 186.068 34.9098C186.24 34.0097 186.362 33.1034 186.427 32.1897C186.531 30.7345 186.469 29.2688 186.245 27.8264C185.055 34.6242 182.091 43.0204 175.091 47.8792C169.5 51.7608 161.02 53.0025 157.923 51.8528C160.855 56.5294 165.774 59.6017 171.263 60.1819C176.128 60.7284 182.098 59.8756 183.322 57.8443C183.613 57.3665 183.695 56.7931 183.559 56.2538Z" fill="#CCCCCC"/>
<mask id="mask0_1030_299" style="mask-type:luminance" maskUnits="userSpaceOnUse" x="159" y="30" width="21" height="12">
<path d="M169.875 33.2702C166.87 32.7022 163.921 31.8633 161.066 30.7681C160.582 30.5857 160.044 30.8286 159.862 31.313C159.824 31.4118 159.804 31.5141 159.802 31.6198C159.841 35.9626 163.281 40.1928 168.342 41.1803C173.877 42.26 178.293 39.4602 179.864 35.5193C180.049 35.0391 179.81 34.5018 179.33 34.3166C179.227 34.2783 179.121 34.2576 179.012 34.2546C175.943 34.2015 172.884 33.8719 169.875 33.2702Z" fill="white"/>
</mask>
<g mask="url(#mask0_1030_299)">
<path d="M169.875 33.2702C166.87 32.7022 163.921 31.8633 161.066 30.7681C160.582 30.5857 160.044 30.8286 159.862 31.313C159.824 31.4118 159.804 31.5141 159.802 31.6198C159.841 35.9626 163.281 40.1928 168.342 41.1803C173.877 42.26 178.293 39.4602 179.864 35.5193C180.049 35.0391 179.81 34.5018 179.33 34.3166C179.227 34.2783 179.121 34.2576 179.012 34.2546C175.943 34.2015 172.884 33.8719 169.875 33.2702Z" fill="url(#paint0_linear_1030_299)"/>
</g>
<path d="M170.351 34.6007L169.646 34.4631L169.318 34.3991C167.819 34.1066 166.362 33.7456 164.967 33.3525L163.715 39.7721C163.236 42.2454 164.845 44.6391 167.317 45.125L168.17 45.2915C170.646 45.7746 173.041 44.162 173.527 41.6866L174.786 35.2352C173.343 35.0891 171.854 34.8755 170.351 34.6007Z" fill="url(#paint1_linear_1030_299)"/>
<path opacity="0.3" d="M168.746 40.0507C169.031 40.11 169.309 39.9226 169.368 39.6376L169.369 39.6341L170.351 34.6007L169.646 34.4631L169.318 34.3991L168.337 39.4254C168.278 39.7104 168.461 39.9915 168.746 40.0507Z" fill="#AB3F2E"/>
<path d="M175.21 31.2793C177.479 31.7221 179.678 30.2413 180.121 27.9718C180.563 25.7023 179.083 23.5036 176.813 23.0609C174.544 22.6181 172.345 24.0989 171.902 26.3684C171.459 28.6379 172.94 30.8366 175.21 31.2793Z" fill="white"/>
<path d="M175.838 28.9964C176.812 29.1864 177.758 28.5382 177.951 27.5486C178.144 26.559 177.511 25.6027 176.537 25.4127C175.563 25.2227 174.617 25.8708 174.424 26.8604C174.231 27.8501 174.864 28.8063 175.838 28.9964Z" fill="#422B0D"/>
<path d="M168.798 26.5134L168.774 26.4501C168.747 26.379 168.718 26.3073 168.683 26.2384C168.568 26.0035 168.437 25.7765 168.288 25.5608C168.087 25.2763 167.866 25.0025 167.63 24.7477C167.5 24.6088 167.364 24.4614 167.219 24.3233C167.074 24.1851 166.927 24.054 166.765 23.9089C166.603 23.7638 166.449 23.6531 166.297 23.5319C166.145 23.4107 165.976 23.3008 165.815 23.1888C165.521 22.9851 165.216 22.8047 164.896 22.6434C164.662 22.5282 164.417 22.4328 164.168 22.3551L163.943 22.311L163.862 22.2952C163.543 22.222 163.229 22.4208 163.153 22.7355C163.092 22.9909 163.213 23.2561 163.444 23.3854L163.503 23.4189L163.695 23.5259C163.82 23.5979 164 23.7063 164.22 23.8553C164.44 24.0044 164.69 24.1851 164.958 24.3875L165.367 24.7126C165.506 24.824 165.639 24.934 165.789 25.0658L165.873 25.1409L165.549 25.1107C165.422 25.1077 165.364 25.1038 165.243 25.1058C165.122 25.1077 165.019 25.1061 164.919 25.1122C164.712 25.1231 164.509 25.1494 164.305 25.1828C163.938 25.243 163.581 25.349 163.241 25.4951C163.101 25.5557 162.966 25.6282 162.834 25.7049C162.73 25.7653 162.629 25.8335 162.535 25.9065C162.453 25.9675 162.395 26.0221 162.351 26.0575L162.289 26.1149C162.048 26.3352 162.031 26.7053 162.251 26.946C162.426 27.1376 162.708 27.1927 162.943 27.0809L163.015 27.0474L163.063 27.0239L163.196 26.962C163.364 26.8921 163.537 26.8307 163.714 26.7848C163.976 26.7187 164.245 26.6723 164.514 26.6443C164.664 26.6295 164.822 26.6238 164.984 26.6188C165.066 26.6128 165.142 26.6166 165.215 26.6163C165.289 26.6159 165.411 26.6252 165.473 26.6263C165.792 26.6446 166.11 26.6847 166.424 26.7459C166.688 26.801 166.951 26.878 167.203 26.9748C167.312 27.018 167.411 27.0556 167.491 27.0968C167.561 27.1289 167.628 27.1638 167.693 27.2023L167.761 27.2337L167.828 27.2799L167.883 27.3198C168.103 27.4689 168.394 27.4562 168.599 27.2875C168.7 27.2046 168.771 27.0865 168.795 26.9595C168.852 26.8169 168.854 26.6562 168.798 26.5134Z" fill="#422B0D"/>
</g>
<g clip-path="url(#clip1_1030_299)">
<path d="M292.081 31.1173C292.081 31.1173 291.56 29.6464 291.604 28.5956C291.649 27.5447 291.95 26.2048 292.254 26.1705C292.561 26.1343 293.368 26.9714 295.412 28.4057C297.456 29.8399 300.526 31.6071 301.499 33.3777C302.471 35.1484 302.313 36.4057 302.313 36.4057C302.313 36.4057 302.225 40.6019 298.495 42.3699C295.466 43.8076 293.615 43.5854 291.541 43.6584C290.675 43.6894 289.838 44.1228 289.566 43.8107C289.297 43.5016 289.379 42.6949 289.485 42.1314C289.663 41.1821 290.595 40.1295 290.58 39.0468C290.565 37.9642 289.851 36.7206 289.99 35.2503C290.253 32.5296 292.081 31.1173 292.081 31.1173Z" fill="#E0E0E0"/>
<path d="M293.8 29.2866C293.499 29.4189 293.553 30.3962 293.916 30.8961C294.279 31.396 295.227 31.9815 296.377 32.7787C297.734 33.7212 299.234 35.2702 299.733 34.804C300.228 34.3395 298.737 32.8141 297.45 31.7273C296.157 30.6441 294.183 29.1155 293.8 29.2866Z" fill="white"/>
<path d="M296.378 36.6702C296.713 36.1783 295.912 35.2877 294.833 34.2593C293.754 33.2308 293.187 32.7738 292.404 33.0429C291.642 33.3044 291.398 33.9808 291.33 34.7046C291.263 35.4283 291.35 36.1911 291.567 36.5226C291.783 36.8542 292.012 37.0288 292.646 36.9409C293.026 36.8875 293.583 36.7655 294.216 36.7984C294.946 36.8334 296.004 37.2143 296.378 36.6702Z" fill="white"/>
<path d="M291.064 40.5683C290.566 40.8558 290.103 41.9866 290.53 42.3747C291.01 42.8112 292.15 42.1116 293.686 41.5944C296.111 40.779 297.723 40.5164 297.559 39.7647C297.45 39.2673 295.292 39.5756 294.014 39.8277C293.06 40.0219 291.674 40.2162 291.064 40.5683Z" fill="white"/>
<path d="M321.108 41.7259C320.528 44.2064 321.062 46.9436 324.117 48.8067C326.504 50.259 328.466 50.1219 330.281 51.0869C332.095 52.0519 332.515 53.0378 332.745 52.8759C332.972 52.7157 333.299 51.5063 333.21 50.4458C333.125 49.3866 332.538 48.7295 332.657 48.022C332.775 47.3145 334.049 46.4878 334.285 45.1276C334.52 43.7675 333.967 43.0616 334.251 41.9353C334.534 40.8089 335.437 39.9932 335.67 38.7797C335.903 37.5662 335.943 36.1695 335.652 36.0179C335.361 35.8663 334.889 36.3132 332.989 36.767C331.089 37.2208 326.614 37.0031 324.083 38.2322C322.303 39.0942 321.489 40.1074 321.108 41.7259Z" fill="#E0E0E0"/>
<path d="M323.919 40.8375C323.924 41.4281 326.757 40.5271 328.632 40.6061C330.508 40.6851 331.75 41.0679 332.273 40.766C332.796 40.4641 333.705 38.9267 333.281 38.4449C332.858 37.9632 331.983 38.489 331.534 38.5949C331.024 38.7108 328.614 38.899 327.798 38.9882C326.615 39.1107 323.912 39.8912 323.919 40.8375Z" fill="white"/>
<path d="M324.946 42.9253C324.856 43.3589 326.052 43.7267 328.135 44.3584C330.395 45.0455 331.355 45.1714 331.615 44.2123C331.849 43.3385 331.016 42.9522 329.391 42.7535C328.207 42.6072 325.054 42.4148 324.946 42.9253Z" fill="white"/>
<path d="M325.844 45.594C325.523 45.9739 327.46 47.5031 328.217 48.2031C328.976 48.9063 330.101 49.684 330.63 49.3785C331.16 49.0731 331.291 48.1297 330.825 47.5153C330.358 46.9009 328.587 46.3712 328.078 46.1796C327.357 45.9073 326.052 45.3448 325.844 45.594Z" fill="white"/>
<path d="M301.219 37.9252C300.413 41.1793 300.974 43.7024 302.888 46.4937C305.353 50.0795 312.196 52.4735 317.069 49.5147C321.002 47.1276 322.118 43.8196 322.312 41.7696C322.492 39.8814 322.61 37.0455 320.453 34.0788C317.866 30.518 311.299 28.2587 306.525 30.9782C302.707 33.149 301.839 35.4263 301.219 37.9252Z" fill="#FF5960"/>
<path d="M303.407 40.4715C303.773 44.2815 302.701 46.2119 302.701 46.2119C302.701 46.2119 303.088 46.8102 303.541 47.3078C304.073 47.8925 304.612 48.2868 304.612 48.2868C304.612 48.2868 305.621 45.9738 305.617 43.4656C305.613 40.7416 305.367 38.5763 304.772 36.8619C304.176 35.1475 303.362 33.435 303.362 33.435C303.362 33.435 302.936 33.8969 302.5 34.5799C302.154 35.124 302.024 35.4731 302.024 35.4731C302.024 35.4731 303.104 37.2937 303.407 40.4715Z" fill="#FE7C84"/>
<path d="M305.248 31.7858C305.248 31.7858 306.216 32.9239 307.022 35.6996C307.412 37.0432 307.827 38.8618 308.009 41.0309C308.174 42.9772 308.114 44.4685 308.036 45.721C307.857 48.6669 307.234 49.8313 307.234 49.8313C307.234 49.8313 307.8 50.0855 308.322 50.249C308.844 50.4125 309.48 50.5515 309.48 50.5515C309.48 50.5515 310.61 48.6997 310.535 43.531C310.46 38.3624 309.633 35.5783 308.903 33.7674C308.176 31.9546 307.325 30.5743 307.325 30.5743C307.325 30.5743 306.739 30.8462 306.261 31.126C305.669 31.4723 305.248 31.7858 305.248 31.7858Z" fill="#FE7C84"/>
<path d="M309.825 29.8737C309.825 29.8737 312.533 34.8875 312.837 40.4594C313.119 45.6414 311.943 50.8432 311.943 50.8432C311.943 50.8432 312.543 50.8749 313.267 50.7927C314.092 50.6981 314.734 50.5018 314.734 50.5018C314.734 50.5018 315.069 49.4367 315.253 47.3181C315.404 45.538 315.646 43.0037 315.285 39.7473C314.992 37.0906 314.461 35.2435 313.984 33.6846C313.224 31.1976 312.325 29.8202 312.325 29.8202C312.325 29.8202 311.818 29.7395 311.071 29.7683C310.342 29.7911 309.825 29.8737 309.825 29.8737Z" fill="#FE7C84"/>
<path d="M315.25 30.4512C315.25 30.4512 317.066 33.8763 317.723 39.9953C317.976 42.3678 317.94 43.9946 317.827 45.4375C317.617 48.0987 317.069 49.5147 317.069 49.5147C317.069 49.5147 317.921 48.9853 318.546 48.4793C319.239 47.9177 319.723 47.3766 319.723 47.3766C319.723 47.3766 320.436 44.608 319.982 40.0192C319.547 35.6144 318.076 31.8449 318.076 31.8449C318.076 31.8449 317.526 31.4319 316.714 31.046C316.084 30.7457 315.25 30.4512 315.25 30.4512Z" fill="#FE7C84"/>
<path d="M305.868 34.0381C304.389 35.386 303.36 37.5649 303.551 38.8866C303.744 40.2275 304.807 40.336 305.419 39.6793C306.03 39.0196 306.412 37.3672 307.85 36.1555C309.287 34.9438 310.739 34.3173 311.517 34.1128C312.296 33.9083 312.816 33.5373 312.658 32.9398C312.508 32.3708 311.857 31.8625 310.393 31.9358C308.782 32.0197 306.957 33.0486 305.868 34.0381Z" fill="white"/>
<path opacity="0.5" d="M320.456 34.077C317.869 30.5162 311.303 28.2569 306.528 30.9764C302.707 33.149 301.841 35.4294 301.221 37.9283C300.415 41.1824 300.976 43.7055 302.89 46.4968C305.354 50.0826 312.198 52.4766 317.071 49.5178C321.004 47.1307 322.12 43.8227 322.314 41.7727C322.495 39.8796 322.613 37.0437 320.456 34.077ZM320.834 41.5894C320.664 43.3642 319.702 46.2267 316.297 48.2923C312.081 50.851 306.159 48.7801 304.023 45.6769C302.364 43.2647 301.879 41.08 302.576 38.2624C303.111 36.0986 303.862 34.1295 307.168 32.2502C311.3 29.8978 316.985 31.8525 319.221 34.9352C321.093 37.502 320.987 39.9572 320.834 41.5894Z" fill="white"/>
</g>
<g clip-path="url(#clip2_1030_299)">
<path d="M441.164 17.5275C436.717 14.8907 431 15.0388 423.819 16.0525C416.686 17.0595 411.181 18.469 407.632 22.193C402.27 27.8316 402.162 38.8183 407.045 45.1543C411.769 51.2853 417.189 53.4325 428.863 51.7845C440.541 50.1359 445.693 46.0381 447.997 39.373C450.598 31.8556 447.801 21.4571 441.164 17.5275ZM424.057 36.2803L425.616 33.663C425.888 33.2079 426.453 33.1054 426.864 33.4413L429.466 35.5622C429.881 35.8975 429.788 36.2325 429.257 36.3075L424.523 36.9758C423.992 37.047 423.784 36.7317 424.057 36.2803ZM413.082 34.8568L416.542 29.6419C416.742 29.341 417.064 29.341 417.258 29.6431L420.506 34.623C420.703 34.9208 420.569 35.1783 420.211 35.1873L413.372 35.3801C413.017 35.3886 412.885 35.1534 413.082 34.8568ZM438.939 37.2282L437.978 43.3779C437.909 43.8042 437.55 44.0253 437.18 43.8693L435.164 43.0291C434.797 42.8726 434.246 42.9655 433.947 43.235L431.764 45.1867C431.462 45.4567 430.931 45.5051 430.583 45.2929L428.364 43.9586C428.017 43.7502 427.513 43.8289 427.246 44.1392L425.524 46.132C425.253 46.4392 424.736 46.5613 424.369 46.4011L421.645 45.2102C421.277 45.05 420.71 45.1111 420.383 45.3391L418.513 46.6598C418.189 46.8873 417.759 46.7662 417.565 46.3845L414.608 40.6515C414.414 40.2699 414.559 40.0639 414.938 40.196L418.144 41.315C418.522 41.4434 419.034 41.2841 419.287 40.9605L420.333 39.62C420.583 39.2969 421.091 39.1683 421.459 39.3323L424.011 40.4831C424.375 40.6476 424.896 40.5323 425.164 40.2257L426.478 38.7222C426.741 38.4161 427.258 38.3205 427.614 38.5125L429.712 39.6328C430.069 39.8286 430.604 39.7605 430.904 39.4911L432.51 38.0221C432.809 37.7489 433.339 37.6931 433.689 37.8973L435.302 38.8286C435.652 39.0328 436.187 38.9838 436.493 38.7133L438.508 36.9406C438.814 36.6701 439.007 36.8019 438.939 37.2282ZM439.251 31.6359L432.671 33.5002C432.325 33.5983 432.122 33.3922 432.221 33.0487L433.826 27.327C433.921 26.9803 434.228 26.88 434.507 27.1096L439.373 31.0506C439.647 31.2732 439.593 31.5346 439.251 31.6359Z" fill="#F57C00"/>
<mask id="mask1_1030_299" style="mask-type:luminance" maskUnits="userSpaceOnUse" x="403" y="15" width="46" height="38">
<path d="M441.164 17.5275C436.717 14.8907 431 15.0388 423.819 16.0525C416.686 17.0595 411.181 18.469 407.632 22.193C402.27 27.8316 402.162 38.8183 407.045 45.1543C411.769 51.2853 417.189 53.4325 428.863 51.7845C440.541 50.1359 445.693 46.0381 447.997 39.373C450.598 31.8556 447.801 21.4571 441.164 17.5275Z" fill="white"/>
</mask>
<g mask="url(#mask1_1030_299)">
<path d="M437.224 19.4206C434.374 17.1 430.987 16.6086 426.917 16.9142C427.176 16.7905 427.435 16.6669 427.72 16.5395C428.5 16.1871 429.31 15.8909 430.142 15.6939C430.494 15.6102 430.858 15.5854 431.207 15.5096C431.376 15.4743 431.524 15.3929 431.698 15.3645C431.89 15.3336 432.083 15.3291 432.277 15.3093C432.437 15.2905 432.577 15.3427 432.728 15.3403C432.879 15.3379 433.026 15.2755 433.177 15.2731C433.419 15.2693 433.809 15.3505 433.828 15.0032C433.849 14.667 433.532 14.545 433.251 14.5127C432.901 14.4713 432.511 14.5036 432.159 14.504C430.702 14.5091 429.087 14.9036 427.357 15.6819C426.534 16.0518 425.815 16.4033 425.153 16.758C425.058 16.8093 424.958 16.8765 424.853 16.9405C424.766 16.9944 424.669 17.0574 424.573 17.105C424.462 17.1472 424.351 17.1894 424.229 17.2142C424.144 17.2262 424.058 17.2346 423.939 17.2513C423.931 17.2524 423.921 17.2577 423.91 17.2592C423.817 17.2724 423.724 17.2855 423.631 17.2986C423.35 17.3193 423.066 17.295 422.751 17.26L422.536 17.2374C422.298 17.2142 422.093 17.19 421.889 17.1127C421.435 16.9269 421.014 16.7628 420.553 16.6613C419.929 16.5298 419.25 16.4476 418.546 16.4183C417.739 16.3883 416.93 16.4305 416.134 16.5543C415.759 16.611 415.396 16.7228 415.023 16.7906C414.772 16.8337 414.396 16.8829 414.336 17.2058C414.307 17.35 414.427 17.4239 414.517 17.4983C415 17.9148 415.779 17.5587 416.32 17.4747C417.047 17.3646 417.788 17.3319 418.527 17.3564C419.185 17.3808 419.809 17.4519 420.384 17.579C420.591 17.6255 420.789 17.6884 420.996 17.7577C417.052 18.5833 413.965 19.9735 411.894 22.9282C407.454 29.2509 407.258 39.2882 411.43 46.2774C415.309 52.7777 420.424 54.9377 429.118 53.7255C437.607 52.5272 442.491 48.5769 444.055 41.6528C445.9 33.4999 443.023 24.1502 437.224 19.4206ZM412.197 45.7865C408.205 39.1052 408.386 29.5171 412.617 23.4852C414.41 20.9256 417.078 19.6249 420.491 18.825C419.823 19.5366 419.271 20.5651 418.906 22.0823C417.503 27.9194 418.217 37.7222 420.553 44.8797C421.999 49.3072 423.548 51.9327 425.506 53.0879C419.307 53.251 415.313 51.0122 412.197 45.7865ZM428.965 52.8003C428.954 52.8019 428.946 52.8029 428.935 52.8045C425.64 53.2583 423.452 50.8783 421.399 44.5974C419.11 37.5847 418.41 28.0111 419.77 22.3277C420.473 19.4221 421.825 18.5609 423.77 18.2295C423.807 18.2243 423.842 18.2307 423.879 18.2255C423.883 18.2249 423.887 18.2244 423.894 18.2234C424.032 18.204 424.18 18.1793 424.327 18.1509C424.361 18.1462 424.394 18.1415 424.431 18.1362L424.432 18.1436C424.447 18.1415 424.457 18.1325 424.472 18.1305C426.392 17.9427 427.912 18.4363 429.374 21.0363C432.16 25.9905 434.083 35.1567 433.939 42.8309C433.832 49.0759 432.198 52.3363 428.965 52.8003ZM443.179 41.4281C441.899 47.0925 438.384 50.5466 432.239 52.1449C433.901 50.4257 434.76 47.3581 434.844 42.8547C434.985 35.0293 433.014 25.6541 430.152 20.5666C429.364 19.1669 428.531 18.3111 427.676 17.8069C431.228 17.6198 434.202 18.1391 436.673 20.1574C442.21 24.6664 444.943 33.616 443.179 41.4281Z" fill="#FF9800"/>
</g>
<path d="M421.887 17.3364C421.81 16.9497 421.796 16.5349 421.752 16.2193C421.611 15.2205 420.97 14.4663 420.184 13.8843C419.524 13.3943 418.487 13.1847 417.899 12.6693C417.73 12.5189 417.492 12.011 417.492 11.7989C417.493 10.8899 418.116 9.80585 419.015 9.51989C419.49 9.37325 419.933 9.4774 420.348 9.70665C422.673 10.9955 424.602 12.0753 425.339 14.8003C425.483 15.3367 425.697 15.8859 425.772 16.4508C425.896 17.3537 425.67 17.7113 424.805 18.072C424.222 18.3172 423.096 18.5518 422.487 18.2856C422.135 18.127 421.973 17.7561 421.887 17.3364Z" fill="#2E7D32"/>
<path d="M424.057 36.2803L425.616 33.663C425.889 33.2079 426.453 33.1054 426.864 33.4413L429.466 35.5621C429.881 35.8974 429.788 36.2325 429.257 36.3074L424.523 36.9758C423.992 37.047 423.784 36.7316 424.057 36.2803Z" fill="#422B0D"/>
<path d="M413.082 34.8568L416.542 29.6419C416.742 29.341 417.064 29.341 417.258 29.6431L420.506 34.623C420.703 34.9208 420.569 35.1783 420.211 35.1873L413.372 35.3801C413.017 35.3886 412.885 35.1534 413.082 34.8568Z" fill="#422B0D"/>
<path d="M438.939 37.2282L437.977 43.3779C437.909 43.8042 437.55 44.0253 437.18 43.8693L435.164 43.0291C434.797 42.8725 434.246 42.9655 433.947 43.2349L431.764 45.1867C431.462 45.4566 430.931 45.5051 430.583 45.2929L428.364 43.9586C428.017 43.7502 427.513 43.8289 427.246 44.1392L425.524 46.132C425.253 46.4391 424.736 46.5613 424.369 46.4011L421.645 45.2102C421.277 45.05 420.71 45.1111 420.383 45.3391L418.513 46.6597C418.189 46.8872 417.759 46.7661 417.565 46.3845L414.608 40.6515C414.414 40.2699 414.559 40.0638 414.938 40.196L418.144 41.315C418.522 41.4434 419.034 41.2841 419.287 40.9605L420.333 39.62C420.582 39.2969 421.091 39.1683 421.459 39.3323L424.011 40.4831C424.375 40.6475 424.896 40.5323 425.164 40.2256L426.478 38.7222C426.741 38.4161 427.258 38.3204 427.614 38.5125L429.712 39.6328C430.069 39.8286 430.604 39.7605 430.903 39.4911L432.51 38.0221C432.809 37.7489 433.339 37.693 433.689 37.8973L435.302 38.8285C435.652 39.0328 436.187 38.9838 436.493 38.7133L438.508 36.9406C438.814 36.6701 439.007 36.8019 438.939 37.2282Z" fill="#422B0D"/>
<path d="M439.251 31.6358L432.671 33.5001C432.325 33.5982 432.122 33.3921 432.221 33.0486L433.826 27.3269C433.921 26.9802 434.228 26.88 434.507 27.1095L439.373 31.0505C439.647 31.2732 439.593 31.5345 439.251 31.6358Z" fill="#422B0D"/>
</g>
<g clip-path="url(#clip3_1030_299)">
<path d="M51.715 50.8426C51.715 50.8426 51.3607 51.7025 51.3393 52.1935C51.3158 52.6822 51.3423 53.0783 51.6759 53.3874C52.3084 53.9773 56.0518 53.8847 58.9169 54.1914C61.3513 54.452 66.2262 54.6272 66.2262 54.6272L66.4641 52.1348L61.6904 51.0148L51.715 50.8426Z" fill="#50352F"/>
<path d="M67.7998 35.568C67.7998 35.568 63.3035 34.9912 60.5095 34.6432C58.4479 34.3869 54.1815 33.6768 53.818 33.7091C53.4546 33.7413 52.7187 34.1181 52.6476 34.7816C52.5761 35.4495 52.2797 40.0247 52.1379 41.7852C51.9961 43.5456 51.3451 52.1808 51.3451 52.1808C51.3451 52.1808 51.601 51.4926 52.4559 51.5819C53.0491 51.6454 66.0869 52.8967 66.0869 52.8967L70.6376 44.8901L67.7998 35.568Z" fill="#865C50"/>
<path d="M66.8164 50.8991L54.3328 49.8272C54.117 49.8085 53.9596 49.6183 53.9777 49.4069L55.039 36.5865C55.0459 36.4806 55.1007 36.3842 55.179 36.3171C55.2685 36.2489 55.365 36.2192 55.4705 36.2305L67.7007 37.6353L67.6111 38.4102L55.7827 37.0506L54.7881 49.0825L66.8821 50.1194L66.8164 50.8991Z" fill="#50352F"/>
<path d="M55.2181 42.4213L55.1365 43.1982L66.3901 44.3804L66.4717 43.6034L55.2181 42.4213Z" fill="#50352F"/>
<path d="M59.51 37.1019L58.5237 49.7791L59.3026 49.8397L60.2889 37.1625L59.51 37.1019Z" fill="#50352F"/>
<path d="M63.9383 37.8567L63.1213 50.1823L63.9008 50.2339L64.7178 37.9083L63.9383 37.8567Z" fill="#50352F"/>
<path d="M68.6054 52.2263L69.808 54.0707C69.808 54.0707 74.4238 54.6315 76.1855 54.8445C77.9472 55.0575 83.7047 55.3116 83.7047 55.3116C83.7047 55.3116 84.7432 53.2094 84.6525 52.9974C84.5619 52.7855 85.7945 37.0567 85.7945 37.0567C85.7945 37.0567 80.1897 36.4344 78.1815 36.2195C76.1733 36.0045 71.5136 35.1901 71.5136 35.1901L68.6054 52.2263Z" fill="#DC0D28"/>
<path d="M73.2628 37.2041C73.2628 37.2041 75.0182 37.912 75.36 38.0819C75.7038 38.2543 76.2624 38.5585 76.053 38.9362C75.7715 39.4483 72.9777 42.9183 72.9777 42.9183C72.9777 42.9183 75.6888 46.4287 75.6172 47.0766C75.5405 47.7929 70.4227 52.7519 70.2667 52.9219C69.9606 53.2492 70.4967 53.3065 70.8742 53.3714C71.2498 53.4338 83.6988 54.4976 83.6988 54.4976L84.4893 56.1845L83.2931 56.1698C83.2931 56.1698 79.5191 55.8214 75.4936 55.4349C71.4681 55.0484 67.8944 54.6347 67.8944 54.6347L71.2729 37.4199L73.2628 37.2041Z" fill="#B0091B"/>
<path d="M84.1558 53.8598L83.5215 54.4919L83.2949 56.1722C83.2949 56.1722 84.7609 56.5113 85.1951 56.2334C85.6293 55.9554 86.1193 47.7874 86.3895 45.4496C86.6593 43.1161 87.1964 37.3311 87.1003 37.2119C86.8864 36.9468 85.7951 37.0522 85.7951 37.0522L84.1558 53.8598Z" fill="#B0B3AF"/>
<path d="M84.622 54.592C84.5622 54.3833 86.4545 37.0384 86.4545 37.0384L85.4441 37.0102L83.5216 54.4919L84.622 54.592Z" fill="#E4E0E8"/>
<path d="M66.0767 40.3505L67.4126 37.8356C67.4126 37.8356 67.3618 35.6323 67.3858 35.4082C67.4098 35.1841 68.8141 33.8788 68.8141 33.8788L70.8962 33.9016C70.8962 33.9016 72.1244 34.8221 72.3775 35.0314C72.6263 35.2403 74.5867 36.6702 74.8217 37.3598C75.0366 37.9895 71.9929 41.8417 71.6974 42.2567C71.527 42.4985 71.7179 42.6256 71.9684 43.0258C72.1222 43.2711 74.1618 45.9741 74.1578 46.427C74.1537 46.8799 72.2575 49.0237 71.6081 49.7964C71.2438 50.2308 68.8097 52.977 68.8097 52.977L68.9339 54.6193C68.9339 54.6193 69.3291 54.955 69.1806 55.2835C69.0325 55.6077 68.0954 55.8296 67.8517 55.7813C67.6079 55.733 65.4595 54.8763 65.3788 54.5721C65.298 54.2679 65.1665 52.1537 65.2588 51.9147C65.3535 51.6737 66.4241 50.2882 66.4241 50.2882C66.4241 50.2882 64.9907 45.9279 65.061 45.4376C65.1033 45.1466 66.5975 42.3153 66.5975 42.3153L66.0767 40.3505Z" fill="#E0E0E0"/>
<path d="M67.1753 40.5925C67.0129 40.7396 68.1894 42.8901 68.3361 42.9725C68.4834 43.0504 71.861 40.2296 71.667 39.9244C71.4686 39.6187 67.6752 40.1371 67.1753 40.5925Z" fill="white"/>
<path d="M70.9653 35.1224C71.2222 35.2766 71.0067 36.687 70.9557 36.7482C70.9047 36.8094 68.7938 37.7412 68.4381 37.4098C68.1045 37.1008 69.1819 36.316 69.6222 35.9609C70.0629 35.6014 70.8088 35.0279 70.9653 35.1224Z" fill="white"/>
<path d="M66.2635 46.0575C65.7754 46.1741 66.7491 48.974 66.8637 49.3352C67.0016 49.77 67.8378 49.3084 68.2929 49.0015C68.9567 48.5503 71.1524 46.952 71.0574 46.7395C70.8841 46.3654 66.9271 45.8996 66.2635 46.0575Z" fill="white"/>
<path d="M66.0608 52.3716C65.856 52.7697 68.8437 54.6918 68.924 54.6271C69.0042 54.5623 68.7997 52.9648 68.7997 52.9648C68.7997 52.9648 66.2763 51.9569 66.0608 52.3716Z" fill="white"/>
</g>
<defs>
<linearGradient id="paint0_linear_1030_299" x1="168.345" y1="41.1991" x2="170.04" y2="32.5082" gradientUnits="userSpaceOnUse">
<stop stop-color="#404040"/>
<stop offset="0.12" stop-color="#3E3A35"/>
<stop offset="0.44" stop-color="#392D1E"/>
<stop offset="0.74" stop-color="#362510"/>
<stop offset="1" stop-color="#35220B"/>
</linearGradient>
<linearGradient id="paint1_linear_1030_299" x1="167.747" y1="45.209" x2="169.88" y2="34.278" gradientUnits="userSpaceOnUse">
<stop stop-color="#FF4081"/>
<stop offset="0.28" stop-color="#FB3D80"/>
<stop offset="0.55" stop-color="#EF337D"/>
<stop offset="0.82" stop-color="#DB2378"/>
<stop offset="1" stop-color="#CA1573"/>
</linearGradient>
<clipPath id="clip0_1030_299">
<rect width="46" height="46" fill="white" transform="translate(151.83 10.0215) rotate(11.0395)"/>
</clipPath>
<clipPath id="clip1_1030_299">
<rect width="46" height="46" fill="white" transform="translate(281 31) rotate(-30)"/>
</clipPath>
<clipPath id="clip2_1030_299">
<rect width="48" height="48" fill="white" transform="translate(398.714 10.424) rotate(-8.0353)"/>
</clipPath>
<clipPath id="clip3_1030_299">
<rect width="40" height="40" fill="white" transform="translate(41 42.1129) rotate(-38.8897)"/>
</clipPath>
</defs>
</svg>
