<svg width="479" height="115" viewBox="0 0 479 115" fill="none" xmlns="http://www.w3.org/2000/svg">
<g clip-path="url(#clip0_1027_246)">
<g clip-path="url(#clip1_1027_246)">
<path d="M382.741 11.2615C380.884 9.41404 377.985 8.11992 372.766 7.66721C363.187 6.8363 358.788 12.6768 358.129 20.2757C358.126 20.3056 359.025 20.4476 359.207 20.4784C359.229 20.4803 359.247 20.4857 359.27 20.4876L372.021 18.0291C372.021 18.0291 382.948 22.5076 383.014 22.8295L384.572 29.5556C384.654 29.9542 384.986 30.2502 385.393 30.2856C385.875 30.3274 386.307 29.9884 386.383 29.5094C386.543 28.443 386.822 26.5325 387.033 24.7101C387.348 21.9408 388.064 16.5525 382.741 11.2615Z" fill="url(#paint0_linear_1027_246)"/>
<path d="M384.933 33.6822C386.326 33.803 387.553 32.7719 387.674 31.3792C387.795 29.9864 386.763 28.7595 385.371 28.6387C383.978 28.5179 382.751 29.549 382.63 30.9417C382.509 32.3344 383.54 33.5614 384.933 33.6822Z" fill="#E0E0E0"/>
<path d="M370.001 41.9327L369.948 41.9282C360.365 41.1082 350.291 42.8956 349.711 49.5792L349.613 50.715L350.155 50.762L350.693 50.8086L387.387 53.9916L387.933 54.0389L388.467 54.0852L388.566 52.9495C389.112 46.6507 379.624 42.7675 370.001 41.9327Z" fill="url(#paint1_linear_1027_246)"/>
<path d="M366.395 45.2711L365.801 52.1192L366.361 52.1678L366.922 52.2164L371.158 52.5839L371.715 52.6321L372.275 52.6808L372.869 45.8327L366.395 45.2711Z" fill="white"/>
<path d="M381.515 24.7058L361.501 22.9698C359.342 22.7825 357.411 24.561 357.206 26.9259C357.001 29.2908 358.6 31.3755 360.756 31.5625L380.77 33.2985C382.929 33.4858 384.86 31.7036 385.065 29.3424C385.27 26.9813 383.674 24.8931 381.515 24.7058Z" fill="#E59600"/>
<path d="M361.371 18.2195C360.308 20.4084 359.627 22.9202 359.395 25.5951C359.015 29.9774 359.964 33.7448 362.143 36.4858C364.06 38.8993 366.816 40.3767 369.905 40.6447C372.991 40.9123 375.963 39.9318 378.268 37.8845C380.886 35.5595 382.469 32.0119 382.85 27.6296C383.082 24.9509 382.84 22.3628 382.173 20.0239L361.371 18.2195Z" fill="#FFCA28"/>
<path d="M364.878 29.5562C365.875 29.6427 366.756 28.8747 366.845 27.841C366.935 26.8073 366.2 25.8992 365.203 25.8128C364.207 25.7263 363.326 26.4942 363.236 27.528C363.147 28.5617 363.882 29.4698 364.878 29.5562Z" fill="#404040"/>
<path d="M377.073 30.614C378.069 30.7004 378.95 29.9325 379.039 28.8988C379.129 27.865 378.394 26.957 377.397 26.8705C376.401 26.7841 375.52 27.552 375.431 28.5857C375.341 29.6194 376.076 30.5275 377.073 30.614Z" fill="#404040"/>
<path d="M380.17 25.677C380.17 25.6732 379.448 24.233 377.494 24.0635C375.54 23.894 374.577 25.1881 374.577 25.1881L374.577 25.1919C374.501 25.2832 374.446 25.3988 374.435 25.5296C374.406 25.8583 374.64 26.1497 374.962 26.1776C375.029 26.1834 375.194 26.1488 375.209 26.1426C376.422 25.7471 377.341 25.8231 377.341 25.8231C377.341 25.8231 378.249 25.9056 379.379 26.5042C379.393 26.513 379.55 26.5755 379.617 26.5814C379.938 26.6092 380.219 26.3626 380.248 26.0338C380.262 25.9071 380.232 25.784 380.17 25.677Z" fill="#F5F5F5"/>
<path d="M368.259 24.6438C368.263 24.6404 367.538 23.1998 365.584 23.0303C363.63 22.8608 362.667 24.155 362.667 24.155L362.67 24.159C362.595 24.2503 362.539 24.366 362.528 24.4967C362.5 24.8255 362.734 25.1169 363.055 25.1447C363.123 25.1506 363.287 25.1159 363.303 25.1098C364.515 24.7143 365.435 24.7903 365.435 24.7903C365.435 24.7903 366.346 24.8731 367.472 25.4714C367.487 25.4802 367.643 25.5427 367.71 25.5485C368.032 25.5764 368.313 25.3298 368.341 25.001C368.352 24.874 368.322 24.7509 368.259 24.6438Z" fill="#F5F5F5"/>
<path d="M385.007 34.7803C384.527 32.7625 384.119 28.4059 384.34 26.592C384.63 24.2081 384.777 22.5985 384.861 21.4503C384.963 20.0663 383.93 18.8589 382.544 18.7387C382.544 18.7387 382.294 18.7169 382.287 18.7163L382.076 21.1484C382.229 22.4189 382.005 24.6956 381.752 27.6096C381.349 32.2647 379.826 34.5379 376.726 34.2689C373.487 33.9879 373.016 32.9873 370.61 32.7786C368.201 32.5696 367.546 33.4727 364.412 33.2008C361.584 32.9555 360.4 29.5517 360.737 25.6663C360.885 23.9589 360.955 22.2825 361.073 20.9602L361.425 16.9105C360.054 16.8292 358.859 17.8473 358.74 19.2258C358.644 20.3694 358.531 21.9744 358.427 24.3442C358.344 26.2153 357.15 30.5232 356.329 32.4357C355.085 35.324 354.925 38.9839 356.068 41.9136C357.09 44.5354 362.746 49.0612 366.117 51.3373C367.404 52.2055 370.553 52.4862 371.977 51.8681C375.627 50.2801 381.773 46.9889 383.318 44.7102C385.208 41.9268 385.785 38.0584 385.007 34.7803Z" fill="url(#paint2_linear_1027_246)"/>
<path d="M385.007 34.7803C384.527 32.7625 384.118 28.4096 384.336 26.5916C384.629 24.2081 384.773 22.5982 384.857 21.4537C384.959 20.066 383.926 18.8623 382.544 18.7424L382.522 18.7405L381.752 27.6134C381.348 32.2684 379.826 34.5379 376.729 34.2692C373.486 33.9879 373.016 32.991 370.61 32.7823C368.2 32.5733 367.546 33.4727 364.412 33.2008C361.584 32.9555 360.396 29.5551 360.733 25.6659C360.905 23.6784 360.973 21.7307 361.135 20.337L361.124 20.336L361.421 16.9139C360.05 16.8289 358.855 17.8507 358.739 19.2296C358.64 20.3728 358.527 21.9815 358.423 24.3477C358.344 26.219 357.149 30.5307 356.325 32.4391C355.08 35.3311 354.921 38.9873 356.064 41.917C357.089 44.5429 362.742 49.0646 366.113 51.3407C367.4 52.2126 370.549 52.4933 371.973 51.8715C375.622 50.2835 381.769 46.9923 383.318 44.7139C385.208 41.9268 385.784 38.0584 385.007 34.7803Z" fill="url(#paint3_radial_1027_246)"/>
<path d="M373.665 34.7901C372.436 35.3836 368.61 35.0518 367.501 34.2554C366.867 33.7977 366.127 34.347 366.354 34.984C366.575 35.6054 368.542 37.1764 370.351 37.3332C372.159 37.4901 374.338 36.2788 374.662 35.7047C374.995 35.1201 374.372 34.4487 373.665 34.7901Z" fill="#795548"/>
<path d="M372.258 31.7434C372.222 31.7252 372.182 31.7104 372.141 31.7031L369.549 31.4782C369.507 31.4784 369.469 31.4863 369.426 31.4977C369.183 31.5707 369.031 31.8059 369.121 32.0734C369.21 32.3409 369.663 33.1142 370.701 33.2043C371.744 33.2947 372.322 32.6109 372.453 32.3625C372.591 32.1148 372.485 31.8609 372.258 31.7434Z" fill="#E59600"/>
<path d="M384.712 19.1826C384.379 18.8903 379.397 15.4431 372.299 14.8274C365.2 14.2154 359.7 16.7495 359.322 16.984C357.767 17.9445 357.237 19.0616 357.3 20.8964C357.334 21.9722 358.282 22.4609 358.932 22.2952C358.932 22.2952 365.134 21.3539 371.68 21.918C378.229 22.486 384.173 24.4846 384.173 24.4846C384.789 24.7601 385.802 24.4415 386.022 23.3878C386.404 21.5878 386.074 20.3962 384.712 19.1826Z" fill="#F5F5F5"/>
</g>
<path d="M377.5 57.4995C357.5 49.3177 341.948 65.9995 343.5 80.9995C345.051 95.9995 357 106.999 375.5 101.499C394 95.9995 397.5 65.6813 377.5 57.4995ZM377.5 57.4995C385 60.4995 396 64.9995 403.5 103M463.5 61.4995C442.5 47.9995 414.5 56.4996 416 70.4996C417.5 84.4996 434 80.1053 442.5 78.4996C451 76.8938 467.5 78.9997 467.5 88.9996C468 109 434.5 104 423 98.9995M309 103C314 97.0002 321 89.4996 323.5 72.4997C326 55.4997 307.5 50.4996 299.5 59.4997C291.5 68.4997 292.5 75.9999 292 77.4997C291.5 75.9999 292.5 68.4997 284.5 59.4997C276.5 50.4996 258 55.4997 260.5 72.4997C263 89.4996 270 97.0001 275 103" stroke="#500022" stroke-width="16" stroke-linecap="round" stroke-linejoin="round"/>
<path d="M373.5 53.4995C353.5 45.3177 337.948 61.9995 339.5 76.9995C341.051 91.9995 353 102.999 371.5 97.4995C390 91.9995 393.5 61.6813 373.5 53.4995ZM373.5 53.4995C381 56.4995 392 60.9995 399.5 98.9997M459.5 57.4995C438.5 43.9995 410.5 52.4996 412 66.4996C413.5 80.4996 430 76.1053 438.5 74.4996C447 72.8938 463.5 74.9997 463.5 84.9996C464 105 430.5 100 419 95M305 98.9999C310 93.0002 317 85.4996 319.5 68.4997C322 51.4997 303.5 46.4996 295.5 55.4997C287.5 64.4997 288.5 71.9999 288 73.4997C287.5 71.9999 288.5 64.4997 280.5 55.4997C272.5 46.4996 254 51.4997 256.5 68.4997C259 85.4996 266 93.0001 271 98.9999" stroke="#FF341C" stroke-width="16" stroke-linecap="round" stroke-linejoin="round"/>
<path d="M218.5 62.5C201.5 46.5001 174.769 61 178 82C181.231 103 206 110.5 221 93.5M238 55C239 60.5 241.5 82 241.5 103" stroke="#34394A" stroke-width="16" stroke-linecap="round" stroke-linejoin="round"/>
<path d="M214.5 58.5C197.5 42.5001 170.769 57 174 78C177.231 99 202 106.5 217 89.5M234 51C235 56.5 237.5 78 237.5 99" stroke="white" stroke-width="16" stroke-linecap="round" stroke-linejoin="round"/>
<path d="M136 57.4999C116 49.3181 100.449 65.9999 102 80.9999C103.552 95.9999 115.5 107 134 101.5C152.5 96 156 65.6817 136 57.4999ZM136 57.4999C143.5 60.4999 154.5 65 162 103M68.0004 103C73.0001 97.0005 80.0003 89.4999 82.5003 72.4999C85.0003 55.4999 66.5002 50.4999 58.5002 59.4999C50.5002 68.4999 51.5005 76.0001 51.0002 77.4999C50.4999 76.0001 51.5002 68.4999 43.5002 59.4999C35.5002 50.4999 17.0001 55.4999 19.5001 72.4999C22.0001 89.4999 29.0001 97.0003 33.9999 103" stroke="#021757" stroke-width="16" stroke-linecap="round" stroke-linejoin="round"/>
<path d="M132 53.4999C112 45.3181 96.4485 61.9999 98.0002 76.9999C99.5519 91.9999 111.5 103 130 97.5C148.5 92 152 61.6817 132 53.4999ZM132 53.4999C139.5 56.4999 150.5 61 158 99.0001M64.0004 99.0002C69.0001 93.0005 76.0003 85.4999 78.5003 68.4999C81.0003 51.4999 62.5002 46.4999 54.5002 55.4999C46.5002 64.4999 47.5005 72.0001 47.0002 73.4999C46.4999 72.0001 47.5002 64.4999 39.5002 55.4999C31.5002 46.4999 13.0001 51.4999 15.5001 68.4999C18.0001 85.4999 25.0001 93.0003 29.9999 99.0001" stroke="#4169E1" stroke-width="16" stroke-linecap="round" stroke-linejoin="round"/>
<g clip-path="url(#clip2_1027_246)">
<path d="M101.819 43.8456C101.819 43.8456 102.386 45.3816 102.619 46.6411C102.816 47.7081 102.742 48.649 103.191 49.618C103.561 50.4168 104.49 50.7078 107.408 49.2728C109.885 48.0509 110.338 46.8412 109.713 45.816C109.131 44.8649 108.329 44.3393 107.513 43.3164C106.926 42.5785 106.306 41.6607 106.306 41.6607L101.819 43.8456Z" fill="#835D4E"/>
<path d="M90.5169 13.7864L85.4014 19.3928L81.5677 22.2855C81.5677 22.2855 81.393 23.1821 82.4346 23.5937C83.1869 23.8887 84.1831 23.8655 85.2784 23.3146C86.5114 22.6928 86.7592 21.9556 87.1076 22.2938C87.4561 22.632 86.2824 24.5155 85.6338 25.5418C84.9851 26.5681 82.4292 29.0771 82.997 30.5074C83.435 31.606 84.836 31.7636 85.4341 31.6615C86.1957 31.5301 87.1038 31.007 87.3902 30.896C87.6767 30.785 88.0269 31.2598 87.8111 31.7835C87.5971 32.3108 86.7446 33.1993 86.1749 33.8366C85.6053 34.474 83.2035 36.9264 82.9038 37.2871C82.604 37.6479 82.5223 38.5561 83.3688 39.3982C84.2189 40.2385 85.7857 40.3977 87.048 40.2328C88.3102 40.0679 88.5248 39.7464 88.5248 39.7464C88.5248 39.7464 88.675 40.4022 88.391 41.1581C88.107 41.9139 87.3474 44.5739 87.3474 44.5739C87.3474 44.5739 84.2079 46.2976 84.0467 46.6694C83.8855 47.0412 83.9955 47.6902 84.3966 48.1571C84.7977 48.6239 85.8955 49.7581 88.8087 49.1866C91.7218 48.6152 93.041 47.005 93.041 47.005C93.041 47.005 93.0334 49.0526 95.3587 48.8254C97.1127 48.6545 98.9812 46.8298 99.4603 46.3903C99.9395 45.9509 101.473 44.134 101.473 44.134C101.473 44.134 102.662 45.134 104.865 44.1177C107.198 43.0433 108.22 41.1052 108.22 41.1052C108.22 41.1052 112.371 41.4075 114.265 39.1435C115.635 37.5071 114.176 36.0459 114.176 36.0459C114.176 36.0459 117.517 34.9973 119.29 32.9607C121.063 30.9241 120.791 29.5247 120.477 28.9165C120.164 28.3082 119.012 28.2514 118.619 28.4858C118.227 28.7201 116.961 29.1893 116.095 29.251C115.228 29.3127 114.017 29.3094 114.017 29.3094C114.017 29.3094 112.079 29.6211 110.509 29.2432C109.857 29.0891 109.699 28.6666 110.345 28.3016C110.99 27.9366 112.998 26.9245 113.715 25.5057C114.467 24.0136 114.066 23.2352 113.823 22.9158C113.473 22.4592 112.833 22.5326 112.833 22.5326C112.833 22.5326 107.496 23.4509 107.329 23.3765C107.162 23.302 105.996 22.8445 105.881 22.8077C105.766 22.7709 104.225 22.9556 104.308 22.4318C104.391 21.9079 105.851 21.1412 106.24 19.8321C106.693 18.3018 105.943 17.5149 105.431 17.3299C104.919 17.145 104.23 17.2664 104.23 17.2664C104.23 17.2664 103.285 18.1707 102.813 18.1892C102.341 18.2078 99.6353 17.4031 99.6353 17.4031C99.6353 17.4031 97.6544 17.3382 97.5381 17.0682C97.3805 16.7004 99.1222 16.2654 100.193 15.1865C101.156 14.2183 100.701 13.4442 100.474 13.181C100.119 12.7682 99.6022 12.7873 99.2189 12.7283C98.8339 12.6747 90.5169 13.7864 90.5169 13.7864Z" fill="#0A7C1F"/>
<path d="M85.5614 10.5028C85.5614 10.5028 85.6333 13.0869 84.913 15.8411C83.7682 20.2163 81.5498 22.3222 81.5498 22.3222C81.5498 22.3222 82.3757 23.1154 84.0982 22.1633C86.0451 21.0864 87.9023 18.3419 87.9023 18.3419C87.9023 18.3419 89.6031 19.7746 91.0895 20.3557C92.8743 21.0533 94.679 21.3007 95.6495 19.9297C96.0147 19.4115 95.5562 18.2731 94.5651 17.8263C92.1288 16.7268 93.1518 16.3736 93.3054 16.4136C93.3054 16.4136 94.9212 16.7125 97.0334 15.5916C99.1455 14.4708 99.217 12.7338 99.217 12.7338C99.217 12.7338 95.8236 12.6226 93.0683 11.5088C90.3129 10.3951 88.0053 9.40334 88.0053 9.40334L85.5614 10.5028Z" fill="#02AB48"/>
<path d="M90.0874 21.9584C90.0857 21.9639 89.2652 23.3858 87.8298 23.9882C87.2082 24.2491 86.555 24.0221 86.555 24.0221C86.555 24.0221 85.6008 25.5313 85.103 26.2279C84.4888 27.0898 83.6373 28.0695 83.2834 28.7697C83.1092 29.1161 82.9403 29.7485 82.9403 29.7485C82.9403 29.7485 83.6264 30.5817 85.4004 29.6672C87.1744 28.7528 88.2479 27.9107 89.4944 27.653C90.7409 27.3954 93.3142 28.2181 94.5053 27.6041C95.6964 26.9901 95.7097 24.9624 96.8502 24.3745C97.9906 23.7866 98.5952 24.2127 100.435 23.4887C102.275 22.7647 104.515 20.327 104.835 19.3922C105.268 18.1244 104.233 17.2646 104.233 17.2646C104.233 17.2646 102.892 17.3922 101.643 17.4222C100.561 17.4482 99.65 17.4139 99.65 17.4139C99.65 17.4139 99.4797 18.0791 99.0105 18.2889C98.5412 18.4987 97.7515 18.5758 97.4284 19.2557C97.1052 19.9355 97.1151 20.7369 96.1418 21.4357C93.7491 23.1502 90.0874 21.9584 90.0874 21.9584Z" fill="#02AB48"/>
<path d="M82.8967 37.3092C82.8967 37.3092 83.162 38.7305 85.2574 38.6172C87.3527 38.504 90.2006 36.179 90.4255 36.251C90.6505 36.3229 88.6535 39.2494 90.7343 39.7303C93.2207 40.3044 95.4285 33.6353 95.7217 33.4842C96.015 33.333 98.0241 36.866 100.145 36.5885C102.265 36.311 102.664 32.7647 103.585 31.8826C104.505 31.0005 105.796 31.5585 107.23 30.8923C109.123 30.0128 109.778 29.0611 109.5 28.2374C109.222 27.4138 106.873 26.8835 107.073 26.4092C107.273 25.9349 108.448 26.7038 110.823 25.2554C113.197 23.8071 112.847 22.5253 112.847 22.5253L105.868 22.8189C105.868 22.8189 105.57 24.1415 104.354 24.805C103.138 25.4685 99.7551 26.543 98.7052 27.5287C97.6553 28.5144 97.9975 30.1206 95.9 31.0919C93.8024 32.0632 91.712 31.3949 90.6507 32.7942C89.5895 34.1936 89.0019 35.5872 87.9717 35.5088C87.379 35.4614 87.2208 35.0389 86.9415 34.3993C86.7278 33.9137 86.6532 33.3244 86.6532 33.3244L82.8967 37.3092Z" fill="#02AB48"/>
<path d="M84.0396 46.6914C84.0396 46.6914 85.9412 48.4423 89.7897 46.4585C93.077 44.7639 93.2913 42.3439 93.6453 41.5015C93.9956 40.661 94.0676 39.6983 94.4328 39.9179C94.798 40.1374 93.8281 43.6252 93.3818 44.9551C93.1322 45.6977 92.9928 46.9473 94.2456 47.0576C95.4985 47.1679 97.5651 45.7543 98.958 44.0648C100.351 42.3753 100.051 40.5136 100.051 40.5136C100.051 40.5136 98.4427 40.6828 97.3605 39.1969C96.2783 37.7109 95.8532 37.064 95.2945 37.2603C94.734 37.453 92.5815 42.3981 89.7768 42.6021C88.4427 42.6987 88.3822 41.1856 88.3822 41.1856C88.3822 41.1856 87.7579 42.5614 86.6203 43.8305C85.7487 44.7977 84.0396 46.6914 84.0396 46.6914Z" fill="#02AB48"/>
<path d="M100.839 40.2634C100.839 40.2634 101.122 41.9505 101.399 42.2568C101.925 42.8423 102.948 43.1995 104.548 42.2143C106.15 41.2328 106.745 40.1379 106.441 39.6024C106.138 39.0669 104.363 38.2544 104.705 37.6381C105.047 37.0218 105.829 37.6225 106.787 38.2009C107.745 38.7793 111.411 40.3446 113.131 37.8222C114.703 35.513 110.567 34.6804 110.972 33.9995C111.377 33.3187 113.47 33.9032 115.578 32.6931C119.311 30.5486 118.86 28.3936 118.86 28.3936C118.86 28.3936 117.202 28.7765 116.243 28.9869C115.283 29.1973 114.019 29.313 114.019 29.313C114.019 29.313 112.756 31.0683 110.335 32.2203C107.913 33.3723 106.009 33.1625 105.081 33.8608C104.153 34.559 104.123 36.3938 103.279 37.8688C102.106 39.9217 100.839 40.2634 100.839 40.2634Z" fill="#02AB48"/>
<path d="M88.7173 9.94844C88.7291 10.0248 89.2269 12.4306 88.6006 12.7535C87.9706 13.0782 85.7689 11.3583 85.7689 11.3583C85.7689 11.3583 83.5358 12.4223 83.2796 12.1741C82.9477 11.8503 83.6694 9.36571 83.6694 9.36571C83.6694 9.36571 82.202 7.21231 82.3506 6.86072C82.517 6.46336 85.2735 6.77918 85.2735 6.77918C85.2735 6.77918 86.7448 4.51309 87.2213 4.59284C87.7032 4.67435 88.0904 6.97221 88.0904 6.97221C88.0904 6.97221 90.463 7.47675 90.523 7.91322C90.5849 8.35331 88.7173 9.94844 88.7173 9.94844Z" fill="#FCC11A"/>
<path d="M83.7026 7.03891C83.6494 7.15798 84.0583 7.52457 84.7816 7.82535C85.5049 8.12614 86.0475 8.40546 86.1528 8.36955C86.2561 8.33002 86.4803 7.15591 86.5777 6.78491C86.6788 6.41203 86.6909 5.76882 86.5702 5.73023C86.3508 5.66007 85.5283 7.22046 85.5283 7.22046C85.5283 7.22046 83.7931 6.84106 83.7026 7.03891Z" fill="#FEE56B"/>
<path d="M83.4131 11.7845C83.5572 11.8064 85.6241 9.52202 85.5931 9.37302C85.5545 9.20043 84.5735 9.27081 84.2936 9.32344C84.0137 9.37607 83.7697 9.97842 83.592 10.6382C83.435 11.1958 83.2944 11.7677 83.4131 11.7845Z" fill="#FEE56B"/>
<path d="M89.5863 13.368C88.3068 14.0505 88.1901 15.2287 88.7533 16.2857C89.3164 17.3426 90.4517 17.6693 91.6462 17.0352C92.8408 16.4011 93.0416 15.2528 92.4028 14.1203C91.8478 13.1324 90.7482 12.7507 89.5863 13.368Z" fill="#FF5F5E"/>
<path d="M98.2543 17.9867C96.9748 18.6692 96.7181 20.0114 97.2812 21.0683C97.8444 22.1252 99.0809 22.5326 100.362 21.8538C101.676 21.1581 101.848 19.8735 101.206 18.7428C100.653 17.7586 99.4163 17.3695 98.2543 17.9867Z" fill="#FCD81E"/>
<path d="M89.7901 22.8219C88.449 23.5361 88.2101 24.8416 88.8087 25.9673C89.4073 27.093 90.7267 27.4302 91.9737 26.7645C93.2225 26.1024 93.4529 24.8426 92.7732 23.6395C92.1809 22.5884 91.0063 22.1766 89.7901 22.8219Z" fill="#DF0E2B"/>
<path d="M89.7588 31.5172C88.4013 32.2353 88.2468 33.5889 88.8715 34.7653C89.4999 35.9399 90.7285 36.2964 92.0478 35.5933C93.3672 34.8903 93.5938 33.6142 92.8842 32.3532C92.2659 31.2605 91.0474 30.8346 89.7588 31.5172Z" fill="#FFD2B1"/>
<path d="M98.4344 29.6525C97.01 30.4097 96.8822 31.7174 97.5106 32.892C98.139 34.0665 99.3986 34.4299 100.722 33.725C102.045 33.0201 102.271 31.744 101.563 30.4866C100.945 29.3939 99.7267 28.9681 98.4344 29.6525Z" fill="#FCD81E"/>
<path d="M104.259 24.0611C102.824 24.8238 102.635 26.1906 103.267 27.3815C103.903 28.5705 105.2 29.0246 106.539 28.3158C107.873 27.6053 108.142 26.1884 107.421 24.9148C106.797 23.8021 105.566 23.3691 104.259 24.0611Z" fill="#FF5F5D"/>
<path d="M110.264 33.888C109.648 32.5329 108.508 32.2409 107.388 32.7356C106.268 33.2303 105.788 34.3165 106.344 35.583C106.901 36.8496 108.067 37.2888 109.268 36.7202C110.315 36.2264 110.854 35.1832 110.264 33.888Z" fill="#C9C9C9"/>
<path d="M94.6133 39.4766C93.2794 40.1871 93.1523 41.3983 93.7285 42.4805C94.3047 43.5628 95.4819 43.8908 96.7235 43.2325C97.9651 42.5741 98.1837 41.3891 97.5282 40.2331C96.9583 39.2164 95.824 38.8296 94.6133 39.4766Z" fill="#FF5F5E"/>
<path d="M94.3652 42.1066C94.8645 42.115 94.7199 41.4701 94.8146 41.1738C94.9093 40.8776 95.2029 40.3092 94.831 40.1389C94.4591 39.9686 93.9711 40.4264 93.8599 40.8686C93.7069 41.4607 93.9589 42.1007 94.3652 42.1066Z" fill="#F9FFFF"/>
<path d="M107.173 35.4307C107.673 35.4392 107.544 34.7813 107.591 34.4729C107.654 34.0786 108.064 33.6199 107.694 33.4533C107.322 33.283 106.872 33.7439 106.759 34.1825C106.606 34.7746 106.765 35.4212 107.173 35.4307Z" fill="#F9FFFF"/>
<path d="M104.016 26.8621C104.561 26.8609 104.403 26.1542 104.481 25.7889C104.551 25.4638 104.975 24.9339 104.57 24.7622C104.165 24.5905 103.661 25.0521 103.526 25.5201C103.348 26.1526 103.572 26.8621 104.016 26.8621Z" fill="#F9FFFF"/>
<path d="M98.2702 32.4453C98.7694 32.4537 98.6249 31.8088 98.7196 31.5125C98.8143 31.2162 99.0538 30.5429 98.6819 30.3726C98.31 30.2023 97.8494 30.6689 97.7649 31.2073C97.6721 31.8096 97.8639 32.4394 98.2702 32.4453Z" fill="#F9FFFF"/>
<path d="M89.5748 34.3249C90.074 34.3334 90.0142 33.6127 90.0723 33.3078C90.1853 32.718 90.3846 32.3311 90.0127 32.1608C89.6408 31.9905 89.1648 32.5429 89.0676 33.0833C88.9658 33.6857 89.1721 34.3171 89.5748 34.3249Z" fill="#F9FFFF"/>
<path d="M89.5833 25.5497C90.0826 25.5581 89.9928 24.9216 90.0327 24.6169C90.0944 24.1498 90.3959 23.6324 90.024 23.4621C89.6521 23.2918 89.191 23.7219 89.0781 24.3117C88.9633 24.907 89.1752 25.5402 89.5833 25.5497Z" fill="#F9FFFF"/>
<path d="M98.2132 20.8674C98.7599 20.8789 98.5999 20.1686 98.7034 19.8448C98.8069 19.5211 99.1308 18.8959 98.7241 18.7115C98.3174 18.527 97.7825 19.0273 97.6591 19.5079C97.4904 20.1585 97.7668 20.8638 98.2132 20.8674Z" fill="#F9FFFF"/>
<path d="M89.2941 15.9657C89.7933 15.9741 89.6488 15.3292 89.7435 15.0329C89.8382 14.7367 90.1318 14.1683 89.7599 13.998C89.388 13.8277 89.0138 14.213 88.8841 14.7703C88.7511 15.3658 88.8878 15.9598 89.2941 15.9657Z" fill="#F9FFFF"/>
<path d="M85.3513 18.4334C84.7937 18.7208 84.6635 19.0904 84.8757 19.6088C85.0805 20.1127 85.534 20.2547 85.9997 20.0558C86.6521 19.7745 86.5788 19.1524 86.4071 18.8193C86.2094 18.4447 85.7242 18.2412 85.3513 18.4334Z" fill="#F9C319"/>
<path d="M88.84 19.3249C88.2163 19.2707 87.9135 19.6788 87.843 20.0222C87.7415 20.5098 88.0556 21.0124 88.5567 21.0244C89.2109 21.0401 89.5099 20.6156 89.5476 20.2799C89.607 19.7727 89.3014 19.3666 88.84 19.3249Z" fill="#F9C319"/>
<path d="M91.4928 19.2267C91.058 19.5654 91.0332 20.0685 91.3793 20.5088C91.6495 20.8552 92.2131 20.9084 92.5934 20.5794C93.1342 20.1173 92.8739 19.5413 92.6102 19.2785C92.3187 18.9797 91.8285 18.9712 91.4928 19.2267Z" fill="#F9C319"/>
<path d="M96.4108 13.8505C95.7955 13.7323 95.4137 14.0941 95.3331 14.4977C95.2404 14.9579 95.437 15.3927 95.9232 15.527C96.499 15.6838 96.9486 15.2138 97.0136 14.8687C97.0908 14.476 96.8235 13.931 96.4108 13.8505Z" fill="#F9C319"/>
<path d="M94.9483 17.1293C94.3872 17.4186 94.2533 17.79 94.4601 18.3067C94.663 18.807 95.1421 18.9541 95.6114 18.7534C96.271 18.4684 96.1758 17.8392 96.006 17.5098C95.8174 17.135 95.3285 16.9334 94.9483 17.1293Z" fill="#F9C319"/>
<path d="M87.5425 27.5915C86.9705 27.8864 86.8349 28.2633 87.0454 28.7872C87.252 29.2947 87.7146 29.4366 88.1912 29.2322C88.8635 28.9452 88.7883 28.3103 88.6166 27.9772C88.4207 27.5971 87.9263 27.3937 87.5425 27.5915Z" fill="#F9C319"/>
<path d="M91.1376 28.2358C90.4977 28.3457 90.2867 28.6653 90.2992 29.2408C90.3104 29.707 90.7471 30.1097 91.2653 30.0304C92.0108 29.9119 92.1201 29.324 92.0535 28.9459C91.9827 28.515 91.5666 28.1613 91.1376 28.2358Z" fill="#F9C319"/>
<path d="M95.7588 28.8092C95.4458 28.2374 95.0453 28.1185 94.4963 28.3603C93.9582 28.5964 93.8166 29.0773 94.0375 29.5591C94.3482 30.233 95.0136 30.1282 95.3628 29.9345C95.7608 29.711 95.9713 29.1947 95.7588 28.8092Z" fill="#F9C319"/>
<path d="M97.9752 26.3882C97.3778 26.6962 97.2369 27.0896 97.4568 27.6407C97.6729 28.1754 98.1556 28.3207 98.6558 28.1087C99.3571 27.8067 99.2815 27.1446 99.1005 26.7934C98.8952 26.3951 98.377 26.1811 97.9752 26.3882Z" fill="#F9C319"/>
<path d="M100.809 23.6171C100.251 23.9045 100.121 24.2741 100.333 24.7925C100.538 25.2964 100.991 25.4384 101.457 25.2395C102.109 24.9583 102.036 24.3361 101.864 24.0031C101.669 23.632 101.181 23.4249 100.809 23.6171Z" fill="#F9C319"/>
<path d="M102.678 21.7687C103.046 22.2068 103.527 22.1973 103.945 21.826C104.351 21.4657 104.336 20.9923 103.992 20.6194C103.512 20.097 102.946 20.3754 102.692 20.6482C102.404 20.9523 102.41 21.4441 102.678 21.7687Z" fill="#F9C319"/>
<path d="M110.156 24.3709C109.627 24.6434 109.504 25.0002 109.705 25.4968C109.901 25.9826 110.334 26.1212 110.78 25.9281C111.403 25.6617 111.328 25.0633 111.164 24.7447C110.979 24.3863 110.514 24.1862 110.156 24.3709Z" fill="#F9C319"/>
<path d="M109.946 28.026C109.685 27.3862 109.294 27.207 108.708 27.3855C108.138 27.5601 107.942 28.0416 108.114 28.5714C108.357 29.3172 109.047 29.2959 109.426 29.1419C109.853 28.9672 110.122 28.4574 109.946 28.026Z" fill="#F9C319"/>
<path d="M106.407 30.3268C105.834 30.6544 105.722 31.2205 106.057 31.7811C106.384 32.3273 106.941 32.4024 107.449 32.081C108.161 31.6314 107.965 30.9215 107.705 30.5694C107.414 30.1741 106.841 30.0755 106.407 30.3268Z" fill="#F9C319"/>
<path d="M103.635 33.2866C102.998 33.5185 102.821 34.0544 103.061 34.6544C103.296 35.2345 103.823 35.3847 104.376 35.1593C105.271 34.7985 105.066 34.1069 104.868 33.7232C104.646 33.2923 104.101 33.1151 103.635 33.2866Z" fill="#F9C319"/>
<path d="M99.6267 35.9391C99.0533 36.2668 98.9418 36.8329 99.2766 37.3935C99.604 37.9396 100.161 38.0147 100.668 37.6933C101.381 37.2437 101.184 36.5338 100.925 36.1818C100.638 35.7846 100.063 35.6915 99.6267 35.9391Z" fill="#F9C319"/>
<path d="M95.3406 36.7096C94.7781 37.0317 94.7127 37.6427 94.9956 38.1293C95.3028 38.6629 95.8556 38.7308 96.3526 38.415C97.0504 37.9728 96.8597 37.2829 96.6114 36.9435C96.3243 36.5554 95.7639 36.4639 95.3406 36.7096Z" fill="#F9C319"/>
<path d="M91.1465 37.0982C90.5839 37.4203 90.4741 37.9718 90.7996 38.5143C91.1176 39.0423 91.6541 39.1141 92.1512 38.7982C92.8489 38.3561 92.6601 37.6698 92.41 37.3268C92.1302 36.944 91.5716 36.8562 91.1465 37.0982Z" fill="#F9C319"/>
<path d="M87.5578 35.4701C87.073 35.7475 86.9805 36.2259 87.2669 36.7015C87.5458 37.1626 88.0112 37.2298 88.4396 36.9585C89.0415 36.5795 88.8738 35.9786 88.6516 35.6807C88.4088 35.343 87.9232 35.2634 87.5578 35.4701Z" fill="#F9C319"/>
</g>
<g clip-path="url(#clip3_1027_246)">
<path d="M199.753 32.707C199.753 32.707 204.202 27.5801 204.818 26.9495C205.274 26.4869 205.879 25.887 206.622 26.463C207.341 27.0185 206.857 27.9809 206.456 28.5246C205.916 29.2576 201.309 34.6427 201.309 34.6427L199.753 32.707Z" fill="#474D50"/>
<path d="M201.884 26.2716C201.093 26.6563 201.334 27.6164 201.612 28.5536C201.891 29.4907 202.203 31.1229 202.203 31.1229L203.703 28.8873C203.703 28.8873 203.502 28.2255 203.399 27.6331C203.296 27.0407 202.903 25.7771 201.884 26.2716Z" fill="#474D50"/>
<path d="M178.247 35.3985C178.247 35.3985 172.718 32.1487 172.225 31.8015C171.563 31.3351 170.566 31.1041 170.096 31.9114C169.629 32.7141 170.201 33.4435 170.816 33.8768C171.972 34.6904 177.82 38.1157 177.82 38.1157L178.247 35.3985Z" fill="#474D50"/>
<path d="M174.181 34.0431C174.181 34.0431 174.044 32.5867 173.997 31.9846C173.95 31.3824 174.109 30.2827 175.129 30.4808C175.987 30.6493 175.993 31.609 176.013 32.3889C176.025 32.9312 176.037 34.8793 176.037 34.8793L174.181 34.0431Z" fill="#474D50"/>
<path d="M185.204 3.91718C181.668 4.31256 179.053 5.42233 179.025 5.95082C178.998 6.4793 180.25 13.8362 180.25 13.8362C180.25 13.8362 175.442 14.8774 175.569 16.1295C175.695 17.3569 178.548 17.7316 185.823 16.6703C193.097 15.609 196.502 14.8405 196.435 13.4337C196.357 11.8226 191.918 12.3297 191.918 12.3297C191.918 12.3297 191.629 4.66094 191.449 4.45712C191.27 4.2533 188.962 3.49959 185.204 3.91718Z" fill="#474D50"/>
<path d="M185.75 11.0792C183.03 11.4403 179.976 12.2552 179.976 12.2552L180.25 13.8322C180.25 13.8322 182.698 13.2338 185.787 12.7841C188.875 12.3343 191.918 12.3296 191.918 12.3296L191.85 10.7746C191.85 10.7746 189.353 10.5979 185.75 11.0792Z" fill="#A42718"/>
<path d="M180.158 31.8464C180.158 31.8464 177.342 29.9481 176.73 24.8095C176.1 19.5215 179.41 16.8561 180.429 16.3617C181.444 15.8679 183.807 15.2514 186.304 14.9332C188.801 14.615 192.107 14.4202 192.743 14.5695C193.38 14.7188 197.187 16.412 198.121 21.6266C199.004 26.5449 196.653 29.39 196.653 29.39C196.653 29.39 202.296 32.088 203.738 36.8269C205.18 41.5697 203.58 46.1483 199.941 49.0563C195.795 52.3698 187.776 54.1087 182.145 51.1034C178.123 48.9528 176.154 44.9075 176.13 40.9658C176.094 36.0858 180.158 31.8464 180.158 31.8464Z" fill="#E0E0E0"/>
<path d="M181.942 21.6777C180.741 21.6719 180.478 22.7236 180.527 23.4532C180.574 24.1789 180.995 25.1077 181.8 25.1083C182.671 25.1137 183.239 24.3758 183.148 23.1876C183.075 22.1489 182.503 21.6792 181.942 21.6777Z" fill="#303030"/>
<path d="M190.672 21.9223C190.768 22.9943 191.538 23.512 192.266 23.4062C193.022 23.2956 193.474 22.5491 193.343 21.442C193.223 20.4196 192.571 20.0093 191.798 20.1394C191.004 20.2731 190.595 21.0246 190.672 21.9223Z" fill="#303030"/>
<path d="M184.79 27.1785C184.404 27.6373 185.015 28.3064 186.076 28.5797C187.186 28.8653 188.943 28.7044 190.188 27.779C190.831 27.3004 191.102 26.606 190.68 26.3577C190.326 26.1511 189.932 26.3969 189.543 26.6994C189.141 27.0167 188.416 27.3075 187.812 27.3917C187.208 27.476 186.375 27.3073 186.066 27.1879C185.571 27.0015 185.159 26.7392 184.79 27.1785Z" fill="#303030"/>
<path d="M185.688 23.7528C185.67 23.9867 187.238 26.506 187.752 26.3589C188.263 26.2125 188.631 23.2252 188.523 23.0296C188.414 22.8299 187.54 22.8826 187.05 22.9801C186.56 23.0776 185.705 23.5189 185.688 23.7528Z" fill="#FFA72B"/>
<path d="M187.609 36.4323C187.849 37.8131 189.066 37.7668 189.596 37.6624C190.377 37.5061 190.958 36.8156 190.748 35.8666C190.538 34.9176 189.953 34.5656 188.992 34.683C188.132 34.791 187.454 35.5397 187.609 36.4323Z" fill="#303030"/>
<path d="M188.852 42.187C188.983 43.0383 190.341 43.2602 191.011 43.0365C191.838 42.7611 192.306 41.6365 191.846 40.7928C191.333 39.8552 190.292 40.0359 189.782 40.2318C189.268 40.4283 188.669 41.0147 188.852 42.187Z" fill="#303030"/>
</g>
<g clip-path="url(#clip4_1027_246)">
<path d="M231.251 33.6751C226.218 33.0788 222.038 29.899 222.057 24.8299C222.077 19.7608 226.081 16.4191 231.084 15.255C240.807 12.9999 297.346 4.39276 297.346 4.39276C297.346 4.39276 307.325 10.4207 306.97 21.2201C306.615 32.0194 297.954 38.6128 297.954 38.6128C297.954 38.6128 241.435 34.8878 231.251 33.6751Z" fill="url(#paint4_linear_1027_246)"/>
<path opacity="0.5" d="M227.015 18.0449C233.156 16.4686 255.659 13.3507 267.149 13.4525C278.636 13.5583 282.147 13.4695 292.085 14.4394C294.419 14.6692 298.788 18.6123 298.531 22.3232C298.246 26.4801 294.638 29.3055 292.644 29.9455C291.21 30.4047 275.562 32.5423 266.814 32.4982C258.066 32.454 230.194 32.4546 226.591 31.3878C222.992 30.3169 222.202 26.8751 222.06 24.6651C221.921 22.451 224.39 18.7238 227.015 18.0449Z" fill="url(#paint5_linear_1027_246)"/>
<path d="M228.101 19.4514C228.101 19.4514 249.125 19.4807 260.991 20.2816C286.619 22.0037 271.449 25.4171 228.78 29.4844C228.783 29.4804 223.09 27.132 228.101 19.4514Z" fill="url(#paint6_linear_1027_246)"/>
<path d="M232.915 24.3004C232.905 27.0782 230.653 29.4104 227.885 29.5113C225.117 29.6122 222.881 27.4386 222.891 24.6608C222.901 21.883 225.153 19.5508 227.921 19.4499C230.693 19.3527 232.924 21.5226 232.915 24.3004Z" fill="#E0F7FA"/>
<path d="M230.312 28.3952C230.535 28.5944 230.877 28.5753 231.076 28.3526C231.275 28.1299 231.256 27.788 231.034 27.5888C230.811 27.3897 230.469 27.4088 230.27 27.6315C230.071 27.8541 230.09 28.1961 230.312 28.3952Z" fill="white"/>
<path d="M234.554 22.0294C234.777 22.2285 235.119 22.2094 235.318 21.9867C235.517 21.7641 235.498 21.4221 235.275 21.223C235.052 21.0239 234.71 21.0429 234.511 21.2656C234.312 21.4883 234.331 21.8302 234.554 22.0294Z" fill="white"/>
<path d="M238.07 18.0982C238.292 18.2974 238.634 18.2783 238.833 18.0556C239.032 17.8329 239.013 17.491 238.791 17.2918C238.568 17.0927 238.226 17.1118 238.027 17.3345C237.828 17.5571 237.847 17.8991 238.07 18.0982Z" fill="white"/>
<path d="M226.01 25.092C226.4 25.4405 226.998 25.407 227.347 25.0174C227.695 24.6277 227.662 24.0293 227.272 23.6808C226.882 23.3323 226.284 23.3657 225.935 23.7554C225.587 24.1451 225.62 24.7435 226.01 25.092Z" fill="white"/>
<path d="M234.497 26.1506C234.887 26.499 235.485 26.4656 235.833 26.076C236.182 25.6863 236.149 25.0879 235.759 24.7394C235.369 24.3909 234.771 24.4243 234.422 24.814C234.074 25.2037 234.107 25.8021 234.497 26.1506Z" fill="white"/>
<path d="M240.251 24.5844C240.641 24.9329 241.239 24.8995 241.588 24.5098C241.936 24.1201 241.903 23.5217 241.513 23.1732C241.123 22.8247 240.525 22.8581 240.176 23.2478C239.828 23.6375 239.861 24.2359 240.251 24.5844Z" fill="white"/>
<path d="M229.33 22.7999C229.72 23.1483 230.318 23.1149 230.666 22.7252C231.015 22.3356 230.982 21.7372 230.592 21.3887C230.202 21.0402 229.604 21.0736 229.255 21.4633C228.907 21.853 228.94 22.4514 229.33 22.7999Z" fill="white"/>
<path d="M242.741 30.0765C242.964 30.2756 243.306 30.2565 243.505 30.0339C243.704 29.8112 243.685 29.4692 243.462 29.2701C243.24 29.071 242.898 29.0901 242.699 29.3127C242.499 29.5354 242.518 29.8774 242.741 30.0765Z" fill="white"/>
<path d="M252.117 29.5722C252.396 29.8211 252.823 29.7973 253.072 29.5189C253.321 29.2406 253.297 28.8131 253.019 28.5642C252.74 28.3153 252.313 28.3392 252.064 28.6175C251.815 28.8959 251.839 29.3233 252.117 29.5722Z" fill="white"/>
<path d="M248.208 26.4387C248.486 26.6876 248.913 26.6637 249.162 26.3854C249.411 26.107 249.387 25.6796 249.109 25.4307C248.831 25.1818 248.403 25.2056 248.154 25.484C247.905 25.7623 247.929 26.1898 248.208 26.4387Z" fill="white"/>
<path d="M269.593 25.2449C269.871 25.4939 270.298 25.47 270.547 25.1917C270.796 24.9133 270.772 24.4859 270.494 24.237C270.216 23.988 269.788 24.0119 269.539 24.2902C269.29 24.5686 269.314 24.996 269.593 25.2449Z" fill="white"/>
<path d="M257.605 23.2326C257.884 23.4815 258.311 23.4577 258.56 23.1793C258.809 22.901 258.785 22.4735 258.507 22.2246C258.228 21.9757 257.801 21.9996 257.552 22.2779C257.303 22.5563 257.327 22.9837 257.605 23.2326Z" fill="white"/>
<path d="M253.069 19.1762C253.348 19.4251 253.775 19.4013 254.024 19.1229C254.273 18.8446 254.249 18.4171 253.971 18.1682C253.692 17.9193 253.265 17.9432 253.016 18.2215C252.767 18.4999 252.791 18.9273 253.069 19.1762Z" fill="white"/>
<path d="M293.652 27.3494C293.93 27.5984 294.358 27.5745 294.607 27.2961C294.856 27.0178 294.832 26.5904 294.553 26.3414C294.275 26.0925 293.848 26.1164 293.599 26.3947C293.35 26.6731 293.374 27.1005 293.652 27.3494Z" fill="white"/>
<path d="M287.381 21.3789C287.66 21.6278 288.087 21.6039 288.336 21.3256C288.585 21.0472 288.561 20.6198 288.283 20.3709C288.004 20.122 287.577 20.1458 287.328 20.4242C287.079 20.7025 287.103 21.1299 287.381 21.3789Z" fill="white"/>
<path d="M282.863 26.2279C283.142 26.4768 283.569 26.4529 283.818 26.1746C284.067 25.8962 284.043 25.4688 283.765 25.2199C283.486 24.971 283.059 24.9948 282.81 25.2732C282.561 25.5515 282.585 25.9789 282.863 26.2279Z" fill="white"/>
<path d="M268.531 19.9412C268.809 20.1901 269.236 20.1663 269.485 19.8879C269.734 19.6096 269.71 19.1822 269.432 18.9332C269.154 18.6843 268.726 18.7082 268.477 18.9865C268.228 19.2649 268.252 19.6923 268.531 19.9412Z" fill="white"/>
<path d="M260.397 32.0788C260.62 32.2779 260.962 32.2589 261.161 32.0362C261.36 31.8135 261.341 31.4716 261.119 31.2724C260.896 31.0733 260.554 31.0924 260.355 31.3151C260.156 31.5377 260.175 31.8797 260.397 32.0788Z" fill="white"/>
<path d="M264.724 27.2404C264.947 27.4396 265.289 27.4205 265.488 27.1978C265.687 26.9751 265.668 26.6332 265.445 26.434C265.223 26.2349 264.881 26.254 264.682 26.4767C264.483 26.6994 264.502 27.0413 264.724 27.2404Z" fill="white"/>
<path d="M259.142 16.4431C259.364 16.6422 259.706 16.6231 259.905 16.4004C260.104 16.1778 260.085 15.8358 259.863 15.6367C259.64 15.4376 259.298 15.4566 259.099 15.6793C258.9 15.902 258.919 16.2439 259.142 16.4431Z" fill="white"/>
<path d="M254.834 14.7681C255.057 14.9673 255.399 14.9482 255.598 14.7255C255.797 14.5028 255.778 14.1609 255.556 13.9618C255.333 13.7626 254.991 13.7817 254.792 14.0044C254.593 14.2271 254.612 14.569 254.834 14.7681Z" fill="white"/>
<path d="M277.557 16.9475C277.78 17.1466 278.122 17.1275 278.321 16.9048C278.52 16.6822 278.501 16.3402 278.278 16.1411C278.056 15.9419 277.714 15.961 277.514 16.1837C277.315 16.4064 277.334 16.7483 277.557 16.9475Z" fill="white"/>
<path d="M265.268 18.1123C265.546 18.3612 265.974 18.3373 266.223 18.059C266.472 17.7806 266.448 17.3532 266.17 17.1043C265.891 16.8554 265.464 16.8792 265.215 17.1576C264.966 17.4359 264.99 17.8633 265.268 18.1123Z" fill="white"/>
<path d="M264.848 15.7414C265.071 15.9405 265.413 15.9215 265.612 15.6988C265.811 15.4761 265.792 15.1342 265.569 14.935C265.347 14.7359 265.005 14.755 264.806 14.9777C264.607 15.2003 264.626 15.5423 264.848 15.7414Z" fill="white"/>
<path d="M236.269 30.4569C236.492 30.656 236.834 30.6369 237.033 30.4142C237.232 30.1916 237.213 29.8496 236.991 29.6505C236.768 29.4513 236.426 29.4704 236.227 29.6931C236.028 29.9158 236.047 30.2577 236.269 30.4569Z" fill="white"/>
<path d="M248.852 17.4006C249.075 17.5997 249.417 17.5806 249.616 17.358C249.815 17.1353 249.796 16.7933 249.573 16.5942C249.351 16.3951 249.009 16.4142 248.81 16.6368C248.61 16.8595 248.63 17.2015 248.852 17.4006Z" fill="white"/>
<path d="M244.365 19.9838C244.588 20.183 244.93 20.1639 245.129 19.9412C245.328 19.7185 245.309 19.3766 245.086 19.1775C244.864 18.9783 244.522 18.9974 244.323 19.2201C244.123 19.4428 244.142 19.7847 244.365 19.9838Z" fill="white"/>
</g>
<g filter="url(#filter0_f_1027_246)">
<circle cx="230" cy="25" r="7" fill="white"/>
</g>
</g>
<defs>
<filter id="filter0_f_1027_246" x="207" y="2" width="46" height="46" filterUnits="userSpaceOnUse" color-interpolation-filters="sRGB">
<feFlood flood-opacity="0" result="BackgroundImageFix"/>
<feBlend mode="normal" in="SourceGraphic" in2="BackgroundImageFix" result="shape"/>
<feGaussianBlur stdDeviation="8" result="effect1_foregroundBlur_1027_246"/>
</filter>
<linearGradient id="paint0_linear_1027_246" x1="358.397" y1="17.1833" x2="387.49" y2="19.7068" gradientUnits="userSpaceOnUse">
<stop stop-color="#F44336"/>
<stop offset="0.3592" stop-color="#E73B32"/>
<stop offset="1" stop-color="#C62828"/>
</linearGradient>
<linearGradient id="paint1_linear_1027_246" x1="369.92" y1="42.2536" x2="368.997" y2="52.8927" gradientUnits="userSpaceOnUse">
<stop stop-color="#F44336"/>
<stop offset="0.3592" stop-color="#E73B32"/>
<stop offset="1" stop-color="#C62828"/>
</linearGradient>
<linearGradient id="paint2_linear_1027_246" x1="369.799" y1="43.6447" x2="372.381" y2="13.8756" gradientUnits="userSpaceOnUse">
<stop offset="0.4878" stop-color="#F5F5F5"/>
<stop offset="0.8314" stop-color="#BDBDBD"/>
</linearGradient>
<radialGradient id="paint3_radial_1027_246" cx="0" cy="0" r="1" gradientUnits="userSpaceOnUse" gradientTransform="translate(370.716 34.2559) rotate(4.95753) scale(18.2088)">
<stop offset="0.7063" stop-color="white" stop-opacity="0"/>
<stop offset="1" stop-color="#BDBDBD"/>
</radialGradient>
<linearGradient id="paint4_linear_1027_246" x1="307.311" y1="21.0334" x2="229.571" y2="24.8606" gradientUnits="userSpaceOnUse">
<stop stop-color="white" stop-opacity="0"/>
<stop offset="0.1566" stop-color="#D3F0F9" stop-opacity="0.1566"/>
<stop offset="0.3654" stop-color="#9FDFF3" stop-opacity="0.3654"/>
<stop offset="0.5612" stop-color="#76D2EE" stop-opacity="0.5612"/>
<stop offset="0.7383" stop-color="#58C8EA" stop-opacity="0.7383"/>
<stop offset="0.8904" stop-color="#46C2E8" stop-opacity="0.8904"/>
<stop offset="1" stop-color="#40C0E7"/>
</linearGradient>
<linearGradient id="paint5_linear_1027_246" x1="304.763" y1="21.6304" x2="227.368" y2="24.3647" gradientUnits="userSpaceOnUse">
<stop stop-color="white" stop-opacity="0"/>
<stop offset="1" stop-color="#B388FF"/>
</linearGradient>
<linearGradient id="paint6_linear_1027_246" x1="279.977" y1="24.0994" x2="231.564" y2="24.4456" gradientUnits="userSpaceOnUse">
<stop stop-color="white" stop-opacity="0"/>
<stop offset="1" stop-color="#E0F7FA"/>
</linearGradient>
<clipPath id="clip0_1027_246">
<rect width="479" height="115" fill="white"/>
</clipPath>
<clipPath id="clip1_1027_246">
<rect width="48" height="48" fill="white" transform="translate(349.148 4) rotate(4.95753)"/>
</clipPath>
<clipPath id="clip2_1027_246">
<rect width="52.1361" height="52.1361" fill="white" transform="translate(61.0439 16.1805) rotate(-27.2705)"/>
</clipPath>
<clipPath id="clip3_1027_246">
<rect width="52" height="52" fill="white" transform="translate(158 6.89722) rotate(-9.85179)"/>
</clipPath>
<clipPath id="clip4_1027_246">
<rect width="69.235" height="69.235" fill="white" transform="translate(264.031 -26.3505) rotate(41.805)"/>
</clipPath>
</defs>
</svg>
