<svg width="237" height="122" viewBox="0 0 237 122" fill="none" xmlns="http://www.w3.org/2000/svg">
<path d="M20 58.5C24 74.5 22 109.5 22 109.5C27.8333 88.5 32.3837 60.5 52 60.5C75.5 60.5 70.8333 99.8333 66.5 109.5M91 108.5C92.1667 98.6667 93.8 74.3 91 55.5M157.5 65C143 50 116.323 55.5001 113.5 79.5C110.5 105 142.5 115.5 157.5 99.5001M201.5 81C212 86.8333 223 84 224.5 75.5C228.129 54.9371 187 48.5 178 71.5C168.587 95.555 192 120 222.5 103" stroke="#2B2F3E" stroke-width="16" stroke-linecap="round" stroke-linejoin="round"/>
<circle cx="86" cy="28" r="16" fill="#2B2F3E"/>
<path d="M16 54.5C20 70.5 18 105.5 18 105.5C23.8333 84.5 28.3837 56.5 48 56.5C71.5 56.5 66.8333 95.8333 62.5 105.5M87 104.5C88.1667 94.6667 89.8 70.3 87 51.5M153.5 61C139 46 112.323 51.5001 109.5 75.5C106.5 101 138.5 111.5 153.5 95.5001M197.5 77C208 82.8333 219 80 220.5 71.5C224.129 50.9371 183 44.5 174 67.5C164.587 91.555 188 116 218.5 99" stroke="white" stroke-width="16" stroke-linecap="round" stroke-linejoin="round"/>
<circle cx="82" cy="24" r="16" fill="white"/>
</svg>
