<svg width="360" height="270" viewBox="0 0 360 270" fill="none" xmlns="http://www.w3.org/2000/svg">
<rect width="360" height="270" rx="6" fill="white"/>
<path d="M43.75 54H47.75H51.75L49.5938 62H53.5938L52.5312 66H48.5312L45.3125 78H49.3125L48.25 82H44.25H40.25L41.3125 78H37.3125L40.5312 66H36.5312L37.5938 62H41.5938L43.75 54ZM59.7812 54H63.7812H67.7812L65.625 62H73.625H77.625L76.5625 66H80.5625L76.2812 82H72.2812H68.2812L72.5625 66H68.5625L67.5 70H63.5L60.2812 82H56.2812H52.2812L59.7812 54ZM102.719 62H106.719H110.719L105.344 82H101.344H85.3438L86.4375 78H82.4375L86.7188 62H90.7188H94.7188L90.4375 78H98.4375L102.719 62ZM114.719 62H122.719H126.719H130.719H134.719L133.625 66H137.625L133.344 82H129.344H125.344L127.5 74H123.5H119.5L117.344 82H113.344H109.344L114.719 62ZM143.781 54H147.781H151.781L149.625 62H157.625H161.625L160.562 66H164.562L161.344 78H157.344L156.281 82H152.281H136.281L143.781 54ZM156.562 66H152.562L151.5 70H147.5L145.344 78H153.344L156.562 66ZM170.719 62H186.719H190.719L189.625 66H193.625L189.344 82H185.344H181.344L185.625 66H177.625L173.344 82H169.344H165.344L170.719 62ZM202.719 62H214.719H218.719L217.625 66H221.625L217.344 82H213.344H197.344L198.438 78H194.438L195.5 74H199.5L200.562 70H212.562L213.625 66H201.625L202.719 62ZM203.5 74L202.438 78H210.438L211.5 74H203.5ZM225.625 62H229.625H233.625L228.281 82H224.281H220.281L225.625 62ZM227.781 54H231.781H235.781L234.719 58H230.719H226.719L227.781 54ZM239.781 54H243.781H247.781L241.344 78H245.344L244.281 82H240.281H236.281L237.344 78H233.344L239.781 54ZM39.7812 90H43.7812H47.7812L45.625 98H53.625H57.625L56.5625 102H60.5625L56.2812 118H52.2812H48.2812L52.5625 102H48.5625L47.5 106H43.5L40.2812 118H36.2812H32.2812L39.7812 90ZM70.7188 98H82.7188H86.7188L85.625 102H89.625L87.5 110H83.5H71.5L70.4375 114H82.4375H86.4375L85.3438 118H81.3438H65.3438L66.4375 114H62.4375L65.625 102H69.625L70.7188 98ZM72.5625 106H80.5625L81.625 102H73.625L72.5625 106ZM94.7188 98H98.7188H102.719H110.719H114.719L113.625 102H117.625L116.562 106H112.562H108.562L109.625 102H105.625L104.562 106H100.562L97.3438 118H93.3438H89.3438L94.7188 98ZM126.719 98H138.719H142.719L141.625 102H145.625L143.5 110H139.5H127.5L126.438 114H138.438H142.438L141.344 118H137.344H121.344L122.438 114H118.438L121.625 102H125.625L126.719 98ZM128.562 106H136.562L137.625 102H129.625L128.562 106ZM42.7188 134H54.7188H58.7188L57.625 138H61.625L58.4375 150H54.4375L53.3438 154H49.3438H37.3438L38.4375 150H34.4375L37.625 138H41.625L42.7188 134ZM50.4375 150L53.625 138H45.625L42.4375 150H50.4375ZM66.7188 134H70.7188H74.7188H82.7188H86.7188L85.625 138H89.625L88.5625 142H84.5625H80.5625L81.625 138H77.625L76.5625 142H72.5625L69.3438 154H65.3438H61.3438L66.7188 134ZM126.719 134H130.719H134.719L129.344 154H125.344H109.344L110.438 150H106.438L110.719 134H114.719H118.719L116.562 142H120.562H124.562L126.719 134ZM139.781 126H143.781H147.781L145.625 134H153.625H157.625L156.562 138H160.562L156.281 154H152.281H148.281L152.562 138H148.562L147.5 142H143.5L140.281 154H136.281H132.281L139.781 126ZM170.719 134H182.719H186.719L185.625 138H189.625L185.344 154H181.344H165.344L166.438 150H162.438L163.5 146H167.5L168.562 142H180.562L181.625 138H169.625L170.719 134ZM171.5 146L170.438 150H178.438L179.5 146H171.5ZM199.75 126H203.75H207.75L205.594 134H209.594L208.531 138H204.531L201.312 150H205.312L204.25 154H200.25H196.25L197.312 150H193.312L196.531 138H192.531L193.594 134H197.594L199.75 126ZM218.719 134H230.719H234.719L233.625 138H237.625L235.5 146H231.5H219.5L218.438 150H230.438H234.438L233.344 154H229.344H213.344L214.438 150H210.438L213.625 138H217.625L218.719 134ZM220.562 142H228.562L229.625 138H221.625L220.562 142ZM258.719 134H262.719H266.719L263.5 146H259.5L258.438 150H254.438L253.344 154H249.344H245.344L246.438 150H242.438L243.5 146H239.5L242.719 134H246.719H250.719L247.5 146H251.5H255.5L258.719 134ZM274.719 134H286.719H290.719L289.625 138H293.625L291.5 146H287.5H275.5L274.438 150H286.438H290.438L289.344 154H285.344H269.344L270.438 150H266.438L269.625 138H273.625L274.719 134ZM276.562 142H284.562L285.625 138H277.625L276.562 142ZM298.719 134H302.719H306.719H314.719H318.719L317.625 138H321.625L320.562 142H316.562H312.562L313.625 138H309.625L308.562 142H304.562L301.344 154H297.344H293.344L298.719 134ZM42.7188 206H54.7188H58.7188L57.625 210H61.625L59.5 218H55.5H43.5L42.4375 222H54.4375H58.4375L57.3438 226H53.3438H37.3438L38.4375 222H34.4375L37.625 210H41.625L42.7188 206ZM44.5625 214H52.5625L53.625 210H45.625L44.5625 214ZM71.25 206H87.25H91.25L85.875 226H81.875L80.8125 230H76.8125H60.8125L61.875 226H77.875L78.9688 222H66.9688L68.0312 218H64.0312L66.1875 210H70.1875L71.25 206ZM74.1875 210L72.0312 218H80.0312L82.1875 210H74.1875ZM99.25 206H115.25H119.25L113.875 226H109.875L108.812 230H104.812H88.8125L89.875 226H105.875L106.969 222H94.9688L96.0312 218H92.0312L94.1875 210H98.1875L99.25 206ZM102.188 210L100.031 218H108.031L110.188 210H102.188Z" fill="#FF0000"/>
<path fill-rule="evenodd" clip-rule="evenodd" d="M147 203.83H145L144.482 205.762H142.482L141.447 209.626H139.447L138.412 213.489H136.412L133.824 223.149H135.824L135.306 225.08H137.306L136.788 227.012H138.788H146.788H148.788L149.306 225.08H151.306L151.824 223.149H153.824L156.412 213.489H154.412L155.447 209.626H153.447L154.482 205.762H152.482L153 203.83H151H147ZM150.482 205.762H146.482L145.447 209.626H143.447L142.412 213.489H140.412L137.824 223.149H139.824L139.306 225.08H147.306L147.824 223.149H149.824L152.412 213.489H150.412L151.447 209.626H149.447L150.482 205.762Z" fill="#FF0000"/>
</svg>
