<svg width="32" height="32" viewBox="0 0 32 32" fill="none" xmlns="http://www.w3.org/2000/svg">
<path fill-rule="evenodd" clip-rule="evenodd" d="M19.9999 31.4959C26.9009 29.7198 32 23.4554 32 16C32 7.16344 24.8366 0 16 0C7.16344 0 0 7.16344 0 16C0 23.4553 5.09906 29.7197 11.9999 31.4959V28.02C10.4781 28.5147 8.55669 28.5567 6.99994 27C6.58573 26.5858 6.51466 26.3431 6.4314 26.0589C6.31365 25.6569 6.17152 25.1716 4.99994 24C4.40714 23.4072 4.25361 23.0706 4.34608 22.8988C4.4472 22.7108 4.84246 22.7198 5.27919 22.806C5.50951 22.8515 5.75136 22.9185 5.96768 22.9893C6.54478 23.2664 6.93921 23.8095 7.35185 24.3777C7.79638 24.9898 8.26203 25.631 8.99994 26C9.88 26.44 11.0021 26.2951 12.0001 25.9647C12.0099 25.0346 12.4052 24.2983 12.9438 23.7257C9.97237 23.213 6.57779 21.489 6 18.6C5.45906 15.8953 5.5033 13.298 7.24083 11.1161C6.7117 9.923 6.66936 8.21764 7.99994 6C9.12732 6.28185 11.3509 7.08797 12.4946 8.29748C13.517 8.10453 14.6801 8 15.9999 8C17.282 8 18.4162 8.09862 19.4171 8.28112C20.5653 7.0807 22.7739 6.28057 23.8962 6C25.196 8.1663 25.1857 9.84376 24.6913 11.0324C26.4954 13.2209 26.5478 15.8606 25.9999 18.6C25.4222 21.489 22.0275 23.213 19.0561 23.7257C19.6015 24.3055 19.9999 25.0532 19.9999 26V31.4959Z" fill="#E5E5E5"/>
</svg>
