<svg width="16" height="16" viewBox="0 0 16 16" fill="none" xmlns="http://www.w3.org/2000/svg">
<path fill-rule="evenodd" clip-rule="evenodd" d="M8 16C12.4183 16 16 12.4183 16 8C16 3.58172 12.4183 0 8 0C3.58172 0 0 3.58172 0 8C0 12.4183 3.58172 16 8 16ZM4.2 4C4.2 3.6134 3.8866 3.3 3.5 3.3C3.1134 3.3 2.8 3.6134 2.8 4V10C2.8 10.7277 3.15678 11.3967 3.63003 11.87C4.10327 12.3432 4.77234 12.7 5.5 12.7H10.5C11.2277 12.7 11.8967 12.3432 12.37 11.87C12.8432 11.3967 13.2 10.7277 13.2 10V6.5C13.2 5.8921 13.0476 5.3076 12.62 4.88003C12.1924 4.45245 11.6079 4.3 11 4.3C10.4472 4.3 9.9137 4.42608 9.5 4.7705C9.0863 4.42608 8.55283 4.3 8 4.3C7.3921 4.3 6.8076 4.45245 6.38002 4.88003C5.95245 5.3076 5.8 5.8921 5.8 6.5V9C5.8 9.3866 6.1134 9.7 6.5 9.7C6.8866 9.7 7.2 9.3866 7.2 9V6.5C7.2 6.1079 7.29755 5.9424 7.36998 5.86997C7.4424 5.79755 7.6079 5.7 8 5.7C8.3921 5.7 8.5576 5.79755 8.63003 5.86997C8.70245 5.9424 8.8 6.1079 8.8 6.5V9C8.8 9.3866 9.1134 9.7 9.5 9.7C9.8866 9.7 10.2 9.3866 10.2 9V6.5C10.2 6.1079 10.2976 5.9424 10.37 5.86997C10.4424 5.79755 10.6079 5.7 11 5.7C11.3921 5.7 11.5576 5.79755 11.63 5.86997C11.7024 5.9424 11.8 6.1079 11.8 6.5V10C11.8 10.2723 11.6568 10.6033 11.38 10.88C11.1033 11.1568 10.7723 11.3 10.5 11.3H5.5C5.22766 11.3 4.89673 11.1568 4.61997 10.88C4.34322 10.6033 4.2 10.2723 4.2 10V4Z" fill="white"/>
</svg>
