<svg width="32" height="32" viewBox="0 0 32 32" fill="none" xmlns="http://www.w3.org/2000/svg">
<path fill-rule="evenodd" clip-rule="evenodd" d="M16 32C24.8366 32 32 24.8366 32 16C32 7.16344 24.8366 0 16 0C7.16344 0 0 7.16344 0 16C0 24.8366 7.16344 32 16 32ZM25 8C25 9.10455 24.1046 10 23 10C21.9897 10 21.1545 9.25104 21.0192 8.27814L17.4744 7.68732L16.6094 12.0128C19.3577 12.1284 21.8066 13.0211 23.5142 14.3811C23.9711 13.7847 24.6906 13.4 25.5 13.4C26.8807 13.4 28 14.5193 28 15.9C28 17.1241 27.1202 18.1428 25.9585 18.3581C25.986 18.5695 26 18.7836 26 19C26 22.866 21.5228 26 16 26C10.4772 26 6 22.866 6 19C6 18.8169 6.01001 18.6354 6.02979 18.4559C4.8739 18.2359 4 17.22 4 16C4 14.6193 5.11926 13.5 6.5 13.5C7.28137 13.5 7.97913 13.8585 8.4375 14.4199C10.1488 13.0366 12.6218 12.1275 15.4 12.0124C15.3992 11.9696 15.4028 11.926 15.4116 11.8823L16.4116 6.88232C16.4752 6.56476 16.7792 6.35492 17.0986 6.40814L21.2163 7.09442C21.5468 6.44495 22.2213 6 23 6C24.1046 6 25 6.89545 25 8ZM12.2001 19.6C13.1941 19.6 14 18.7941 14 17.8C14 16.8058 13.1941 16 12.2001 16C11.2059 16 10.4 16.8058 10.4 17.8C10.4 18.7941 11.2059 19.6 12.2001 19.6ZM21.6 17.8C21.6 18.7941 20.7941 19.6 19.8 19.6C18.8059 19.6 18 18.7941 18 17.8C18 16.8059 18.8059 16 19.8 16C20.7941 16 21.6 16.8059 21.6 17.8Z" fill="#E5E5E5"/>
<path d="M12.1876 21.7501C12.3256 21.5777 12.5771 21.5497 12.7498 21.6875L12.7606 21.6959C12.7698 21.7029 12.7844 21.714 12.8043 21.7286C12.8441 21.7577 12.9049 21.8006 12.9847 21.8528C13.1444 21.9574 13.379 22.0983 13.6731 22.2394C14.2637 22.5229 15.0785 22.8 16 22.8C16.9215 22.8 17.7363 22.5229 18.3269 22.2394C18.621 22.0983 18.8556 21.9574 19.0153 21.8528C19.0951 21.8006 19.1559 21.7577 19.1957 21.7286C19.2156 21.714 19.2302 21.7029 19.2394 21.6959L19.2501 21.6876C19.4229 21.5497 19.6744 21.5777 19.8124 21.7501C19.9503 21.9226 19.9213 22.1752 19.7488 22.3132L19.7472 22.3145L19.7423 22.3184L19.726 22.3311C19.7122 22.3416 19.6926 22.3563 19.6676 22.3746C19.6176 22.4111 19.5455 22.4619 19.4535 22.5222C19.2694 22.6426 19.004 22.8018 18.6731 22.9606C18.0137 23.2771 17.0785 23.6 16 23.6C14.9215 23.6 13.9863 23.2771 13.3269 22.9606C13.139 22.8704 12.9723 22.7802 12.8296 22.6969C12.7208 22.6335 12.6261 22.5742 12.5465 22.5222C12.4868 22.4831 12.4355 22.448 12.3932 22.4182C12.3702 22.402 12.35 22.3874 12.3324 22.3746C12.3074 22.3563 12.2878 22.3416 12.274 22.3311L12.2577 22.3184L12.2528 22.3145L12.2501 22.3124C12.0776 22.1743 12.0497 21.9226 12.1876 21.7501Z" fill="#E5E5E5"/>
</svg>
