<svg width="32" height="32" viewBox="0 0 32 32" fill="none" xmlns="http://www.w3.org/2000/svg">
<path fill-rule="evenodd" clip-rule="evenodd" d="M28.9297 9.76659C28.9353 9.96133 28.9381 10.1568 28.9381 10.3529C28.9381 20.7489 21.0247 29.1765 11.263 29.1765C6.98294 29.1765 3.05824 27.5563 0 24.8606C1.23041 25.2215 2.50896 25.4118 3.82079 25.4118C6.29546 25.4118 8.65146 24.7348 10.7898 23.5122C7.98441 23.3084 5.67089 21.3065 4.96955 18.6396C5.49782 18.76 6.04745 18.8235 6.6116 18.8235C7.03768 18.8235 7.45534 18.7873 7.86177 18.7178C4.96035 18.1859 2.72836 15.7093 2.53236 12.6706C4.31341 13.5956 6.33248 14.1176 8.47215 14.1176C8.65441 14.1176 8.83565 14.1139 9.01609 14.1064C5.59957 13.9041 2.89052 11.0369 2.89052 7.52951C2.89052 6.42209 3.16056 5.37849 3.63773 4.46242C6.91753 7.87039 11.2522 10.2341 16.1082 11.0138C15.9815 10.501 15.9143 9.96431 15.9143 9.41175C15.9143 5.77319 18.8298 2.82352 22.4262 2.82352C24.5434 2.82352 26.4247 3.84581 27.614 5.4291C29.0349 4.98838 30.3796 4.37137 31.6232 3.60327C30.9975 4.89699 30.1129 6.03922 29.0378 6.96092C30.0469 6.84425 31.0376 6.63992 32 6.35385C31.2091 7.71024 30.1571 8.86499 28.9297 9.76659Z" fill="#E5E5E5"/>
</svg>
