<svg width="81" height="96" viewBox="0 0 81 96" fill="none" xmlns="http://www.w3.org/2000/svg">
<path fill-rule="evenodd" clip-rule="evenodd" d="M26.9474 95.9959V23.3074C26.51 23.2649 26.0434 23.2419 25.5395 23.2419C7.29701 23.2419 0 40.9262 0 52.5472C0 70.7367 16.1577 95.9999 26.582 95.9999C26.7053 95.9999 26.8271 95.9986 26.9474 95.9959Z" fill="#4169E1"/>
<path fill-rule="evenodd" clip-rule="evenodd" d="M26.9475 95.9961V23.3076C28.9957 23.5065 30.4011 24.1335 31.9755 24.8359C34.238 25.8453 36.8494 27.0103 42.2184 27.2842C47.5875 27.0103 50.1989 25.8453 52.4613 24.8359C52.9473 24.6191 53.4172 24.4094 53.8949 24.2174V95.4805C52.478 95.0927 51.2573 94.5359 50.0367 93.979C47.8215 92.9685 45.6063 91.958 42.2184 91.958C38.8305 91.958 36.6154 92.9685 34.4002 93.979C32.2657 94.9528 30.1312 95.9265 26.9475 95.9961ZM42.2184 23.2421C42.2184 3.03158 60.461 0 62.5458 0C62.5458 16.1684 48.9942 23.2421 42.2184 23.2421Z" fill="white"/>
<path fill-rule="evenodd" clip-rule="evenodd" d="M53.8948 24.2172V95.4803C55.0492 95.7962 56.3338 95.9999 57.8549 95.9999C65.2322 95.9999 75.4811 83.3469 80.8422 69.5028C72.8422 68.0887 66.7155 60.1311 66.7155 50.5262C66.7155 42.2153 71.3025 35.1378 77.7211 32.4655C73.6041 27.1336 67.4551 23.2419 58.8973 23.2419C56.7621 23.2419 55.295 23.6541 53.8948 24.2172Z" fill="#FF341C"/>
</svg>
