<svg width="748" height="208" viewBox="0 0 748 208" fill="none" xmlns="http://www.w3.org/2000/svg">
<g clip-path="url(#clip0_202_14)">
<path d="M448.273 13.4494L448.273 13.4495L437.621 53.0823C437.159 54.3016 436.944 55.6287 437.019 56.9966L442.293 153.585C442.41 155.726 443.232 157.692 444.541 159.237L439.245 169.883C437.429 172.958 436.651 176.433 436.651 180.061C436.651 185.382 438.339 190.23 442.16 193.929L442.205 193.973L442.252 194.016C446.1 197.586 450.948 199.181 456.256 199.181C461.536 199.181 466.375 197.599 470.147 193.973C471.672 192.549 472.918 190.9 473.854 189.044L485.024 173.672C489.065 169.682 490.917 164.486 490.917 158.685C490.917 152.691 488.939 147.342 484.611 143.303C483.83 142.551 483.001 141.874 482.129 141.272L485.752 134.995C486.715 133.726 487.389 132.213 487.665 130.553L502.994 38.4438C503.676 34.3423 501.776 30.2206 498.174 28.0966L463.079 7.39892C457.066 3.85264 449.911 7.37598 448.276 13.4376L448.275 13.4426L448.273 13.4494Z" fill="#FF8A00" stroke="#F62C00" stroke-width="12"/>
<path d="M442.678 82.803C439.969 81.8061 436.768 81.3077 433.075 81.3077L434.39 129.095L443.921 100.084L447.429 88.4263C447.94 86.7229 447.308 84.8521 445.72 84.0704C444.881 83.6577 443.876 83.2248 442.678 82.803Z" fill="#FF5C00"/>
<path d="M574.514 197.732L577.022 202.213L581.836 200.426L601.043 193.299L601.52 193.122L601.961 192.867L612.35 186.856C612.692 187.206 613.041 187.552 613.397 187.891C622.507 196.592 636.557 200.405 650.85 200.405C657.699 200.405 666.256 199.141 672.757 196.357L672.763 196.355L718.67 176.638L718.712 176.62L718.753 176.601C725.897 173.404 731.895 169.016 736.603 163.385L740.028 159.289L736.357 155.411L723.614 141.954L720.559 138.729L716.582 140.709L700.115 148.909C698.163 149.129 696.185 149.238 694.489 149.238C687.212 149.238 680.786 147.139 677.838 144.262C677.466 143.884 677.11 143.472 676.771 143.026L677.325 142.694L723.823 114.778L725.295 113.894L726.077 112.365L734.388 96.104L736.362 92.2416L733.313 89.1562C728.894 84.6838 723.246 81.2757 716.596 78.7968C709.651 76.0834 700.299 74.851 692.827 74.851C676.915 74.851 661.325 79.1756 651.175 88.8542L634.756 101.938C633.226 95.9944 630.439 90.7111 626.292 86.2261C619.465 78.7045 609.919 75.3079 598.598 75.3079C591.638 75.3079 585.293 76.5468 579.756 79.2597C576.438 80.8104 573.343 82.9166 570.456 85.5133C568.555 83.2367 566.385 81.2858 563.927 79.7121C559.232 76.7071 553.843 75.3079 547.995 75.3079C542.026 75.3079 536.393 76.8268 531.197 79.8192C529.545 80.7311 528.002 81.7741 526.566 82.9426C525.922 81.3214 525.212 79.8011 524.429 78.393L521.831 73.7184L516.89 75.7642L496.575 84.1748L494.636 84.9775L493.62 86.8135L476.704 117.384L475.211 120.082L476.536 122.867C477.766 125.452 478.463 127.579 478.77 129.287L478.793 129.415L478.821 129.541C479.232 131.371 479.475 133.717 479.475 136.65V193.181V199.181H485.475H506.603H508.97L510.7 197.565L524.291 184.86V193.181V199.181H530.291H551.099H552.996L554.548 198.091L570.162 187.122C571.152 190.79 572.608 194.329 574.514 197.732Z" fill="#FF5C00" stroke="#F62C00" stroke-width="12"/>
<path d="M480.786 131.596L473.62 144.01L472 144L471 131L480.786 131.596Z" fill="#FF8A00"/>
<path d="M480.484 169.713L468.684 185.951L472 170L480.484 169.713Z" fill="#FF8A00"/>
<mask id="path-5-outside-1_202_14" maskUnits="userSpaceOnUse" x="0" y="24.2269" width="460" height="183" fill="black">
<rect fill="white" y="24.2269" width="460" height="183"/>
<path d="M385.653 150.886C385.653 147.286 385.522 137.603 384.764 132.888C384.168 129.182 382.861 124.631 381.16 120.696C380.964 120.241 380.856 119.763 380.834 119.287L380.866 118.564L382.188 88.3539C382.185 86.8773 382.89 85.4485 384.203 84.6539L390.814 80.6538C392.089 79.8821 393.695 79.8582 394.891 80.7496C398.221 83.2318 401.551 86.8795 404.88 90.8228C406.608 92.8691 409.804 92.7508 411.682 90.843C414.289 88.1944 417.117 86.1466 419.56 84.5266C423.254 82.1592 428.396 81.3078 433.075 81.3078C436.768 81.3078 439.969 81.8062 442.678 82.803C443.876 83.2248 444.881 83.6578 445.72 84.0704C447.308 84.8521 447.94 86.7229 447.429 88.4263L443.921 100.084L434.39 129.095C433.731 131.291 431.214 132.224 429.069 131.448C428.75 131.332 428.438 131.23 428.133 131.142C426.639 130.602 424.985 130.332 423.171 130.332C418.379 130.332 414.661 131.621 412.018 134.198L410.543 169.009C410.518 169.593 410.374 170.14 410.136 170.628L405.33 189.595C404.938 191.466 403.096 192.727 401.167 192.317L387.018 189.303C385.334 188.945 384.156 187.423 384.234 185.693C384.612 177.283 385.653 153.833 385.653 150.886Z"/>
<path d="M106.069 194.801C112.685 194.801 118.714 193.127 124.156 189.78C129.038 186.739 132.97 182.654 135.952 177.523L154.281 188.497C154.545 188.693 154.838 188.854 155.157 188.972L166.875 193.319C169.098 194.144 171.477 192.563 171.598 190.182L173.573 151.207C174.102 158.298 176.432 164.095 180.296 168.217C180.903 168.848 181.544 169.437 182.219 169.986L182.78 170.426L207.413 189.764C211.351 193.014 216.648 194.639 223.303 194.639C226.184 194.639 229.172 194.315 232.266 193.667C234.021 193.312 235.567 192.925 236.904 192.505C238.591 191.975 239.381 190.133 238.835 188.442L236.09 179.929C235.921 179.402 235.641 178.948 235.283 178.57L235.212 178.498L221.385 164.296C221.69 158.487 222.18 149.334 222.72 139.306H228.704L228.174 147.284C228.174 156.173 230.452 163.358 235.007 168.217L252.741 187.729L253.39 188.442C257.439 192.573 263.216 194.639 270.719 194.639C273.6 194.639 277.17 194.081 281.616 192.281C284.737 191.018 290.468 187.964 294.235 185.957L294.289 185.928C296.087 184.97 296.779 182.666 295.786 180.879L291.26 172.736L284.081 159.666L284.061 159.629L278.838 150.234C277.78 148.329 275.437 147.632 273.536 148.684C272.462 149.278 271.261 149.941 270.039 150.597C270.302 147.418 270.584 144.031 270.874 140.566L284.634 140.926C285.885 140.959 287.046 140.321 287.7 139.274C288.878 143.085 290.5 146.918 292.566 150.772L303.157 173.203C309.006 184.12 316.871 190.982 326.751 193.791C336.725 196.548 347.34 194.837 358.597 188.66C364.788 185.263 367.716 181.529 371.424 176.668C374.259 172.827 376.118 167.381 377.257 162.477C377.321 162.201 377.35 161.927 377.347 161.659L378.166 137.658C378.254 135.492 376.514 133.63 374.265 133.574L372.289 133.524L372.337 111C372.421 108.842 371.848 106.616 370.62 104.323C366.687 96.9844 361.567 91.2188 355.259 87.0265C348.893 82.7246 341.769 80.5389 333.889 80.4695C325.95 80.2906 317.867 82.4582 309.642 86.9723C301.2 91.6051 294.97 97.3623 290.954 104.244C290.563 104.894 290.193 105.55 289.842 106.211L283.536 89.8853L283.349 89.402C282.685 87.9587 281.202 86.9206 279.409 87.0349L268.897 87.7051L257.398 88.4381C258.174 79.2945 258.842 71.4817 259.207 67.2186C259.261 66.5847 259.167 65.9681 258.953 65.4062L258.771 65C258.253 63.9884 257.32 63.2075 256.156 62.9128L239.509 58.7012C237.084 58.0874 234.69 59.8093 234.484 62.3183C234.01 68.0864 233.164 78.4572 232.241 90.0419L225.358 90.4806L225.425 89.2441C225.463 88.5494 225.298 87.8876 224.979 87.3197L202.347 51.6521C201.761 50.6239 200.737 49.8672 199.497 49.6582L182.927 46.8632C180.54 46.4606 178.337 48.2267 178.211 50.6593C177.797 58.5886 176.902 75.7945 176 93.5668L176.036 93.6249L175.997 93.6274L176 93.5668C175.439 92.6655 174.755 91.826 173.95 91.0483L145.451 58.2849L143.277 55.7852C140.199 52.7948 136.259 51.2996 131.457 51.2996C126.656 51.2996 122.654 52.7948 119.453 55.7852C116.375 58.7757 114.836 62.576 114.836 67.1863C114.836 71.7965 116.375 75.5969 119.453 78.5873L135.375 93.7444L120.631 91.8792C118.139 91.5639 115.965 93.5833 116.077 96.1093L116.71 110.383L93.5836 91.4991C91.7461 89.7182 89.7688 88.1707 87.6517 86.8566L88.0772 80.4775C88.1517 79.362 87.7028 78.3288 86.938 77.6266L86.7178 77.4404L43.3963 40.814C42.7502 40.0743 41.8383 39.5676 40.7929 39.4526L20.7834 37.2515C18.4026 36.9896 16.3165 38.8515 16.2899 41.2619L15.1083 148.406C15.1083 152.767 14.7389 156.443 14.0002 159.433C13.5917 161.018 13.0513 162.603 12.3792 164.188C11.4691 166.334 12.2305 168.902 14.3054 169.943L24.197 174.902L24.7436 175.129L70.5708 194.115C71.6266 194.645 72.8923 194.627 73.8313 193.909C75.4058 192.704 77.0339 190.991 78.5124 188.586C79.9837 186.193 83.592 185.589 85.691 187.449C91.2245 192.35 98.0173 194.801 106.069 194.801Z"/>
</mask>
<path d="M385.653 150.886C385.653 147.286 385.522 137.603 384.764 132.888C384.168 129.182 382.861 124.631 381.16 120.696C380.964 120.241 380.856 119.763 380.834 119.287L380.866 118.564L382.188 88.3539C382.185 86.8773 382.89 85.4485 384.203 84.6539L390.814 80.6538C392.089 79.8821 393.695 79.8582 394.891 80.7496C398.221 83.2318 401.551 86.8795 404.88 90.8228C406.608 92.8691 409.804 92.7508 411.682 90.843C414.289 88.1944 417.117 86.1466 419.56 84.5266C423.254 82.1592 428.396 81.3078 433.075 81.3078C436.768 81.3078 439.969 81.8062 442.678 82.803C443.876 83.2248 444.881 83.6578 445.72 84.0704C447.308 84.8521 447.94 86.7229 447.429 88.4263L443.921 100.084L434.39 129.095C433.731 131.291 431.214 132.224 429.069 131.448C428.75 131.332 428.438 131.23 428.133 131.142C426.639 130.602 424.985 130.332 423.171 130.332C418.379 130.332 414.661 131.621 412.018 134.198L410.543 169.009C410.518 169.593 410.374 170.14 410.136 170.628L405.33 189.595C404.938 191.466 403.096 192.727 401.167 192.317L387.018 189.303C385.334 188.945 384.156 187.423 384.234 185.693C384.612 177.283 385.653 153.833 385.653 150.886Z" fill="#FF5C00"/>
<path d="M106.069 194.801C112.685 194.801 118.714 193.127 124.156 189.78C129.038 186.739 132.97 182.654 135.952 177.523L154.281 188.497C154.545 188.693 154.838 188.854 155.157 188.972L166.875 193.319C169.098 194.144 171.477 192.563 171.598 190.182L173.573 151.207C174.102 158.298 176.432 164.095 180.296 168.217C180.903 168.848 181.544 169.437 182.219 169.986L182.78 170.426L207.413 189.764C211.351 193.014 216.648 194.639 223.303 194.639C226.184 194.639 229.172 194.315 232.266 193.667C234.021 193.312 235.567 192.925 236.904 192.505C238.591 191.975 239.381 190.133 238.835 188.442L236.09 179.929C235.921 179.402 235.641 178.948 235.283 178.57L235.212 178.498L221.385 164.296C221.69 158.487 222.18 149.334 222.72 139.306H228.704L228.174 147.284C228.174 156.173 230.452 163.358 235.007 168.217L252.741 187.729L253.39 188.442C257.439 192.573 263.216 194.639 270.719 194.639C273.6 194.639 277.17 194.081 281.616 192.281C284.737 191.018 290.468 187.964 294.235 185.957L294.289 185.928C296.087 184.97 296.779 182.666 295.786 180.879L291.26 172.736L284.081 159.666L284.061 159.629L278.838 150.234C277.78 148.329 275.437 147.632 273.536 148.684C272.462 149.278 271.261 149.941 270.039 150.597C270.302 147.418 270.584 144.031 270.874 140.566L284.634 140.926C285.885 140.959 287.046 140.321 287.7 139.274C288.878 143.085 290.5 146.918 292.566 150.772L303.157 173.203C309.006 184.12 316.871 190.982 326.751 193.791C336.725 196.548 347.34 194.837 358.597 188.66C364.788 185.263 367.716 181.529 371.424 176.668C374.259 172.827 376.118 167.381 377.257 162.477C377.321 162.201 377.35 161.927 377.347 161.659L378.166 137.658C378.254 135.492 376.514 133.63 374.265 133.574L372.289 133.524L372.337 111C372.421 108.842 371.848 106.616 370.62 104.323C366.687 96.9844 361.567 91.2188 355.259 87.0265C348.893 82.7246 341.769 80.5389 333.889 80.4695C325.95 80.2906 317.867 82.4582 309.642 86.9723C301.2 91.6051 294.97 97.3623 290.954 104.244C290.563 104.894 290.193 105.55 289.842 106.211L283.536 89.8853L283.349 89.402C282.685 87.9587 281.202 86.9206 279.409 87.0349L268.897 87.7051L257.398 88.4381C258.174 79.2945 258.842 71.4817 259.207 67.2186C259.261 66.5847 259.167 65.9681 258.953 65.4062L258.771 65C258.253 63.9884 257.32 63.2075 256.156 62.9128L239.509 58.7012C237.084 58.0874 234.69 59.8093 234.484 62.3183C234.01 68.0864 233.164 78.4572 232.241 90.0419L225.358 90.4806L225.425 89.2441C225.463 88.5494 225.298 87.8876 224.979 87.3197L202.347 51.6521C201.761 50.6239 200.737 49.8672 199.497 49.6582L182.927 46.8632C180.54 46.4606 178.337 48.2267 178.211 50.6593C177.797 58.5886 176.902 75.7945 176 93.5668L176.036 93.6249L175.997 93.6274L176 93.5668C175.439 92.6655 174.755 91.826 173.95 91.0483L145.451 58.2849L143.277 55.7852C140.199 52.7948 136.259 51.2996 131.457 51.2996C126.656 51.2996 122.654 52.7948 119.453 55.7852C116.375 58.7757 114.836 62.576 114.836 67.1863C114.836 71.7965 116.375 75.5969 119.453 78.5873L135.375 93.7444L120.631 91.8792C118.139 91.5639 115.965 93.5833 116.077 96.1093L116.71 110.383L93.5836 91.4991C91.7461 89.7182 89.7688 88.1707 87.6517 86.8566L88.0772 80.4775C88.1517 79.362 87.7028 78.3288 86.938 77.6266L86.7178 77.4404L43.3963 40.814C42.7502 40.0743 41.8383 39.5676 40.7929 39.4526L20.7834 37.2515C18.4026 36.9896 16.3165 38.8515 16.2899 41.2619L15.1083 148.406C15.1083 152.767 14.7389 156.443 14.0002 159.433C13.5917 161.018 13.0513 162.603 12.3792 164.188C11.4691 166.334 12.2305 168.902 14.3054 169.943L24.197 174.902L24.7436 175.129L70.5708 194.115C71.6266 194.645 72.8923 194.627 73.8313 193.909C75.4058 192.704 77.0339 190.991 78.5124 188.586C79.9837 186.193 83.592 185.589 85.691 187.449C91.2245 192.35 98.0173 194.801 106.069 194.801Z" fill="#FF5C00"/>
<path d="M253.273 188.322L248.896 192.425L248.923 192.455L248.951 192.483L253.273 188.322ZM33.3604 168.522L28.2491 165.38L33.3604 168.522ZM27.9592 174.664L31.6055 179.429H31.6055L27.9592 174.664ZM24.7436 175.129L26.6321 169.434L26.632 169.434L24.7436 175.129ZM86.7178 77.4404L83.0347 82.177V82.177L86.7178 77.4404ZM283.536 89.8853L289.258 88.0794V88.0794L283.536 89.8853ZM258.953 65.4062L253.348 67.5483L253.406 67.7008L253.473 67.8499L258.953 65.4062ZM176 93.5668L181.093 90.3945L170.978 74.1563L170.008 93.2625L176 93.5668ZM28.2491 165.38C26.9134 167.553 25.5242 168.972 24.3128 169.899L31.6055 179.429C34.0277 177.575 36.3956 175.042 38.4717 171.665L28.2491 165.38ZM45.6219 162.719C40.2917 157.997 31.8164 159.577 28.2491 165.38L38.4717 171.665C38.3774 171.818 38.2759 171.897 38.2281 171.927C38.1866 171.953 38.1746 171.951 38.1862 171.949C38.198 171.948 38.1662 171.957 38.0828 171.935C37.9894 171.911 37.8294 171.847 37.665 171.701L45.6219 162.719ZM38.8775 44.7613C38.5582 44.3956 38.3757 43.8987 38.4101 43.3822L50.3835 44.1811C50.5682 41.4129 49.612 38.8094 47.9151 36.8668L38.8775 44.7613ZM24.3128 169.899C25.2102 169.212 26.1503 169.274 26.6321 169.434L22.855 180.824C25.5162 181.706 28.8573 181.532 31.6055 179.429L24.3128 169.899ZM26.632 169.434C26.7222 169.463 26.8068 169.499 26.8862 169.539L21.5079 180.266C21.9425 180.484 22.3929 180.67 22.8551 180.824L26.632 169.434ZM84.2978 82.6897C83.8268 82.6379 83.3886 82.4521 83.0347 82.177L90.4009 72.7039C89.0566 71.6586 87.4121 70.9599 85.6099 70.7617L84.2978 82.6897ZM83.0347 82.177C82.9811 82.1353 82.9296 82.0917 82.8803 82.0464L90.9957 73.2067C90.8049 73.0316 90.6065 72.8638 90.4009 72.7039L83.0347 82.177ZM89.4079 95.8076C89.9965 96.3781 90.5714 96.9804 91.1324 97.6155L100.126 89.6712C99.3642 88.8086 98.5754 87.9815 97.7594 87.1906L89.4079 95.8076ZM169.678 95.2651C169.713 95.2981 169.748 95.3312 169.782 95.3642L178.118 86.7324C178.036 86.653 177.953 86.5742 177.869 86.4961L169.678 95.2651ZM139.181 60.1697C139.72 60.6732 140.161 61.1861 140.522 61.7057L150.381 54.864C149.509 53.6075 148.5 52.454 147.373 51.4007L139.181 60.1697ZM197.134 54.6235C196.955 54.309 196.864 53.9408 196.884 53.572L208.867 54.222C208.975 52.23 208.492 50.3164 207.559 48.6806L197.134 54.6235ZM211.232 185.136C210.865 184.833 210.514 184.508 210.179 184.16L201.535 192.483C202.185 193.159 202.871 193.795 203.593 194.391L211.232 185.136ZM186.406 165.645C186.27 165.542 186.135 165.436 186.003 165.329L178.436 174.642C178.672 174.834 178.912 175.022 179.155 175.207L186.406 165.645ZM230.97 182.741C230.956 182.727 230.942 182.713 230.928 182.697L239.637 174.443C239.577 174.379 239.516 174.316 239.455 174.255L230.97 182.741ZM277.814 91.6911C277.674 91.2485 277.697 90.7422 277.89 90.319L288.808 95.2981C289.899 92.9074 289.973 90.3453 289.258 88.0794L277.814 91.6911ZM289.258 88.0794C289.129 87.6729 288.976 87.2769 288.8 86.8935L277.899 91.9105C277.867 91.8404 277.838 91.7672 277.814 91.6911L289.258 88.0794ZM278.816 162.544C278.815 162.542 278.812 162.536 278.807 162.528L289.354 156.804C289.336 156.771 289.32 156.741 289.305 156.714L278.816 162.544ZM257.675 184.242C257.648 184.215 257.622 184.188 257.595 184.16L248.951 192.483C249.002 192.536 249.053 192.589 249.105 192.642L257.675 184.242ZM257.65 184.218C257.53 184.09 257.413 183.959 257.297 183.824L248.185 191.633C248.416 191.902 248.653 192.166 248.896 192.425L257.65 184.218ZM372.171 137.415C372.177 137.281 372.194 137.155 372.222 137.039L383.91 139.754C384.053 139.141 384.136 138.521 384.161 137.902L372.171 137.415ZM399.409 188.754C399.414 188.626 399.431 188.495 399.458 188.363L411.202 190.828C411.31 190.317 411.376 189.793 411.398 189.262L399.409 188.754ZM231.349 90.8056C231.373 90.3631 231.396 89.9505 231.417 89.5691L219.434 88.9191C219.413 89.3005 219.391 89.7134 219.367 90.1557L231.349 90.8056ZM274.376 85.2614L264.432 62.9625L253.473 67.8499L263.417 90.1488L274.376 85.2614ZM253.433 67.7378C253.401 67.6766 253.373 67.6134 253.348 67.5483L264.557 63.2641C264.426 62.9212 264.277 62.5867 264.11 62.2622L253.433 67.7378ZM179.556 150.761C179.476 149.683 179.443 148.557 179.462 147.382L167.464 147.187C167.439 148.707 167.481 150.197 167.59 151.654L179.556 150.761ZM291.467 180.633C291.459 180.637 291.451 180.641 291.442 180.646C291.433 180.651 291.423 180.656 291.413 180.661L297.057 191.252C297.065 191.247 297.073 191.243 297.082 191.238C297.091 191.234 297.1 191.228 297.111 191.223L291.467 180.633ZM170.907 96.7391C170.913 96.749 170.919 96.7583 170.924 96.7673L181.147 90.4826C181.129 90.4527 181.111 90.4234 181.093 90.3945L170.907 96.7391ZM181.989 93.9317C181.991 93.8867 181.99 93.9176 181.992 93.8711L170.008 93.2625C170.007 93.2723 170.007 93.2821 170.006 93.2923C170.005 93.3023 170.005 93.3127 170.004 93.3232L181.989 93.9317ZM124.156 189.78L130.443 200.001L130.471 199.983L130.5 199.966L124.156 189.78ZM232.266 193.667L229.886 181.906L229.846 181.914L229.807 181.922L232.266 193.667ZM281.616 192.281L286.119 203.405H286.119L281.616 192.281ZM385.653 150.886H373.653H385.653ZM384.764 132.888L396.612 130.983L384.764 132.888ZM428.133 131.142L424.054 142.428L424.423 142.561L424.799 142.67L428.133 131.142ZM270.874 140.566L271.188 128.57L259.861 128.274L258.916 139.565L270.874 140.566ZM222.72 139.306V127.306H211.348L210.737 138.661L222.72 139.306ZM358.597 188.66L352.823 178.14L358.597 188.66ZM326.751 193.791L323.47 205.333L323.512 205.345L323.554 205.357L326.751 193.791ZM303.157 173.203L292.306 178.326L292.436 178.602L292.58 178.87L303.157 173.203ZM371.424 176.668L380.965 183.947L381.023 183.871L381.079 183.794L371.424 176.668ZM377.257 162.477L388.946 165.193L377.257 162.477ZM284.634 140.926L284.948 128.931L284.634 140.926ZM387.018 189.303L384.518 201.04L387.018 189.303ZM384.234 185.693L396.222 186.232L384.234 185.693ZM401.167 192.317L403.666 180.58L401.167 192.317ZM238.835 188.442L227.414 192.124L238.835 188.442ZM236.904 192.505L233.31 181.056L236.904 192.505ZM434.39 129.095L422.99 125.349L422.942 125.496L422.898 125.643L434.39 129.095ZM429.069 131.448L433.154 120.164L429.069 131.448ZM236.09 179.929L247.511 176.246L236.09 179.929ZM225.425 89.2441L213.443 88.5941V88.5943L225.425 89.2441ZM171.598 190.182L159.613 189.574V189.574L171.598 190.182ZM166.875 193.319L162.701 204.57H162.701L166.875 193.319ZM295.786 180.879L285.297 186.709V186.709L295.786 180.879ZM294.289 185.928L299.93 196.519L299.932 196.518L294.289 185.928ZM291.26 172.736L280.742 178.513L280.757 178.54L280.771 178.566L291.26 172.736ZM381.16 120.696L370.146 125.458L381.16 120.696ZM85.691 187.449L77.7341 196.431L85.691 187.449ZM78.5124 188.586L68.2897 182.301L78.5124 188.586ZM73.8313 193.909L66.5386 184.379L73.8313 193.909ZM70.5708 194.115L75.9491 183.388L75.563 183.194L75.1639 183.029L70.5708 194.115ZM88.0772 80.4775L76.1039 79.6787L88.0772 80.4775ZM155.157 188.972L159.33 177.722H159.33L155.157 188.972ZM14.0002 159.433L25.6204 162.428L25.6355 162.37L25.65 162.311L14.0002 159.433ZM15.1083 148.406L3.10902 148.273L3.10829 148.34V148.406H15.1083ZM119.453 78.5873L111.091 87.1942L111.135 87.2367L111.179 87.2788L119.453 78.5873ZM119.453 55.7852L111.261 47.0163L111.175 47.0965L111.091 47.1784L119.453 55.7852ZM143.277 55.7852L152.331 47.9097L152 47.5295L151.639 47.1784L143.277 55.7852ZM180.296 168.217L171.542 176.424L171.596 176.483L171.652 176.54L180.296 168.217ZM235.007 168.217L243.887 160.146L243.825 160.078L243.762 160.01L235.007 168.217ZM228.174 147.284L216.201 146.489L216.174 146.886V147.284H228.174ZM419.56 84.5266L413.085 74.4237L413.006 74.474L412.929 74.5254L419.56 84.5266ZM442.678 82.803L438.534 94.0646L438.613 94.094L438.694 94.1222L442.678 82.803ZM257.398 88.4381L245.441 87.4231L244.263 101.3L258.161 100.414L257.398 88.4381ZM232.241 90.0419L233.005 102.018L243.378 101.356L244.203 90.9944L232.241 90.0419ZM175.997 93.6274L164.012 93.0181L163.329 106.46L176.76 105.603L175.997 93.6274ZM292.566 150.772L303.417 145.648L303.287 145.373L303.143 145.105L292.566 150.772ZM290.954 104.244L301.237 110.431L301.278 110.362L301.319 110.292L290.954 104.244ZM309.642 86.9723L303.869 76.4523L309.642 86.9723ZM333.889 80.4695L333.618 92.4665L333.701 92.4683L333.783 92.4691L333.889 80.4695ZM355.259 87.0265L348.541 96.9695L348.579 96.9952L348.617 97.0205L355.259 87.0265ZM370.62 104.323L381.197 98.6557L370.62 104.323ZM374.265 133.574L373.965 145.57L373.965 145.57L374.265 133.574ZM279.409 87.0349L280.173 99.0106L279.409 87.0349ZM410.543 169.009L398.553 168.501L410.543 169.009ZM445.72 84.0704L451.019 73.3037L445.72 84.0704ZM447.429 88.4263L458.92 91.8836L458.922 91.8783L447.429 88.4263ZM239.509 58.7012L242.453 47.0677L239.509 58.7012ZM234.484 62.3183L246.444 63.3005L234.484 62.3183ZM199.497 49.6582L201.493 37.8253L199.497 49.6582ZM284.061 159.629L294.577 153.849L294.563 153.824L294.549 153.8L284.061 159.629ZM273.536 148.684L267.725 138.184H267.725L273.536 148.684ZM278.838 150.234L289.327 144.404L278.838 150.234ZM120.631 91.8792L122.138 79.9741L120.631 91.8792ZM116.077 96.1093L128.065 95.5773L116.077 96.1093ZM384.203 84.6539L377.991 74.3871L377.991 74.3871L384.203 84.6539ZM390.814 80.6538L397.026 90.9206L397.026 90.9206L390.814 80.6538ZM394.891 80.7496L387.719 90.3704L394.891 80.7496ZM24.197 174.902L18.8187 185.629L19.2049 185.823L19.604 185.988L24.197 174.902ZM411.682 90.843L420.235 99.2608L411.682 90.843ZM404.88 90.8228L414.049 83.0809L404.88 90.8228ZM182.927 46.8632L180.931 58.696L182.927 46.8632ZM178.211 50.6593L166.227 50.0339V50.0339L178.211 50.6593ZM40.7929 39.4526L42.105 27.5246L42.105 27.5246L40.7929 39.4526ZM256.156 62.9128L253.212 74.5463L256.156 62.9128ZM259.207 67.2186L247.25 66.1953V66.1953L259.207 67.2186ZM16.2899 41.2619L4.29062 41.1296V41.1296L16.2899 41.2619ZM20.7834 37.2515L19.4713 49.1796L20.7834 37.2515ZM12.3792 164.188L23.4268 168.873L12.3792 164.188ZM14.3054 169.943L19.6838 159.216L19.6838 159.216L14.3054 169.943ZM43.3963 40.814L34.3588 48.7085L34.9557 49.3919L35.6487 49.9778L43.3963 40.814ZM86.938 77.6266L95.0534 68.7869L94.8728 68.6211L94.6856 68.4628L86.938 77.6266ZM24.7436 175.129L29.3367 164.042L29.3366 164.042L24.7436 175.129ZM86.7178 77.4404L94.4654 68.2767L94.4654 68.2766L86.7178 77.4404ZM93.5836 91.4991L85.2322 100.116L85.5986 100.471L85.9938 100.794L93.5836 91.4991ZM116.71 110.383L109.12 119.678L129.887 136.635L128.698 109.851L116.71 110.383ZM173.95 91.0483L164.896 98.9238L165.238 99.3176L165.614 99.6802L173.95 91.0483ZM154.281 188.497L161.452 178.875L160.965 178.512L160.445 178.201L154.281 188.497ZM135.952 177.523L142.116 167.227L131.686 160.983L125.577 171.493L135.952 177.523ZM145.451 58.2849L154.505 50.4093V50.4093L145.451 58.2849ZM135.375 93.7444L133.869 105.649L170.1 110.233L143.649 85.0529L135.375 93.7444ZM202.347 51.6521L191.922 57.595L192.063 57.8417L192.215 58.0814L202.347 51.6521ZM224.979 87.3197L235.445 81.4485L235.286 81.1649L235.112 80.8904L224.979 87.3197ZM207.413 189.764L215.051 180.509L214.938 180.415L214.823 180.325L207.413 189.764ZM182.219 169.986L174.653 179.299L174.73 179.363L174.809 179.424L182.219 169.986ZM182.78 170.426L175.37 179.865L175.37 179.865L182.78 170.426ZM235.283 178.57L243.992 170.315L243.937 170.256L243.88 170.198L235.283 178.57ZM235.212 178.498L226.615 186.869L226.615 186.869L235.212 178.498ZM221.385 164.296L209.402 163.667L209.126 168.907L212.787 172.667L221.385 164.296ZM283.349 89.402L294.543 85.0781L294.408 84.7269L294.25 84.385L283.349 89.402ZM289.842 106.211L278.649 110.535L288.134 135.09L300.448 111.825L289.842 106.211ZM283.536 89.8853L272.342 94.2092L272.342 94.2093L283.536 89.8853ZM284.081 159.666L294.599 153.889L294.597 153.886L284.081 159.666ZM253.39 188.442L244.51 196.513L244.662 196.68L244.82 196.842L253.39 188.442ZM252.741 187.729L243.861 195.8L243.861 195.8L252.741 187.729ZM378.166 137.658L366.176 137.171L366.175 137.21L366.173 137.249L378.166 137.658ZM377.347 161.659L365.354 161.249L365.344 161.529L365.348 161.809L377.347 161.659ZM372.337 111L360.346 110.533L360.337 110.754L360.337 110.975L372.337 111ZM372.289 133.524L360.289 133.499L360.265 145.227L371.989 145.521L372.289 133.524ZM382.188 88.3539L394.177 88.8786L394.188 88.6055L394.188 88.3321L382.188 88.3539ZM380.834 119.287L368.846 118.762L368.822 119.305L368.847 119.848L380.834 119.287ZM443.921 100.084L455.322 103.829L455.369 103.686L455.413 103.541L443.921 100.084ZM405.33 189.595L393.698 186.648L393.637 186.888L393.586 187.131L405.33 189.595ZM410.136 170.628L399.345 165.38L398.806 166.487L398.504 167.681L410.136 170.628ZM380.866 118.564L392.854 119.089V119.089L380.866 118.564ZM412.018 134.198L403.64 125.607L400.231 128.932L400.029 133.69L412.018 134.198ZM287.7 139.274L299.164 135.729L291.414 110.667L277.521 132.919L287.7 139.274ZM225.358 90.4806L213.376 89.8308L212.645 103.316L226.122 102.456L225.358 90.4806ZM176.036 93.6249L176.799 105.601L196.772 104.327L186.24 87.3098L176.036 93.6249ZM270.039 150.597L258.08 149.608L256.261 171.616L275.716 161.169L270.039 150.597ZM258.771 65L269.731 60.1126L269.598 59.8146L269.449 59.5244L258.771 65ZM268.897 87.7051L268.133 75.7294L268.897 87.7051ZM258.953 65.4062L270.162 61.1219L270.045 60.817L269.912 60.5188L258.953 65.4062ZM173.573 151.207L185.54 150.314L161.588 150.6L173.573 151.207ZM228.704 139.306L240.678 140.101L241.528 127.306H228.704V139.306ZM294.235 185.957L288.594 175.365L288.591 175.366L294.235 185.957ZM87.6517 86.8566L75.6783 86.0578L75.1984 93.2505L81.3232 97.0522L87.6517 86.8566ZM117.868 179.559C114.386 181.701 110.548 182.801 106.069 182.801V206.801C114.822 206.801 123.041 204.554 130.443 200.001L117.868 179.559ZM106.069 182.801C100.666 182.801 96.7837 181.244 93.6479 178.466L77.7341 196.431C85.6653 203.457 95.3685 206.801 106.069 206.801V182.801ZM68.2897 182.301C67.5516 183.502 66.9024 184.101 66.5386 184.379L81.1239 203.439C83.9093 201.307 86.5162 198.48 88.735 194.871L68.2897 182.301ZM171.048 182.068L159.33 177.722L150.983 200.223L162.701 204.57L171.048 182.068ZM224.669 183.611L227.414 192.124L250.256 184.759L247.511 176.246L224.669 183.611ZM233.31 181.056C232.463 181.322 231.336 181.612 229.886 181.906L234.647 205.429C236.705 205.012 238.671 204.528 240.499 203.954L233.31 181.056ZM229.807 181.922C227.444 182.417 225.282 182.639 223.303 182.639V206.639C227.086 206.639 230.9 206.214 234.726 205.413L229.807 181.922ZM280.771 178.566L285.297 186.709L306.275 175.049L301.749 166.906L280.771 178.566ZM277.114 181.158C273.997 182.42 271.952 182.639 270.719 182.639V206.639C275.249 206.639 280.343 205.743 286.119 203.405L277.114 181.158ZM397.653 150.886C397.653 147.52 397.551 136.825 396.612 130.983L372.916 134.793C373.167 136.349 373.374 139.291 373.501 142.747C373.622 146.027 373.653 149.196 373.653 150.886H397.653ZM396.612 130.983C395.854 126.269 394.261 120.76 392.175 115.934L370.146 125.458C371.462 128.503 372.483 132.095 372.916 134.793L396.612 130.983ZM433.154 120.164C432.603 119.965 432.041 119.781 431.466 119.614L424.799 142.67C424.836 142.68 424.897 142.7 424.985 142.731L433.154 120.164ZM432.212 119.857C429.238 118.782 426.181 118.332 423.171 118.332V142.332C423.789 142.332 424.039 142.422 424.054 142.428L432.212 119.857ZM403.666 180.58L389.517 177.567L384.518 201.04L398.667 204.053L403.666 180.58ZM396.222 186.232C396.587 178.097 397.653 154.189 397.653 150.886H373.653C373.653 153.476 372.636 176.468 372.246 185.154L396.222 186.232ZM284.948 128.931L271.188 128.57L270.56 152.562L284.32 152.922L284.948 128.931ZM352.823 178.14C343.611 183.196 336.223 183.959 329.948 182.224L323.554 205.357C337.227 209.136 351.069 206.479 364.37 199.18L352.823 178.14ZM330.032 182.248C323.91 180.508 318.387 176.22 313.734 167.535L292.58 178.87C299.625 192.02 309.833 201.457 323.47 205.333L330.032 182.248ZM365.569 159.761C364.552 164.138 363.144 167.679 361.769 169.543L381.079 183.794C385.374 177.975 387.684 170.623 388.946 165.193L365.569 159.761ZM361.884 169.39C358.331 174.047 356.672 176.028 352.823 178.14L364.37 199.18C372.903 194.497 377.102 189.01 380.965 183.947L361.884 169.39ZM389.517 177.567C393.586 178.433 396.407 182.114 396.222 186.232L372.246 185.154C371.906 192.731 377.083 199.457 384.518 201.04L389.517 177.567ZM227.414 192.124C226.24 188.481 227.674 182.825 233.31 181.056L240.499 203.954C249.508 201.125 252.522 191.785 250.256 184.759L227.414 192.124ZM422.898 125.643C423.715 122.922 425.708 121.132 427.647 120.319C429.472 119.554 431.422 119.537 433.154 120.164L424.985 142.731C432.052 145.29 442.796 142.824 445.883 132.547L422.898 125.643ZM159.613 189.574C159.898 183.967 165.575 180.038 171.048 182.068L162.701 204.57C172.62 208.25 183.057 201.159 183.583 190.789L159.613 189.574ZM285.297 186.709C283.003 182.581 284.571 177.509 288.645 175.338L299.932 196.518C307.603 192.43 310.555 182.75 306.275 175.049L285.297 186.709ZM93.6479 178.466C85.7323 171.454 73.5004 173.826 68.2897 182.301L88.735 194.871C87.3943 197.052 85.382 198.011 83.7781 198.269C82.1637 198.53 79.7958 198.258 77.7341 196.431L93.6479 178.466ZM66.5386 184.379C69.8939 181.811 73.6832 182.252 75.9491 183.388L65.1924 204.843C69.57 207.037 75.8907 207.443 81.1239 203.439L66.5386 184.379ZM23.4268 168.873C24.3195 166.768 25.0557 164.619 25.6204 162.428L2.38004 156.438C2.12761 157.417 1.78315 158.438 1.33158 159.503L23.4268 168.873ZM25.65 162.311C26.6953 158.079 27.1083 153.37 27.1083 148.406H3.10829C3.10829 152.163 2.78254 154.806 2.35039 156.555L25.65 162.311ZM27.1076 148.538L28.2892 41.3942L4.29062 41.1296L3.10902 148.273L27.1076 148.538ZM19.4713 49.1796L39.4808 51.3807L42.105 27.5246L22.0956 25.3235L19.4713 49.1796ZM29.5754 164.175L19.6838 159.216L8.92709 180.67L18.8187 185.629L29.5754 164.175ZM127.815 69.9805C127.248 69.4295 126.836 68.8215 126.836 67.1863H102.836C102.836 74.7716 105.502 81.7642 111.091 87.1942L127.815 69.9805ZM126.836 67.1863C126.836 65.551 127.248 64.943 127.815 64.3921L111.091 47.1784C105.502 52.6083 102.836 59.601 102.836 67.1863H126.836ZM127.645 64.5542C128.401 63.8474 129.379 63.2996 131.457 63.2996V39.2996C123.933 39.2996 116.907 41.7422 111.261 47.0163L127.645 64.5542ZM131.457 63.2996C133.541 63.2996 134.351 63.8438 134.915 64.3921L151.639 47.1784C146.047 41.7458 138.978 39.2996 131.457 39.2996V63.2996ZM180.931 58.696L197.502 61.491L201.493 37.8253L184.923 35.0303L180.931 58.696ZM243.762 160.01C241.976 158.105 240.174 154.298 240.174 147.284H216.174C216.174 158.047 218.928 168.611 226.253 176.424L243.762 160.01ZM236.566 70.3346L253.212 74.5463L259.099 51.2794L242.453 47.0677L236.566 70.3346ZM268.35 156.064L273.572 165.459L294.549 153.8L289.327 144.404L268.35 156.064ZM390.415 94.9207L397.026 90.9206L384.602 70.3869L377.991 74.3871L390.415 94.9207ZM420.235 99.2608C422 97.4675 424.047 95.9498 426.191 94.5279L412.929 74.5254C410.187 76.3434 406.579 78.9213 403.13 82.4252L420.235 99.2608ZM426.035 94.6295C426.93 94.0562 429.382 93.3078 433.075 93.3078V69.3078C427.41 69.3078 419.577 70.2622 413.085 74.4237L426.035 94.6295ZM433.075 93.3078C435.731 93.3078 437.465 93.6713 438.534 94.0646L446.823 71.5414C442.474 69.941 437.806 69.3078 433.075 69.3078V93.3078ZM438.694 94.1222C439.445 94.3867 440.011 94.6354 440.421 94.8371L451.019 73.3037C449.752 72.6802 448.308 72.0629 446.663 71.4838L438.694 94.1222ZM269.355 89.4531C270.131 80.3131 270.798 72.5032 271.163 68.242L247.25 66.1953C246.885 70.4602 246.217 78.2759 245.441 87.4231L269.355 89.4531ZM244.203 90.9944C245.125 79.423 245.971 69.0627 246.444 63.3005L222.524 61.336C222.05 67.1101 221.203 77.4915 220.279 89.0893L244.203 90.9944ZM387.719 90.3704C389.845 91.9553 392.412 94.6569 395.712 98.5647L414.049 83.0809C410.689 79.1022 406.597 74.5083 402.063 71.1288L387.719 90.3704ZM301.319 110.292C304.029 105.647 308.481 101.297 315.415 97.4923L303.869 76.4523C293.918 81.913 285.912 89.0771 280.59 98.1951L301.319 110.292ZM315.415 97.4923C322.129 93.8078 328.143 92.3431 333.618 92.4665L334.159 68.4726C323.756 68.2381 313.606 71.1085 303.869 76.4523L315.415 97.4923ZM333.783 92.4691C339.369 92.5183 344.181 94.0235 348.541 96.9695L361.978 77.0835C353.604 71.4257 344.169 68.5596 333.994 68.47L333.783 92.4691ZM348.617 97.0205C353.117 100.011 356.95 104.22 360.042 109.991L381.197 98.6557C376.425 89.749 370.017 82.4262 361.901 77.0324L348.617 97.0205ZM440.421 94.8371C435.814 92.5698 435.079 87.8284 435.936 84.9744L458.922 91.8783C460.802 85.6174 458.802 77.1345 451.019 73.3037L440.421 94.8371ZM242.453 47.0677C232.756 44.6144 223.331 51.5146 222.524 61.336L246.444 63.3005C246.049 68.104 241.411 71.5605 236.566 70.3346L242.453 47.0677ZM279.347 159.183C275.32 161.411 270.43 159.807 268.35 156.064L289.327 144.404C285.129 136.85 275.553 133.852 267.725 138.184L279.347 159.183ZM122.138 79.9741C112.171 78.7133 103.651 86.7768 104.088 96.6413L128.065 95.5773C128.278 100.39 124.107 104.415 119.125 103.784L122.138 79.9741ZM397.026 90.9206C394.727 92.3122 390.973 92.7964 387.719 90.3704L402.063 71.1288C396.418 66.9201 389.452 67.4521 384.602 70.3869L397.026 90.9206ZM403.13 82.4252C404.478 81.0559 406.269 80.3343 408.107 80.3163C410.027 80.2975 412.356 81.0765 414.049 83.0809L395.712 98.5647C402.714 106.858 414.218 105.374 420.235 99.2608L403.13 82.4252ZM184.923 35.0303C175.431 33.4293 166.726 40.4708 166.227 50.0339L190.194 51.2846C189.949 55.9826 185.649 59.4918 180.931 58.696L184.923 35.0303ZM28.2892 41.3942C28.2384 45.9929 24.2257 49.7026 19.4713 49.1796L22.0956 25.3235C12.5795 24.2767 4.3945 31.71 4.29062 41.1296L28.2892 41.3942ZM1.33158 159.503C-1.69889 166.648 0.421721 176.406 8.9271 180.67L19.6838 159.216C24.0392 161.399 24.6372 166.019 23.4268 168.873L1.33158 159.503ZM39.4808 51.3807C37.4135 51.1533 35.6083 50.1389 34.3588 48.7085L52.4338 32.9195C49.8921 30.0097 46.2632 27.982 42.105 27.5246L39.4808 51.3807ZM78.8225 86.4662C77.0035 84.7962 75.9273 82.3246 76.1039 79.6787L100.051 81.2763C100.376 76.3995 98.4022 71.8613 95.0534 68.7869L78.8225 86.4662ZM20.1504 186.215L65.9776 205.201L75.1639 183.029L29.3367 164.042L20.1504 186.215ZM19.604 185.988L20.1505 186.215L29.3366 164.042L28.7901 163.816L19.604 185.988ZM94.4654 68.2766L51.1439 31.6502L35.6487 49.9778L78.9702 86.6042L94.4654 68.2766ZM78.9702 86.6042L79.1904 86.7903L94.6856 68.4628L94.4654 68.2767L78.9702 86.6042ZM124.3 101.088L101.173 82.2042L85.9938 100.794L109.12 119.678L124.3 101.088ZM128.698 109.851L128.065 95.5773L104.088 96.6413L104.722 110.915L128.698 109.851ZM159.33 177.722C160.098 178.006 160.812 178.398 161.452 178.875L147.11 198.119C148.278 198.989 149.579 199.702 150.983 200.223L159.33 177.722ZM129.788 187.819L148.117 198.792L160.445 178.201L142.116 167.227L129.788 187.819ZM125.577 171.493C123.547 174.986 120.977 177.622 117.812 179.594L130.5 199.966C137.098 195.856 142.393 190.322 146.327 183.553L125.577 171.493ZM183.004 83.1728L154.505 50.4093L136.397 66.1604L164.896 98.9238L183.004 83.1728ZM111.179 87.2788L127.101 102.436L143.649 85.0529L127.727 69.8958L111.179 87.2788ZM134.223 63.6607L136.397 66.1604L154.505 50.4093L152.331 47.9097L134.223 63.6607ZM119.125 103.784L133.869 105.649L136.881 81.8392L122.138 79.9741L119.125 103.784ZM197.502 61.491C195.059 61.0789 193.052 59.5781 191.922 57.595L212.772 45.7091C210.469 41.6698 206.415 38.6555 201.493 37.8253L197.502 61.491ZM214.514 93.1909C213.747 91.824 213.354 90.2308 213.443 88.5941L237.408 89.8941C237.572 86.8681 236.849 83.9511 235.445 81.4485L214.514 93.1909ZM235.112 80.8904L212.479 45.2227L192.215 58.0814L214.847 93.749L235.112 80.8904ZM223.303 182.639C218.578 182.639 216.26 181.506 215.051 180.509L199.774 199.018C206.441 204.521 214.717 206.639 223.303 206.639V182.639ZM189.786 160.672C189.492 160.433 189.211 160.175 188.941 159.895L171.652 176.54C172.595 177.52 173.596 178.441 174.653 179.299L189.786 160.672ZM175.37 179.865L200.003 199.202L214.823 180.325L190.19 160.987L175.37 179.865ZM190.19 160.987L189.629 160.547L174.809 179.424L175.37 179.865L190.19 160.987ZM226.573 186.825C225.755 185.962 225.076 184.872 224.669 183.611L247.511 176.246C246.765 173.933 245.526 171.933 243.992 170.315L226.573 186.825ZM243.81 170.127L229.983 155.925L212.787 172.667L226.615 186.869L243.81 170.127ZM233.369 164.926C233.673 159.125 234.163 149.979 234.702 139.95L210.737 138.661C210.197 148.69 209.707 157.849 209.402 163.667L233.369 164.926ZM226.615 186.869L226.685 186.941L243.88 170.198L243.81 170.126L226.615 186.869ZM294.25 84.385C291.699 78.8409 285.825 74.6016 278.646 75.0592L280.173 99.0106C276.579 99.2397 273.671 97.0764 272.448 94.419L294.25 84.385ZM301.036 101.887L294.73 85.5612L272.342 94.2093L278.649 110.535L301.036 101.887ZM300.448 111.825C300.694 111.36 300.957 110.895 301.237 110.431L280.672 98.0568C280.17 98.8922 279.691 99.7391 279.237 100.597L300.448 111.825ZM272.155 93.7259L272.342 94.2092L294.73 85.5613L294.543 85.0781L272.155 93.7259ZM301.778 166.959L294.599 153.889L273.563 165.443L280.742 178.513L301.778 166.959ZM294.597 153.886L294.577 153.849L273.544 165.409L273.564 165.446L294.597 153.886ZM270.719 182.639C265.438 182.639 263.136 181.242 261.96 180.042L244.82 196.842C251.742 203.905 260.994 206.639 270.719 206.639V182.639ZM226.127 176.289L243.861 195.8L261.621 179.657L243.887 160.146L226.127 176.289ZM262.27 180.371L261.621 179.657L243.861 195.8L244.51 196.513L262.27 180.371ZM373.965 145.57C369.666 145.462 365.986 141.849 366.176 137.171L390.156 138.146C390.523 129.134 383.362 121.798 374.566 121.578L373.965 145.57ZM365.348 161.809C365.339 161.112 365.415 160.424 365.569 159.761L388.946 165.193C389.228 163.978 389.361 162.741 389.346 161.509L365.348 161.809ZM366.173 137.249L365.354 161.249L389.34 162.069L390.159 138.068L366.173 137.249ZM360.042 109.991C360.261 110.399 360.331 110.633 360.349 110.701C360.363 110.758 360.34 110.69 360.346 110.533L384.328 111.467C384.51 106.776 383.228 102.446 381.197 98.6557L360.042 109.991ZM384.289 133.55L384.337 111.025L360.337 110.975L360.289 133.499L384.289 133.55ZM371.989 145.521L373.965 145.57L374.566 121.578L372.59 121.528L371.989 145.521ZM394.188 88.3321C394.192 90.5966 393.083 93.3066 390.415 94.9207L377.991 74.3871C372.697 77.5904 370.178 83.158 370.188 88.3757L394.188 88.3321ZM392.175 115.934C392.564 116.835 392.777 117.782 392.821 118.726L368.847 119.848C368.936 121.744 369.363 123.648 370.146 125.458L392.175 115.934ZM445.791 132.84L455.322 103.829L432.521 96.3385L422.99 125.349L445.791 132.84ZM393.586 187.131C394.518 182.691 398.911 179.567 403.666 180.58L398.667 204.053C407.28 205.888 415.358 200.24 417.074 192.06L393.586 187.131ZM398.553 168.501C398.599 167.415 398.873 166.35 399.345 165.38L420.927 175.877C421.874 173.93 422.436 171.772 422.532 169.517L398.553 168.501ZM416.963 192.543L421.768 173.576L398.504 167.681L393.698 186.648L416.963 192.543ZM370.199 87.8292L368.877 118.04L392.854 119.089L394.177 88.8786L370.199 87.8292ZM368.877 118.039L368.846 118.762L392.823 119.812L392.854 119.089L368.877 118.039ZM420.396 142.79C420.402 142.784 420.409 142.777 420.435 142.761C420.463 142.744 420.548 142.696 420.719 142.637C421.073 142.514 421.831 142.332 423.171 142.332V118.332C416.218 118.332 409.134 120.25 403.64 125.607L420.396 142.79ZM400.029 133.69L398.553 168.501L422.532 169.517L424.007 134.707L400.029 133.69ZM455.413 103.541L458.92 91.8836L435.938 84.9691L432.43 96.6267L455.413 103.541ZM303.143 145.105C301.406 141.863 300.095 138.739 299.164 135.729L276.235 142.819C277.661 147.431 279.594 151.972 281.988 156.44L303.143 145.105ZM277.521 132.919C279.085 130.413 281.887 128.85 284.948 128.931L284.32 152.922C289.884 153.068 295.007 150.229 297.879 145.629L277.521 132.919ZM314.008 168.079L303.417 145.648L281.714 155.896L292.306 178.326L314.008 168.079ZM231.478 78.0662L224.595 78.505L226.122 102.456L233.005 102.018L231.478 78.0662ZM176.76 105.603L176.799 105.601L175.272 81.6493L175.233 81.6518L176.76 105.603ZM267.725 138.184C266.655 138.776 265.511 139.408 264.362 140.025L275.716 161.169C277.01 160.474 278.269 159.779 279.347 159.183L267.725 138.184ZM281.998 151.585C282.261 148.412 282.542 145.029 282.832 141.567L258.916 139.565C258.625 143.033 258.343 146.425 258.08 149.608L281.998 151.585ZM253.212 74.5463C250.908 73.9633 249.089 72.4159 248.094 70.4756L269.449 59.5244C267.417 55.561 263.732 52.4516 259.099 51.2794L253.212 74.5463ZM258.161 100.414L269.66 99.6808L268.133 75.7294L256.635 76.4624L258.161 100.414ZM247.743 69.6905C247.326 68.5969 247.147 67.401 247.25 66.1953L271.163 68.242C271.375 65.7684 271.009 63.3393 270.162 61.1219L247.743 69.6905ZM247.812 69.8874L247.993 70.2936L269.912 60.5188L269.731 60.1126L247.812 69.8874ZM278.646 75.0592L268.133 75.7294L269.66 99.6808L280.173 99.0106L278.646 75.0592ZM161.606 152.101C162.292 161.285 165.407 169.88 171.542 176.424L189.051 160.01C187.457 158.309 185.913 155.31 185.54 150.314L161.606 152.101ZM222.72 151.306H228.704V127.306H222.72V151.306ZM240.148 148.08L240.678 140.101L216.731 138.511L216.201 146.489L240.148 148.08ZM161.588 150.6L159.613 189.574L183.583 190.789L185.558 151.815L161.588 150.6ZM286.119 203.405C289.977 201.843 296.409 198.396 299.879 196.547L288.591 175.366C284.527 177.533 279.496 180.194 277.113 181.158L286.119 203.405ZM299.876 196.548L299.93 196.519L288.648 175.336L288.594 175.365L299.876 196.548ZM237.341 91.1305L237.408 89.894L213.443 88.5943L213.376 89.8308L237.341 91.1305ZM166.227 50.0339C165.813 57.9657 164.918 75.1779 164.015 92.9582L187.984 94.1754C188.886 76.4111 189.781 59.2115 190.194 51.2846L166.227 50.0339ZM165.614 99.6802C165.749 99.8109 165.8 99.8888 165.813 99.9098L186.186 87.2239C185.077 85.4423 183.761 83.8411 182.286 82.4164L165.614 99.6802ZM165.796 99.882L165.832 99.9401L186.24 87.3098L186.204 87.2517L165.796 99.882ZM187.981 94.2367L187.984 94.1761L164.015 92.9575L164.012 93.0181L187.981 94.2367ZM101.935 82.8821C99.4982 80.5203 96.8455 78.4395 93.9801 76.661L81.3232 97.0522C82.6921 97.9019 83.994 98.9161 85.2322 100.116L101.935 82.8821ZM99.625 87.6554L100.051 81.2763L76.1039 79.6787L75.6783 86.0578L99.625 87.6554Z" fill="#F62C00" mask="url(#path-5-outside-1_202_14)"/>
<path d="M131.432 83.0513C126.63 83.0513 122.628 81.5557 119.427 78.5646C116.349 75.5734 114.81 71.7722 114.81 67.1609C114.81 62.5495 116.349 58.7483 119.427 55.7571C122.628 52.766 126.63 51.2704 131.432 51.2704C136.234 51.2704 140.174 52.766 143.252 55.7571C146.453 58.7483 148.054 62.5495 148.054 67.1609C148.054 71.7722 146.453 75.5734 143.252 78.5646C140.174 81.5557 136.234 83.0513 131.432 83.0513ZM116.054 96.1756C115.94 93.6042 118.14 91.5477 120.663 91.8669L140.78 94.4123C142.914 94.6822 144.48 96.5735 144.37 98.7473L140.746 170.274C140.604 173.069 137.83 174.925 135.235 173.962L121.807 168.98C120.254 168.404 119.194 166.939 119.12 165.266L116.054 96.1756Z" fill="white"/>
<path fill-rule="evenodd" clip-rule="evenodd" d="M14.3441 169.976C12.2343 168.918 11.4613 166.292 12.3844 164.1C13.0399 162.543 13.5683 160.986 13.9695 159.429C14.7083 156.438 15.0776 152.761 15.0776 148.399L16.2584 41.3086C16.2855 38.8552 18.3961 36.9598 20.8059 37.2249L40.7111 39.415C42.8997 39.6558 44.5108 41.6015 44.3625 43.8249L41.8985 80.7632C41.6548 84.4166 46.0853 86.8385 49.3424 85.2451C50.0326 84.9075 50.7389 84.5847 51.4614 84.2768C56.1402 82.2827 61.1268 81.2856 66.4212 81.2856C78.6107 81.2856 88.3376 85.3985 95.6021 93.6241C102.866 101.85 106.499 113.44 106.499 128.396C106.499 137.743 104.652 146.031 100.958 153.26C97.3874 160.364 92.4008 165.91 85.9982 169.898C79.7188 173.762 72.7622 175.693 65.1284 175.693C55.8651 175.693 48.0462 172.882 41.6717 167.259C39.2149 165.092 35.0145 165.8 33.2843 168.596C31.5953 171.324 29.7399 173.275 27.9441 174.652C26.851 175.491 25.3799 175.51 24.151 174.894L14.3441 169.976ZM76.7638 148.96C73.1931 153.696 68.0218 156.064 61.2499 156.064C53.9855 156.064 48.4448 153.758 44.6279 149.147C40.9341 144.411 39.0872 138.117 39.0872 130.266V126.901C39.0872 119.672 40.9341 113.565 44.6279 108.58C48.3217 103.47 53.6161 100.915 60.5111 100.915C74.9169 100.915 82.1198 110.075 82.1198 128.396C82.1198 137.245 80.3344 144.1 76.7638 148.96Z" fill="white"/>
<path d="M234.986 168.216C239.665 173.076 246.375 175.507 255.117 175.507C258.442 175.507 262.561 174.863 267.691 172.785C271.29 171.328 277.897 167.807 282.244 165.49C284.354 164.366 285.165 161.648 283.996 159.545L278.842 150.269C277.769 148.338 275.406 147.631 273.486 148.694C269.939 150.657 265.02 153.358 262.561 154.091C259.078 155.129 257.431 155.129 255.379 154.091C253.326 153.052 252.532 150.933 252.532 147.838C252.532 146.504 253.825 130.673 255.296 113.1L230.466 112.45C229.199 129.012 228.153 143.765 228.153 147.278C228.153 156.168 230.43 163.355 234.986 168.216Z" fill="white"/>
<path d="M283.276 92.9075C284.579 90.051 282.394 86.8226 279.292 87.0204L257.378 88.4177C256.722 96.1414 255.989 104.814 255.296 113.1L271.147 113.515C272.786 113.558 274.293 112.61 274.98 111.103L283.276 92.9075Z" fill="white"/>
<path d="M230.466 112.45L255.296 113.1C255.989 104.814 256.722 96.1414 257.378 88.4177L232.22 90.0218C231.64 97.2989 231.031 105.055 230.466 112.45Z" fill="white"/>
<path d="M200.788 92.026C200.435 98.5542 200.074 105.254 199.73 111.646L230.466 112.45C231.031 105.055 231.64 97.2989 232.22 90.0218L200.788 92.026Z" fill="white"/>
<path d="M175.973 93.6082C175.676 99.4486 175.379 105.349 175.098 111.001L199.73 111.646C200.074 105.254 200.435 98.5542 200.788 92.026L175.973 93.6082Z" fill="white"/>
<path d="M159.449 94.6618C157.391 94.793 155.749 96.4492 155.612 98.5316L155.11 106.153C154.955 108.508 156.768 110.521 159.099 110.582L175.098 111.001C175.379 105.349 175.676 99.4486 175.973 93.6082L159.449 94.6618Z" fill="white"/>
<path d="M180.273 168.216C184.952 173.076 191.662 175.507 200.404 175.507C203.728 175.507 207.176 175.133 210.747 174.385C212.746 173.98 214.51 173.539 216.041 173.061C218.018 172.444 218.945 170.273 218.303 168.281L215.179 158.591C214.401 156.177 211.663 155.059 209.199 155.53C207.987 155.761 206.717 155.877 205.391 155.877C202.805 155.877 200.896 155.254 199.665 154.008C198.434 152.761 197.717 150.933 197.818 147.838C197.859 146.589 198.719 130.452 199.73 111.646L175.098 111.001C174.218 128.678 173.494 143.922 173.439 147.278C173.295 156.168 175.717 163.355 180.273 168.216Z" fill="white"/>
<path d="M202.849 53.9368C202.964 51.8225 201.489 49.9684 199.425 49.6203L182.955 46.8416C180.539 46.4342 178.312 48.2324 178.183 50.7074C177.767 58.6818 176.874 75.8678 175.973 93.6082L200.788 92.026C201.662 75.8333 202.482 60.6964 202.849 53.9368Z" fill="white"/>
<path d="M259.18 67.2634C259.354 65.2295 258.043 63.3692 256.086 62.874L239.539 58.6867C237.085 58.0657 234.666 59.815 234.457 62.3669C233.982 68.151 233.138 78.4846 232.22 90.0218L257.378 88.4177C258.15 79.3218 258.814 71.5427 259.18 67.2634Z" fill="white"/>
<path d="M387.739 125.01C387.739 120.856 387.588 109.681 386.713 104.238C386.03 99.986 384.535 94.7695 382.588 90.2463C381.707 88.1977 382.356 85.7414 384.251 84.5948L390.782 80.642C392.069 79.8631 393.687 79.8387 394.893 80.7398C398.206 83.2136 401.519 86.8397 404.831 90.7613C406.581 92.8329 409.804 92.7126 411.707 90.7845C414.303 88.1539 417.115 86.1177 419.547 84.5053C423.24 82.1373 428.383 81.2856 433.062 81.2856C436.756 81.2856 439.957 81.7842 442.666 82.7812C443.841 83.195 444.83 83.6195 445.659 84.0251C447.276 84.8166 447.92 86.7289 447.398 88.4686L443.997 99.7937C443.224 102.366 440.293 103.459 437.79 102.56C437.438 102.433 437.094 102.321 436.756 102.224C435.032 101.6 433.124 101.289 431.03 101.289C424.628 101.289 419.887 103.283 416.809 107.271C413.854 111.259 412.377 117.304 412.377 125.405L410.532 168.927C410.424 171.491 408.067 173.343 405.587 172.815L389.361 169.358C387.392 168.939 386.013 167.146 386.105 165.111C386.543 155.345 387.739 128.403 387.739 125.01Z" fill="white"/>
<path d="M356.518 168.606C343.53 175.735 331.281 177.709 319.772 174.527C308.372 171.286 299.296 163.366 292.547 150.766C288.145 142.549 285.757 134.432 285.384 126.414C285.01 118.396 286.861 111 290.936 104.227C294.952 97.3439 301.181 91.5854 309.624 86.9515C317.85 82.4363 325.932 80.2683 333.872 80.4472C341.752 80.5166 348.876 82.7028 355.243 87.0057C361.551 91.199 366.672 96.9659 370.604 104.306C372.541 107.922 372.847 111.369 371.522 114.648C370.247 117.758 367.553 120.442 363.44 122.7L321.913 145.493C319.921 146.587 319.132 149.176 320.698 150.834C323 153.273 326.034 154.729 329.798 155.201C335.162 155.801 340.929 154.408 347.098 151.022C352.185 148.23 356.079 145.171 358.78 141.845C360.601 139.532 362.017 137.467 363.046 135.724C363.886 134.3 365.38 133.342 367.018 133.383L374.25 133.564C376.751 133.627 378.623 135.923 378.051 138.388C376.736 144.047 374.591 150.333 371.32 154.766C367.042 160.375 363.662 164.685 356.518 168.606ZM342.646 112.209C344.639 111.115 345.423 108.542 343.938 106.808C341.538 104.004 338.44 102.235 334.646 101.501C329.539 100.335 324.279 101.237 318.868 104.207C313.672 107.059 310.11 110.999 308.182 116.027C306.8 119.602 306.625 123.166 307.657 126.72C308.297 128.922 310.853 129.66 312.845 128.566L342.646 112.209Z" fill="white"/>
<path d="M453.929 16.391C453.749 13.0877 457.27 10.9067 460.094 12.5724L495.074 33.2065C496.55 34.0769 497.339 35.7812 497.055 37.4858L481.746 129.496C481.388 131.649 479.444 133.153 477.298 132.94L463.702 131.59C461.686 131.39 460.116 129.731 460.005 127.684L453.929 16.391ZM469.207 173.824C464.529 173.824 460.712 172.453 457.757 169.711C454.925 166.969 453.509 163.293 453.509 158.681C453.509 154.07 454.925 150.393 457.757 147.651C460.712 144.91 464.529 143.539 469.207 143.539C473.886 143.539 477.642 144.91 480.474 147.651C483.429 150.393 484.906 154.07 484.906 158.681C484.906 163.293 483.429 166.969 480.474 169.711C477.642 172.453 473.886 173.824 469.207 173.824Z" fill="#FFE03B"/>
<path d="M611.705 175.693C609.612 171.955 608.073 168.091 607.088 164.103C606.226 159.99 605.795 155.379 605.795 150.269V119.797C605.795 113.44 604.749 108.767 602.655 105.776C600.562 102.784 597.423 101.289 593.236 101.289C583.509 101.289 578.646 107.458 578.646 119.797V173.824H554.636V119.61C554.636 113.004 553.651 108.331 551.681 105.589C549.834 102.722 546.818 101.289 542.632 101.289C537.337 101.289 533.459 103.221 530.996 107.084C528.534 110.823 527.302 116.494 527.302 124.096V173.824H502.923V108.58C502.923 104.841 502.616 101.6 502 98.8586C501.507 96.1167 500.461 93.0632 498.86 89.6982L519.176 81.2856C520.284 83.2797 521.269 85.6477 522.131 88.3896C523.116 91.1315 523.67 93.4994 523.793 95.4935C526.379 90.8822 529.826 87.3925 534.136 85.0245C538.445 82.5319 543.062 81.2856 547.988 81.2856C557.714 81.2856 564.917 85.897 569.596 95.1196C573.536 90.259 577.784 86.7694 582.34 84.6507C586.895 82.4073 592.313 81.2856 598.592 81.2856C608.689 81.2856 616.446 84.2768 621.863 90.259C627.404 96.2413 630.174 104.093 630.174 113.814V149.708C630.174 156.563 631.405 162.483 633.868 167.468L611.705 175.693Z" fill="white"/>
<path d="M693.749 175.236C678.235 175.236 664.055 171.061 655.313 162.711C646.571 154.361 642.2 142.832 642.2 128.126C642.2 113.295 646.509 101.704 655.128 93.354C663.747 85.0037 677.681 80.8286 692.825 80.8286C699.844 80.8286 708.421 82.0126 714.454 84.3806C720.488 86.6239 725.351 89.6151 729.045 93.354L720.734 109.618C713.593 103.761 703.291 100.832 693.933 100.832C686.177 100.832 678.03 103.075 673.597 107.562C669.165 112.049 666.948 118.903 666.948 128.126C666.948 137.224 669.165 144.016 673.597 148.503C678.153 152.99 686.484 155.233 694.488 155.233C699.043 155.233 705.158 154.548 708.729 153.177C712.423 151.681 715.932 149.313 719.256 146.073L732 159.533C727.937 164.394 722.704 168.257 716.301 171.124C709.899 173.865 701.013 175.236 693.749 175.236Z" fill="white"/>
</g>
<defs>
<clipPath id="clip0_202_14">
<rect width="748" height="208" fill="white"/>
</clipPath>
</defs>
</svg>
