<svg width="518" height="110" viewBox="0 0 518 110" fill="none" xmlns="http://www.w3.org/2000/svg">
<path d="M19.753 103.5C13.0864 92 1.75302 69.7 9.75302 64.5C19.753 58 29.753 73 29.753 77C33.0864 70 41.953 57.9 50.753 65.5C59.553 73.1 49.4197 93 43.253 103M100.253 67C88.753 56.5 65.253 66 67.753 84.5C70.253 103 92.753 104.5 100.253 95C107.753 85.5 104.753 71 100.253 67ZM100.253 67C105.586 73.1667 116.453 91.4 121.253 103M161.253 65.5C147.253 60 126.864 66.5 129.753 86C132.642 105.5 157.753 104 163.253 93" stroke="#4169E1" stroke-width="12" stroke-linecap="round" stroke-linejoin="round"/>
<path d="M19.753 103.5C13.0864 92 1.75302 69.7 9.75302 64.5C19.753 58 29.753 73 29.753 77C33.0864 70 41.953 57.9 50.753 65.5C59.553 73.1 49.4197 93 43.253 103M100.253 67C88.753 56.5 65.253 66 67.753 84.5C70.253 103 92.753 104.5 100.253 95C107.753 85.5 104.753 71 100.253 67ZM100.253 67C105.586 73.1667 116.453 91.4 121.253 103M161.253 65.5C147.253 60 126.864 66.5 129.753 86C132.642 105.5 157.753 104 163.253 93" stroke="black" stroke-opacity="0.75" stroke-width="12" stroke-linecap="round" stroke-linejoin="round"/>
<path d="M204.253 65.5C189.253 58.5 169.753 68.6666 176.753 88.5C182.753 105.5 207.753 105 214.253 88.5C223.32 65.483 210.753 38.5 194.753 8M288.253 62.5C284.253 71.6667 276.253 93.5 283.753 99C294.017 106.527 303.753 91.5 302.753 80C306.253 87.6667 312.753 107 321.753 100C330.753 93 323.253 69 318.753 64.5M340.753 99C339.253 87.3333 338.653 69.3 336.253 62.5C359.253 61 372.753 67.5 375.753 101.5M251.753 61C240.753 60.56 226.253 69 230.753 87C235.253 105 261.253 104 267.253 87C273.253 70 262.753 61.44 251.753 61Z" stroke="white" stroke-width="12" stroke-linecap="round" stroke-linejoin="round"/>
<path d="M204.253 65.5C189.253 58.5 169.753 68.6666 176.753 88.5C182.753 105.5 207.753 105 214.253 88.5C223.32 65.483 210.753 38.5 194.753 8M288.253 62.5C284.253 71.6667 276.253 93.5 283.753 99C294.017 106.527 303.753 91.5 302.753 80C306.253 87.6667 312.753 107 321.753 100C330.753 93 323.253 69 318.753 64.5M340.753 99C339.253 87.3333 338.653 69.3 336.253 62.5C359.253 61 372.753 67.5 375.753 101.5M251.753 61C240.753 60.56 226.253 69 230.753 87C235.253 105 261.253 104 267.253 87C273.253 70 262.753 61.44 251.753 61Z" stroke="black" stroke-opacity="0.75" stroke-width="12" stroke-linecap="round" stroke-linejoin="round"/>
<path d="M388.753 102C390.42 93 394.238 73.7098 391.253 58.5C386.753 35.5713 375.253 16 368.753 7M357.253 40.5C378.753 36.5 403.253 28.5 432.753 36.5M416.753 59C409.753 70 394.253 97.5 415.253 100.5C425.753 102 425.92 91.3333 429.753 82C432.92 91.8333 439.425 104.847 450.753 99C466.253 91 449.92 65.6667 443.753 59M487.253 58.5C472.253 60.5 466.063 74.1354 470.753 86.5C477.77 105 502.813 102.628 508.753 89C517.253 69.5 502.253 56.5 487.253 58.5Z" stroke="#FF341C" stroke-width="12" stroke-linecap="round" stroke-linejoin="round"/>
<path d="M388.753 102C390.42 93 394.238 73.7098 391.253 58.5C386.753 35.5713 375.253 16 368.753 7M357.253 40.5C378.753 36.5 403.253 28.5 432.753 36.5M416.753 59C409.753 70 394.253 97.5 415.253 100.5C425.753 102 425.92 91.3333 429.753 82C432.92 91.8333 439.425 104.847 450.753 99C466.253 91 449.92 65.6667 443.753 59M487.253 58.5C472.253 60.5 466.063 74.1354 470.753 86.5C477.77 105 502.813 102.628 508.753 89C517.253 69.5 502.253 56.5 487.253 58.5Z" stroke="black" stroke-opacity="0.75" stroke-width="12" stroke-linecap="round" stroke-linejoin="round"/>
<path d="M17.7516 101.5C11.0849 90 -0.248443 67.7 7.75156 62.5C17.7516 56 27.7516 71 27.7516 75C31.0849 68 39.9516 55.9 48.7516 63.5C57.5516 71.1 47.4182 91 41.2516 101M98.2516 65C86.7516 54.5 63.2516 64 65.7516 82.5C68.2516 101 90.7516 102.5 98.2516 93C105.752 83.5 102.752 69 98.2516 65ZM98.2516 65C103.585 71.1667 114.452 89.4 119.252 101M159.252 63.5C145.252 58 124.863 64.5 127.752 84C130.64 103.5 155.752 102 161.252 91" stroke="#4169E1" stroke-width="10" stroke-linecap="round" stroke-linejoin="round"/>
<path d="M202.252 63.5C187.251 56.5 167.751 66.6666 174.752 86.5C180.752 103.5 205.751 103 212.252 86.5C221.319 63.483 208.751 36.5 192.751 6M286.252 60.5C282.252 69.6667 274.251 91.5 281.751 97C292.015 104.527 301.752 89.5 300.752 78C304.252 85.6667 310.751 105 319.751 98C328.751 91 321.252 67 316.752 62.5M338.751 97C337.251 85.3333 336.651 67.3 334.251 60.5C357.251 59 370.751 65.5 373.751 99.5M249.751 59C238.751 58.56 224.251 67 228.751 85C233.251 103 259.251 102 265.251 85C271.251 68 260.751 59.44 249.751 59Z" stroke="white" stroke-width="10" stroke-linecap="round" stroke-linejoin="round"/>
<path d="M386.751 100C388.418 91 392.237 71.7098 389.251 56.5C384.751 33.5713 373.251 14 366.751 5M355.251 38.5C376.751 34.5 401.251 26.5 430.751 34.5M414.751 57C407.751 68 392.251 95.5 413.251 98.5C423.751 100 423.918 89.3333 427.751 80C430.918 89.8333 437.424 102.847 448.751 97C464.251 89 447.918 63.6667 441.751 57M485.251 56.5C470.251 58.5 464.061 72.1354 468.751 84.5C475.769 103 500.811 100.628 506.751 87C515.251 67.5 500.251 54.5 485.251 56.5Z" stroke="#FF341C" stroke-width="10" stroke-linecap="round" stroke-linejoin="round"/>
</svg>
