<svg width="274" height="56" viewBox="0 0 274 56" fill="none" xmlns="http://www.w3.org/2000/svg">
<path d="M234.552 31.6485C236.052 33.6485 237.552 43.6484 247.552 44.1485C257.552 44.6486 259.052 35.1486 259.552 33.6486C260.052 32.1486 260.552 32.1486 268.052 23.1486C275.552 14.1486 271.552 7.64851 262.052 6.14851C254.452 4.94851 250.886 11.3151 250.052 14.6485C249.652 15.4484 248.552 14.9818 248.052 14.6485C246.552 10.6485 233.052 0.648466 226.052 10.1485C219.052 19.6485 233.052 29.6485 234.552 31.6485Z" fill="#AD509A"/>
<path fill-rule="evenodd" clip-rule="evenodd" d="M250.052 14.6485C249.652 15.4484 248.552 14.9818 248.052 14.6485C247.888 14.2095 247.579 13.6983 247.15 13.1486C246.691 14.0069 246.35 15.0107 245.987 16.0778C244.446 20.6051 242.518 26.27 229.645 26.7854C230.863 28.1012 232.063 29.2236 232.986 30.0868C233.197 30.2845 233.394 30.4685 233.573 30.6382C234.919 29.964 238.165 28.2403 240.552 26.6486C241.765 25.84 242.815 24.7044 243.8 23.6385C245.251 22.068 246.563 20.6486 248.052 20.6486C250.052 20.6486 252.886 26.6435 254.052 29.641C253.558 30.2733 253.057 30.9416 252.552 31.6486C246.552 40.0486 239.257 37.8152 236.359 35.6486C237.987 39.244 240.874 43.8145 247.552 44.1485C256.639 44.6029 258.708 36.8004 259.385 34.246C259.453 33.9893 259.507 33.7856 259.552 33.6486C259.86 32.7246 260.168 32.3698 262.112 30.1302C263.324 28.7339 265.172 26.6049 268.052 23.1486C271.883 18.5522 272.714 14.6078 271.344 11.6486C271.344 11.6486 268.052 15.5 266.104 18.5C264.156 21.5 260.147 22.5339 255.787 27.5388C252.774 25.051 250.837 17.4605 250.246 13.9762C250.17 14.2108 250.106 14.4358 250.052 14.6485Z" fill="#863E77"/>
<path d="M232.552 29.6485C234.052 31.6485 235.552 41.6484 245.552 42.1485C255.552 42.6486 257.052 33.1486 257.552 31.6486C258.052 30.1486 258.552 30.1486 266.052 21.1486C273.552 12.1486 269.552 5.64851 260.052 4.14851C252.452 2.94851 248.886 9.31515 248.052 12.6485C247.652 13.4484 246.552 12.9818 246.052 12.6485C244.552 8.64847 231.052 -1.35153 224.052 8.14847C217.052 17.6485 231.052 27.6485 232.552 29.6485Z" fill="#F9A3C7"/>
<path fill-rule="evenodd" clip-rule="evenodd" d="M248.052 12.6485C247.652 13.4484 246.552 12.9818 246.052 12.6485C245.888 12.2095 245.579 11.6983 245.15 11.1486C244.691 12.0069 244.35 13.0107 243.987 14.0778C242.446 18.6051 240.518 24.27 227.645 24.7854C228.863 26.1012 230.063 27.2236 230.986 28.0868C231.197 28.2845 231.394 28.4685 231.573 28.6382C232.919 27.964 236.165 26.2403 238.552 24.6486C239.765 23.84 240.815 22.7044 241.8 21.6385C243.251 20.068 244.563 18.6486 246.052 18.6486C248.052 18.6486 250.886 24.6435 252.052 27.641C251.558 28.2733 251.057 28.9416 250.552 29.6486C244.552 38.0486 237.257 35.8152 234.359 33.6486C235.987 37.244 238.874 41.8145 245.552 42.1485C254.639 42.6029 256.708 34.8004 257.385 32.246C257.453 31.9893 257.507 31.7856 257.552 31.6486C257.86 30.7246 258.168 30.3698 260.112 28.1302C261.324 26.7339 263.172 24.6049 266.052 21.1486C269.883 16.5522 270.714 12.6078 269.344 9.64856C269.344 9.64856 266.052 13.5 264.104 16.5C262.156 19.5 258.147 20.5339 253.787 25.5388C250.774 23.051 248.837 15.4605 248.246 11.9762C248.17 12.2108 248.106 12.4358 248.052 12.6485Z" fill="#CB8EBF"/>
<path d="M9.1043 46.5C8.27097 44.1666 7.1043 38.5 9.1043 34.5C11.6043 29.5 16.6042 30.5 18.6042 32.5C20.2042 34.1 18.9376 37.8333 18.1042 39.5C27.6042 27.5 31.6042 33 30.6042 38.5C29.8042 42.9 27.6042 45 26.6042 45.5M46.6042 32.5C41.6042 32 33.8042 34.3 36.6042 45.5C39.4042 56.7 49.1042 42.8333 53.6042 34.5C53.9376 38.5 55.0042 46.9 56.6042 48.5M75.6042 32.5C71.2709 31.5 62.4042 31.8 61.6042 41C60.8042 50.2 71.6042 49.5 77.1042 48" stroke="#101A38" stroke-width="4" stroke-linecap="round" stroke-linejoin="round"/>
<path d="M7.1043 44.5C6.27097 42.1666 5.1043 36.5 7.1043 32.5C9.6043 27.5 14.6042 28.5 16.6042 30.5C18.2042 32.1 16.9376 35.8333 16.1042 37.5C25.6042 25.5 29.6042 31 28.6042 36.5C27.8042 40.9 25.6042 43 24.6042 43.5M44.6042 30.5C39.6042 30 31.8042 32.3 34.6042 43.5C37.4042 54.7 47.1042 40.8333 51.6042 32.5C51.9376 36.5 53.0042 44.9 54.6042 46.5M73.6042 30.5C69.2709 29.5 60.4042 29.8 59.6042 39C58.8042 48.2 69.6042 47.5 75.1042 46" stroke="#4169E1" stroke-width="4" stroke-linecap="round" stroke-linejoin="round"/>
<path d="M94.1037 19C103.104 32 98.1037 47 92.1037 48.5C86.1037 50 81.1041 43 82.1041 38.5C83.1041 34 88.1037 30.5 92.6037 31.5M125.604 31C126.77 34.8333 129.004 43.5 128.604 47.5C130.604 46.1667 134.604 42.4 134.604 38C136.104 41.1667 139.404 47.5 140.604 47.5C142.104 43 145.404 33.7 146.604 32.5M149.104 51.5C150.437 46.3333 153.004 35.5 152.604 33.5C159.27 33.1667 171.204 35.9 165.604 49.5M121.604 43.5C122.104 27 103.104 32.5 103.604 42.5C104.104 52.5 121.604 54.5 121.604 43.5Z" stroke="#3F3F3F" stroke-width="4" stroke-linecap="round" stroke-linejoin="round"/>
<path d="M92.1037 17C101.104 30 96.1037 45 90.1037 46.5C84.1037 48 79.1041 41 80.1041 36.5C81.1041 32 86.1037 28.5 90.6037 29.5M123.604 29C124.77 32.8333 127.004 41.5 126.604 45.5C128.604 44.1667 132.604 40.4 132.604 36C134.104 39.1667 137.404 45.5 138.604 45.5C140.104 41 143.404 31.7 144.604 30.5M147.104 49.5C148.437 44.3333 151.004 33.5 150.604 31.5C157.27 31.1667 169.204 33.9 163.604 47.5M119.604 41.5C120.104 25 101.104 30.5 101.604 40.5C102.104 50.5 119.604 52.5 119.604 41.5Z" stroke="white" stroke-width="4" stroke-linecap="round" stroke-linejoin="round"/>
<path d="M176.104 53.5C176.771 46.6667 177.004 29.9 172.604 17.5M161.104 27C170.271 24.6667 190.404 21.4 197.604 27M183.104 32.5C185.604 37.5 190.504 48.2 190.104 51C192.104 47.8333 196.304 41 197.104 39C198.104 42.1667 200.104 49.1 200.104 51.5C203.771 45.8333 211.104 34.1 211.104 32.5M232.604 46C232.604 31 214.604 32 214.604 44C214.604 56 232.604 57 232.604 46Z" stroke="#3F0D07" stroke-width="4" stroke-linecap="round" stroke-linejoin="round"/>
<path d="M174.104 51.5C174.771 44.6667 175.004 27.9 170.604 15.5M159.104 25C168.271 22.6667 188.404 19.4 195.604 25M181.104 30.5C183.604 35.5 188.504 46.2 188.104 49C190.104 45.8333 194.304 39 195.104 37C196.104 40.1667 198.104 47.1 198.104 49.5C201.771 43.8333 209.104 32.1 209.104 30.5M230.604 44C230.604 29 212.604 30 212.604 42C212.604 54 230.604 55 230.604 44Z" stroke="#FF341C" stroke-width="4" stroke-linecap="round" stroke-linejoin="round"/>
</svg>
