<svg width="272" height="56" viewBox="0 0 272 56" fill="none" xmlns="http://www.w3.org/2000/svg">
<path d="M9.1043 46.5C8.27097 44.1666 7.1043 38.5 9.1043 34.5C11.6043 29.5 16.6042 30.5 18.6042 32.5C20.2042 34.1 18.9376 37.8333 18.1042 39.5C27.6042 27.5 31.6042 33 30.6042 38.5C29.8042 42.9 27.6042 45 26.6042 45.5M46.6042 32.5C41.6042 32 33.8042 34.3 36.6042 45.5C39.4042 56.7 49.1042 42.8333 53.6042 34.5C53.9376 38.5 55.0042 46.9 56.6042 48.5M75.6042 32.5C71.2709 31.5 62.4042 31.8 61.6042 41C60.8042 50.2 71.6042 49.5 77.1042 48" stroke="black" stroke-width="4" stroke-linecap="round" stroke-linejoin="round"/>
<path d="M94.1037 19C103.104 32 98.1037 47 92.1037 48.5C86.1037 50 81.1041 43 82.1041 38.5C83.1041 34 88.1037 30.5 92.6037 31.5M125.604 31C126.77 34.8333 129.004 43.5 128.604 47.5C130.604 46.1667 134.604 42.4 134.604 38C136.104 41.1667 139.404 47.5 140.604 47.5C142.104 43 145.404 33.7 146.604 32.5M149.104 51.5C150.437 46.3333 153.004 35.5 152.604 33.5C159.27 33.1667 171.204 35.9 165.604 49.5M121.604 43.5C122.104 27 103.104 32.5 103.604 42.5C104.104 52.5 121.604 54.5 121.604 43.5Z" stroke="black" stroke-width="4" stroke-linecap="round" stroke-linejoin="round"/>
<path d="M176.104 53.5C176.771 46.6667 177.004 29.9 172.604 17.5M161.104 27C170.271 24.6667 190.404 21.4 197.604 27M183.104 32.5C185.604 37.5 190.504 48.2 190.104 51C192.104 47.8333 196.304 41 197.104 39C198.104 42.1667 200.104 49.1 200.104 51.5C203.771 45.8333 211.104 34.1 211.104 32.5M232.604 46C232.604 31 214.604 32 214.604 44C214.604 56 232.604 57 232.604 46Z" stroke="black" stroke-width="4" stroke-linecap="round" stroke-linejoin="round"/>
<path d="M234.552 31.6485C236.052 33.6485 237.552 43.6484 247.552 44.1485C257.552 44.6486 259.052 35.1486 259.552 33.6486C260.052 32.1486 260.552 32.1486 268.052 23.1486C275.552 14.1486 271.552 7.64851 262.052 6.14851C254.452 4.94851 250.886 11.3151 250.052 14.6485C249.652 15.4484 248.552 14.9818 248.052 14.6485C246.552 10.6485 233.052 0.648466 226.052 10.1485C219.052 19.6485 233.052 29.6485 234.552 31.6485Z" fill="black"/>
<path d="M230.552 27.6485C232.052 29.6485 233.552 39.6484 243.552 40.1485C253.552 40.6486 255.052 31.1486 255.552 29.6486C256.052 28.1486 256.552 28.1486 264.052 19.1486C271.552 10.1486 267.552 3.64851 258.052 2.14851C250.452 0.948514 246.886 7.31515 246.052 10.6485C245.652 11.4484 244.552 10.9818 244.052 10.6485C242.552 6.64847 229.052 -3.35153 222.052 6.14847C215.052 15.6485 229.052 25.6485 230.552 27.6485Z" fill="#AD509A"/>
<path fill-rule="evenodd" clip-rule="evenodd" d="M246.052 10.6485C245.652 11.4484 244.552 10.9818 244.052 10.6485C243.888 10.2095 243.579 9.69832 243.15 9.14856C242.691 10.0069 242.35 11.0107 241.987 12.0778C240.446 16.6051 238.518 22.27 225.645 22.7854C226.863 24.1012 228.063 25.2236 228.986 26.0868C229.197 26.2845 229.394 26.4685 229.573 26.6382C230.919 25.964 234.165 24.2403 236.552 22.6486C237.765 21.84 238.815 20.7044 239.8 19.6385C241.251 18.068 242.563 16.6486 244.052 16.6486C246.052 16.6486 248.886 22.6435 250.052 25.641C249.558 26.2733 249.057 26.9416 248.552 27.6486C242.552 36.0486 235.257 33.8152 232.359 31.6486C233.987 35.244 236.874 39.8145 243.552 40.1485C252.639 40.6029 254.708 32.8004 255.385 30.246C255.453 29.9893 255.507 29.7856 255.552 29.6486C255.86 28.7246 256.168 28.3698 258.112 26.1302C259.324 24.7339 261.172 22.6049 264.052 19.1486C267.883 14.5522 268.714 10.6078 267.344 7.64856C267.344 7.64856 264.052 11.5 262.104 14.5C260.156 17.5 256.147 18.5339 251.787 23.5388C248.774 21.051 246.837 13.4605 246.246 9.97621C246.17 10.2108 246.106 10.4358 246.052 10.6485Z" fill="#863E77"/>
<path d="M228.552 25.6485C230.052 27.6485 231.552 37.6484 241.552 38.1485C251.552 38.6486 253.052 29.1486 253.552 27.6486C254.052 26.1486 254.552 26.1486 262.052 17.1486C269.552 8.14856 265.552 1.64851 256.052 0.148514C248.452 -1.05149 244.886 5.31515 244.052 8.64847C243.652 9.44843 242.552 8.98178 242.052 8.64847C240.552 4.64847 227.052 -5.35153 220.052 4.14847C213.052 13.6485 227.052 23.6485 228.552 25.6485Z" fill="#F9A3C7"/>
<path fill-rule="evenodd" clip-rule="evenodd" d="M244.052 8.64847C243.652 9.44843 242.552 8.98178 242.052 8.64847C241.888 8.20952 241.579 7.69832 241.15 7.14856C240.691 8.00689 240.35 9.01074 239.987 10.0778C238.446 14.6051 236.518 20.27 223.645 20.7854C224.863 22.1012 226.063 23.2236 226.986 24.0868C227.197 24.2845 227.394 24.4685 227.573 24.6382C228.919 23.964 232.165 22.2403 234.552 20.6486C235.765 19.84 236.815 18.7044 237.8 17.6385C239.251 16.068 240.563 14.6486 242.052 14.6486C244.052 14.6486 246.886 20.6435 248.052 23.641C247.558 24.2733 247.057 24.9416 246.552 25.6486C240.552 34.0486 233.257 31.8152 230.359 29.6486C231.987 33.244 234.874 37.8145 241.552 38.1485C250.639 38.6029 252.708 30.8004 253.385 28.246C253.453 27.9893 253.507 27.7856 253.552 27.6486C253.86 26.7246 254.168 26.3698 256.112 24.1302C257.324 22.7339 259.172 20.6049 262.052 17.1486C265.883 12.5522 266.714 8.60782 265.344 5.64856C265.344 5.64856 262.052 9.5 260.104 12.5C258.156 15.5 254.147 16.5339 249.787 21.5388C246.774 19.051 244.837 11.4605 244.246 7.97621C244.17 8.21081 244.106 8.43581 244.052 8.64847Z" fill="#CB8EBF"/>
<path d="M5.1043 42.5C4.27097 40.1666 3.1043 34.5 5.1043 30.5C7.6043 25.5 12.6042 26.5 14.6042 28.5C16.2042 30.1 14.9376 33.8333 14.1042 35.5C23.6042 23.5 27.6042 29 26.6042 34.5C25.8042 38.9 23.6042 41 22.6042 41.5M42.6042 28.5C37.6042 28 29.8042 30.3 32.6042 41.5C35.4042 52.7 45.1042 38.8333 49.6042 30.5C49.9376 34.5 51.0042 42.9 52.6042 44.5M71.6042 28.5C67.2709 27.5 58.4042 27.8 57.6042 37C56.8042 46.2 67.6042 45.5 73.1042 44" stroke="#101A38" stroke-width="4" stroke-linecap="round" stroke-linejoin="round"/>
<path d="M3.1043 40.5C2.27097 38.1666 1.1043 32.5 3.1043 28.5C5.6043 23.5 10.6042 24.5 12.6042 26.5C14.2042 28.1 12.9376 31.8333 12.1042 33.5C21.6042 21.5 25.6042 27 24.6042 32.5C23.8042 36.9 21.6042 39 20.6042 39.5M40.6042 26.5C35.6042 26 27.8042 28.3 30.6042 39.5C33.4042 50.7 43.1042 36.8333 47.6042 28.5C47.9376 32.5 49.0042 40.9 50.6042 42.5M69.6042 26.5C65.2709 25.5 56.4042 25.8 55.6042 35C54.8042 44.2 65.6042 43.5 71.1042 42" stroke="#4169E1" stroke-width="4" stroke-linecap="round" stroke-linejoin="round"/>
<path d="M90.1037 15C99.1037 28 94.1037 43 88.1037 44.5C82.1037 46 77.1041 39 78.1041 34.5C79.1041 30 84.1037 26.5 88.6037 27.5M121.604 27C122.77 30.8333 125.004 39.5 124.604 43.5C126.604 42.1667 130.604 38.4 130.604 34C132.104 37.1667 135.404 43.5 136.604 43.5C138.104 39 141.404 29.7 142.604 28.5M145.104 47.5C146.437 42.3333 149.004 31.5 148.604 29.5C155.27 29.1667 167.204 31.9 161.604 45.5M117.604 39.5C118.104 23 99.1037 28.5 99.6037 38.5C100.104 48.5 117.604 50.5 117.604 39.5Z" stroke="#3F3F3F" stroke-width="4" stroke-linecap="round" stroke-linejoin="round"/>
<path d="M88.1037 13C97.1037 26 92.1037 41 86.1037 42.5C80.1037 44 75.1041 37 76.1041 32.5C77.1041 28 82.1037 24.5 86.6037 25.5M119.604 25C120.77 28.8333 123.004 37.5 122.604 41.5C124.604 40.1667 128.604 36.4 128.604 32C130.104 35.1667 133.404 41.5 134.604 41.5C136.104 37 139.404 27.7 140.604 26.5M143.104 45.5C144.437 40.3333 147.004 29.5 146.604 27.5C153.27 27.1667 165.204 29.9 159.604 43.5M115.604 37.5C116.104 21 97.1037 26.5 97.6037 36.5C98.1037 46.5 115.604 48.5 115.604 37.5Z" stroke="white" stroke-width="4" stroke-linecap="round" stroke-linejoin="round"/>
<path d="M172.104 49.5C172.771 42.6667 173.004 25.9 168.604 13.5M157.104 23C166.271 20.6667 186.404 17.4 193.604 23M179.104 28.5C181.604 33.5 186.504 44.2 186.104 47C188.104 43.8333 192.304 37 193.104 35C194.104 38.1667 196.104 45.1 196.104 47.5C199.771 41.8333 207.104 30.1 207.104 28.5M228.604 42C228.604 27 210.604 28 210.604 40C210.604 52 228.604 53 228.604 42Z" stroke="#3F0D07" stroke-width="4" stroke-linecap="round" stroke-linejoin="round"/>
<path d="M170.104 47.5C170.771 40.6667 171.004 23.9 166.604 11.5M155.104 21C164.271 18.6667 184.404 15.4 191.604 21M177.104 26.5C179.604 31.5 184.504 42.2 184.104 45C186.104 41.8333 190.304 35 191.104 33C192.104 36.1667 194.104 43.1 194.104 45.5C197.771 39.8333 205.104 28.1 205.104 26.5M226.604 40C226.604 25 208.604 26 208.604 38C208.604 50 226.604 51 226.604 40Z" stroke="#FF341C" stroke-width="4" stroke-linecap="round" stroke-linejoin="round"/>
</svg>
