<svg width="488" height="119" viewBox="0 0 488 119" fill="none" xmlns="http://www.w3.org/2000/svg">
<path d="M281.32 106.34C274.405 96.5 253.903 67.4719 272.403 56.9719C290.903 46.4719 295.5 70 296.477 76.1621C297 70 301.905 47.79 320.405 57.145C338.905 66.5 318.905 95 311.633 106.34M432.903 105.472C453.403 109.972 478.205 110.853 479.403 96.4719C480.403 84.4719 462.274 80.5 443.774 84.5C426.774 88.1756 420.036 75.5 424.405 66.3298C429.905 54.7855 457.774 54.5 471.774 64.3298M391.405 64.3298C400.292 73.3049 402.261 88.4586 394.905 97.7854C384.405 111.099 359.905 111.285 351.405 94.2854C342.905 77.2854 355.905 55.0046 376.405 57.145C382.543 57.786 387.606 60.4934 391.405 64.3298ZM391.405 64.3298C397.071 68.9817 402.774 81 411.405 107.785" stroke="#FF341C" stroke-width="16" stroke-linecap="round" stroke-linejoin="round"/>
<path d="M281.32 106.34C274.405 96.5 253.903 67.4719 272.403 56.9719C290.903 46.4719 295.5 70 296.477 76.1621C297 70 301.905 47.79 320.405 57.145C338.905 66.5 318.905 95 311.633 106.34M432.903 105.472C453.403 109.972 478.205 110.853 479.403 96.4719C480.403 84.4719 462.274 80.5 443.774 84.5C426.774 88.1756 420.036 75.5 424.405 66.3298C429.905 54.7855 457.774 54.5 471.774 64.3298M391.405 64.3298C400.292 73.3049 402.261 88.4586 394.905 97.7854C384.405 111.099 359.905 111.285 351.405 94.2854C342.905 77.2854 355.905 55.0046 376.405 57.145C382.543 57.786 387.606 60.4934 391.405 64.3298ZM391.405 64.3298C397.071 68.9817 402.774 81 411.405 107.785" stroke="#000011" stroke-opacity="0.6" stroke-width="16" stroke-linecap="round" stroke-linejoin="round"/>
<path d="M222.156 93.0393C214.72 109.628 186.404 113.061 176.965 94.1834C167.527 75.306 178.682 55.8568 199.275 55.8568C207.03 55.8568 213.244 58.7773 217.58 63.3045M244.086 110.2C244.658 99.3317 244.886 72.4459 241.225 51.8526M239.405 13.7855C230.905 9.83903 221.905 21.74 231.405 27.7855C240.905 33.8309 247.905 17.7319 239.405 13.7855Z" stroke="white" stroke-width="16" stroke-linecap="round" stroke-linejoin="round"/>
<path d="M222.156 93.0393C214.72 109.628 186.404 113.061 176.965 94.1834C167.527 75.306 178.682 55.8568 199.275 55.8568C207.03 55.8568 213.244 58.7773 217.58 63.3045M244.086 110.2C244.658 99.3317 244.886 72.4459 241.225 51.8526M239.405 13.7855C230.905 9.83903 221.905 21.74 231.405 27.7855C240.905 33.8309 247.905 17.7319 239.405 13.7855Z" stroke="#000011" stroke-opacity="0.6" stroke-width="16" stroke-linecap="round" stroke-linejoin="round"/>
<path d="M138.171 63.2934C144.658 70.7277 145.793 82.1388 141.163 92.4673C133.727 109.056 105.983 111.917 96.544 93.0392C87.1052 74.1619 99.9764 54.0735 120.57 55.2849C128.342 55.742 134.239 58.7871 138.171 63.2934ZM138.171 63.2934C141.266 67.107 147.405 75.7855 156.405 106.286M25.1359 105.624C19.2737 96 2.77403 66.3579 18.8393 56.429C34.9046 46.5 41.4046 67 42.2929 75.446C43.4046 67 48.4046 46.5 65.1746 56.429C81.9446 66.3579 65.2737 97 59.4497 105.624" stroke="#4169E1" stroke-width="16" stroke-linecap="round" stroke-linejoin="round"/>
<path d="M138.171 63.2934C144.658 70.7277 145.793 82.1388 141.163 92.4673C133.727 109.056 105.983 111.917 96.544 93.0392C87.1052 74.1619 99.9764 54.0735 120.57 55.2849C128.342 55.742 134.239 58.7871 138.171 63.2934ZM138.171 63.2934C141.266 67.107 147.405 75.7855 156.405 106.286M25.1359 105.624C19.2737 96 2.77403 66.3579 18.8393 56.429C34.9046 46.5 41.4046 67 42.2929 75.446C43.4046 67 48.4046 46.5 65.1746 56.429C81.9446 66.3579 65.2737 97 59.4497 105.624" stroke="#000011" stroke-opacity="0.6" stroke-width="16" stroke-linecap="round" stroke-linejoin="round"/>
<path d="M218.156 89.0393C210.72 105.628 182.404 109.061 172.965 90.1834C163.527 71.306 174.682 51.8568 195.275 51.8568C203.03 51.8568 209.244 54.7773 213.58 59.3045M240.086 106.2C240.658 95.3317 240.886 68.4459 237.225 47.8526M235.405 9.78548C226.905 5.83903 217.905 17.74 227.405 23.7855C236.905 29.8309 243.905 13.7319 235.405 9.78548Z" stroke="white" stroke-width="16" stroke-linecap="round" stroke-linejoin="round"/>
<path d="M278.32 103.34C271.405 93.5 250.903 64.4719 269.403 53.9719C287.903 43.4719 292.5 67 293.477 73.1621C294 67 298.905 44.79 317.405 54.145C335.905 63.5 315.905 92 308.633 103.34M429.903 102.472C450.403 106.972 475.205 107.853 476.403 93.4719C477.403 81.4719 459.274 77.5 440.774 81.5C423.774 85.1756 417.036 72.5 421.405 63.3298C426.905 51.7855 454.774 51.5 468.774 61.3298M388.405 61.3298C397.292 70.3049 399.261 85.4586 391.905 94.7854C381.405 108.099 356.905 108.285 348.405 91.2854C339.905 74.2854 352.905 52.0046 373.405 54.145C379.543 54.786 384.606 57.4934 388.405 61.3298ZM388.405 61.3298C394.071 65.9817 399.774 78 408.405 104.785" stroke="#FF341C" stroke-width="16" stroke-linecap="round" stroke-linejoin="round"/>
<path d="M134.171 59.2934C140.658 66.7277 141.793 78.1388 137.163 88.4673C129.727 105.056 101.983 107.917 92.544 89.0392C83.1052 70.1619 95.9764 50.0735 116.57 51.2849C124.342 51.742 130.239 54.7871 134.171 59.2934ZM134.171 59.2934C137.266 63.107 143.405 71.7855 152.405 102.286M21.1359 101.624C15.2737 92 -1.22597 62.3579 14.8393 52.429C30.9046 42.5 37.4046 63 38.2929 71.446C39.4046 63 44.4046 42.5 61.1746 52.429C77.9446 62.3579 61.2737 93 55.4497 101.624" stroke="#4169E1" stroke-width="16" stroke-linecap="round" stroke-linejoin="round"/>
</svg>
