<svg width="504" height="120" viewBox="0 0 504 120" fill="none" xmlns="http://www.w3.org/2000/svg">
<g clip-path="url(#clip0_638_28)">
<path d="M32.3441 112C21.344 94.2952 4.8441 67 26.844 59C43.3708 52.9902 49.844 78 49.844 78C49.844 78 53.4237 54.405 71.344 58.9999C90.844 63.9999 81.3441 88 67.3441 112M134.17 59.7952C112.67 55.2952 98.2699 75.7952 105.67 94.2952C113.07 112.795 135.67 110.795 145.67 100.795C155.67 90.7952 155.67 64.2952 134.17 59.7952ZM134.17 59.7952C145.895 61.6968 153.344 72 167.344 110.5" stroke="#4169E1" stroke-width="16" stroke-linecap="round" stroke-linejoin="round"/>
<path d="M32.3441 112C21.344 94.2952 4.8441 67 26.844 59C43.3708 52.9902 49.844 78 49.844 78C49.844 78 53.4237 54.405 71.344 58.9999C90.844 63.9999 81.3441 88 67.3441 112M134.17 59.7952C112.67 55.2952 98.2699 75.7952 105.67 94.2952C113.07 112.795 135.67 110.795 145.67 100.795C155.67 90.7952 155.67 64.2952 134.17 59.7952ZM134.17 59.7952C145.895 61.6968 153.344 72 167.344 110.5" stroke="black" stroke-opacity="0.6" stroke-width="16" stroke-linecap="round" stroke-linejoin="round"/>
<path d="M286.844 109.795C275.844 92.0904 262.147 60.0412 282.844 55.7952C301.344 52 303.844 76.5 303.844 76.5C303.844 76.5 306.844 53 324.844 55.7952C344.736 58.8844 330.844 88.7047 320.344 111M385.344 57.7952C363.844 53.2952 349.444 74.5 356.844 93C364.244 111.5 386.344 111.5 397.844 100.5C409.344 89.5 408.344 62.6092 385.344 57.7952ZM385.344 57.7952C397.069 59.6968 404.844 65.5 424.344 111.5M445.5 108C468 114 491.878 112.469 495.5 98.5C499 85 487.025 78.9917 469 85C452.5 90.4999 431.5 89 434.5 68.5C437.013 51.3263 467 50.5 485.5 61.5" stroke="#FF341C" stroke-width="16" stroke-linecap="round" stroke-linejoin="round"/>
<path d="M286.844 109.795C275.844 92.0904 262.147 60.0412 282.844 55.7952C301.344 52 303.844 76.5 303.844 76.5C303.844 76.5 306.844 53 324.844 55.7952C344.736 58.8844 330.844 88.7047 320.344 111M385.344 57.7952C363.844 53.2952 349.444 74.5 356.844 93C364.244 111.5 386.344 111.5 397.844 100.5C409.344 89.5 408.344 62.6092 385.344 57.7952ZM385.344 57.7952C397.069 59.6968 404.844 65.5 424.344 111.5M445.5 108C468 114 491.878 112.469 495.5 98.5C499 85 487.025 78.9917 469 85C452.5 90.4999 431.5 89 434.5 68.5C437.013 51.3263 467 50.5 485.5 61.5" stroke="black" stroke-opacity="0.6" stroke-width="16" stroke-linecap="round" stroke-linejoin="round"/>
<path d="M227.844 67C218.344 57.7952 202.844 55.9655 193.344 63.5C177.583 76 181.344 96.9545 196.344 106.5C207.344 113.5 220.844 110 227.844 101.5M248.844 55C249.844 67.6666 251.544 95.9999 250.344 108M253.344 24C252.844 28.5 252.344 32.5 245.844 32C239.344 31.5 237.844 28.5 237.844 24C237.844 19.5 241.844 16 245.844 16C249.844 16 253.844 19.5 253.344 24Z" stroke="white" stroke-width="16" stroke-linecap="round" stroke-linejoin="round"/>
<path d="M227.844 67C218.344 57.7952 202.844 55.9655 193.344 63.5C177.583 76 181.344 96.9545 196.344 106.5C207.344 113.5 220.844 110 227.844 101.5M248.844 55C249.844 67.6666 251.544 95.9999 250.344 108M253.344 24C252.844 28.5 252.344 32.5 245.844 32C239.344 31.5 237.844 28.5 237.844 24C237.844 19.5 241.844 16 245.844 16C249.844 16 253.844 19.5 253.344 24Z" stroke="black" stroke-opacity="0.6" stroke-width="16" stroke-linecap="round" stroke-linejoin="round"/>
<path d="M28.3441 108C17.344 90.2952 0.844103 63 22.844 55C39.3708 48.9902 45.844 74 45.844 74C45.844 74 49.4237 50.405 67.344 54.9999C86.844 59.9999 77.3441 84 63.3441 108M130.17 55.7952C108.67 51.2952 94.2699 71.7952 101.67 90.2952C109.07 108.795 131.67 106.795 141.67 96.7952C151.67 86.7952 151.67 60.2952 130.17 55.7952ZM130.17 55.7952C141.895 57.6968 149.344 68 163.344 106.5" stroke="#4169E1" stroke-width="16" stroke-linecap="round" stroke-linejoin="round"/>
<path d="M282.844 105.795C271.844 88.0904 258.147 56.0412 278.844 51.7952C297.344 48 299.844 72.5 299.844 72.5C299.844 72.5 302.844 49 320.844 51.7952C340.736 54.8844 326.844 84.7047 316.344 107M381.344 53.7952C359.844 49.2952 345.444 70.5 352.844 89C360.244 107.5 382.344 107.5 393.844 96.5C405.344 85.5 404.344 58.6092 381.344 53.7952ZM381.344 53.7952C393.069 55.6968 400.844 61.5 420.344 107.5M441.5 104C464 110 487.878 108.469 491.5 94.5C495 81 483.025 74.9917 465 81C448.5 86.4999 427.5 85 430.5 64.5C433.013 47.3263 463 46.5 481.5 57.5" stroke="#FF341C" stroke-width="16" stroke-linecap="round" stroke-linejoin="round"/>
<path d="M223.844 63C214.344 53.7952 198.844 51.9655 189.344 59.5C173.583 72 177.344 92.9545 192.344 102.5C203.344 109.5 216.844 106 223.844 97.5M244.844 51C245.844 63.6666 247.544 91.9999 246.344 104M249.344 20C248.844 24.5 248.344 28.5 241.844 28C235.344 27.5 233.844 24.5 233.844 20C233.844 15.5 237.844 12 241.844 12C245.844 12 249.844 15.5 249.344 20Z" stroke="white" stroke-width="16" stroke-linecap="round" stroke-linejoin="round"/>
</g>
<defs>
<clipPath id="clip0_638_28">
<rect width="504" height="120" fill="white"/>
</clipPath>
</defs>
</svg>
