<svg width="32" height="32" viewBox="0 0 32 32" fill="none" xmlns="http://www.w3.org/2000/svg">
<rect x="1.1" y="1.1" width="29.8" height="29.8" fill="#210100"/>
<rect x="1.1" y="1.1" width="29.8" height="29.8" stroke="#FF4912" stroke-width="2.2"/>
<path d="M4.64805 22.09L4.57605 21.244L6.30405 20.758L5.58405 21.208C5.66805 21.028 5.76405 20.83 5.87205 20.614C5.99205 20.386 6.10605 20.146 6.21405 19.894C6.33405 19.63 6.43605 19.372 6.52005 19.12L9.70605 9.31L10.696 9.13L14.422 19.282C14.53 19.618 14.662 19.948 14.818 20.272C14.986 20.596 15.136 20.902 15.268 21.19L14.512 20.74L16.258 21.046L16.168 22H14.332C14.188 22 13.972 22.006 13.684 22.018C13.396 22.03 13.084 22.042 12.748 22.054C12.424 22.066 12.118 22.078 11.83 22.09L11.776 21.244L13.684 20.668L13.18 21.262C13.108 20.83 13.03 20.422 12.946 20.038C12.862 19.642 12.742 19.246 12.586 18.85L9.90405 11.326H10.282L7.60005 19.696C7.51605 19.948 7.46205 20.212 7.43805 20.488C7.41405 20.752 7.39005 21.004 7.36605 21.244L6.80805 20.776L8.69805 21.046L8.60805 22H7.07805C6.93405 22 6.71805 22.006 6.43005 22.018C6.15405 22.03 5.85405 22.042 5.53005 22.054C5.21805 22.066 4.92405 22.078 4.64805 22.09ZM7.74405 17.95V17.032H12.838V17.95H7.74405ZM17.8274 22.09L17.7374 21.226L19.7534 20.812L19.0334 21.478C19.0574 21.382 19.0874 21.214 19.1234 20.974C19.1714 20.734 19.2134 20.482 19.2494 20.218C19.2974 19.942 19.3214 19.732 19.3214 19.588V15.592C19.3214 15.436 19.3034 15.226 19.2674 14.962C19.2314 14.686 19.1894 14.416 19.1414 14.152C19.0934 13.876 19.0574 13.678 19.0334 13.558L19.7534 14.386L17.7734 14.044L17.8634 13.108H20.0954L20.4374 13.432L20.6894 16.132L20.2934 15.088C20.4734 14.632 20.7014 14.248 20.9774 13.936C21.2654 13.624 21.6014 13.384 21.9854 13.216C22.3694 13.048 22.7894 12.964 23.2454 12.964C24.0974 12.964 24.7394 13.138 25.1714 13.486C25.6034 13.822 25.8974 14.302 26.0534 14.926C26.2094 15.55 26.2874 16.282 26.2874 17.122V19.048C26.2874 19.492 26.3054 19.93 26.3414 20.362C26.3894 20.794 26.4314 21.13 26.4674 21.37L25.8194 20.884L27.8534 21.064L27.7274 22H25.4234C25.3754 22 25.2434 22.006 25.0274 22.018C24.8114 22.03 24.5714 22.042 24.3074 22.054C24.0554 22.066 23.8274 22.078 23.6234 22.09L23.5334 21.226L25.3334 20.794L24.6674 21.208C24.7034 21.088 24.7394 20.944 24.7754 20.776C24.8234 20.596 24.8594 20.404 24.8834 20.2C24.9194 19.996 24.9374 19.792 24.9374 19.588V17.104C24.9374 16.576 24.8894 16.078 24.7934 15.61C24.6974 15.13 24.5114 14.74 24.2354 14.44C23.9594 14.14 23.5574 13.99 23.0294 13.99C22.2974 13.99 21.7214 14.278 21.3014 14.854C20.8934 15.43 20.6894 16.162 20.6894 17.05V19.048C20.6894 19.516 20.7074 19.996 20.7434 20.488C20.7794 20.98 20.8154 21.334 20.8514 21.55L20.1854 20.884L22.2194 21.064L22.0934 22H19.8074C19.6874 22 19.5134 22.006 19.2854 22.018C19.0574 22.03 18.8114 22.042 18.5474 22.054C18.2954 22.066 18.0554 22.078 17.8274 22.09Z" fill="#FF4912"/>
</svg>
