<svg width="32" height="32" viewBox="0 0 32 32" fill="none" xmlns="http://www.w3.org/2000/svg">
<rect x="1.1" y="1.1" width="29.8" height="29.8" fill="#072501"/>
<rect x="1.1" y="1.1" width="29.8" height="29.8" stroke="#36FA00" stroke-width="2.2"/>
<path d="M16.4717 13.4434C16.4717 14.3115 16.3076 15.1523 15.9795 15.9658C15.6582 16.7725 15.2207 17.5312 14.667 18.2422C14.1133 18.9531 13.4673 19.606 12.729 20.2007C11.9976 20.7954 11.2217 21.3115 10.4014 21.749C9.58105 22.1865 8.74023 22.5352 7.87891 22.7949C7.01758 23.0547 6.18701 23.2085 5.38721 23.2563V11.7617L7.49951 11.0132V22.1797C8.46338 21.8994 9.34521 21.4961 10.145 20.9697C10.9517 20.4365 11.6455 19.8076 12.2266 19.083C12.8076 18.3584 13.2588 17.5483 13.5801 16.6528C13.9082 15.7573 14.0723 14.8003 14.0723 13.7817C14.0723 13.2007 13.9971 12.647 13.8467 12.1206C13.7031 11.5874 13.4775 11.1226 13.1699 10.7261C12.8691 10.3228 12.4863 10.0049 12.0215 9.77246C11.5566 9.5332 11.0029 9.41357 10.3604 9.41357C9.83398 9.41357 9.3042 9.47168 8.771 9.58789C8.24463 9.7041 7.72852 9.86816 7.22266 10.0801C6.72363 10.2852 6.2417 10.5312 5.77686 10.8184C5.31885 11.1055 4.89502 11.4199 4.50537 11.7617L4.1875 11.4131C4.59766 10.9688 5.08301 10.5518 5.64355 10.1621C6.2041 9.76562 6.80225 9.42041 7.43799 9.12646C8.07373 8.82568 8.72656 8.58984 9.39648 8.41895C10.0664 8.24121 10.7158 8.15234 11.3447 8.15234C12.1924 8.15234 12.9375 8.27881 13.5801 8.53174C14.2227 8.78467 14.7559 9.14355 15.1797 9.6084C15.6104 10.0732 15.9316 10.6304 16.1436 11.2798C16.3623 11.9292 16.4717 12.6504 16.4717 13.4434ZM28.0688 16.3452C28.0688 16.5571 28.0415 16.793 27.9868 17.0527C27.939 17.3057 27.8672 17.5312 27.7715 17.7295L25.3823 22.8564C25.3413 22.9316 25.2832 22.9795 25.208 23C25.1396 23.0273 25.0645 23.041 24.9824 23.041C24.8867 23.041 24.7944 23.0239 24.7056 22.9897C24.6167 22.9556 24.5552 22.8906 24.521 22.7949L22.9214 17.145L21.4961 22.7231C21.4414 22.8394 21.3628 22.9282 21.2603 22.9897C21.1646 23.0513 21.0552 23.082 20.9321 23.082C20.8433 23.082 20.7578 23.0649 20.6758 23.0308C20.6006 22.9966 20.5527 22.9316 20.5322 22.8359L18.7275 17.0732C18.7002 16.9912 18.6626 16.9058 18.6147 16.8169C18.5737 16.7212 18.519 16.6357 18.4507 16.5605C18.3892 16.4785 18.3174 16.4136 18.2354 16.3657C18.1602 16.311 18.0713 16.2837 17.9688 16.2837C17.832 16.2837 17.7056 16.3213 17.5894 16.3965C17.48 16.4717 17.3809 16.5503 17.292 16.6323L17.0869 16.3657C17.1895 16.1743 17.3193 15.9966 17.4766 15.8325C17.6338 15.6616 17.8081 15.5112 17.9995 15.3813C18.1909 15.2515 18.3926 15.1489 18.6045 15.0737C18.8232 14.9985 19.0454 14.9609 19.271 14.9609C19.4624 14.9609 19.623 15.0156 19.7529 15.125C19.8828 15.2344 19.9922 15.3677 20.0811 15.5249C20.1699 15.6821 20.2417 15.8496 20.2964 16.0273C20.3579 16.2051 20.4092 16.3657 20.4502 16.5093C20.6553 17.1519 20.8569 17.7979 21.0552 18.4473C21.2603 19.0967 21.4619 19.7393 21.6602 20.375L22.6753 16.2632L22.4189 15.4429L24.1416 14.8687L25.8232 20.8364L26.7871 18.6318C26.8281 18.5293 26.8623 18.3994 26.8896 18.2422C26.917 18.0781 26.9307 17.9414 26.9307 17.832C26.9307 17.4219 26.8247 17.0698 26.6128 16.7759C26.4077 16.4819 26.1309 16.2461 25.7822 16.0684L26.9512 14.4482C27.334 14.6396 27.6143 14.8994 27.792 15.2275C27.9766 15.5488 28.0688 15.9214 28.0688 16.3452Z" fill="#36FA00"/>
</svg>
