<svg width="32" height="32" viewBox="0 0 32 32" fill="none" xmlns="http://www.w3.org/2000/svg">
<rect x="1.1" y="1.1" width="29.8" height="29.8" fill="#002625"/>
<rect x="1.1" y="1.1" width="29.8" height="29.8" stroke="#00EAE4" stroke-width="2.2"/>
<path d="M11.0391 23.0586C10.0625 23.0586 9.26823 22.8503 8.65625 22.4336C8.04427 22.0169 7.58203 21.457 7.26953 20.7539C6.95703 20.0378 6.75521 19.2305 6.66406 18.332H8.63672C8.67578 18.8529 8.77344 19.3542 8.92969 19.8359C9.09896 20.3177 9.35938 20.7083 9.71094 21.0078C10.0625 21.3073 10.5443 21.457 11.1562 21.457C11.8854 21.457 12.4714 21.2227 12.9141 20.7539C13.3568 20.2721 13.5781 19.6732 13.5781 18.957C13.5781 18.3711 13.4544 17.8893 13.207 17.5117C12.9727 17.1211 12.6536 16.7956 12.25 16.5352C11.8464 16.2747 11.4036 16.0404 10.9219 15.832C10.4531 15.6237 9.97786 15.4089 9.49609 15.1875C9.01432 14.9531 8.57161 14.6797 8.16797 14.3672C7.76432 14.0547 7.4388 13.6706 7.19141 13.2148C6.95703 12.7591 6.83984 12.1862 6.83984 11.4961C6.83984 10.7148 7.02865 10.0443 7.40625 9.48438C7.78385 8.92448 8.28516 8.49479 8.91016 8.19531C9.54818 7.89583 10.2318 7.74609 10.9609 7.74609C12.2891 7.74609 13.2656 8.11719 13.8906 8.85938C14.5286 9.60156 14.9062 10.5977 15.0234 11.8477H13.1289C13.0378 11.1706 12.8164 10.5846 12.4648 10.0898C12.1133 9.59505 11.5534 9.34766 10.7852 9.34766C10.0951 9.34766 9.55469 9.51042 9.16406 9.83594C8.77344 10.1615 8.57812 10.6888 8.57812 11.418C8.57812 11.8997 8.70182 12.3034 8.94922 12.6289C9.19661 12.9544 9.51562 13.2344 9.90625 13.4688C10.3099 13.7031 10.7526 13.9245 11.2344 14.1328C11.7292 14.3281 12.2174 14.5495 12.6992 14.7969C13.181 15.0312 13.6172 15.3177 14.0078 15.6562C14.4115 15.9948 14.737 16.418 14.9844 16.9258C15.2318 17.4206 15.3555 18.0326 15.3555 18.7617C15.3555 20.1029 14.9714 21.1576 14.2031 21.9258C13.4479 22.681 12.3932 23.0586 11.0391 23.0586ZM20.9219 25.4023C20.5182 25.4023 20.069 25.3763 19.5742 25.3242C19.0924 25.2852 18.6302 25.1875 18.1875 25.0312C17.7448 24.875 17.3802 24.6341 17.0938 24.3086C16.8073 23.9961 16.6641 23.5729 16.6641 23.0391C16.6641 22.4271 16.8659 21.9388 17.2695 21.5742C17.6862 21.2096 18.1549 20.9297 18.6758 20.7344C18.4414 20.6302 18.2005 20.4805 17.9531 20.2852C17.7057 20.0768 17.582 19.8294 17.582 19.543C17.582 19.1914 17.7318 18.9049 18.0312 18.6836C18.3307 18.4492 18.6237 18.2734 18.9102 18.1562C18.4154 17.8698 18.0182 17.5182 17.7188 17.1016C17.4323 16.6849 17.2891 16.1836 17.2891 15.5977C17.2891 14.8945 17.4648 14.3021 17.8164 13.8203C18.181 13.3385 18.6497 12.974 19.2227 12.7266C19.8086 12.4661 20.4206 12.3359 21.0586 12.3359C22.0091 12.3359 22.8294 12.6419 23.5195 13.2539C23.819 12.9935 24.1445 12.7852 24.4961 12.6289C24.8477 12.4596 25.2188 12.362 25.6094 12.3359V13.9961C25.388 13.9961 25.1602 14.0156 24.9258 14.0547C24.7044 14.0807 24.4831 14.1393 24.2617 14.2305C24.3659 14.4518 24.4505 14.6862 24.5156 14.9336C24.5807 15.168 24.6133 15.4154 24.6133 15.6758C24.6133 16.3659 24.4375 16.9388 24.0859 17.3945C23.7474 17.8503 23.3047 18.1888 22.7578 18.4102C22.2109 18.6315 21.625 18.7422 21 18.7422C20.8307 18.7422 20.6615 18.7292 20.4922 18.7031C20.3359 18.6641 20.1732 18.6445 20.0039 18.6445C19.8607 18.6445 19.6784 18.7031 19.457 18.8203C19.2487 18.9245 19.1445 19.0677 19.1445 19.25C19.1445 19.4193 19.2878 19.556 19.5742 19.6602C19.8737 19.7513 20.2513 19.8424 20.707 19.9336C21.1758 20.0247 21.6641 20.1354 22.1719 20.2656C22.6927 20.3828 23.181 20.5456 23.6367 20.7539C24.1055 20.9622 24.4831 21.2422 24.7695 21.5938C25.069 21.9453 25.2188 22.388 25.2188 22.9219C25.2188 23.4818 25.0755 23.9245 24.7891 24.25C24.5026 24.5885 24.138 24.8359 23.6953 24.9922C23.2526 25.1615 22.7839 25.2721 22.2891 25.3242C21.7943 25.3763 21.3385 25.4023 20.9219 25.4023ZM20.9805 17.3555C21.5924 17.3555 22.0872 17.2188 22.4648 16.9453C22.8555 16.6719 23.0508 16.2031 23.0508 15.5391C23.0508 14.888 22.862 14.4258 22.4844 14.1523C22.1198 13.8659 21.6315 13.7227 21.0195 13.7227C20.4727 13.7227 19.9714 13.8854 19.5156 14.2109C19.0729 14.5365 18.8516 14.9987 18.8516 15.5977C18.8516 16.1966 19.0729 16.6393 19.5156 16.9258C19.9583 17.2122 20.4466 17.3555 20.9805 17.3555ZM20.7266 24.0156C20.9219 24.0156 21.1823 24.0026 21.5078 23.9766C21.8333 23.9635 22.1589 23.918 22.4844 23.8398C22.8099 23.7747 23.0833 23.6576 23.3047 23.4883C23.5391 23.319 23.6562 23.0911 23.6562 22.8047C23.6562 22.4271 23.4935 22.1406 23.168 21.9453C22.8424 21.75 22.5299 21.6068 22.2305 21.5156C22.1003 21.4766 21.9245 21.4245 21.7031 21.3594C21.4948 21.2943 21.2799 21.2422 21.0586 21.2031C20.8503 21.151 20.6745 21.125 20.5312 21.125C20.2448 21.125 19.9193 21.1901 19.5547 21.3203C19.2031 21.4375 18.8906 21.6198 18.6172 21.8672C18.3568 22.1016 18.2266 22.3945 18.2266 22.7461C18.2266 23.0326 18.3112 23.2604 18.4805 23.4297C18.6628 23.612 18.8906 23.7422 19.1641 23.8203C19.4375 23.8984 19.7109 23.9505 19.9844 23.9766C20.2708 24.0026 20.5182 24.0156 20.7266 24.0156Z" fill="#00EAE4"/>
</svg>
