<svg width="32" height="32" viewBox="0 0 32 32" fill="none" xmlns="http://www.w3.org/2000/svg">
<rect x="1.1" y="1.1" width="29.8" height="29.8" fill="#250031"/>
<rect x="1.1" y="1.1" width="29.8" height="29.8" stroke="#EB78FF" stroke-width="2.2"/>
<path d="M12.9326 9.11719C12.9443 9.23438 12.9443 9.31641 12.9326 9.36328C12.9326 9.41016 12.9268 9.45117 12.915 9.48633L12.6514 9.73242C12.5693 9.76758 12.5166 9.79102 12.4932 9.80273C12.4814 9.81445 12.4697 9.83203 12.458 9.85547C12.3994 9.90234 12.3584 9.92578 12.335 9.92578C12.3232 9.92578 12.3057 9.93164 12.2822 9.94336C12.2119 10.002 12.1709 10.0371 12.1592 10.0488C12.1592 10.0605 12.1533 10.0781 12.1416 10.1016C12.0947 10.125 12.0596 10.1484 12.0361 10.1719C12.0244 10.1953 11.9951 10.2188 11.9482 10.2422C11.8896 10.3359 11.8545 10.3887 11.8428 10.4004C11.8311 10.4121 11.8135 10.4297 11.79 10.4531C11.7432 10.5117 11.7139 10.5527 11.7021 10.5762C11.6904 10.5996 11.6904 10.6289 11.7021 10.6641C11.6787 10.6992 11.6494 10.7344 11.6143 10.7695C11.5908 10.793 11.585 10.8398 11.5967 10.9102C11.5146 11.0039 11.4736 11.0684 11.4736 11.1035C11.4854 11.127 11.4795 11.168 11.4561 11.2266C11.4092 11.3555 11.3799 11.4316 11.3682 11.4551C11.3447 11.5254 11.333 11.5898 11.333 11.6484C11.3447 11.707 11.3447 11.7598 11.333 11.8066C11.3447 11.959 11.3271 12.0703 11.2803 12.1406C11.2334 12.2109 11.2275 12.293 11.2627 12.3867C11.2275 12.5039 11.2158 12.5977 11.2275 12.668C11.2393 12.7266 11.2451 12.7852 11.2451 12.8438C11.2217 12.9492 11.2158 13.043 11.2275 13.125C11.251 13.1953 11.2568 13.2539 11.2451 13.3008C11.2217 13.4297 11.2158 13.5059 11.2275 13.5293C11.2393 13.541 11.2334 13.5703 11.21 13.6172C11.2217 13.7227 11.2334 13.7988 11.2451 13.8457C11.2568 13.8809 11.2627 13.9102 11.2627 13.9336C11.2627 14.0273 11.2568 14.0801 11.2451 14.0918C11.2451 14.0918 11.2451 14.1035 11.2451 14.127C11.2451 14.2676 11.2568 14.3555 11.2803 14.3906C11.3037 14.4141 11.3154 14.4375 11.3154 14.4609C11.3506 14.6016 11.3623 14.6895 11.3506 14.7246C11.3506 14.748 11.3506 14.7715 11.3506 14.7949C11.374 14.9355 11.3799 15.0117 11.3682 15.0234C11.3682 15.0234 11.3682 15.0352 11.3682 15.0586C11.4033 15.1406 11.415 15.1875 11.4033 15.1992C11.3916 15.2109 11.3857 15.2285 11.3857 15.252C11.4209 15.3223 11.4326 15.3691 11.4209 15.3926C11.4209 15.4043 11.4209 15.4219 11.4209 15.4453C11.4561 15.5273 11.4678 15.5801 11.4561 15.6035C11.4561 15.6152 11.4561 15.6328 11.4561 15.6562C11.4912 15.7617 11.5029 15.8203 11.4912 15.832C11.4795 15.8438 11.4795 15.873 11.4912 15.9199C11.5029 15.9434 11.5146 15.9785 11.5264 16.0254C11.5381 16.0605 11.5498 16.0898 11.5615 16.1133C11.5146 16.2305 11.5029 16.3008 11.5264 16.3242C11.5615 16.3477 11.5615 16.3887 11.5264 16.4473C11.5732 16.5879 11.6025 16.6875 11.6143 16.7461C11.6377 16.8047 11.667 16.8516 11.7021 16.8867C11.7139 16.9805 11.7373 17.0508 11.7725 17.0977C11.8076 17.1445 11.8311 17.2148 11.8428 17.3086C11.9131 17.4727 11.9658 17.5898 12.001 17.6602C12.0479 17.7305 12.0596 17.8008 12.0361 17.8711C12.0713 18 12.0771 18.0645 12.0537 18.0645C12.042 18.0527 12.0361 18.0586 12.0361 18.082C12.1064 18.2109 12.1533 18.293 12.1768 18.3281C12.2002 18.3516 12.2178 18.3926 12.2295 18.4512C12.2529 18.498 12.2588 18.5449 12.2471 18.5918C12.2471 18.6387 12.2705 18.6738 12.3174 18.6973C12.3525 18.8379 12.3701 18.9258 12.3701 18.9609C12.3818 18.9961 12.3994 19.0254 12.4229 19.0488C12.3994 19.166 12.3936 19.2246 12.4053 19.2246C12.4287 19.2246 12.4463 19.2363 12.458 19.2598C12.5283 19.4121 12.5752 19.5117 12.5986 19.5586C12.6455 19.6523 12.6865 19.7168 12.7217 19.752C12.7451 19.8809 12.7686 19.9688 12.792 20.0156C12.8154 20.0508 12.8447 20.0918 12.8799 20.1387C12.8916 20.1855 12.8916 20.2266 12.8799 20.2617C12.8682 20.2969 12.8857 20.3262 12.9326 20.3496C12.9443 20.4316 12.9443 20.4785 12.9326 20.4902C12.9326 20.502 12.9443 20.5195 12.9678 20.543C12.9795 20.5664 12.9912 20.6016 13.0029 20.6484C13.0146 20.6836 13.0322 20.7129 13.0557 20.7363C13.0557 20.8301 13.0615 20.8945 13.0732 20.9297C13.0967 20.9531 13.1084 20.9941 13.1084 21.0527C13.1436 21.0879 13.1729 21.1641 13.1963 21.2812C13.2197 21.3516 13.2256 21.3984 13.2139 21.4219C13.2139 21.457 13.2314 21.4805 13.2666 21.4922C13.29 21.6094 13.2959 21.6738 13.2842 21.6855C13.2842 21.6973 13.29 21.7148 13.3018 21.7383C13.3486 21.832 13.3721 21.9199 13.3721 22.002C13.4307 22.1426 13.4541 22.2363 13.4424 22.2832C13.4424 22.3301 13.4658 22.3652 13.5127 22.3887C13.5127 22.541 13.5127 22.6641 13.5127 22.7578C13.5127 22.8516 13.5127 22.9629 13.5127 23.0918C13.5127 23.1621 13.5186 23.2266 13.5303 23.2852C13.542 23.3555 13.5244 23.4082 13.4775 23.4434C13.5244 23.502 13.5361 23.5781 13.5127 23.6719C13.4658 23.8008 13.4424 23.877 13.4424 23.9004C13.4424 23.9355 13.4307 23.9531 13.4072 23.9531C13.4307 24.0469 13.4189 24.123 13.3721 24.1816C13.3252 24.2754 13.2783 24.334 13.2314 24.3574C13.208 24.3926 13.1963 24.4277 13.1963 24.4629C13.1963 24.498 13.1787 24.5273 13.1436 24.5508C13.1084 24.6562 13.0791 24.7148 13.0557 24.7266C13.0439 24.75 13.0205 24.7676 12.9854 24.7793C12.9385 24.873 12.8857 24.9551 12.8271 25.0254C12.7686 25.0957 12.7158 25.1777 12.6689 25.2715C12.5869 25.3418 12.5283 25.3887 12.4932 25.4121C12.4697 25.4355 12.4463 25.459 12.4229 25.4824C12.2822 25.623 12.1709 25.7109 12.0889 25.7461C12.0186 25.793 11.9658 25.8633 11.9307 25.957C11.8721 25.957 11.8252 25.9688 11.79 25.9922C11.7666 26.0273 11.7256 26.0508 11.667 26.0625C11.6553 26.1094 11.6377 26.1445 11.6143 26.168C11.5908 26.1914 11.5674 26.2207 11.5439 26.2559C11.4854 26.2559 11.4326 26.2676 11.3857 26.291C11.3389 26.3262 11.2979 26.3613 11.2627 26.3965C11.1338 26.4316 11.0459 26.4727 10.999 26.5195C10.9639 26.5781 10.9053 26.6074 10.8232 26.6074C10.6709 26.6543 10.5713 26.6895 10.5244 26.7129C10.4893 26.748 10.4365 26.7656 10.3662 26.7656C10.1904 26.7773 10.0615 26.7949 9.97949 26.8184C9.90918 26.8535 9.83301 26.877 9.75098 26.8887C9.65723 26.8887 9.58691 26.8887 9.54004 26.8887C9.49316 26.8887 9.45801 26.9004 9.43457 26.9238C9.3877 26.9121 9.34082 26.9121 9.29395 26.9238C9.24707 26.9355 9.19434 26.9355 9.13574 26.9238C9.04199 26.9121 8.98926 26.9121 8.97754 26.9238C8.96582 26.9355 8.9541 26.9355 8.94238 26.9238C8.74316 26.9238 8.60254 26.9062 8.52051 26.8711C8.43848 26.8359 8.35059 26.8184 8.25684 26.8184C8.15137 26.7363 8.09277 26.6836 8.08105 26.6602C8.06934 26.6484 8.04004 26.6484 7.99316 26.6602C7.85254 26.6133 7.78223 26.5781 7.78223 26.5547C7.79395 26.5312 7.78809 26.5195 7.76465 26.5195C7.6709 26.5078 7.61816 26.4844 7.60645 26.4492C7.59473 26.4258 7.57715 26.4023 7.55371 26.3789C7.44824 26.3438 7.37793 26.3203 7.34277 26.3086C7.31934 26.2969 7.30762 26.2676 7.30762 26.2207C7.22559 26.1387 7.16699 26.0918 7.13184 26.0801C7.1084 26.0801 7.1084 26.0684 7.13184 26.0449C6.96777 25.9863 6.86816 25.9219 6.83301 25.8516C6.79785 25.7812 6.74512 25.7344 6.6748 25.7109C6.62793 25.5703 6.58691 25.5 6.55176 25.5C6.5166 25.3945 6.48145 25.3184 6.44629 25.2715C6.42285 25.2246 6.39355 25.1719 6.3584 25.1133C6.34668 25.0078 6.3291 24.9434 6.30566 24.9199C6.28223 24.8965 6.27051 24.8555 6.27051 24.7969C6.21191 24.6914 6.18262 24.6211 6.18262 24.5859C6.18262 24.5508 6.1709 24.5273 6.14746 24.5156C6.15918 24.375 6.15918 24.293 6.14746 24.2695C6.14746 24.2461 6.1416 24.2227 6.12988 24.1992C6.15332 24.1289 6.15918 24.0586 6.14746 23.9883C6.13574 23.918 6.12988 23.8418 6.12988 23.7598C6.12988 23.6309 6.12988 23.5078 6.12988 23.3906C6.1416 23.2852 6.18848 23.2031 6.27051 23.1445C6.28223 22.9805 6.2998 22.875 6.32324 22.8281C6.3584 22.7812 6.38184 22.7227 6.39355 22.6523C6.45215 22.582 6.49316 22.5352 6.5166 22.5117C6.55176 22.5 6.5752 22.4824 6.58691 22.459C6.62207 22.377 6.65723 22.3184 6.69238 22.2832C6.71582 22.2363 6.74512 22.1953 6.78027 22.1602C6.81543 22.1367 6.85059 22.0957 6.88574 22.0371C6.96777 21.9316 7.02051 21.873 7.04395 21.8613C7.10254 21.7324 7.14355 21.6621 7.16699 21.6504C7.19043 21.6504 7.21387 21.6387 7.2373 21.6152C7.35449 21.4746 7.45996 21.375 7.55371 21.3164C7.65918 21.2578 7.75879 21.1934 7.85254 21.123C7.89941 21.0762 7.94629 21.0352 7.99316 21C8.04004 20.9648 8.09277 20.9355 8.15137 20.9121C8.1748 20.8652 8.20996 20.8418 8.25684 20.8418C8.30371 20.8301 8.33887 20.8008 8.3623 20.7539C8.45605 20.7422 8.53223 20.7129 8.59082 20.666C8.66113 20.6191 8.75488 20.5898 8.87207 20.5781C8.96582 20.5664 9.04199 20.5547 9.10059 20.543C9.15918 20.5312 9.21191 20.5195 9.25879 20.5078C9.34082 20.5664 9.43457 20.584 9.54004 20.5605C9.68066 20.5957 9.77441 20.6426 9.82129 20.7012C9.86816 20.748 9.93848 20.7773 10.0322 20.7891C10.126 20.8945 10.1846 20.9473 10.208 20.9473C10.3018 21.041 10.3428 21.0879 10.3311 21.0879C10.3311 21.0996 10.3369 21.1172 10.3486 21.1406C10.4541 21.2461 10.5127 21.3223 10.5244 21.3691C10.5479 21.4277 10.583 21.4688 10.6299 21.4922C10.6416 21.5742 10.6475 21.6387 10.6475 21.6855C10.6475 21.7441 10.6592 21.8027 10.6826 21.8613C10.6357 22.0137 10.5947 22.0898 10.5596 22.0898C10.5361 22.1016 10.5244 22.1309 10.5244 22.1777C10.4658 22.1777 10.4189 22.1836 10.3838 22.1953C10.3486 22.2188 10.2959 22.2363 10.2256 22.248C10.085 22.3652 9.97949 22.4355 9.90918 22.459C9.83887 22.4941 9.77441 22.5293 9.71582 22.5645C9.61035 22.4824 9.55762 22.4297 9.55762 22.4062C9.55762 22.3828 9.5459 22.3594 9.52246 22.3359L9.36426 22.1777C9.3291 22.1191 9.28223 22.0664 9.22363 22.0195C9.15332 21.9258 9.1123 21.8789 9.10059 21.8789C9.08887 21.8906 9.07715 21.8906 9.06543 21.8789C8.93652 21.8203 8.83691 21.7676 8.7666 21.7207C8.70801 21.6855 8.64355 21.6562 8.57324 21.6328C8.39746 21.6445 8.27441 21.6504 8.2041 21.6504C8.13379 21.6621 8.08691 21.6973 8.06348 21.7559C7.98145 21.7676 7.93457 21.7793 7.92285 21.791C7.91113 21.8027 7.89941 21.8203 7.8877 21.8438C7.84082 21.8555 7.80566 21.873 7.78223 21.8965C7.75879 21.9316 7.72949 21.9551 7.69434 21.9668C7.69434 22.0137 7.68848 22.043 7.67676 22.0547C7.66504 22.0781 7.66504 22.1133 7.67676 22.1602C7.59473 22.2773 7.5127 22.377 7.43066 22.459C7.41895 22.5293 7.40137 22.5703 7.37793 22.582C7.36621 22.6055 7.34863 22.623 7.3252 22.6348C7.36035 22.6816 7.36621 22.7578 7.34277 22.8633C7.34277 22.9453 7.34863 23.0098 7.36035 23.0566C7.3252 23.1738 7.31934 23.2559 7.34277 23.3027C7.34277 23.3965 7.34277 23.4727 7.34277 23.5312C7.34277 23.5898 7.35449 23.6543 7.37793 23.7246C7.36621 23.8301 7.36621 23.8828 7.37793 23.8828C7.40137 23.8945 7.41309 23.9062 7.41309 23.918C7.4248 24.0586 7.43652 24.1406 7.44824 24.1641C7.47168 24.1992 7.48926 24.2402 7.50098 24.2871C7.52441 24.3457 7.54199 24.3926 7.55371 24.4277C7.56543 24.4746 7.59473 24.5273 7.6416 24.5859C7.71191 24.6914 7.75293 24.7441 7.76465 24.7441C7.87012 24.8379 7.93457 24.9082 7.95801 24.9551C7.99316 25.002 8.02832 25.0371 8.06348 25.0605C8.16895 25.1426 8.22754 25.1836 8.23926 25.1836C8.25098 25.1953 8.25098 25.2129 8.23926 25.2363C8.37988 25.3066 8.46191 25.3594 8.48535 25.3945C8.52051 25.4297 8.57324 25.4473 8.64355 25.4473C8.66699 25.5059 8.71387 25.541 8.78418 25.5527C8.85449 25.5645 8.90723 25.5938 8.94238 25.6406C9.00098 25.6406 9.04785 25.6523 9.08301 25.6758C9.11816 25.6992 9.15918 25.7227 9.20605 25.7461C9.31152 25.7344 9.36426 25.7344 9.36426 25.7461C9.37598 25.7578 9.39355 25.7637 9.41699 25.7637C9.55762 25.7988 9.65723 25.8047 9.71582 25.7812C9.8916 25.8164 10.0439 25.834 10.1729 25.834C10.3018 25.834 10.4131 25.8164 10.5068 25.7812C10.6006 25.7695 10.6533 25.7637 10.665 25.7637C10.6768 25.7754 10.7002 25.7754 10.7354 25.7637C10.7705 25.7402 10.8174 25.7168 10.876 25.6934C10.9346 25.6699 10.9932 25.6699 11.0518 25.6934C11.0869 25.6816 11.1162 25.6641 11.1396 25.6406C11.1631 25.6289 11.1924 25.6113 11.2275 25.5879C11.3799 25.5527 11.4561 25.5352 11.4561 25.5352C11.5264 25.4414 11.5732 25.3887 11.5967 25.377C11.6201 25.377 11.6436 25.3652 11.667 25.3418C11.749 25.2832 11.79 25.2363 11.79 25.2012C11.8018 25.1777 11.8252 25.1602 11.8604 25.1484C11.8955 25.043 11.9189 24.9844 11.9307 24.9727C11.9541 24.9609 11.9775 24.9492 12.001 24.9375C12.001 24.9023 12.0068 24.8613 12.0186 24.8145C12.042 24.7793 12.0654 24.7441 12.0889 24.709C12.124 24.6621 12.1416 24.6094 12.1416 24.5508C12.1416 24.4922 12.1592 24.4453 12.1943 24.4102C12.1709 24.3633 12.165 24.3164 12.1768 24.2695C12.1885 24.2227 12.2002 24.1875 12.2119 24.1641C12.1768 24.082 12.1709 24.0293 12.1943 24.0059C12.2178 23.9941 12.2236 23.9766 12.2119 23.9531C12.2119 23.9062 12.2178 23.8594 12.2295 23.8125C12.2412 23.7773 12.2295 23.7422 12.1943 23.707C12.2178 23.5781 12.2236 23.4961 12.2119 23.4609C12.2119 23.4375 12.2236 23.4199 12.2471 23.4082C12.2002 23.2441 12.1768 23.1328 12.1768 23.0742C12.1768 23.0273 12.165 22.9922 12.1416 22.9688C12.165 22.8516 12.1592 22.793 12.124 22.793C12.1006 22.793 12.0889 22.7754 12.0889 22.7402C12.1123 22.6699 12.1064 22.6055 12.0713 22.5469C12.0361 22.4883 12.0303 22.4238 12.0537 22.3535C11.9951 22.1895 11.96 22.0957 11.9482 22.0723C11.9482 22.0488 11.9482 21.9961 11.9482 21.9141C11.8896 21.7383 11.8545 21.6211 11.8428 21.5625C11.7725 21.457 11.7314 21.3691 11.7197 21.2988C11.7197 21.2285 11.7021 21.1758 11.667 21.1406C11.667 21.0703 11.6553 21.0176 11.6318 20.9824C11.6201 20.9355 11.6084 20.8828 11.5967 20.8242C11.6201 20.7305 11.6143 20.6836 11.5791 20.6836C11.5557 20.6836 11.5322 20.6719 11.5088 20.6484C11.4854 20.5078 11.4795 20.4316 11.4912 20.4199C11.5146 20.4082 11.5322 20.3965 11.5439 20.3848C11.5205 20.2676 11.4971 20.2207 11.4736 20.2441C11.4502 20.2559 11.4268 20.25 11.4033 20.2266C11.3096 20.0859 11.2744 19.9863 11.2979 19.9277C11.2627 19.7988 11.2334 19.7168 11.21 19.6816C11.1865 19.6465 11.1807 19.5996 11.1924 19.541C11.1221 19.4238 11.0693 19.3301 11.0342 19.2598C10.999 19.1895 10.9932 19.0957 11.0166 18.9785L10.9287 18.75C10.8584 18.668 10.8174 18.6152 10.8057 18.5918C10.7939 18.5684 10.7939 18.5273 10.8057 18.4688C10.7471 18.375 10.7178 18.3223 10.7178 18.3105C10.7178 18.2871 10.7236 18.2695 10.7354 18.2578C10.7002 18.1992 10.6709 18.1348 10.6475 18.0645C10.624 17.9824 10.624 17.9062 10.6475 17.8359C10.6123 17.8125 10.5889 17.7832 10.5771 17.748C10.5654 17.7012 10.5361 17.6719 10.4893 17.6602C10.501 17.6016 10.501 17.5371 10.4893 17.4668C10.4893 17.3965 10.4658 17.3438 10.4189 17.3086C10.3838 17.1797 10.3721 17.1152 10.3838 17.1152C10.3955 17.1152 10.3955 17.1094 10.3838 17.0977C10.3252 16.9453 10.2959 16.8574 10.2959 16.834C10.3076 16.8105 10.3018 16.7871 10.2783 16.7637C10.3018 16.7285 10.3018 16.6875 10.2783 16.6406C10.2549 16.5938 10.2432 16.5527 10.2432 16.5176C10.2666 16.3887 10.2725 16.3242 10.2607 16.3242C10.249 16.3125 10.2373 16.2949 10.2256 16.2715C10.2139 16.2246 10.208 16.1719 10.208 16.1133C10.2197 16.0547 10.2197 15.9961 10.208 15.9375C10.1963 15.8438 10.1787 15.7969 10.1553 15.7969C10.1436 15.7852 10.1377 15.7676 10.1377 15.7441C10.126 15.709 10.1201 15.668 10.1201 15.6211C10.1318 15.5742 10.1377 15.5332 10.1377 15.498C10.126 15.2402 10.085 15.0176 10.0146 14.8301C10.0498 14.7129 10.0557 14.6602 10.0322 14.6719C10.0205 14.6719 10.0146 14.6602 10.0146 14.6367C10.0146 14.4961 10.0146 14.4258 10.0146 14.4258C10.0264 14.4141 10.0322 14.3965 10.0322 14.373C10.0322 14.3027 10.0205 14.2324 9.99707 14.1621C9.98535 14.0918 9.99707 14.0273 10.0322 13.9688C9.98535 13.875 9.98535 13.793 10.0322 13.7227C9.99707 13.5938 9.97363 13.5059 9.96191 13.459C9.9502 13.4121 9.96191 13.3711 9.99707 13.3359C9.97363 13.3008 9.96191 13.2656 9.96191 13.2305C9.97363 13.1836 9.97949 13.1367 9.97949 13.0898C9.96777 12.9258 9.97363 12.8027 9.99707 12.7207C10.0205 12.6387 10.0264 12.5625 10.0146 12.4922C10.0381 12.3047 10.0615 12.1582 10.085 12.0527C10.1201 11.9355 10.1553 11.8301 10.1904 11.7363C10.1553 11.6309 10.1494 11.5781 10.1729 11.5781C10.208 11.5781 10.2256 11.5664 10.2256 11.543C10.2842 11.4375 10.3193 11.3789 10.3311 11.3672C10.3545 11.3555 10.3779 11.3438 10.4014 11.332C10.3896 11.2734 10.3955 11.2324 10.4189 11.209C10.4541 11.1855 10.4717 11.1445 10.4717 11.0859C10.5303 11.0625 10.5596 11.0273 10.5596 10.9805C10.5713 10.9219 10.6064 10.8809 10.665 10.8574C10.7236 10.6934 10.7705 10.5938 10.8057 10.5586C10.8525 10.5234 10.8877 10.4766 10.9111 10.418L11.0869 10.2598C11.1689 10.2012 11.2217 10.1602 11.2451 10.1367C11.2686 10.1016 11.292 10.0664 11.3154 10.0312C11.3506 9.98438 11.3975 9.94336 11.4561 9.9082C11.5264 9.86133 11.5791 9.80859 11.6143 9.75C11.6729 9.71484 11.7139 9.69141 11.7373 9.67969C11.7607 9.65625 11.7783 9.63281 11.79 9.60938C11.8838 9.53906 11.9307 9.50977 11.9307 9.52148C11.9424 9.52148 11.9541 9.51562 11.9658 9.50391C12.001 9.48047 12.0303 9.44531 12.0537 9.39844C12.0771 9.35156 12.1064 9.31641 12.1416 9.29297C12.2471 9.23438 12.3232 9.17578 12.3701 9.11719C12.4053 9.10547 12.4404 9.09375 12.4756 9.08203C12.5107 9.07031 12.5576 9.05859 12.6162 9.04688C12.7334 9.04688 12.8037 9.05859 12.8271 9.08203C12.8506 9.09375 12.8857 9.10547 12.9326 9.11719ZM13.4248 14.918C13.4365 15.0234 13.4248 15.1113 13.3896 15.1816C13.3545 15.2402 13.3369 15.3223 13.3369 15.4277C13.2666 15.5215 13.2432 15.5742 13.2666 15.5859C13.29 15.5859 13.3018 15.5977 13.3018 15.6211C13.29 15.668 13.2725 15.709 13.249 15.7441C13.2373 15.7793 13.2314 15.8145 13.2314 15.8496C13.2549 15.9082 13.2783 15.9609 13.3018 16.0078C13.3369 16.0547 13.3486 16.1133 13.3369 16.1836C13.3604 16.2539 13.3838 16.3008 13.4072 16.3242C13.4307 16.3359 13.4424 16.3594 13.4424 16.3945C13.501 16.4297 13.542 16.4766 13.5654 16.5352C13.6006 16.582 13.6592 16.6113 13.7412 16.623C13.835 16.7168 13.8877 16.7637 13.8994 16.7637C14.04 16.7988 14.1279 16.8281 14.1631 16.8516C14.1982 16.875 14.2393 16.875 14.2861 16.8516C14.415 16.8633 14.5029 16.8926 14.5498 16.9395C14.5967 16.9863 14.6494 17.0215 14.708 17.0449C14.8955 17.0098 15.0186 16.9805 15.0771 16.957C15.1475 16.9336 15.2119 16.9453 15.2705 16.9922L15.4814 16.9746C15.5283 16.9863 15.5635 16.998 15.5869 17.0098C15.6104 17.0215 15.6455 17.0156 15.6924 16.9922C15.8213 16.9453 15.8975 16.9219 15.9209 16.9219C15.9443 16.9102 15.9678 16.8867 15.9912 16.8516C16.0498 16.8984 16.1143 16.9102 16.1846 16.8867C16.2666 16.8516 16.3428 16.8398 16.4131 16.8516C16.5771 16.8047 16.6885 16.7637 16.7471 16.7285C16.8057 16.6934 16.8818 16.6758 16.9756 16.6758C17.0107 16.6523 17.0459 16.6406 17.0811 16.6406C17.1162 16.6289 17.1514 16.6113 17.1865 16.5879C17.2803 16.5527 17.333 16.5352 17.3447 16.5352C17.3682 16.5352 17.3857 16.5293 17.3975 16.5176C17.4561 16.4941 17.5029 16.4707 17.5381 16.4473C17.5732 16.4121 17.6201 16.3887 17.6787 16.377C17.9014 16.2715 18.0713 16.1719 18.1885 16.0781C18.2588 16.0312 18.3057 15.9844 18.3291 15.9375C18.3994 15.8906 18.4404 15.8555 18.4521 15.832C18.4756 15.7969 18.5107 15.7617 18.5576 15.7266C18.6279 15.6445 18.6689 15.5977 18.6807 15.5859C18.7041 15.5742 18.7275 15.5625 18.751 15.5508C18.8447 15.4336 18.9209 15.2988 18.9795 15.1465L19.085 14.9707C19.1201 14.8301 19.1494 14.7598 19.1729 14.7598C19.1963 14.7598 19.2139 14.748 19.2256 14.7246C19.249 14.6074 19.2842 14.502 19.3311 14.4082C19.3896 14.3145 19.4072 14.2148 19.3838 14.1094C19.4189 13.9922 19.4424 13.9277 19.4541 13.916C19.4658 13.9043 19.4717 13.8867 19.4717 13.8633C19.46 13.8047 19.46 13.7461 19.4717 13.6875C19.4834 13.6289 19.4893 13.582 19.4893 13.5469C19.5244 13.4648 19.5361 13.418 19.5244 13.4062C19.5127 13.3828 19.5068 13.3652 19.5068 13.3535C19.5068 13.3184 19.5068 13.2832 19.5068 13.248C19.5186 13.2129 19.5127 13.166 19.4893 13.1074C19.4893 13.0254 19.4893 12.9727 19.4893 12.9492C19.501 12.9141 19.4951 12.873 19.4717 12.8262C19.46 12.6973 19.4482 12.5918 19.4365 12.5098C19.4365 12.416 19.4189 12.3457 19.3838 12.2988C19.4072 12.2402 19.4072 12.1875 19.3838 12.1406C19.3604 12.082 19.3604 12.041 19.3838 12.0176C19.3604 11.9355 19.3369 11.877 19.3135 11.8418C19.3018 11.8066 19.3076 11.7773 19.3311 11.7539C19.2959 11.625 19.2666 11.5488 19.2432 11.5254C19.2314 11.502 19.2197 11.4785 19.208 11.4551C19.1611 11.3262 19.1377 11.25 19.1377 11.2266C19.1494 11.1914 19.1436 11.1621 19.1201 11.1387C19.0732 11.0684 19.0498 11.0156 19.0498 10.9805C19.0498 10.9453 19.0439 10.916 19.0322 10.8926C18.9971 10.7754 18.9619 10.6992 18.9268 10.6641C18.9033 10.6289 18.8857 10.5996 18.874 10.5762C18.8506 10.4941 18.8154 10.4297 18.7686 10.3828C18.7334 10.2305 18.6982 10.1367 18.6631 10.1016C18.6279 10.0664 18.6104 10.0195 18.6104 9.96094C18.4932 9.89062 18.4287 9.83789 18.417 9.80273C18.4053 9.76758 18.3877 9.73828 18.3643 9.71484C18.3057 9.64453 18.2705 9.60938 18.2588 9.60938C18.2471 9.59766 18.2354 9.58008 18.2236 9.55664C18.1885 9.45117 18.1592 9.39844 18.1357 9.39844C18.1123 9.38672 18.1123 9.36328 18.1357 9.32812C18.0186 9.24609 17.9424 9.19922 17.9072 9.1875C17.8369 9.07031 17.79 9.01172 17.7666 9.01172C17.7432 9.01172 17.7256 9.00586 17.7139 8.99414C17.667 8.92383 17.6143 8.87109 17.5557 8.83594C17.5088 8.78906 17.4385 8.75391 17.3447 8.73047C17.2393 8.63672 17.1807 8.57227 17.1689 8.53711C17.1572 8.50195 17.1279 8.49023 17.0811 8.50195C16.9873 8.43164 16.9346 8.39062 16.9229 8.37891C16.9229 8.36719 16.9111 8.36719 16.8877 8.37891L16.6416 8.15039C16.5479 8.12695 16.4893 8.11523 16.4658 8.11523C16.4424 8.10352 16.4189 8.08594 16.3955 8.0625L16.2197 7.93945C16.0088 7.9043 15.8857 7.85742 15.8506 7.79883C15.792 7.81055 15.751 7.81055 15.7275 7.79883C15.7041 7.77539 15.6689 7.76367 15.6221 7.76367C15.4932 7.72852 15.4053 7.69922 15.3584 7.67578C15.3232 7.64062 15.2705 7.63477 15.2002 7.6582C15.0947 7.58789 15.042 7.55273 15.042 7.55273C15.042 7.54102 15.0303 7.53516 15.0068 7.53516C14.9014 7.51172 14.8311 7.50586 14.7959 7.51758C14.7725 7.5293 14.7432 7.52344 14.708 7.5C14.6729 7.47656 14.6201 7.4707 14.5498 7.48242C14.4795 7.48242 14.415 7.47656 14.3564 7.46484C14.2861 7.42969 14.2393 7.41797 14.2158 7.42969C14.1924 7.42969 14.1689 7.42969 14.1455 7.42969C14.1221 7.41797 14.0928 7.40625 14.0576 7.39453C14.0225 7.38281 13.9873 7.38867 13.9521 7.41211C13.8232 7.38867 13.7471 7.37109 13.7236 7.35938C13.7119 7.34766 13.6943 7.3418 13.6709 7.3418C13.5537 7.31836 13.4834 7.3125 13.46 7.32422C13.4365 7.33594 13.3955 7.3418 13.3369 7.3418C13.208 7.33008 13.1025 7.32422 13.0205 7.32422C12.915 7.32422 12.8564 7.32422 12.8447 7.32422C12.833 7.3125 12.8213 7.30664 12.8096 7.30664C12.7158 7.33008 12.6514 7.3418 12.6162 7.3418C12.5928 7.33008 12.5693 7.33594 12.5459 7.35938C12.4404 7.34766 12.3525 7.34766 12.2822 7.35938C12.2236 7.37109 12.1768 7.36523 12.1416 7.3418C12.083 7.37695 12.0127 7.39453 11.9307 7.39453C11.8721 7.42969 11.8252 7.44727 11.79 7.44727C11.7549 7.44727 11.749 7.4707 11.7725 7.51758C11.7139 7.50586 11.667 7.5 11.6318 7.5C11.5967 7.48828 11.5557 7.49414 11.5088 7.51758C11.3799 7.58789 11.2979 7.62891 11.2627 7.64062C11.1455 7.6875 11.0811 7.71094 11.0693 7.71094C11.0576 7.69922 11.0459 7.69336 11.0342 7.69336C10.8584 7.75195 10.7295 7.82227 10.6475 7.9043C10.5303 7.91602 10.4365 7.94531 10.3662 7.99219C10.2959 8.02734 10.208 8.05078 10.1025 8.0625C10.0322 8.12109 9.98535 8.16211 9.96191 8.18555C9.9502 8.20898 9.93262 8.23242 9.90918 8.25586C9.70996 8.33789 9.59277 8.39648 9.55762 8.43164C9.44043 8.44336 9.37012 8.47852 9.34668 8.53711C9.32324 8.5957 9.28223 8.63672 9.22363 8.66016C9.11816 8.78906 9.04199 8.88867 8.99512 8.95898C8.94824 9.0293 8.90137 9.09961 8.85449 9.16992C8.7959 9.22852 8.75488 9.26953 8.73145 9.29297C8.71973 9.30469 8.71973 9.33984 8.73145 9.39844C8.64941 9.52734 8.60254 9.60352 8.59082 9.62695C8.5791 9.63867 8.56152 9.65625 8.53809 9.67969C8.51465 9.70312 8.49121 9.73242 8.46777 9.76758C8.45605 9.80273 8.43848 9.83203 8.41504 9.85547C8.3916 9.90234 8.36816 9.94922 8.34473 9.99609C8.32129 10.0312 8.30371 10.084 8.29199 10.1543C8.25684 10.248 8.22754 10.3125 8.2041 10.3477C8.18066 10.3828 8.18652 10.4062 8.22168 10.418C8.13965 10.6055 8.08105 10.7285 8.0459 10.7871C8.02246 10.8457 7.98145 10.9043 7.92285 10.9629V11.1562C7.87598 11.2383 7.85254 11.3086 7.85254 11.3672C7.79395 11.4609 7.76465 11.5547 7.76465 11.6484C7.7998 11.7539 7.81152 11.8242 7.7998 11.8594C7.78809 11.8945 7.77637 11.9355 7.76465 11.9824C7.76465 12.0879 7.76465 12.1582 7.76465 12.1934C7.77637 12.2285 7.78809 12.2754 7.7998 12.334C7.81152 12.4043 7.81738 12.4629 7.81738 12.5098C7.8291 12.5566 7.84668 12.6094 7.87012 12.668C7.88184 12.7148 7.89941 12.7676 7.92285 12.8262C7.94629 12.873 7.98145 12.9082 8.02832 12.9316C8.05176 13.0723 8.06934 13.1484 8.08105 13.1602C8.10449 13.1719 8.12207 13.1895 8.13379 13.2129C8.15723 13.2949 8.1748 13.3418 8.18652 13.3535C8.20996 13.3652 8.22754 13.3828 8.23926 13.4062C8.33301 13.6055 8.40918 13.7402 8.46777 13.8105C8.52637 13.8691 8.58496 13.9277 8.64355 13.9863C8.76074 14.0332 8.83105 14.0625 8.85449 14.0742C8.88965 14.0742 8.91309 14.0859 8.9248 14.1094C9.04199 14.1094 9.13574 14.1328 9.20605 14.1797C9.28809 14.2266 9.37598 14.2676 9.46973 14.3027C9.49316 14.4082 9.47559 14.4844 9.41699 14.5312C9.3584 14.5664 9.31152 14.625 9.27637 14.707C9.14746 14.7539 9.07715 14.8242 9.06543 14.918C9.00684 14.9062 8.97168 14.918 8.95996 14.9531C8.94824 14.9883 8.93066 15.0234 8.90723 15.0586C8.79004 15.1172 8.69043 15.1582 8.6084 15.1816C8.53809 15.1934 8.45605 15.2109 8.3623 15.2344C8.35059 15.1758 8.30957 15.1523 8.23926 15.1641C8.18066 15.1758 8.13965 15.1934 8.11621 15.2168C8.08105 15.1934 8.03418 15.1699 7.97559 15.1465C7.91699 15.123 7.86426 15.123 7.81738 15.1465C7.74707 15.0527 7.68262 15 7.62402 14.9883C7.60059 14.9414 7.57129 14.9062 7.53613 14.8828C7.50098 14.8594 7.45996 14.8359 7.41309 14.8125C7.34277 14.7188 7.30176 14.6484 7.29004 14.6016C7.29004 14.5547 7.26074 14.5312 7.20215 14.5312L7.11426 14.3203C7.0791 14.2148 7.04395 14.1504 7.00879 14.127C6.98535 14.0918 6.96191 14.0508 6.93848 14.0039C6.91504 13.9805 6.90332 13.9453 6.90332 13.8984C6.90332 13.8516 6.89746 13.8105 6.88574 13.7754C6.83887 13.7051 6.81543 13.6582 6.81543 13.6348C6.81543 13.5996 6.80957 13.5703 6.79785 13.5469L6.74512 13.3184C6.68652 13.2129 6.65723 13.1602 6.65723 13.1602C6.66895 13.1484 6.6748 13.1309 6.6748 13.1074C6.6748 12.9199 6.65137 12.8203 6.60449 12.8086C6.60449 12.7031 6.61035 12.6504 6.62207 12.6504C6.64551 12.6504 6.66309 12.6387 6.6748 12.6152C6.65137 12.5801 6.63965 12.5273 6.63965 12.457C6.65137 12.375 6.65137 12.3223 6.63965 12.2988L6.72754 12.0879C6.77441 11.9473 6.79785 11.8418 6.79785 11.7715C6.79785 11.7012 6.80957 11.625 6.83301 11.543C6.86816 11.4023 6.89746 11.3145 6.9209 11.2793C6.94434 11.2441 6.95605 11.209 6.95605 11.1738C7.02637 10.998 7.07324 10.8809 7.09668 10.8223C7.13184 10.7637 7.15527 10.6934 7.16699 10.6113C7.2373 10.541 7.27832 10.5 7.29004 10.4883C7.30176 10.4766 7.30762 10.4648 7.30762 10.4531C7.36621 10.3242 7.39551 10.2539 7.39551 10.2422C7.43066 10.1133 7.4541 10.0488 7.46582 10.0488C7.52441 9.95508 7.55957 9.90234 7.57129 9.89062C7.58301 9.87891 7.60059 9.87305 7.62402 9.87305C7.68262 9.76758 7.71191 9.70312 7.71191 9.67969C7.71191 9.64453 7.72363 9.61523 7.74707 9.5918C7.77051 9.56836 7.79395 9.54492 7.81738 9.52148C7.84082 9.49805 7.86426 9.47461 7.8877 9.45117C7.92285 9.3457 7.95801 9.27539 7.99316 9.24023C8.0752 9.12305 8.12207 9.05273 8.13379 9.0293C8.14551 9.00586 8.16309 8.99414 8.18652 8.99414C8.2334 8.87695 8.26855 8.82422 8.29199 8.83594C8.31543 8.83594 8.33301 8.82422 8.34473 8.80078C8.41504 8.70703 8.46191 8.6543 8.48535 8.64258C8.50879 8.61914 8.53223 8.5957 8.55566 8.57227C8.66113 8.49023 8.71973 8.4375 8.73145 8.41406C8.74316 8.39062 8.7666 8.37305 8.80176 8.36133C8.89551 8.2793 8.9541 8.23242 8.97754 8.2207C9.0127 8.19727 9.04785 8.17969 9.08301 8.16797C9.1416 8.10938 9.20605 8.05664 9.27637 8.00977C9.34668 7.95117 9.41113 7.88672 9.46973 7.81641C9.61035 7.73438 9.69824 7.6875 9.7334 7.67578C9.78027 7.66406 9.83301 7.64648 9.8916 7.62305C9.91504 7.59961 9.93848 7.58203 9.96191 7.57031C9.98535 7.54687 10.0088 7.51758 10.0322 7.48242C10.1729 7.40039 10.2549 7.35352 10.2783 7.3418C10.3604 7.31836 10.4072 7.30078 10.4189 7.28906C10.4424 7.26562 10.4658 7.24805 10.4893 7.23633C10.5947 7.20117 10.6709 7.16016 10.7178 7.11328C10.7764 7.06641 10.8408 7.04297 10.9111 7.04297C10.9697 7.00781 11.0283 6.98437 11.0869 6.97266C11.1572 6.96094 11.21 6.92578 11.2451 6.86719C11.3623 6.87891 11.4209 6.87891 11.4209 6.86719C11.4209 6.84375 11.4268 6.82617 11.4385 6.81445C11.5791 6.76758 11.6494 6.75586 11.6494 6.7793C11.6494 6.79102 11.6611 6.79688 11.6846 6.79688C11.8955 6.72656 12.042 6.66211 12.124 6.60352C12.2529 6.60352 12.3232 6.59766 12.335 6.58594C12.3818 6.5625 12.4229 6.55078 12.458 6.55078C12.5049 6.55078 12.5342 6.5332 12.5459 6.49805C12.6748 6.5332 12.7334 6.54492 12.7217 6.5332C12.7217 6.50977 12.7334 6.49805 12.7568 6.49805C12.8623 6.46289 12.915 6.45117 12.915 6.46289C12.9268 6.46289 12.9443 6.45703 12.9678 6.44531C13.0264 6.39844 13.0791 6.38086 13.126 6.39258C13.1846 6.39258 13.2432 6.38086 13.3018 6.35742C13.4072 6.32227 13.4775 6.31055 13.5127 6.32227C13.5479 6.33398 13.5889 6.33984 13.6357 6.33984C13.6709 6.33984 13.7002 6.33398 13.7236 6.32227C13.7588 6.31055 13.7939 6.30469 13.8291 6.30469C13.9463 6.31641 14.0576 6.33984 14.1631 6.375C14.2686 6.39844 14.3857 6.4043 14.5146 6.39258C14.6553 6.43945 14.749 6.46289 14.7959 6.46289C14.8545 6.46289 14.9072 6.46875 14.9541 6.48047C15.0244 6.51562 15.0771 6.5332 15.1123 6.5332C15.1475 6.52148 15.1768 6.52148 15.2002 6.5332C15.2705 6.56836 15.3174 6.58594 15.3408 6.58594C15.3643 6.58594 15.3818 6.60352 15.3936 6.63867C15.4287 6.61523 15.4639 6.60938 15.499 6.62109C15.5459 6.63281 15.5869 6.64453 15.6221 6.65625C15.7275 6.66797 15.7803 6.67969 15.7803 6.69141C15.792 6.70312 15.8096 6.70898 15.833 6.70898C15.9619 6.74414 16.0674 6.76172 16.1494 6.76172C16.1963 6.80859 16.2725 6.83203 16.3779 6.83203L16.6064 6.91992C16.6299 6.93164 16.6592 6.94922 16.6943 6.97266C16.7295 6.99609 16.7646 6.99609 16.7998 6.97266C16.8232 7.01953 16.9053 7.04297 17.0459 7.04297C17.1865 7.08984 17.2803 7.14258 17.3271 7.20117C17.374 7.25977 17.4561 7.27734 17.5732 7.25391C17.5967 7.27734 17.6201 7.30664 17.6436 7.3418C17.667 7.36523 17.6846 7.40625 17.6963 7.46484C17.8135 7.46484 17.8955 7.4707 17.9424 7.48242C17.9775 7.55273 18.0068 7.59375 18.0303 7.60547C18.0537 7.61719 18.1006 7.62305 18.1709 7.62305C18.2295 7.66992 18.2881 7.72266 18.3467 7.78125C18.4053 7.82812 18.4814 7.86328 18.5752 7.88672C18.5986 7.95703 18.6396 8.01562 18.6982 8.0625C18.7568 8.09766 18.8096 8.14453 18.8564 8.20312C18.915 8.26172 18.9619 8.30273 18.9971 8.32617C19.0322 8.34961 19.0557 8.39062 19.0674 8.44922C19.126 8.47266 19.167 8.50781 19.1904 8.55469C19.2256 8.60156 19.2725 8.64258 19.3311 8.67773C19.4014 8.77148 19.4365 8.82422 19.4365 8.83594C19.4365 8.84766 19.4424 8.85938 19.4541 8.87109C19.5479 9 19.6064 9.08203 19.6299 9.11719C19.665 9.14062 19.6943 9.16992 19.7178 9.20508C19.7412 9.22852 19.7588 9.26367 19.7705 9.31055C19.7822 9.3457 19.8115 9.375 19.8584 9.39844C19.9521 9.5625 19.999 9.67969 19.999 9.75C19.999 9.80859 20.0283 9.84961 20.0869 9.87305C20.1104 9.9668 20.1338 10.0312 20.1572 10.0664C20.1924 10.1016 20.2275 10.1426 20.2627 10.1895C20.2744 10.2246 20.2803 10.2598 20.2803 10.2949C20.292 10.3184 20.3037 10.3477 20.3154 10.3828C20.3857 10.4648 20.415 10.5176 20.4033 10.541C20.4033 10.5645 20.415 10.5762 20.4385 10.5762C20.4619 10.6816 20.4736 10.7578 20.4736 10.8047C20.5088 10.8398 20.5264 10.875 20.5264 10.9102C20.5264 10.9453 20.5381 10.9746 20.5615 10.998C20.5732 11.0215 20.585 11.0684 20.5967 11.1387C20.6084 11.1973 20.6025 11.25 20.5791 11.2969C20.6025 11.3438 20.6143 11.4082 20.6143 11.4902C20.626 11.5605 20.6553 11.6191 20.7021 11.666C20.6904 11.7363 20.6846 11.7832 20.6846 11.8066C20.6846 11.8301 20.6963 11.8477 20.7197 11.8594C20.6963 11.9531 20.7021 12.0527 20.7373 12.1582C20.7842 12.2637 20.7959 12.3633 20.7725 12.457C20.8076 12.5742 20.8076 12.6328 20.7725 12.6328C20.749 12.6328 20.7373 12.6445 20.7373 12.668C20.7842 12.7734 20.8018 12.832 20.79 12.8438C20.7783 12.8555 20.7725 12.873 20.7725 12.8965C20.7725 13.0137 20.7725 13.0957 20.7725 13.1426C20.7842 13.1895 20.7607 13.2305 20.7021 13.2656C20.749 13.2891 20.7607 13.3242 20.7373 13.3711C20.7139 13.418 20.7256 13.459 20.7725 13.4941C20.7139 13.5879 20.6846 13.7109 20.6846 13.8633C20.6494 13.8984 20.626 13.9395 20.6143 13.9863C20.6025 14.0215 20.5791 14.0508 20.5439 14.0742C20.5205 14.2031 20.4971 14.2852 20.4736 14.3203C20.4619 14.3438 20.4443 14.373 20.4209 14.4082C20.3389 14.5723 20.2861 14.6895 20.2627 14.7598C20.2393 14.8184 20.1982 14.8594 20.1396 14.8828C20.0928 14.9531 20.0635 15.0059 20.0518 15.041C20.0518 15.0645 20.0225 15.0762 19.9639 15.0762C19.9639 15.1465 19.9404 15.2051 19.8936 15.252C19.8584 15.2871 19.8467 15.334 19.8584 15.3926C19.7412 15.4629 19.6826 15.5098 19.6826 15.5332C19.6826 15.5449 19.6768 15.5566 19.665 15.5684C19.583 15.627 19.5361 15.668 19.5244 15.6914C19.5127 15.7031 19.4951 15.7207 19.4717 15.7441C19.3428 15.8613 19.2197 15.9609 19.1025 16.043C19.0205 16.1133 18.9678 16.1602 18.9443 16.1836C18.8271 16.2422 18.7686 16.3066 18.7686 16.377C18.6514 16.4355 18.5869 16.4648 18.5752 16.4648C18.5752 16.4531 18.5693 16.4531 18.5576 16.4648C18.4873 16.5117 18.4346 16.5527 18.3994 16.5879C18.3525 16.5879 18.3174 16.6055 18.2939 16.6406C18.2822 16.6641 18.2471 16.6758 18.1885 16.6758C18.083 16.7695 18.0186 16.8223 17.9951 16.834C17.9717 16.834 17.96 16.8574 17.96 16.9043C17.8662 16.9746 17.7842 17.0156 17.7139 17.0273C17.6436 17.0391 17.6025 17.0742 17.5908 17.1328C17.4619 17.1445 17.3682 17.168 17.3096 17.2031C17.2627 17.2383 17.1982 17.2676 17.1162 17.291C17.0811 17.3027 17.0518 17.3262 17.0283 17.3613C17.0166 17.3848 16.9814 17.3906 16.9229 17.3789L16.5361 17.5898C16.4072 17.625 16.3428 17.6484 16.3428 17.6602C16.3428 17.6719 16.3369 17.6777 16.3252 17.6777C16.3018 17.6895 16.2666 17.6953 16.2197 17.6953C16.1846 17.6953 16.1553 17.7012 16.1318 17.7129L15.9209 17.8008C15.8271 17.8242 15.7744 17.8418 15.7627 17.8535C15.751 17.8652 15.7334 17.8652 15.71 17.8535C15.5342 17.9238 15.3994 17.9531 15.3057 17.9414C15.1182 17.9883 14.9717 18.0234 14.8662 18.0469C14.7725 18.0703 14.6729 18.0703 14.5674 18.0469C14.4033 18.0586 14.292 18.0703 14.2334 18.082C14.1865 18.082 14.1338 18.082 14.0752 18.082C13.9463 18.0352 13.8584 17.9883 13.8115 17.9414C13.6475 17.9766 13.5127 17.9414 13.4072 17.8359C13.3135 17.8242 13.2607 17.8242 13.249 17.8359C13.2373 17.8359 13.2256 17.8359 13.2139 17.8359C13.1904 17.8359 13.1611 17.8301 13.126 17.8184C13.1025 17.8066 13.0674 17.8066 13.0205 17.8184C12.9385 17.748 12.8799 17.6953 12.8447 17.6602C12.8096 17.6133 12.7568 17.5957 12.6865 17.6074C12.6279 17.5137 12.5576 17.4609 12.4756 17.4492C12.4053 17.3203 12.376 17.25 12.3877 17.2383C12.3057 17.2031 12.2412 17.1152 12.1943 16.9746C12.1709 16.9395 12.1592 16.8809 12.1592 16.7988C12.1592 16.7051 12.1416 16.6406 12.1064 16.6055C12.1299 16.4297 12.1533 16.3477 12.1768 16.3594C12.165 16.2539 12.1709 16.1953 12.1943 16.1836C12.2178 16.1719 12.2295 16.1484 12.2295 16.1133C12.2295 16.0664 12.2236 16.0312 12.2119 16.0078C12.2119 15.9844 12.2178 15.9551 12.2295 15.9199C12.2881 15.791 12.3291 15.7148 12.3525 15.6914C12.376 15.6562 12.3818 15.6094 12.3701 15.5508C12.417 15.5273 12.4463 15.498 12.458 15.4629C12.4814 15.416 12.5166 15.3809 12.5635 15.3574C12.6455 15.2637 12.6982 15.1758 12.7217 15.0938C12.7568 15 12.8271 14.9414 12.9326 14.918C12.9209 14.8594 12.9268 14.8184 12.9502 14.7949C12.9736 14.7715 12.9971 14.7363 13.0205 14.6895C13.126 14.6543 13.1846 14.625 13.1963 14.6016C13.208 14.5664 13.2373 14.5488 13.2842 14.5488L13.4951 14.3906C13.6123 14.3438 13.6709 14.3086 13.6709 14.2852C13.6709 14.25 13.6885 14.2383 13.7236 14.25V14.584C13.7002 14.6191 13.6826 14.6543 13.6709 14.6895C13.6592 14.7129 13.6416 14.7363 13.6182 14.7598L13.4248 14.918ZM22.6885 19.8398C22.7236 19.9688 22.7236 20.0918 22.6885 20.209C22.665 20.3262 22.6885 20.4375 22.7588 20.543C22.7354 20.6016 22.7354 20.6602 22.7588 20.7188C22.7822 20.7656 22.7939 20.8184 22.7939 20.877C22.8057 20.9824 22.8232 21.0527 22.8467 21.0879C22.8818 21.123 22.9111 21.1641 22.9346 21.2109C22.8877 21.293 22.8643 21.3457 22.8643 21.3691C22.876 21.3926 22.8818 21.4102 22.8818 21.4219C22.8115 21.4922 22.7588 21.5391 22.7236 21.5625C22.6064 21.668 22.5244 21.7266 22.4775 21.7383L22.3545 21.9316C22.2607 22.0371 22.208 22.084 22.1963 22.0723C22.1963 22.0605 22.1846 22.0547 22.1611 22.0547C22.1377 22.0781 22.1084 22.1074 22.0732 22.1426C22.0498 22.1777 22.0264 22.207 22.0029 22.2305C21.8389 22.2656 21.7451 22.2832 21.7217 22.2832C21.6045 22.2246 21.54 22.1719 21.5283 22.125C21.5283 22.0781 21.5166 22.0312 21.4932 21.9844C21.5283 21.8672 21.5342 21.7852 21.5107 21.7383C21.4873 21.7031 21.4873 21.6621 21.5107 21.6152C21.5225 21.5215 21.499 21.416 21.4404 21.2988C21.4639 21.2402 21.4697 21.1758 21.458 21.1055C21.4346 21.0234 21.417 20.9531 21.4053 20.8945C21.4053 20.8359 21.417 20.7891 21.4404 20.7539C21.417 20.7305 21.4053 20.6953 21.4053 20.6484C21.4053 20.5898 21.4053 20.5312 21.4053 20.4727C21.3818 20.332 21.3701 20.2441 21.3701 20.209C21.3818 20.1738 21.3877 20.1387 21.3877 20.1035C21.3877 20.0684 21.376 20.0215 21.3525 19.9629C21.3408 19.9043 21.335 19.8457 21.335 19.7871C21.3232 19.6816 21.3174 19.6113 21.3174 19.5762C21.3291 19.5293 21.3291 19.4824 21.3174 19.4355C21.3174 19.4121 21.3174 19.3828 21.3174 19.3477C21.3174 19.3125 21.3115 19.2715 21.2998 19.2246C21.2998 19.2012 21.2881 19.166 21.2646 19.1191C21.2529 19.0723 21.2471 19.0195 21.2471 18.9609C21.2471 18.8086 21.2354 18.7207 21.2119 18.6973C21.2002 18.6621 21.1943 18.627 21.1943 18.5918C21.2295 18.4863 21.2412 18.416 21.2295 18.3809C21.2178 18.3457 21.2236 18.3164 21.2471 18.293C21.2119 18.2344 21.1885 18.1523 21.1768 18.0469C21.1768 17.9414 21.1826 17.8535 21.1943 17.7832C21.1709 17.6543 21.1592 17.5723 21.1592 17.5371C21.1592 17.502 21.1592 17.4609 21.1592 17.4141C21.124 17.3203 21.1064 17.2676 21.1064 17.2559C21.1182 17.2441 21.124 17.2266 21.124 17.2031C21.0771 17.0742 21.0537 16.998 21.0537 16.9746C21.0654 16.9395 21.0713 16.9102 21.0713 16.8867C21.001 16.7109 20.9658 16.5879 20.9658 16.5176C20.9775 16.4473 20.9658 16.3828 20.9307 16.3242C20.9541 16.2656 20.9482 16.2129 20.9131 16.166C20.8896 16.1191 20.8721 16.0781 20.8604 16.043C20.8369 15.8672 20.8018 15.75 20.7549 15.6914C20.708 15.6328 20.6729 15.5625 20.6494 15.4805C20.626 15.457 20.6025 15.4336 20.5791 15.4102C20.5557 15.3867 20.5322 15.3516 20.5088 15.3047C20.3682 15.2812 20.251 15.2871 20.1572 15.3223C20.0635 15.3457 19.9756 15.3867 19.8936 15.4453C19.7998 15.5273 19.7295 15.5742 19.6826 15.5859C19.6357 15.5977 19.6006 15.627 19.5771 15.6738C19.5303 15.6504 19.4893 15.627 19.4541 15.6035C19.4189 15.5684 19.3838 15.5391 19.3486 15.5156C19.3604 15.4805 19.3721 15.4453 19.3838 15.4102C19.3955 15.3633 19.4014 15.3164 19.4014 15.2695C19.4248 15.2344 19.46 15.2051 19.5068 15.1816C19.542 15.1582 19.5654 15.1172 19.5771 15.0586C19.6475 15.0234 19.6885 14.9941 19.7002 14.9707C19.7002 14.9473 19.7119 14.9238 19.7354 14.9004C19.8174 14.8066 19.876 14.7598 19.9111 14.7598C19.9814 14.6895 20.0225 14.6426 20.0342 14.6191C20.0576 14.5957 20.0811 14.5898 20.1045 14.6016C20.2451 14.4727 20.3564 14.3848 20.4385 14.3379C20.5322 14.291 20.626 14.2559 20.7197 14.2324C20.7549 14.2324 20.79 14.2324 20.8252 14.2324C20.8721 14.2207 20.9072 14.2266 20.9307 14.25C21.0713 14.25 21.1475 14.2617 21.1592 14.2852C21.1826 14.2969 21.2178 14.291 21.2646 14.2676C21.2998 14.3145 21.3584 14.3496 21.4404 14.373C21.4639 14.4199 21.4814 14.4609 21.4932 14.4961C21.5049 14.5312 21.5225 14.5664 21.5459 14.6016C21.5693 14.6484 21.5986 14.6836 21.6338 14.707C21.6689 14.7188 21.6982 14.7422 21.7217 14.7773C21.792 14.8711 21.8271 14.9414 21.8271 14.9883C21.874 15.1172 21.874 15.1816 21.8271 15.1816C21.8506 15.2168 21.874 15.252 21.8975 15.2871C21.9326 15.3223 21.9502 15.375 21.9502 15.4453C21.9854 15.5742 22.0146 15.6855 22.0381 15.7793C22.0615 15.873 22.0908 15.9492 22.126 16.0078C22.1611 16.1484 22.1904 16.2305 22.2139 16.2539L22.3545 16.0781C22.3779 16.043 22.3896 16.0078 22.3896 15.9727C22.4014 15.9258 22.4189 15.8906 22.4424 15.8672C22.4658 15.8438 22.4893 15.8203 22.5127 15.7969C22.5479 15.7734 22.5771 15.75 22.6006 15.7266C22.6709 15.6094 22.7061 15.5391 22.7061 15.5156C22.7061 15.4922 22.7236 15.4746 22.7588 15.4629C22.7705 15.4043 22.7881 15.3633 22.8115 15.3398C22.835 15.3164 22.8584 15.2871 22.8818 15.252C22.9521 15.1699 22.999 15.0703 23.0225 14.9531C23.0459 14.9297 23.0635 14.9004 23.0752 14.8652C23.0986 14.8301 23.1221 14.8008 23.1455 14.7773C23.1689 14.7422 23.1924 14.7129 23.2158 14.6895C23.2393 14.6543 23.2627 14.6191 23.2861 14.584C23.3682 14.4551 23.4209 14.373 23.4443 14.3379C23.4678 14.291 23.4854 14.2383 23.4971 14.1797C23.5439 14.1328 23.5791 14.1035 23.6025 14.0918C23.626 14.0684 23.6436 14.0391 23.6553 14.0039C23.7725 13.875 23.8486 13.7988 23.8838 13.7754C23.9307 13.7402 23.9541 13.6875 23.9541 13.6172C24.1064 13.5586 24.2061 13.4707 24.2529 13.3535C24.3467 13.248 24.417 13.1895 24.4639 13.1777C24.5225 13.1543 24.5518 13.1016 24.5518 13.0195C24.6221 13.0312 24.6689 13.0254 24.6924 13.002C24.7275 12.9668 24.7627 12.9375 24.7979 12.9141C24.8682 12.9375 24.915 12.9258 24.9385 12.8789C24.9736 12.8203 25.0146 12.7793 25.0615 12.7559C25.2373 12.709 25.3486 12.6797 25.3955 12.668C25.4541 12.6445 25.5127 12.627 25.5713 12.6152C25.6885 12.5801 25.7764 12.5508 25.835 12.5273C25.8936 12.5039 25.9463 12.4805 25.9932 12.457C26.1455 12.4453 26.2393 12.4453 26.2744 12.457C26.3096 12.457 26.3506 12.457 26.3975 12.457C26.4209 12.457 26.4561 12.457 26.5029 12.457C26.5615 12.4453 26.6025 12.4688 26.626 12.5273C26.708 12.5391 26.7666 12.5684 26.8018 12.6152C26.8486 12.6504 26.9014 12.6797 26.96 12.7031C26.9717 12.7617 27.001 12.8086 27.0479 12.8438C27.1064 12.8672 27.1299 12.9199 27.1182 13.002C27.1416 13.0254 27.1592 13.0664 27.1709 13.125C27.1826 13.1836 27.2002 13.2305 27.2236 13.2656C27.2236 13.3477 27.2119 13.4004 27.1885 13.4238C27.1768 13.4355 27.1885 13.4473 27.2236 13.459C27.2236 13.5879 27.2178 13.6523 27.2061 13.6523C27.2061 13.6406 27.2002 13.6465 27.1885 13.6699C27.1064 13.7871 27.0654 13.875 27.0654 13.9336C26.9834 13.9922 26.9365 14.0391 26.9248 14.0742C26.9014 14.1445 26.8838 14.1914 26.8721 14.2148C26.8721 14.2266 26.8604 14.2441 26.8369 14.2676C26.7432 14.373 26.6904 14.4258 26.6787 14.4258C26.5967 14.5195 26.5498 14.5723 26.5381 14.584C26.4912 14.6543 26.4619 14.6953 26.4502 14.707C26.4502 14.7188 26.4502 14.7422 26.4502 14.7773C26.415 14.8008 26.3799 14.8184 26.3447 14.8301C26.3096 14.8418 26.2979 14.877 26.3096 14.9355C26.1924 14.9473 26.1162 15.0059 26.0811 15.1113C25.9404 15.2285 25.8643 15.2988 25.8525 15.3223C25.7939 15.3223 25.7471 15.3281 25.7119 15.3398C25.6885 15.3516 25.6533 15.3574 25.6064 15.3574C25.6064 15.4395 25.583 15.498 25.5361 15.5332C25.501 15.5684 25.4717 15.6152 25.4482 15.6738C25.3545 15.7207 25.2959 15.7559 25.2725 15.7793C25.2607 15.791 25.2607 15.8086 25.2725 15.832C25.2139 15.8672 25.1436 15.8965 25.0615 15.9199C24.9795 15.9316 24.9209 15.9668 24.8857 16.0254C24.9092 15.8965 24.915 15.8086 24.9033 15.7617C24.9854 15.6797 25.0322 15.627 25.0439 15.6035C25.0557 15.5684 25.0791 15.5391 25.1143 15.5156C25.1494 15.4102 25.1729 15.3457 25.1846 15.3223C25.208 15.2871 25.2314 15.2578 25.2549 15.2344C25.2783 15.2109 25.2959 15.1875 25.3076 15.1641C25.3311 15.1406 25.3428 15.1055 25.3428 15.0586C25.4365 15 25.4893 14.9648 25.501 14.9531C25.5244 14.9297 25.5361 14.9062 25.5361 14.8828C25.6416 14.8008 25.7002 14.7598 25.7119 14.7598C25.7236 14.748 25.7236 14.7305 25.7119 14.707C25.8057 14.6133 25.8643 14.5488 25.8877 14.5137C25.9229 14.4785 25.9521 14.4434 25.9756 14.4082C25.9873 14.3262 25.9932 14.2441 25.9932 14.1621C25.9932 14.0801 25.999 14.0039 26.0107 13.9336L25.9053 13.7402C25.8115 13.7285 25.7412 13.6934 25.6943 13.6348C25.6592 13.6582 25.6123 13.6582 25.5537 13.6348C25.4951 13.5996 25.4424 13.5996 25.3955 13.6348C25.126 13.5996 24.9033 13.6523 24.7275 13.793C24.6807 13.8281 24.6396 13.8574 24.6045 13.8809C24.5693 13.8926 24.5459 13.9277 24.5342 13.9863C24.4404 13.9863 24.3643 14.0273 24.3057 14.1094C24.2705 14.2383 24.2412 14.3145 24.2178 14.3379C24.1943 14.3613 24.1943 14.3789 24.2178 14.3906C24.0771 14.4844 24.0068 14.5488 24.0068 14.584C24.0068 14.6074 24.001 14.6367 23.9893 14.6719C23.9424 14.7656 23.9072 14.8184 23.8838 14.8301C23.8604 14.8301 23.8604 14.8418 23.8838 14.8652C23.7783 14.9355 23.7197 14.9824 23.708 15.0059C23.708 15.0293 23.6963 15.0352 23.6729 15.0234C23.6611 15.082 23.6377 15.1289 23.6025 15.1641C23.5791 15.1992 23.5557 15.2344 23.5322 15.2695C23.5439 15.3633 23.5322 15.4336 23.4971 15.4805C23.4736 15.5273 23.4561 15.5859 23.4443 15.6562C23.3271 15.8086 23.2568 15.9141 23.2334 15.9727C23.21 16.0195 23.1865 16.0781 23.1631 16.1484C23.1396 16.2188 23.1279 16.2891 23.1279 16.3594C23.1396 16.418 23.1279 16.459 23.0928 16.4824C23.0811 16.5762 23.0693 16.6348 23.0576 16.6582C23.0459 16.6816 23.0283 16.6992 23.0049 16.7109C22.9932 16.7461 22.9814 16.7871 22.9697 16.834C22.9697 16.8691 22.958 16.8926 22.9346 16.9043C22.9463 17.0215 22.958 17.1152 22.9697 17.1855C22.9932 17.2441 22.9814 17.291 22.9346 17.3262C22.9111 17.4434 22.8877 17.5371 22.8643 17.6074C22.8877 17.666 22.8994 17.7363 22.8994 17.8184C22.8643 17.8887 22.8467 17.9648 22.8467 18.0469C22.7998 18.1406 22.7822 18.2109 22.7939 18.2578C22.8057 18.293 22.8057 18.3281 22.7939 18.3633C22.7939 18.4102 22.7881 18.4512 22.7764 18.4863C22.7646 18.5215 22.7529 18.5566 22.7412 18.5918C22.7412 18.6387 22.7412 18.6855 22.7412 18.7324C22.7529 18.7676 22.7529 18.8145 22.7412 18.873C22.7412 18.9551 22.7354 19.0371 22.7236 19.1191C22.7119 19.1895 22.7061 19.2598 22.7061 19.3301C22.6943 19.4238 22.6943 19.4824 22.7061 19.5059C22.7178 19.5176 22.7236 19.5352 22.7236 19.5586L22.6885 19.8398Z" fill="#EB78FF"/>
</svg>
