<svg width="32" height="32" viewBox="0 0 32 32" fill="none" xmlns="http://www.w3.org/2000/svg">
<rect x="1.1" y="1.1" width="29.8" height="29.8" fill="#0F0026"/>
<rect x="1.1" y="1.1" width="29.8" height="29.8" stroke="#D3A4FF" stroke-width="2.2"/>
<path d="M16.5796 21.33C16.521 21.5207 16.3376 21.616 16.0296 21.616C15.7363 21.616 15.5236 21.55 15.3916 21.418L14.6216 19.24L14.3576 18.184C14.2843 17.9347 14.1963 17.7293 14.0936 17.568C13.991 17.392 13.8956 17.2673 13.8076 17.194L12.2016 17.26C11.4243 17.2893 10.713 17.3773 10.0676 17.524C9.4223 17.6707 8.97497 17.8247 8.72563 17.986C8.6523 18.382 8.55697 18.8147 8.43963 19.284C8.3223 19.7533 8.1903 20.2593 8.04363 20.802C7.95563 21.0073 7.7283 21.11 7.36163 21.11C6.99497 21.11 6.81163 20.9927 6.81163 20.758C6.81163 20.6553 6.8263 20.5087 6.85563 20.318C6.89963 20.1127 6.95097 19.8927 7.00963 19.658C7.0683 19.4233 7.12697 19.1813 7.18563 18.932C7.25897 18.668 7.32497 18.4187 7.38363 18.184C7.36897 18.1253 7.36163 18.0667 7.36163 18.008C7.36163 17.9493 7.36163 17.8907 7.36163 17.832C7.36163 17.6853 7.38363 17.48 7.42763 17.216C7.4863 16.9373 7.54497 16.666 7.60363 16.402C7.67697 16.1233 7.73563 15.8813 7.77963 15.676C7.8383 15.456 7.86763 15.324 7.86763 15.28L8.61563 13.278C8.65963 13.058 8.74763 12.7793 8.87963 12.442C9.01163 12.09 9.15097 11.7453 9.29763 11.408C9.4443 11.056 9.58363 10.726 9.71563 10.418C9.8623 10.11 9.95763 9.87533 10.0016 9.714C10.1043 9.362 10.3683 9.186 10.7936 9.186C11.131 9.186 11.3583 9.31067 11.4756 9.56C11.461 9.53067 11.505 9.59667 11.6076 9.758C11.7103 9.91933 11.835 10.1393 11.9816 10.418C12.143 10.682 12.3116 10.9753 12.4876 11.298C12.6783 11.606 12.8543 11.914 13.0156 12.222C13.177 12.5153 13.309 12.772 13.4116 12.992C13.529 13.212 13.5876 13.3513 13.5876 13.41C13.6316 13.4833 13.705 13.63 13.8076 13.85C13.925 14.07 14.0423 14.312 14.1596 14.576C14.2916 14.8253 14.409 15.0673 14.5116 15.302C14.629 15.522 14.717 15.6613 14.7756 15.72C14.9223 15.9107 15.0616 16.1673 15.1936 16.49C15.3256 16.8127 15.4356 17.1353 15.5236 17.458C15.6263 17.7807 15.7143 18.0813 15.7876 18.36C15.8756 18.624 15.949 18.8 16.0076 18.888C16.0076 18.9907 16.037 19.1447 16.0956 19.35C16.169 19.5553 16.2423 19.7753 16.3156 20.01C16.4036 20.23 16.477 20.4427 16.5356 20.648C16.5943 20.8387 16.6236 20.978 16.6236 21.066C16.6236 21.1247 16.609 21.2127 16.5796 21.33ZM13.2136 15.896L12.7296 14.466C12.583 14.0407 12.385 13.6813 12.1356 13.388C12.0036 13.0947 11.835 12.7573 11.6296 12.376C11.439 11.9947 11.2116 11.5767 10.9476 11.122C10.5663 11.7233 10.2143 12.64 9.89163 13.872C9.5543 14.5613 9.27563 15.3973 9.05563 16.38C9.08497 16.38 9.16563 16.3653 9.29763 16.336C9.4443 16.3067 9.5983 16.2773 9.75963 16.248C9.92097 16.2187 10.075 16.1893 10.2216 16.16C10.383 16.1307 10.5003 16.116 10.5736 16.116C10.6763 16.116 10.7863 16.1307 10.9036 16.16C11.0356 16.1307 11.197 16.1087 11.3876 16.094C11.5783 16.0793 11.7763 16.0647 11.9816 16.05C12.2016 16.0353 12.4143 16.0207 12.6196 16.006C12.8396 15.9767 13.0376 15.94 13.2136 15.896ZM25.7786 20.12C25.3092 20.5893 24.7592 20.9927 24.1286 21.33C23.4979 21.6673 22.8526 21.836 22.1926 21.836C21.9139 21.836 21.2759 21.7333 20.2786 21.528C20.0146 21.352 19.7359 21.132 19.4426 20.868C19.1492 20.604 18.8779 20.3033 18.6286 19.966C18.3939 19.614 18.1959 19.2473 18.0346 18.866C17.8879 18.47 17.8146 18.0593 17.8146 17.634V17.656C17.8292 17.524 17.8439 17.37 17.8586 17.194C17.8732 17.0327 17.8879 16.8493 17.9026 16.644C17.9172 16.424 17.9392 16.1673 17.9686 15.874C18.2619 15.4047 18.5626 14.9427 18.8706 14.488C19.1932 14.0333 19.6626 13.63 20.2786 13.278C21.2172 13.058 21.9212 12.948 22.3906 12.948C22.6106 12.948 22.8012 12.9627 22.9626 12.992C23.1386 13.0067 23.2999 13.058 23.4466 13.146C23.6079 13.2193 23.7619 13.322 23.9086 13.454C24.0699 13.586 24.2606 13.762 24.4806 13.982C24.6419 14.158 24.7666 14.29 24.8546 14.378C24.9426 14.4513 25.0086 14.51 25.0526 14.554C25.0966 14.598 25.1186 14.6347 25.1186 14.664C25.1186 14.6933 25.1186 14.7373 25.1186 14.796C25.1186 15.324 25.0599 15.7493 24.9426 16.072C24.8399 16.3947 24.6346 16.6587 24.3266 16.864C24.0332 17.0693 23.6226 17.2527 23.0946 17.414C22.5666 17.5607 21.8846 17.7293 21.0486 17.92H20.9166C20.6526 17.92 20.1832 17.9787 19.5086 18.096C20.0366 19.6507 20.8799 20.428 22.0386 20.428C22.8599 20.428 23.7912 20.01 24.8326 19.174C24.9352 19.086 25.0672 19.042 25.2286 19.042C25.6832 19.042 25.9106 19.262 25.9106 19.702C25.9106 19.8487 25.8666 19.988 25.7786 20.12ZM23.6666 15.192C23.2706 14.532 22.8232 14.202 22.3246 14.202C22.1046 14.202 21.8699 14.2313 21.6206 14.29C21.3712 14.3487 21.1292 14.4293 20.8946 14.532C20.6746 14.6347 20.4619 14.7593 20.2566 14.906C20.0659 15.0527 19.9046 15.2213 19.7726 15.412C19.7139 15.5293 19.6552 15.698 19.5966 15.918C19.5526 16.138 19.4939 16.402 19.4206 16.71C19.8166 16.6367 20.2492 16.5853 20.7186 16.556C21.2026 16.5267 21.6572 16.468 22.0826 16.38C22.5226 16.292 22.8892 16.16 23.1826 15.984C23.4759 15.808 23.6372 15.544 23.6666 15.192Z" fill="#D3A4FF"/>
<path d="M16.1796 21.33C16.1209 21.5207 15.9376 21.616 15.6296 21.616C15.3363 21.616 15.1236 21.55 14.9916 21.418L14.2216 19.24L13.9576 18.184C13.8843 17.9347 13.7963 17.7293 13.6936 17.568C13.5909 17.392 13.4956 17.2673 13.4076 17.194L11.8016 17.26C11.0243 17.2893 10.3129 17.3773 9.66761 17.524C9.02228 17.6707 8.57494 17.8247 8.32561 17.986C8.25228 18.382 8.15694 18.8147 8.03961 19.284C7.92228 19.7533 7.79028 20.2593 7.64361 20.802C7.55561 21.0073 7.32828 21.11 6.96161 21.11C6.59494 21.11 6.41161 20.9927 6.41161 20.758C6.41161 20.6553 6.42628 20.5087 6.45561 20.318C6.49961 20.1127 6.55094 19.8927 6.60961 19.658C6.66828 19.4233 6.72694 19.1813 6.78561 18.932C6.85894 18.668 6.92494 18.4187 6.98361 18.184C6.96894 18.1253 6.96161 18.0667 6.96161 18.008C6.96161 17.9493 6.96161 17.8907 6.96161 17.832C6.96161 17.6853 6.98361 17.48 7.02761 17.216C7.08628 16.9373 7.14494 16.666 7.20361 16.402C7.27694 16.1233 7.33561 15.8813 7.37961 15.676C7.43828 15.456 7.46761 15.324 7.46761 15.28L8.21561 13.278C8.25961 13.058 8.34761 12.7793 8.47961 12.442C8.61161 12.09 8.75094 11.7453 8.89761 11.408C9.04428 11.056 9.18361 10.726 9.31561 10.418C9.46228 10.11 9.55761 9.87533 9.60161 9.714C9.70428 9.362 9.96828 9.186 10.3936 9.186C10.7309 9.186 10.9583 9.31067 11.0756 9.56C11.0609 9.53067 11.1049 9.59667 11.2076 9.758C11.3103 9.91933 11.4349 10.1393 11.5816 10.418C11.7429 10.682 11.9116 10.9753 12.0876 11.298C12.2783 11.606 12.4543 11.914 12.6156 12.222C12.7769 12.5153 12.9089 12.772 13.0116 12.992C13.1289 13.212 13.1876 13.3513 13.1876 13.41C13.2316 13.4833 13.3049 13.63 13.4076 13.85C13.5249 14.07 13.6423 14.312 13.7596 14.576C13.8916 14.8253 14.0089 15.0673 14.1116 15.302C14.2289 15.522 14.3169 15.6613 14.3756 15.72C14.5223 15.9107 14.6616 16.1673 14.7936 16.49C14.9256 16.8127 15.0356 17.1353 15.1236 17.458C15.2263 17.7807 15.3143 18.0813 15.3876 18.36C15.4756 18.624 15.5489 18.8 15.6076 18.888C15.6076 18.9907 15.6369 19.1447 15.6956 19.35C15.7689 19.5553 15.8423 19.7753 15.9156 20.01C16.0036 20.23 16.0769 20.4427 16.1356 20.648C16.1943 20.8387 16.2236 20.978 16.2236 21.066C16.2236 21.1247 16.2089 21.2127 16.1796 21.33ZM12.8136 15.896L12.3296 14.466C12.1829 14.0407 11.9849 13.6813 11.7356 13.388C11.6036 13.0947 11.4349 12.7573 11.2296 12.376C11.0389 11.9947 10.8116 11.5767 10.5476 11.122C10.1663 11.7233 9.81428 12.64 9.49161 13.872C9.15428 14.5613 8.87561 15.3973 8.65561 16.38C8.68494 16.38 8.76561 16.3653 8.89761 16.336C9.04428 16.3067 9.19828 16.2773 9.35961 16.248C9.52094 16.2187 9.67494 16.1893 9.82161 16.16C9.98294 16.1307 10.1003 16.116 10.1736 16.116C10.2763 16.116 10.3863 16.1307 10.5036 16.16C10.6356 16.1307 10.7969 16.1087 10.9876 16.094C11.1783 16.0793 11.3763 16.0647 11.5816 16.05C11.8016 16.0353 12.0143 16.0207 12.2196 16.006C12.4396 15.9767 12.6376 15.94 12.8136 15.896ZM25.3785 20.12C24.9092 20.5893 24.3592 20.9927 23.7285 21.33C23.0979 21.6673 22.4525 21.836 21.7925 21.836C21.5139 21.836 20.8759 21.7333 19.8785 21.528C19.6145 21.352 19.3359 21.132 19.0425 20.868C18.7492 20.604 18.4779 20.3033 18.2285 19.966C17.9939 19.614 17.7959 19.2473 17.6345 18.866C17.4879 18.47 17.4145 18.0593 17.4145 17.634V17.656C17.4292 17.524 17.4439 17.37 17.4585 17.194C17.4732 17.0327 17.4879 16.8493 17.5025 16.644C17.5172 16.424 17.5392 16.1673 17.5685 15.874C17.8619 15.4047 18.1625 14.9427 18.4705 14.488C18.7932 14.0333 19.2625 13.63 19.8785 13.278C20.8172 13.058 21.5212 12.948 21.9905 12.948C22.2105 12.948 22.4012 12.9627 22.5625 12.992C22.7385 13.0067 22.8999 13.058 23.0465 13.146C23.2079 13.2193 23.3619 13.322 23.5085 13.454C23.6699 13.586 23.8605 13.762 24.0805 13.982C24.2419 14.158 24.3665 14.29 24.4545 14.378C24.5425 14.4513 24.6085 14.51 24.6525 14.554C24.6965 14.598 24.7185 14.6347 24.7185 14.664C24.7185 14.6933 24.7185 14.7373 24.7185 14.796C24.7185 15.324 24.6599 15.7493 24.5425 16.072C24.4399 16.3947 24.2345 16.6587 23.9265 16.864C23.6332 17.0693 23.2225 17.2527 22.6945 17.414C22.1665 17.5607 21.4845 17.7293 20.6485 17.92H20.5165C20.2525 17.92 19.7832 17.9787 19.1085 18.096C19.6365 19.6507 20.4799 20.428 21.6385 20.428C22.4599 20.428 23.3912 20.01 24.4325 19.174C24.5352 19.086 24.6672 19.042 24.8285 19.042C25.2832 19.042 25.5105 19.262 25.5105 19.702C25.5105 19.8487 25.4665 19.988 25.3785 20.12ZM23.2665 15.192C22.8705 14.532 22.4232 14.202 21.9245 14.202C21.7045 14.202 21.4699 14.2313 21.2205 14.29C20.9712 14.3487 20.7292 14.4293 20.4945 14.532C20.2745 14.6347 20.0619 14.7593 19.8565 14.906C19.6659 15.0527 19.5045 15.2213 19.3725 15.412C19.3139 15.5293 19.2552 15.698 19.1965 15.918C19.1525 16.138 19.0939 16.402 19.0205 16.71C19.4165 16.6367 19.8492 16.5853 20.3185 16.556C20.8025 16.5267 21.2572 16.468 21.6825 16.38C22.1225 16.292 22.4892 16.16 22.7825 15.984C23.0759 15.808 23.2372 15.544 23.2665 15.192Z" fill="#D3A4FF"/>
</svg>
