<svg width="32" height="32" viewBox="0 0 32 32" fill="none" xmlns="http://www.w3.org/2000/svg">
<rect x="1.1" y="1.1" width="29.8" height="29.8" fill="#01261F"/>
<rect x="1.1" y="1.1" width="29.8" height="29.8" stroke="#00E5BC" stroke-width="2.2"/>
<path d="M15.9419 22H13.7837V19.0781H6.19678V22H4.03857V16.0483C4.03857 15.1795 4.18799 14.3799 4.48682 13.6494C4.78564 12.9189 5.20068 12.2909 5.73193 11.7651C6.26318 11.2394 6.89128 10.8299 7.61621 10.5366C8.34115 10.2433 9.13249 10.0967 9.99023 10.0967H14.8545C15.0039 10.0967 15.145 10.1243 15.2778 10.1797C15.4106 10.235 15.5269 10.3125 15.6265 10.4121C15.7261 10.5117 15.8035 10.6279 15.8589 10.7607C15.9142 10.8936 15.9419 11.0347 15.9419 11.1841V22ZM6.19678 16.9199H13.7837V12.2549H9.99023C9.92383 12.2549 9.78271 12.266 9.56689 12.2881C9.35661 12.3047 9.11035 12.3517 8.82812 12.4292C8.55143 12.5067 8.25814 12.6257 7.94824 12.7861C7.63835 12.9466 7.35335 13.168 7.09326 13.4502C6.83317 13.7324 6.61735 14.0866 6.4458 14.5127C6.27979 14.9333 6.19678 15.4451 6.19678 16.0483V16.9199ZM27.978 20.9126C27.978 21.0675 27.9504 21.2114 27.895 21.3442C27.8397 21.4771 27.7622 21.5933 27.6626 21.6929C27.5685 21.7869 27.4551 21.8617 27.3223 21.917C27.195 21.9723 27.0566 22 26.9072 22H22.0264C21.7607 22 21.4757 21.9696 21.1714 21.9087C20.8726 21.8478 20.5765 21.751 20.2832 21.6182C19.9899 21.4798 19.7049 21.3083 19.4282 21.1035C19.1571 20.8932 18.9191 20.6414 18.7144 20.3481C18.5096 20.0493 18.3436 19.7062 18.2163 19.3188C18.0946 18.9315 18.0337 18.4943 18.0337 18.0073V13.0269H20.1919V18.0073C20.1919 18.2896 20.2389 18.5441 20.333 18.771C20.4326 18.9924 20.5654 19.1833 20.7314 19.3438C20.8975 19.5042 21.0911 19.6287 21.3125 19.7173C21.5394 19.8003 21.7829 19.8418 22.043 19.8418H25.8198V13.0269H27.978V20.9126Z" fill="#00E5BC"/>
</svg>
