<svg width="364" height="175" viewBox="0 0 364 175" fill="none" xmlns="http://www.w3.org/2000/svg">
<g filter="url(#filter0_d_17_115)">
<path fill-rule="evenodd" clip-rule="evenodd" d="M174 111C187.807 111 199 99.8071 199 86C199 72.1929 187.807 61 174 61C160.193 61 149 72.1929 149 86C149 99.8071 160.193 111 174 111ZM174 102C182.837 102 190 94.8366 190 86C190 77.1634 182.837 70 174 70C165.163 70 158 77.1634 158 86C158 94.8366 165.163 102 174 102Z" fill="#DF6243"/>
<circle cx="174" cy="86" r="12" fill="#FF740D"/>
<path fill-rule="evenodd" clip-rule="evenodd" d="M278 114C291.807 114 303 102.807 303 89C303 75.1929 291.807 64 278 64C264.193 64 253 75.1929 253 89C253 102.807 264.193 114 278 114ZM278 105C286.837 105 294 97.8366 294 89C294 80.1634 286.837 73 278 73C269.163 73 262 80.1634 262 89C262 97.8366 269.163 105 278 105Z" fill="#7693DE"/>
<circle cx="278" cy="89" r="12" fill="#FF740D"/>
<path fill-rule="evenodd" clip-rule="evenodd" d="M331 106C344.807 106 356 94.8071 356 81C356 67.1929 344.807 56 331 56C317.193 56 306 67.1929 306 81C306 94.8071 317.193 106 331 106ZM331 97C339.837 97 347 89.8366 347 81C347 72.1634 339.837 65 331 65C322.163 65 315 72.1634 315 81C315 89.8366 322.163 97 331 97Z" fill="#47A26D"/>
<circle cx="331" cy="81" r="12" fill="#FF740D"/>
<path fill-rule="evenodd" clip-rule="evenodd" d="M255.687 134.393C251.511 119.234 249 99.7519 249 78.5C249 58.8505 251.147 40.7138 254.771 26.1083L247.329 18.3799C240.555 36.6062 236.152 59.5068 235.196 84.6412C231.828 82.9513 228.025 82.0001 224 82.0001C210.193 82.0001 199 93.1929 199 107C199 120.807 210.193 132 224 132C228.797 132 233.278 130.649 237.084 128.307C237.759 133.566 238.59 138.675 239.565 143.606L255.687 134.393ZM224 123C232.837 123 240 115.837 240 107C240 98.1635 232.837 91.0001 224 91.0001C215.163 91.0001 208 98.1635 208 107C208 115.837 215.163 123 224 123Z" fill="#B259E6"/>
<circle cx="224" cy="107" r="12" fill="#FF740D"/>
<path fill-rule="evenodd" clip-rule="evenodd" d="M109.5 154C118.329 154 125.854 134.262 128.74 106.582C125.486 108.132 121.844 109 118 109C104.193 109 93 97.8072 93 84C93 70.1929 104.193 59 118 59C122.036 59 125.848 59.9562 129.222 61.6544C129.045 59.4398 128.838 57.2684 128.604 55.1456L143.948 46.1338C144.635 53.7689 145 61.7646 145 70C145 123.572 129.554 167 110.5 167C101.462 167 93.2364 157.229 87.0854 141.24L95.9204 135.813C99.5366 147.13 104.291 154 109.5 154ZM118 100C126.837 100 134 92.8366 134 84C134 75.1635 126.837 68 118 68C109.163 68 102 75.1635 102 84C102 92.8366 109.163 100 118 100Z" fill="#E4AF3C"/>
<circle cx="118" cy="84" r="12" fill="#FF740D"/>
<path fill-rule="evenodd" clip-rule="evenodd" d="M96.2071 24.5778C91.665 41.1252 89 61.269 89 83.0001C89 96.9308 90.0952 110.209 92.0779 122.306L82.3668 127.431C78.31 108.638 76 87.0118 76 64.0001C76 43.873 77.7671 24.806 80.9246 7.76709L96.2071 24.5778Z" fill="#6BD362"/>
<path fill-rule="evenodd" clip-rule="evenodd" d="M74 119.5C74 123.808 73.911 128.053 73.7382 132.219L56.8906 141.485C58.8564 130.147 60 116.58 60 102C60 62.2355 51.4934 30 41 30C30.5066 30 22 62.2355 22 102C22 124.04 24.6132 143.767 28.7296 156.974L11.7875 166.292C9.36895 152.317 8 136.395 8 119.5C8 63.9954 22.7746 19 41 19C59.2254 19 74 63.9954 74 119.5Z" fill="#50B5A8"/>
<circle cx="41" cy="107" r="15" fill="#FF740D"/>
</g>
<defs>
<filter id="filter0_d_17_115" x="0" y="0" width="366" height="179" filterUnits="userSpaceOnUse" color-interpolation-filters="sRGB">
<feFlood flood-opacity="0" result="BackgroundImageFix"/>
<feColorMatrix in="SourceAlpha" type="matrix" values="0 0 0 0 0 0 0 0 0 0 0 0 0 0 0 0 0 0 127 0" result="hardAlpha"/>
<feOffset dx="2" dy="4"/>
<feColorMatrix type="matrix" values="0 0 0 0 0 0 0 0 0 0 0 0 0 0 0 0 0 0 0.64 0"/>
<feBlend mode="normal" in2="BackgroundImageFix" result="effect1_dropShadow_17_115"/>
<feBlend mode="normal" in="SourceGraphic" in2="effect1_dropShadow_17_115" result="shape"/>
</filter>
</defs>
</svg>
