<svg width="42" height="14" viewBox="0 0 42 14" fill="none" xmlns="http://www.w3.org/2000/svg">
<g clip-path="url(#clip0_301_16)">
<path d="M2 11V3H4.41312V9.47676H8.73289V11H2Z" fill="white"/>
<path d="M9.99541 11V3H16.8028V4.49925H12.4085V6.23838H16.2218V7.74962H12.4085V9.50075H16.8028V11H9.99541Z" fill="white"/>
<path d="M18.0923 11V3H22.0844C23.7726 3 25.0139 3.33983 25.8083 4.01949C26.6028 4.69115 27 5.68666 27 7.006C27 8.31734 26.6028 9.31284 25.8083 9.9925C25.0139 10.6642 23.7726 11 22.0844 11H18.0923ZM20.5054 9.50075H21.8013C22.6951 9.50075 23.3704 9.30085 23.8272 8.90105C24.2939 8.50125 24.5273 7.86957 24.5273 7.006C24.5273 6.12644 24.2939 5.49075 23.8272 5.09895C23.3704 4.69915 22.6951 4.49925 21.8013 4.49925H20.5054V9.50075Z" fill="white"/>
<path d="M35.0526 2.09256C36.0992 1.04596 37.7961 1.04596 38.8427 2.09256C39.8893 3.13917 39.8893 4.83605 38.8427 5.88266L34.2253 10.5L30.4352 6.70992L35.0526 2.09256Z" fill="#019966"/>
<rect x="30.3149" y="4.93514" width="8.04" height="1.34" transform="rotate(45 30.3149 4.93514)" fill="#019966"/>
<path d="M30.7888 7.30394L30.7888 9.19899L28.8937 11.094L27.9462 10.1465L30.7888 7.30394Z" fill="#019966"/>
<path d="M32.6837 9.19899L32.6837 11.094L30.7886 12.9891L29.8411 12.0416L32.6837 9.19899Z" fill="#019966"/>
</g>
<defs>
<clipPath id="clip0_301_16">
<rect width="42" height="14" fill="white"/>
</clipPath>
</defs>
</svg>
