<svg width="360" height="125" viewBox="0 0 360 125" fill="none" xmlns="http://www.w3.org/2000/svg">
<path d="M49.3998 70.1449L46.219 79.2026H28.811C22.9658 79.263 21.8365 79.9272 20.2033 84.3957L17.2981 92.6684C16.1954 95.8084 15.8777 96.8953 15.9209 97.1369C16.3511 98.8277 16.5859 98.888 21.3007 98.9484H39.2847L36.1039 108.006H11.8479C3.7195 107.825 1.90016 104.987 4.50692 96.835L10.084 80.9538C12.7555 73.1641 16.739 70.3864 25.4638 70.1449H49.3998Z" fill="#128AFA"/>
<path d="M42.9129 108.006L60.3439 58.3699H71.4159L67.3021 70.0845H84.4541C93.116 70.3864 94.6373 73.5264 91.074 83.3088L82.4009 108.006H71.3289L79.1962 85.6034C81.1043 79.9876 80.804 79.2026 76.2812 79.1422H64.1212L53.9849 108.006H42.9129Z" fill="#128AFA"/>
<g clip-path="url(#clip0_202_31)">
<path fill-rule="evenodd" clip-rule="evenodd" d="M109.153 70.728C112.262 70.728 115.228 69.4607 115.777 67.8974C116.326 66.3342 114.25 65.0669 111.141 65.0669C108.032 65.0669 105.066 66.3342 104.517 67.8974C103.968 69.4607 106.044 70.728 109.153 70.728ZM102.073 74.8624L90.4337 108.006H101.698L113.337 74.8624H102.073Z" fill="#128AFA"/>
</g>
<path d="M128.426 58.3699H140.01L122.579 108.006H110.995L128.426 58.3699Z" fill="#128AFA"/>
<path d="M174.14 70.326L178.339 58.3699H189.091L171.724 108.006H143.18C134.667 107.825 132.143 104.625 134.496 97.3784L140.412 80.5311C143.489 72.8622 148.22 70.1449 158.012 70.326H174.14ZM164.089 98.9484L170.959 79.3838H158.159C152.421 79.5045 151.824 79.9272 149.788 85.543L146.586 94.6611C145.506 98.4653 146.169 98.9484 152.121 98.9484H164.089Z" fill="#128AFA"/>
<path d="M257.917 70.1449H274.237C278.44 70.2053 281.536 71.2318 283.097 73.1641C284.766 75.338 284.663 77.0891 282.5 83.4295L277.58 97.4388C275.312 104.443 269.603 108.127 261.069 108.006H243.789C235.725 107.825 233.328 104.443 235.851 96.7142L240.537 83.3692C243.994 73.7076 248.616 70.2053 257.917 70.1449ZM267.547 94.2988L271.004 84.4561C272.468 80.6518 271.505 79.3838 266.96 79.2026H259.216C254.331 79.263 252.925 80.1688 251.356 84.4561L247.941 94.178C246.862 98.1634 247.397 98.8277 251.578 98.9484H260.41C264.72 99.0692 265.977 98.2238 267.547 94.2988Z" fill="white"/>
<path d="M315.846 70.1449L312.665 79.2026H307.161C302.618 79.3838 301.766 80.1688 299.943 85.543L292.054 108.006H280.534L289.335 82.9465C292.409 73.8284 296.433 70.2053 303.622 70.1449H315.846Z" fill="white"/>
<path d="M321.135 70.1449H346.223C356.123 70.3864 358.049 73.6472 354.146 83.8522L345.663 108.006H334.655L342.268 86.328C344.409 79.8668 343.981 79.263 337.219 79.2026H329.219L319.103 108.006H307.839L321.135 70.1449Z" fill="white"/>
<path fill-rule="evenodd" clip-rule="evenodd" d="M190.705 108.006H191.061L191.516 106.711L190.705 108.006ZM199.849 93.3931H216.992C226.23 93.3327 232.153 89.77 234.719 82.6446L238.896 70.7488C241.843 61.993 238.955 58.1888 229.398 58.4303H221.726L215.794 67.9107H220.821C226.24 67.9711 227.651 69.4203 226.273 73.5265L224.322 79.0819C222.922 82.8861 221.537 83.7315 216.78 83.7919H205.857L199.849 93.3931ZM204.665 58.4303H197.014L179.605 108.006H179.732L204.665 58.4303Z" fill="white"/>
<path fill-rule="evenodd" clip-rule="evenodd" d="M191.218 53.9289C174.038 43.6556 163.999 31.7925 167.081 23.545C171.396 12 199.786 11.9118 230.493 23.3482C261.2 34.7846 282.596 53.4147 278.281 64.9598C278.224 65.1131 278.163 65.2644 278.097 65.4137H271.987C272.566 64.7134 273.016 63.9471 273.327 63.1147C277.235 52.6567 257.729 35.734 229.758 25.3167C201.787 14.8994 175.944 14.9323 172.036 25.3903C169.148 33.1177 179.044 44.3747 195.693 53.9289H191.218Z" fill="white"/>
<path d="M175.35 125C175.35 125 190.04 93.6033 211.783 56.0446C215.104 50.3076 218.219 45.0155 221.114 40.1664C170.635 18.459 149.2 7.04225 149.2 7.04225C149.2 7.04225 184.246 19.3782 223.377 36.3911C238.041 12.0277 246.453 0 246.453 0C246.453 0 240.11 13.2268 226.831 37.8992C265.346 54.774 291.7 68.0751 291.7 68.0751C291.7 68.0751 275.568 63.472 224.763 41.7314C221.904 47.0111 218.754 52.7653 215.308 58.9789C194.154 97.1244 175.35 125 175.35 125Z" fill="#128AFA"/>
<defs>
<clipPath id="clip0_202_31">
<rect width="22" height="53" fill="white" transform="matrix(1 0 -0.331338 0.943512 102.683 58)"/>
</clipPath>
</defs>
</svg>
