<svg width="256" height="256" viewBox="0 0 256 256" fill="none" xmlns="http://www.w3.org/2000/svg">
<g clip-path="url(#clip0_1074_3)">
<rect width="256" height="256" fill="white"/>
<rect width="256" height="256" fill="black"/>
<rect x="92.48" y="116.3" width="109.904" height="109.904" rx="2" transform="rotate(-16.6398 92.48 116.3)" fill="white"/>
<g clip-path="url(#clip1_1074_3)">
<path d="M191.93 161.153C188.121 148.802 196.573 139.787 196.958 139.363C188.684 132.662 179.369 134.189 176.136 135.006C168.268 136.516 162.584 143.947 158.717 145.103C154.849 146.259 147.559 143.675 141.269 145.683C132.981 148.287 126.723 155.293 124.655 164.009C120.488 181.578 133.544 201.852 145.596 211.484C151.486 216.202 158.401 221.423 164.771 219.253C170.906 217.153 172.131 212.685 179.632 210.443C187.132 208.201 190.446 211.58 196.968 209.492C203.608 207.369 206.074 200.164 208.374 192.977C211.043 184.668 210.985 177.408 210.997 177.02C210.835 177.015 196.486 175.934 191.93 161.153ZM168.72 128.464C170.91 123.302 171.49 116.853 169.15 111.309C164.273 112.979 159.234 117.853 156.923 123.04C154.846 127.656 153.826 134.343 156.248 139.735C161.88 138.521 166.529 133.626 168.72 128.464Z" fill="black"/>
</g>
</g>
<defs>
<clipPath id="clip0_1074_3">
<rect width="256" height="256" fill="white"/>
</clipPath>
<clipPath id="clip1_1074_3">
<rect width="90.1559" height="110.763" fill="white" transform="translate(103.988 121.822) rotate(-16.6398)"/>
</clipPath>
</defs>
</svg>
