<svg width="231" height="115" viewBox="0 0 231 115" fill="none" xmlns="http://www.w3.org/2000/svg">
<path d="M219.5 43.5C202.5 27.5 175.769 42 179 63C182.231 84 207 91.5 222 74.5" stroke="#500022" stroke-width="16" stroke-linecap="round" stroke-linejoin="round"/>
<path d="M215.5 39.5C198.5 23.5 171.769 38 175 59C178.231 80 203 87.5 218 70.5" stroke="#FF341C" stroke-width="16" stroke-linecap="round" stroke-linejoin="round"/>
<path d="M137 38.4999C117 30.3181 101.448 47 103 62C104.552 77 116.5 88 135 82.5C153.5 77 157 46.6818 137 38.4999ZM137 38.4999C144.5 41.4999 155.5 46 163 84.0002" stroke="#34394A" stroke-width="16" stroke-linecap="round" stroke-linejoin="round"/>
<path d="M133 34.4999C113 26.3181 97.4484 43 99.0001 58C100.552 73 112.5 84 131 78.5C149.5 73 153 42.6818 133 34.4999ZM133 34.4999C140.5 37.4999 151.5 42 159 80.0002" stroke="white" stroke-width="16" stroke-linecap="round" stroke-linejoin="round"/>
<path d="M68.0004 84.0002C73.0001 78.0005 80.0002 70.4999 82.5002 53.4999C85.0003 36.4999 66.5002 31.4999 58.5002 40.4999C50.5002 49.4999 51.5005 57.0002 51.0002 58.4999C50.4999 57.0002 51.5002 49.4999 43.5002 40.4999C35.5002 31.4999 17.0001 36.4999 19.5001 53.4999C22.0001 70.4999 29.0001 78.0004 33.9999 84.0002" stroke="#021757" stroke-width="16" stroke-linecap="round" stroke-linejoin="round"/>
<path d="M64.0004 80.0002C69.0001 74.0005 76.0002 66.4999 78.5002 49.4999C81.0003 32.4999 62.5002 27.4999 54.5002 36.4999C46.5002 45.4999 47.5005 53.0002 47.0002 54.4999C46.4999 53.0002 47.5002 45.4999 39.5002 36.4999C31.5002 27.4999 13.0001 32.4999 15.5001 49.4999C18.0001 66.4999 25.0001 74.0004 29.9999 80.0002" stroke="#4169E1" stroke-width="16" stroke-linecap="round" stroke-linejoin="round"/>
</svg>
