<svg width="136" height="160" viewBox="0 0 136 160" fill="none" xmlns="http://www.w3.org/2000/svg">
<rect x="48" width="40" height="160" rx="2" fill="white"/>
<rect x="55" y="13" width="26" height="90" fill="white" stroke="black" stroke-width="2"/>
<circle cx="68" cy="122" r="8" fill="black"/>
<rect x="56" y="35" width="24" height="2" fill="#EAEAEA"/>
<rect x="56" y="49" width="24" height="2" fill="#EAEAEA"/>
<rect x="56" y="63" width="24" height="2" fill="#EAEAEA"/>
<rect x="56" y="77" width="24" height="2" fill="#EAEAEA"/>
<rect x="56" y="91" width="24" height="2" fill="#EAEAEA"/>
<rect x="96" width="40" height="160" rx="2" fill="#FF341C"/>
<rect x="103" y="13" width="26" height="90" fill="white" stroke="black" stroke-width="2"/>
<circle cx="116" cy="122" r="8" fill="black"/>
<rect x="104" y="35" width="24" height="2" fill="#EAEAEA"/>
<rect x="104" y="49" width="24" height="2" fill="#EAEAEA"/>
<rect x="104" y="63" width="24" height="2" fill="#EAEAEA"/>
<rect x="104" y="77" width="24" height="2" fill="#EAEAEA"/>
<rect x="104" y="91" width="24" height="2" fill="#EAEAEA"/>
<rect width="40" height="160" rx="2" fill="#4169E1"/>
<rect x="7" y="13" width="26" height="90" fill="white" stroke="black" stroke-width="2"/>
<circle cx="20" cy="122" r="8" fill="black"/>
<rect x="8" y="35" width="24" height="2" fill="#EAEAEA"/>
<rect x="8" y="49" width="24" height="2" fill="#EAEAEA"/>
<rect x="8" y="63" width="24" height="2" fill="#EAEAEA"/>
<rect x="8" y="77" width="24" height="2" fill="#EAEAEA"/>
<rect x="8" y="91" width="24" height="2" fill="#EAEAEA"/>
</svg>
