<svg width="172" height="55" viewBox="0 0 172 55" fill="none" xmlns="http://www.w3.org/2000/svg">
<path d="M22.6935 0H31V55H25V32.9375L25.5228 12.375L18.1726 55H13.1349L5.47718 12.375L6 32.9375V55H0V0H8.30655L15.6845 45.3125L22.6935 0Z" fill="#41C6FF"/>
<path d="M58 25.2695C58 21.1224 58.297 18.0918 58.8909 16.1777C59.5054 14.2424 60.1915 12.8281 60.9493 11.9349C62.6083 9.9783 65.0456 9 68.2611 9C71.4767 9 73.7911 9.82943 75.2043 11.4883C76.597 13.1471 77.4572 15.6141 77.7849 18.8893C77.9078 20.293 77.9795 21.9625 78 23.8978V27.2155H71.7942V23.0046C71.7942 20.0271 71.6815 18.0812 71.4562 17.1667C70.637 15.8056 69.6539 14.9549 68.5069 14.6146C66.4997 14.6146 65.2606 15.6567 64.7896 17.7409C64.4823 19.0595 64.3287 20.8778 64.3287 23.196V40.5488C64.3287 43.824 64.5643 46.1209 65.0353 47.4395C65.5269 48.7368 66.4588 49.3854 67.831 49.3854C69.2033 49.3854 70.2069 48.9282 70.8418 48.0137C71.4767 47.0779 71.7942 44.6322 71.7942 40.6764V36.0508H78V39.1452C78 45.6743 77.1705 49.949 75.5115 51.9694C73.8525 53.9898 71.3231 55 67.9232 55C62.5571 55 59.4132 52.0226 58.4916 46.0677C58.1639 43.8772 58 41.2826 58 38.2839V25.2695Z" fill="white"/>
<path d="M81 9H86.9709V55H81V9ZM81 0H87V6H81V0Z" fill="white"/>
<path d="M96.25 14.53C96.6768 12.9289 97.5203 11.6122 98.7805 10.58C100.041 9.52666 101.575 9 103.384 9C106.596 9 108.75 10.6011 109.848 13.8032C110.62 12.3285 111.667 11.1593 112.988 10.2956C114.329 9.43186 115.864 9 117.591 9C120.01 9 121.85 9.89533 123.11 11.686C124.37 13.4766 125 16.1099 125 19.5859V55H118.75V19.3963C118.75 16.1942 117.53 14.5932 115.091 14.5932C112.327 14.5932 110.843 16.0573 110.64 18.9855V55H104.36V19.3647C104.36 16.1837 103.161 14.5932 100.762 14.5932C99.2988 14.5932 98.1809 15.0882 97.4085 16.0783C96.6362 17.0474 96.25 18.3851 96.25 20.0915V55H90V9H96.25V14.53Z" fill="#FF427A"/>
<path d="M142.483 30.1156C139.838 31.3318 138.075 32.2706 137.193 32.9321C136.312 33.5935 135.64 34.3723 135.178 35.2685C134.738 36.1433 134.517 37.5942 134.517 39.6212V42.0699C134.517 44.865 134.759 46.8387 135.241 47.9909C135.724 49.1217 136.553 49.6871 137.729 49.6871C138.904 49.6871 139.912 49.3457 140.751 48.663C141.591 47.9588 142.168 47.2014 142.483 46.3906V30.1156ZM128.598 23.4664C128.598 17.6627 129.49 13.8008 131.274 11.8805C133.058 9.96016 135.598 9 138.894 9C142.189 9 144.571 9.8108 146.04 11.4324C147.531 13.054 148.444 15.6571 148.78 19.2417C148.927 20.7779 149 22.6662 149 24.9066V55H142.514V50.4233C142.178 51.5754 141.444 52.6316 140.31 53.5918C139.177 54.5306 137.771 55 136.091 55C130.739 55 128.042 50.754 128 42.2619V39.5892C128 36.8367 128.735 34.4897 130.204 32.548C131.694 30.585 135.787 28.3553 142.483 25.8589V23.1463C142.483 19.0283 142.189 16.5532 141.601 15.7211C141.013 14.889 140.006 14.4729 138.579 14.4729C137.172 14.4729 136.228 15.1023 135.745 16.3612C135.262 17.6201 135.021 19.8924 135.021 23.1783V24.8426H128.598V23.4664Z" fill="#FF427A"/>
<path d="M48.4828 30.1156C45.8381 31.3318 44.075 32.2706 43.1934 32.9321C42.3118 33.5935 41.6402 34.3723 41.1784 35.2685C40.7376 36.1433 40.5172 37.5942 40.5172 39.6212V42.0699C40.5172 44.865 40.7586 46.8387 41.2414 47.9909C41.7241 49.1217 42.5532 49.6871 43.7286 49.6871C44.904 49.6871 45.9115 49.3457 46.7511 48.663C47.5907 47.9588 48.1679 47.2014 48.4828 46.3906V30.1156ZM34.5982 23.4664C34.5982 17.6627 35.4903 13.8008 37.2744 11.8805C39.0585 9.96016 41.5982 9 44.8936 9C48.1889 9 50.5712 9.8108 52.0405 11.4324C53.5307 13.054 54.4438 15.6571 54.7796 19.2417C54.9265 20.7779 55 22.6662 55 24.9066V55H48.5142V50.4233C48.1784 51.5754 47.4438 52.6316 46.3103 53.5918C45.1769 54.5306 43.7706 55 42.0915 55C36.7391 55 34.042 50.754 34 42.2619V39.5892C34 36.8367 34.7346 34.4897 36.2039 32.548C37.6942 30.585 41.7871 28.3553 48.4828 25.8589V23.1463C48.4828 19.0283 48.1889 16.5532 47.6012 15.7211C47.0135 14.889 46.006 14.4729 44.5787 14.4729C43.1724 14.4729 42.2279 15.1023 41.7451 16.3612C41.2624 17.6201 41.021 19.8924 41.021 23.1783V24.8426H34.5982V23.4664Z" fill="#41C6FF"/>
<path d="M172 43.4031C171.98 51.1344 168.722 55 162.228 55C158.941 55 156.475 53.9062 154.831 51.7185C153.187 49.5308 152.365 46.0156 152.365 41.173V39.5728H158.423V41.1411C158.423 46.6634 159.62 49.4246 162.015 49.4246C163.334 49.4246 164.278 48.9785 164.846 48.0865C165.435 47.1944 165.729 45.6439 165.729 43.435C165.729 39.9729 164.207 38.6808 161.163 35.5585C160.94 35.3249 160.412 34.8045 159.58 33.9974C158.748 33.1691 158.2 32.6168 157.936 32.3407C153.979 28.3901 152 25.0254 152 20.2464C152 16.4658 152.852 13.6515 154.557 11.8036C156.262 9.93455 158.687 9 161.833 9C163.963 9 165.699 9.45665 167.038 10.37C169.839 12.2815 171.239 16.795 171.239 23.9103V25.2042H165.303V22.8908C165.303 20.1084 165.039 18.0375 164.511 16.6782C164.004 15.2976 163.121 14.6073 161.863 14.6073C160.605 14.6073 159.661 15.0215 159.032 15.8498C158.403 16.6782 158.088 18.08 158.088 20.0553C158.088 23.1563 159.478 25.1511 162.259 28.0397L165.546 31.2575C169.849 35.5691 172 38.2844 172 43.4031Z" fill="#FF427A"/>
</svg>
