<svg width="312" height="128" viewBox="0 0 312 128" fill="none" xmlns="http://www.w3.org/2000/svg">
<path fill-rule="evenodd" clip-rule="evenodd" d="M240 88C240 76 240 76 252 76H240V88Z" fill="#FF7F48"/>
<path d="M216 76V112H312V88H240V76H252H312V40C312 28 300 16 288 16H192C204 16 216 28 216 40H276C288 40 288 40 288 52C269.255 52 240 52 240 52C228 52 216 64 216 76Z" fill="#FF7F48"/>
<path fill-rule="evenodd" clip-rule="evenodd" d="M84 16H180C192 16 204 28 204 40C204 40 204 76 204 88C204 100 192 112 180 112C168 112 108 112 108 112V40C108 28 96 16 84 16ZM168 40C156 40 132 40 132 40V88C132 88 156 88 168 88C180 88 180 88 180 76C180 64 180 64 180 52C180 40 180 40 168 40Z" fill="white"/>
<path d="M0 16V112H24V40H36V112H60V40C72 40 72 40 72 52V112H96V40C96 28 84 16 72 16H0Z" fill="#65ACFF"/>
</svg>
