<svg width="107" height="99" viewBox="0 0 107 99" fill="none" xmlns="http://www.w3.org/2000/svg">
<path d="M14 30L11.5 49L13 56.5L17.5 44.5V72L12.5 78.5L9.5 86.5L14.5 85.5L15 93.5L21 91L24 98L32 86L74 86.5L84.5 96L86 89.5L93.5 91.5L92 84L100.5 83L91 71.5L95 53.5L96.5 45L93.5 28.5L105.5 25L100.5 22L105.5 14.5L97.5 13L98.5 6.5L89.5 8L83 14L76 10L64 6L52 4L37.5 7L25.5 13L17 8H6.5L10.5 14L1.5 17L7.5 23.5L3 28L14 30Z" fill="#94A950"/>
<path d="M15 69.5L20 73L25 79.5L32 86L42 90L54 92L62.5 91L72.75 87L81 80L85.5 73L90.5 71L95 65L96 56.5L93 52L90.5 50.5L89.5 56.5L79 32V48.5L66.5 24V46L63.5 41.5L56 26L52.5 21.5L47 32L40.5 46.5L41 23L29.5 47L30 26L19 56L17.5 50.5L14 53.5L12 57.5L12.5 63.5L15 69.5Z" fill="#FFECB9"/>
<path fill-rule="evenodd" clip-rule="evenodd" d="M37.5367 47.5L42 50L43.5 57.5L40.5 64L35 64.5L31 60L31.5 51L37.5367 47.5ZM36.5 51.5C34.5938 51.6331 33.8162 52.8991 33.8162 56.1836C33.8162 59.4681 35.0872 61.2121 37.5367 61.2121C39.4303 61.2121 39.9783 59.8459 40.2108 57.0556C40.4338 54.3792 39.7748 51.2714 36.5 51.5Z" fill="#6A704A"/>
<path fill-rule="evenodd" clip-rule="evenodd" d="M70 48.5L74 50L76.5 55L74 63.5L67.5 64.5L63.5 58L64.5 50.5L70 48.5ZM70 51.4235C72.0642 51.5573 73.3686 53.1961 73.2014 57.009C73.0341 60.8218 71.4956 61.6245 70 61.5242C68.5044 61.4238 66.7463 60.5208 66.7797 56.5407C66.8132 52.5607 67.9358 51.2897 70 51.4235Z" fill="#6A704A"/>
<path d="M73.2014 57.009C73.3686 53.1961 72.0642 51.5573 70 51.4235C67.9358 51.2897 66.8132 52.5607 66.7797 56.5407C66.7463 60.5208 68.5044 61.4238 70 61.5242C71.4956 61.6245 73.0341 60.8218 73.2014 57.009Z" fill="#231D26"/>
<path d="M33.8162 56.1836C33.8162 52.8991 34.5938 51.6331 36.5 51.5C39.7748 51.2714 40.4338 54.3792 40.2108 57.0556C39.9783 59.8459 39.4303 61.2121 37.5367 61.2121C35.0872 61.2121 33.8162 59.4681 33.8162 56.1836Z" fill="#231D26"/>
<path d="M37.3408 50.546C37.0426 49.607 35.449 49.0041 34.6895 48.8199C34.1884 48.8199 33.0558 49.0506 32.5343 49.9732C31.8826 51.1265 33.8053 52.8736 34.6895 52.727C35.5738 52.5803 37.7137 51.7198 37.3408 50.546Z" fill="white"/>
<path d="M69.5003 50.7672C69.249 50.0133 68.0276 49.2944 67.4482 49.0292C66.6456 49.2456 65.0235 49.9338 64.9564 50.9556C64.8727 52.2329 66.7782 52.9449 67.4482 52.7774C68.1183 52.6098 69.8144 51.7094 69.5003 50.7672Z" fill="white"/>
<path d="M87.5 28.5C91 35.5 91 58.5 88 67.5C85 76.5 78 83 74 86C70 89 61.5 92 54.5 92C47.5 92 36 89 30.5 84.5C25 80 22.375 78 19 69C15.625 60 18 30 22.5 25M18 43C17.9806 47.8333 18.2 57.2 19 56C20 54.5 28.5 31 31 23C30.3333 30.8333 28.7 46.7 29.5 47.5C30.5 48.5 38 26.5 41.5 22.5C40.8333 30.1667 39.7 45.7 40.5 46.5C41.5 47.5 47 30 52.5 21C59.5 29.5 65 46.5 66 46.5C67 46.5 67 25.5 66 23C71.5 32 78.6 47.5 79 49.5C79.5 52 80.5 30 77.5 25.5C81.043 35.5 88.3032 55.6 89 56C89.6968 56.4 89.957 55.8333 90 53.5M20 73C18.1667 72.5 14.1 70 12.5 64C10.5 56.5 14 51.5 17 51M86 73C88 72.5 92.5 70.4 94.5 66C97 60.5 97 52.5 90.5 51M18 42C16.5 46.5 12.9 55.7 12.5 54.5C12 53 11.5 44 13 36C14.5 28 16.5 20 26 13C35.5 6 51 4 52.5 4C54 4 54.5 5 60 5.5C64.5091 5.90992 74.7363 8.32775 81.5 13.5C90 20 94 27 95.5 37.5C97 48 96 53.9165 94.5 53M14 30C10.3333 29.5 2.9 28.4 2.5 28C2 27.5 8 24 7.5 23C7 22 1 17.5 1.5 17C2 16.5 9 15.5 10 14.5C11 13.5 6 9 6.5 8C6.87302 7.25397 14 7.5 16.5 8C19 8.5 22.5 10 25 13M93.5 28.5C95 28.5 105 26 105.5 25C106 24 101 22.5 100.5 22C100 21.5 106.5 15.5 105.5 14.5C104.5 13.5 98 14 97.5 12.5C97 11 99 7.5 98.5 6.5C98 5.5 95.5 7 92 7.5C88.5 8 85.5 11 83 14M17.5 72C13 76 8.7 85.7 9.5 86.5C10.5 87.5 13.5 85 14.5 85.5C15.5 86 14 92.5 15 93.5C16 94.5 19.5 91 21 91C22.5 91 23 99 24.5 98C25.7 97.2 30 89.6667 32 86M90.5 71.5C93.5 73 102 82.7 100 83.5C97.5 84.5 93.5 83 92.5 83.5C91.5 84 94 91 93.5 91.5C93 92 87 88.5 86 89.5C85 90.5 86 96.5 84.5 96C83 95.5 76 88.5 74.5 86.5" stroke="#231D26" stroke-width="1.6" stroke-linecap="round" stroke-linejoin="round"/>
<path d="M22 1.5C22 1.5 26.5 8 27 11.5C22 10.5 18 6.5 16 4.5M80 12C80.5 9.5 83.3333 3.5 85 1.5M80.5 12.5C83.5 11.5 89 9.5 93 4.5" stroke="#231D26" stroke-width="1.2" stroke-linecap="round" stroke-linejoin="round"/>
<path d="M22 41C22.8333 40 25.3 37.8 28.5 37C32.5 36 33.5 36 35 36C36.5 36 42 36.5 44 37.5M84.5 40.5C83.3333 39.8333 80.4 38.2 78 37C75 35.5 72.5 35.5 69.5 35.5C67.1 35.5 64.5 35.5 62 37M45.5 82.5H61.5M81.5 63.5C82 61.5 81.8 55.9 81 53.5C80 50.5 78 48.5 76 47C74 45.5 68.5 43.5 64.5 47M26.5 62.5C25 61 25.4393 54.9749 26.5 52.5C28 49 30.5 47 32.5 46C34.5 45 40 45 41.5 46.5M41.5 62.5C43.5 59.5 44.5 54 42 50C39.5 46 33 48 31.5 51.5C30 55 31 61 33 63C35 65 39.5 65.5 41.5 62.5ZM74 50C71.5 48 66.1259 47.7482 64.5 51C62.8741 54.2518 64 60.5 66 63C68 65.5 72 64.5 73 64C74 63.5 74.8333 62.5 76 59C77.1667 55.5 76.5 52 74 50Z" stroke="#231D26" stroke-width="1.6" stroke-linecap="round" stroke-linejoin="round"/>
</svg>
