<svg width="80" height="40" viewBox="0 0 80 40" fill="none" xmlns="http://www.w3.org/2000/svg">
<g clip-path="url(#clip0_758_2233)">
<path fill-rule="evenodd" clip-rule="evenodd" d="M0.5 19.95C0.5 15.165 0.830209 12.1999 1.12201 10.168C1.41382 8.13617 2.72916 6.52858 4.10685 5.7093C5.48454 4.89003 7.83362 4.53668 10.8689 4.27337C13.9043 4.01006 19.7414 4 23.75 4C27.7586 4 33.5957 4.01006 36.6311 4.27337C39.6664 4.53668 42.0155 4.89003 43.3932 5.7093C44.7708 6.52858 46.0862 8.13617 46.378 10.168C46.6698 12.1999 47 15.165 47 19.95C47 24.735 46.6698 27.7001 46.378 29.732C46.0862 31.7638 44.7708 33.3714 43.3932 34.1907C42.0155 35.01 39.6664 35.3633 36.6311 35.6266C33.5957 35.8899 27.7586 35.9 23.75 35.9C19.7414 35.9 13.9043 35.8899 10.8689 35.6266C7.83362 35.3633 5.48454 35.01 4.10685 34.1907C2.72916 33.3714 1.41382 31.7638 1.12201 29.732C0.830209 27.7001 0.5 24.735 0.5 19.95Z" fill="url(#paint0_linear_758_2233)"/>
<path opacity="0.64" fill-rule="evenodd" clip-rule="evenodd" d="M1.70001 19.95C1.70001 15.2272 2.02539 12.3192 2.30984 10.3386C2.54319 8.71376 3.61005 7.40089 4.72021 6.74071C5.23526 6.43442 6.01026 6.17388 7.09754 5.96036C8.17201 5.74935 9.46684 5.59951 10.9727 5.46888C13.9432 5.21118 19.7163 5.2 23.75 5.2C27.7837 5.2 33.5568 5.21118 36.5274 5.46888C38.0332 5.59951 39.328 5.74935 40.4025 5.96036C41.4898 6.17388 42.2648 6.43442 42.7798 6.74071C43.89 7.40089 44.9568 8.71376 45.1902 10.3386C45.4746 12.3192 45.8 15.2272 45.8 19.95C45.8 24.6728 45.4746 27.5808 45.1902 29.5614C44.9568 31.1862 43.89 32.4991 42.7798 33.1593C42.2648 33.4656 41.4898 33.7261 40.4025 33.9396C39.328 34.1506 38.0332 34.3005 36.5274 34.4311C33.5568 34.6888 27.7837 34.7 23.75 34.7C19.7163 34.7 13.9432 34.6888 10.9727 34.4311C9.46684 34.3005 8.17201 34.1506 7.09754 33.9396C6.01026 33.7261 5.23526 33.4656 4.72021 33.1593C3.61005 32.4991 2.54319 31.1862 2.30984 29.5614C2.02539 27.5808 1.70001 24.6728 1.70001 19.95Z" fill="url(#paint1_linear_758_2233)"/>
<path d="M13.3178 10.5384V13.4295H8.08047V19.0452H11.8798V21.9363H8.08047V31.2H4.97745V10.5384H13.3178ZM22.0825 15.806V31.2H19.2974V29.535C18.6919 30.201 18.1773 30.6652 17.7534 30.9275C17.2287 31.2505 16.6737 31.4119 16.0884 31.4119C15.4022 31.4119 14.8876 31.1748 14.5445 30.7005C14.3023 30.3574 14.156 29.9739 14.1055 29.5501C14.0651 29.1162 14.0449 28.5309 14.0449 27.7942V15.806H16.8301V27.1434C16.8301 27.8195 16.8604 28.2433 16.9209 28.4148C17.0117 28.7176 17.2136 28.8689 17.5264 28.8689C18.0814 28.8689 18.6717 28.4401 19.2974 27.5823V15.806H22.0825ZM32.5874 21.1189H29.8023C29.8124 20.8263 29.8174 20.6144 29.8174 20.4832C29.8174 19.7667 29.7821 19.2622 29.7115 18.9695C29.5702 18.4044 29.1716 18.1219 28.5156 18.1219C27.6175 18.1219 27.1685 18.8333 27.1685 20.2561V26.7498C27.1685 28.1727 27.6125 28.8841 28.5005 28.8841C29.1665 28.8841 29.5702 28.5713 29.7115 27.9456C29.7821 27.6227 29.8174 27.0727 29.8174 26.2957C29.8174 26.1443 29.8124 25.9072 29.8023 25.5843H32.5874C32.5975 26.0989 32.6026 26.4067 32.6026 26.5076C32.6026 27.4562 32.5319 28.1676 32.3906 28.6419C32.1081 29.5703 31.5682 30.2867 30.771 30.7913C30.1151 31.205 29.3885 31.4119 28.5913 31.4119C27.7033 31.4119 26.8859 31.1596 26.1392 30.6551C25.3521 30.1102 24.8374 29.3584 24.5952 28.3997C24.454 27.8548 24.3833 27.1181 24.3833 26.1897V20.8011C24.3833 19.1663 24.676 17.9604 25.2613 17.1834C25.6548 16.6587 26.1846 16.255 26.8506 15.9725C27.4157 15.7202 28.006 15.594 28.6216 15.594C29.5601 15.594 30.3825 15.8615 31.0889 16.3963C31.8054 16.9311 32.2645 17.6577 32.4663 18.576C32.5572 19.0099 32.6026 19.6053 32.6026 20.3621C32.6026 20.4933 32.5975 20.7456 32.5874 21.1189ZM37.5069 10.5384V21.7093L40.3677 15.806H43.1983L40.398 20.9524L43.4405 31.2H40.7007L38.7329 24.0403L37.5069 26.2806V31.2H34.7217V10.5384H37.5069Z" fill="#921515"/>
<path d="M13.3178 9.33838V12.2295H8.08047V17.8452H11.8798V20.7363H8.08047V30H4.97745V9.33838H13.3178ZM22.0825 14.606V30H19.2974V28.335C18.6919 29.001 18.1773 29.4652 17.7534 29.7275C17.2287 30.0505 16.6737 30.2119 16.0884 30.2119C15.4022 30.2119 14.8876 29.9748 14.5445 29.5005C14.3023 29.1574 14.156 28.7739 14.1055 28.3501C14.0651 27.9162 14.0449 27.3309 14.0449 26.5942V14.606H16.8301V25.9434C16.8301 26.6195 16.8604 27.0433 16.9209 27.2148C17.0117 27.5176 17.2136 27.6689 17.5264 27.6689C18.0814 27.6689 18.6717 27.2401 19.2974 26.3823V14.606H22.0825ZM32.5874 19.9189H29.8023C29.8124 19.6263 29.8174 19.4144 29.8174 19.2832C29.8174 18.5667 29.7821 18.0622 29.7115 17.7695C29.5702 17.2044 29.1716 16.9219 28.5156 16.9219C27.6175 16.9219 27.1685 17.6333 27.1685 19.0562V25.5498C27.1685 26.9727 27.6125 27.6841 28.5005 27.6841C29.1665 27.6841 29.5702 27.3713 29.7115 26.7456C29.7821 26.4227 29.8174 25.8727 29.8174 25.0957C29.8174 24.9443 29.8124 24.7072 29.8023 24.3843H32.5874C32.5975 24.8989 32.6026 25.2067 32.6026 25.3076C32.6026 26.2562 32.5319 26.9676 32.3906 27.4419C32.1081 28.3703 31.5682 29.0868 30.771 29.5913C30.1151 30.005 29.3885 30.2119 28.5913 30.2119C27.7033 30.2119 26.8859 29.9596 26.1392 29.4551C25.3521 28.9102 24.8374 28.1584 24.5952 27.1997C24.454 26.6548 24.3833 25.9181 24.3833 24.9897V19.6011C24.3833 17.9663 24.676 16.7604 25.2613 15.9834C25.6548 15.4587 26.1846 15.055 26.8506 14.7725C27.4157 14.5202 28.006 14.394 28.6216 14.394C29.5601 14.394 30.3825 14.6615 31.0889 15.1963C31.8054 15.7311 32.2645 16.4577 32.4663 17.376C32.5572 17.8099 32.6026 18.4053 32.6026 19.1621C32.6026 19.2933 32.5975 19.5456 32.5874 19.9189ZM37.5069 9.33838V20.5093L40.3677 14.606H43.1983L40.398 19.7524L43.4405 30H40.7007L38.7329 22.8403L37.5069 25.0806V30H34.7217V9.33838H37.5069Z" fill="url(#paint2_linear_758_2233)"/>
<path d="M56.471 21.6445V30H53.3679V21.6445L49.4929 9.33838H52.7322L54.927 17.4517L57.0613 9.33838H60.1946L56.471 21.6445ZM68.8455 19.6162V24.9897C68.8455 26.6346 68.5579 27.8455 67.9827 28.6226C67.6094 29.1473 67.0998 29.5509 66.4539 29.8335C65.8989 30.0858 65.3237 30.2119 64.7283 30.2119C63.8504 30.2119 63.0482 29.9596 62.3216 29.4551C61.5547 28.9102 61.0501 28.1584 60.8079 27.1997C60.6767 26.6548 60.6111 25.9181 60.6111 24.9897V19.6162C60.6111 17.9714 60.8987 16.7604 61.4739 15.9834C61.8473 15.4587 62.3569 15.055 63.0027 14.7725C63.5578 14.5202 64.133 14.394 64.7283 14.394C65.6063 14.394 66.4085 14.6463 67.1351 15.1509C67.902 15.6958 68.4066 16.4476 68.6487 17.4062C68.7799 17.9512 68.8455 18.6878 68.8455 19.6162ZM63.3963 19.0562V25.5498C63.3963 26.9727 63.8403 27.6841 64.7283 27.6841C65.6164 27.6841 66.0604 26.9727 66.0604 25.5498V19.0562C66.0604 17.6333 65.6164 16.9219 64.7283 16.9219C63.8403 16.9219 63.3963 17.6333 63.3963 19.0562ZM78.889 14.606V30H76.1039V28.335C75.4984 29.001 74.9838 29.4652 74.5599 29.7275C74.0352 30.0505 73.4802 30.2119 72.8949 30.2119C72.2087 30.2119 71.6941 29.9748 71.351 29.5005C71.1088 29.1574 70.9624 28.7739 70.912 28.3501C70.8716 27.9162 70.8514 27.3309 70.8514 26.5942V14.606H73.6366V25.9434C73.6366 26.6195 73.6669 27.0433 73.7274 27.2148C73.8182 27.5176 74.0201 27.6689 74.3329 27.6689C74.8879 27.6689 75.4782 27.2401 76.1039 26.3823V14.606H78.889Z" fill="url(#paint3_linear_758_2233)"/>
</g>
<defs>
<linearGradient id="paint0_linear_758_2233" x1="23.75" y1="4" x2="23.75" y2="35.9" gradientUnits="userSpaceOnUse">
<stop stop-color="#F94438"/>
<stop offset="0.9999" stop-color="#BC2727"/>
</linearGradient>
<linearGradient id="paint1_linear_758_2233" x1="41.8279" y1="7.22795" x2="39.2752" y2="13.4319" gradientUnits="userSpaceOnUse">
<stop stop-color="#FFE8CC"/>
<stop offset="1" stop-color="#FFC888" stop-opacity="0"/>
</linearGradient>
<linearGradient id="paint2_linear_758_2233" x1="25.0658" y1="-22.0982" x2="25.0658" y2="43.4873" gradientUnits="userSpaceOnUse">
<stop stop-color="white"/>
<stop offset="1" stop-color="#F5F5F5"/>
</linearGradient>
<linearGradient id="paint3_linear_758_2233" x1="64.1" y1="-2.5998" x2="64.1" y2="34.6244" gradientUnits="userSpaceOnUse">
<stop stop-color="#FEFEFE"/>
<stop offset="1" stop-color="#AAAAAA"/>
</linearGradient>
<clipPath id="clip0_758_2233">
<rect width="80" height="40" fill="white"/>
</clipPath>
</defs>
</svg>
