<svg width="240" height="180" viewBox="0 0 240 180" fill="none" xmlns="http://www.w3.org/2000/svg">
<rect width="240" height="180" fill="black"/>
<path d="M57 64H84V73H75V82H66V91H75V100H84V118H75V127H48V118H57V109H66V100H57V91H48V73H57V64Z" fill="white"/>
<path d="M111 37H129V46H120V64H129V82H120V136H102V91H93V73H102V46H111V37Z" fill="white"/>
<path d="M156 64H183V73H192V136H183V145H174V154H156V145H165V136H174V127H147V118H138V82H147V73H156V64ZM165 73V82H156V118H165V109H174V73H165Z" fill="white"/>
</svg>
